M48
; DRILL file {KiCad 8.0.8} date 2025-03-13T11:37:34-0400
; FORMAT={-:-/ absolute / metric / decimal}
; #@! TF.CreationDate,2025-03-13T11:37:34-04:00
; #@! TF.GenerationSoftware,Kicad,Pcbnew,8.0.8
; #@! TF.FileFunction,Plated,1,4,PTH
FMAT,2
METRIC
; #@! TA.AperFunction,Plated,PTH,ViaDrill
T1C0.300
; #@! TA.AperFunction,Plated,PTH,ViaDrill
T2C0.400
; #@! TA.AperFunction,Plated,PTH,ComponentDrill
T3C0.600
; #@! TA.AperFunction,Plated,PTH,ComponentDrill
T4C0.800
; #@! TA.AperFunction,Plated,PTH,ViaDrill
T5C1.000
; #@! TA.AperFunction,Plated,PTH,ComponentDrill
T6C1.000
%
G90
G05
T1
X119.2Y-62.9
X119.45Y-96.6
X119.6Y-74.1
X119.7Y-84.8
X126.2Y-67.4
X126.2Y-78.7
X126.5Y-90.6
X127.3Y-68.0
X127.3Y-78.9
X127.3Y-89.9
X132.6Y-78.9
X132.8Y-67.9
X132.9Y-90.6
X137.75Y-117.4
X137.9Y-103.6
X139.0Y-100.1
X141.2Y-83.7
X141.7Y-114.4
X142.2Y-100.1
X142.3Y-65.5
X144.1Y-95.7
X144.2Y-81.45
X144.35Y-86.25
X145.1Y-93.6
X145.3Y-84.8
X146.05Y-81.9
X147.8Y-82.1
X148.4Y-49.6
X148.4Y-99.0
X149.6Y-60.7
X154.3Y-66.1
X155.1Y-81.5
X155.4Y-80.6
X156.1Y-69.4
X156.8Y-80.7
X157.4Y-70.9
X157.9Y-80.7
X158.0Y-112.85
X158.66Y-81.674
X159.0Y-70.8
X159.6Y-82.3
X160.9Y-112.35
X161.1Y-81.4
X161.175Y-118.05
X161.55Y-114.7
X161.55Y-115.55
X161.55Y-116.3
X161.55Y-117.05
X161.6Y-113.8
X162.3Y-69.7
X162.8Y-81.9
X162.9Y-80.783
X164.0Y-67.4
X164.1Y-65.6
X164.3Y-115.2
X166.7Y-49.9
X166.7Y-59.4
X173.2Y-78.2
X173.2Y-79.8
X173.8Y-93.7
X175.15Y-99.8
X177.4Y-101.3
X178.2Y-85.9
X178.9Y-116.8
X179.0Y-106.65
X179.9Y-93.7
X181.2Y-86.4
X182.6Y-83.4
X182.7Y-80.9
X183.6Y-96.8
X183.7Y-86.0
X184.2Y-93.2
X186.0Y-80.1
T2
X126.2Y-102.4
X128.87Y-103.025
X134.27Y-103.125
X134.35Y-96.35
X135.25Y-95.95
X137.25Y-100.15
X137.75Y-87.85
X137.9Y-97.1
X138.25Y-86.3
X140.4Y-100.15
X140.8Y-93.55
X140.825Y-91.075
X142.4Y-71.9
X143.5Y-72.65
X143.55Y-105.75
X145.5Y-105.75
X146.5Y-72.55
X148.9Y-77.75
X149.6Y-75.0
X150.1Y-105.9
X150.8Y-81.1
X151.7Y-74.8
X153.7Y-74.75
X153.9Y-105.75
X154.35Y-72.2
X155.45Y-105.95
X155.75Y-74.7
X156.25Y-111.85
X158.5Y-62.1
X159.4Y-104.65
X159.65Y-116.0
X160.05Y-76.95
X160.6Y-105.9
X161.0Y-62.1
X161.55Y-107.725
X161.7Y-120.15
X163.05Y-105.9
X164.3Y-120.2
X165.3Y-118.95
X165.65Y-94.25
X166.95Y-120.1
X167.05Y-96.35
X167.35Y-77.05
X167.4Y-78.25
X168.05Y-95.45
X168.55Y-94.8
X168.6Y-99.2
X168.6Y-119.05
X168.8Y-82.5
X168.9Y-81.15
X169.2Y-102.35
X169.95Y-91.3
X170.0Y-89.25
X170.05Y-93.55
X170.125Y-113.125
X170.15Y-87.7
X170.875Y-109.375
X171.975Y-75.9
X172.2Y-102.55
X172.9Y-109.2
X173.05Y-114.4
X175.75Y-118.1
X176.5Y-120.1
X177.6Y-106.6
X181.3Y-106.15
X182.1Y-120.1
X184.9Y-86.95
X185.1Y-84.25
T3
X116.9Y-97.6
X116.9Y-101.2
X117.15Y-63.35
X117.15Y-66.95
X117.25Y-74.65
X117.25Y-78.25
X117.35Y-85.35
X117.35Y-88.95
T4
X123.94Y-72.25
X124.13Y-83.5
X124.38Y-60.0
X124.41Y-96.4
X131.56Y-72.25
X131.75Y-83.5
X132.0Y-60.0
X132.03Y-96.4
T5
X151.25Y-116.55
X153.65Y-116.5
X155.7Y-63.7
X164.7Y-73.4
X169.85Y-84.55
X174.1Y-105.2
X174.3Y-89.9
X174.5Y-84.926
X179.0Y-113.95
X180.2Y-99.0
X182.5Y-88.7
X184.3Y-108.1
X184.8Y-103.2
X188.9Y-102.1
X191.35Y-55.2
X191.4Y-52.75
X191.4Y-57.85
X191.45Y-60.25
T6
X134.24Y-120.6
X134.33Y-47.15
X136.78Y-120.6
X136.87Y-47.15
X139.32Y-120.6
X139.41Y-47.15
X141.86Y-120.6
X141.95Y-47.15
X144.4Y-120.6
X144.49Y-47.15
X146.94Y-120.6
X149.48Y-120.6
X152.02Y-120.6
X168.22Y-46.8
X170.76Y-46.8
X173.3Y-46.8
X175.84Y-46.8
X178.38Y-46.8
X183.165Y-47.05
X185.705Y-47.05
X188.245Y-47.05
X190.785Y-47.05
X193.325Y-47.05
X198.65Y-52.72
X198.65Y-55.26
X198.65Y-57.8
X198.65Y-60.34
X198.65Y-62.88
T3
X191.36Y-78.85G85X193.06Y-78.85
G05
X191.36Y-91.65G85X193.06Y-91.65
G05
M30
