%TF.GenerationSoftware,KiCad,Pcbnew,8.0.8*%
%TF.CreationDate,2025-03-13T11:35:54-04:00*%
%TF.ProjectId,ECE477-SeniorDesign,45434534-3737-42d5-9365-6e696f724465,rev?*%
%TF.SameCoordinates,Original*%
%TF.FileFunction,Soldermask,Bot*%
%TF.FilePolarity,Negative*%
%FSLAX46Y46*%
G04 Gerber Fmt 4.6, Leading zero omitted, Abs format (unit mm)*
G04 Created by KiCad (PCBNEW 8.0.8) date 2025-03-13 11:35:54*
%MOMM*%
%LPD*%
G01*
G04 APERTURE LIST*
G04 Aperture macros list*
%AMRoundRect*
0 Rectangle with rounded corners*
0 $1 Rounding radius*
0 $2 $3 $4 $5 $6 $7 $8 $9 X,Y pos of 4 corners*
0 Add a 4 corners polygon primitive as box body*
4,1,4,$2,$3,$4,$5,$6,$7,$8,$9,$2,$3,0*
0 Add four circle primitives for the rounded corners*
1,1,$1+$1,$2,$3*
1,1,$1+$1,$4,$5*
1,1,$1+$1,$6,$7*
1,1,$1+$1,$8,$9*
0 Add four rect primitives between the rounded corners*
20,1,$1+$1,$2,$3,$4,$5,0*
20,1,$1+$1,$4,$5,$6,$7,0*
20,1,$1+$1,$6,$7,$8,$9,0*
20,1,$1+$1,$8,$9,$2,$3,0*%
G04 Aperture macros list end*
%ADD10RoundRect,0.250000X-0.550000X0.550000X-0.550000X-0.550000X0.550000X-0.550000X0.550000X0.550000X0*%
%ADD11C,1.600000*%
%ADD12R,1.600000X1.600000*%
%ADD13O,1.600000X1.600000*%
%ADD14R,1.700000X1.700000*%
%ADD15O,1.700000X1.700000*%
%ADD16C,2.100000*%
%ADD17C,0.900000*%
%ADD18O,2.900000X1.200000*%
%ADD19C,0.700000*%
%ADD20C,2.000000*%
%ADD21C,0.650000*%
G04 APERTURE END LIST*
D10*
%TO.C,J5*%
X117150000Y-63350000D03*
D11*
X117150000Y-66950000D03*
%TD*%
D12*
%TO.C,D4*%
X132000000Y-60000000D03*
D13*
X124380000Y-60000000D03*
%TD*%
D14*
%TO.C,J2*%
X144490000Y-47150000D03*
D15*
X141950000Y-47150000D03*
X139410000Y-47150000D03*
X136870000Y-47150000D03*
X134330000Y-47150000D03*
%TD*%
D10*
%TO.C,J9*%
X117250000Y-74650000D03*
D11*
X117250000Y-78250000D03*
%TD*%
D16*
%TO.C,H2*%
X115000000Y-119800000D03*
%TD*%
D14*
%TO.C,J3*%
X193325000Y-47050000D03*
D15*
X190785000Y-47050000D03*
X188245000Y-47050000D03*
X185705000Y-47050000D03*
X183165000Y-47050000D03*
%TD*%
D14*
%TO.C,J1*%
X198650000Y-52720000D03*
D15*
X198650000Y-55260000D03*
X198650000Y-57800000D03*
X198650000Y-60340000D03*
X198650000Y-62880000D03*
%TD*%
D10*
%TO.C,J10*%
X117350000Y-85350000D03*
D11*
X117350000Y-88950000D03*
%TD*%
D17*
%TO.C,SWBOOT1*%
X138990000Y-66250000D03*
X138990000Y-69250000D03*
%TD*%
D12*
%TO.C,D6*%
X131750000Y-83500000D03*
D13*
X124130000Y-83500000D03*
%TD*%
D12*
%TO.C,D5*%
X131560000Y-72250000D03*
D13*
X123940000Y-72250000D03*
%TD*%
D16*
%TO.C,H4*%
X197850000Y-119800000D03*
%TD*%
%TO.C,H1*%
X115000000Y-48000000D03*
%TD*%
%TO.C,H3*%
X198150000Y-47950000D03*
%TD*%
D14*
%TO.C,J4*%
X178380000Y-46800000D03*
D15*
X175840000Y-46800000D03*
X173300000Y-46800000D03*
X170760000Y-46800000D03*
X168220000Y-46800000D03*
%TD*%
D10*
%TO.C,J12*%
X116900000Y-97600000D03*
D11*
X116900000Y-101200000D03*
%TD*%
D18*
%TO.C,J7*%
X192210000Y-91650000D03*
X192210000Y-78850000D03*
%TD*%
D14*
%TO.C,EinkDispCon1*%
X134240000Y-120600000D03*
D15*
X136780000Y-120600000D03*
X139320000Y-120600000D03*
X141860000Y-120600000D03*
X144400000Y-120600000D03*
X146940000Y-120600000D03*
X149480000Y-120600000D03*
X152020000Y-120600000D03*
%TD*%
D12*
%TO.C,D7*%
X132030499Y-96400000D03*
D13*
X124410499Y-96400000D03*
%TD*%
D19*
X171975000Y-75900000D03*
X140825000Y-91075000D03*
X161550000Y-107725000D03*
X170875000Y-109375000D03*
X161000000Y-62100000D03*
X158500000Y-62100000D03*
X154350000Y-72200000D03*
X134269501Y-103125001D03*
X126200000Y-102400000D03*
X128869501Y-103025001D03*
X161700000Y-120150000D03*
X164300000Y-120200000D03*
X166950000Y-120100000D03*
X168600000Y-119050000D03*
X165300000Y-118950000D03*
X182100000Y-120100000D03*
X176500000Y-120100000D03*
X172900000Y-109200000D03*
X145500000Y-105750000D03*
X143550000Y-105750000D03*
X140800000Y-93550000D03*
X137900000Y-97100000D03*
X149600000Y-75000000D03*
X151700000Y-74800000D03*
X160050000Y-76950000D03*
X155750000Y-74700000D03*
X147800000Y-82100000D03*
X144350000Y-86250000D03*
X153700000Y-74750000D03*
X157400000Y-70900000D03*
X162800000Y-81900000D03*
D20*
X191350000Y-55200000D03*
X169850000Y-84550000D03*
X174300000Y-89900000D03*
D19*
X162900000Y-80782806D03*
D20*
X191400000Y-52750000D03*
D19*
X155100000Y-81500000D03*
D20*
X164700000Y-73400000D03*
D19*
X145100000Y-93600000D03*
D20*
X191400000Y-57850000D03*
D19*
X142200000Y-100100000D03*
X183700000Y-86000000D03*
D21*
X178200000Y-85900000D03*
D20*
X174500000Y-84925900D03*
D19*
X148400000Y-49600000D03*
X144100000Y-95700000D03*
X177400000Y-101300000D03*
X162300000Y-69700000D03*
X170000000Y-89250000D03*
X182600000Y-83400000D03*
X132800000Y-67900000D03*
X154300000Y-66100000D03*
X182700000Y-80900000D03*
X186000000Y-80100000D03*
X179000000Y-106650000D03*
X135250000Y-95950000D03*
X139000000Y-100100000D03*
X127300000Y-68000000D03*
X167350000Y-77050000D03*
D21*
X141700000Y-114400000D03*
D19*
X166700000Y-49900000D03*
D20*
X180200000Y-99000000D03*
D21*
X161175000Y-118050000D03*
X158000000Y-112850000D03*
D19*
X137750000Y-87850000D03*
X178900000Y-116800000D03*
D21*
X161550000Y-117050000D03*
D19*
X132600000Y-78900000D03*
D20*
X188900000Y-102100000D03*
D21*
X161550000Y-115550000D03*
X161550000Y-116300000D03*
D20*
X191450000Y-60250000D03*
D19*
X127300000Y-78900000D03*
X181300000Y-106150000D03*
X137250000Y-100150000D03*
X160600000Y-105900000D03*
X126500000Y-90600000D03*
X168900000Y-81150000D03*
D20*
X179000000Y-113950000D03*
D19*
X156100000Y-69400000D03*
D21*
X179900000Y-93700000D03*
D19*
X177600000Y-106600000D03*
D21*
X161550000Y-114700000D03*
X160900000Y-112350000D03*
D19*
X127300000Y-89900000D03*
X150100000Y-105900000D03*
X173800000Y-93700000D03*
X170050000Y-93550000D03*
D21*
X173200000Y-79800000D03*
D20*
X151250000Y-116550000D03*
D19*
X164000000Y-67400000D03*
D21*
X161600000Y-113800000D03*
D19*
X164300000Y-115200000D03*
X184200000Y-93200000D03*
D21*
X173200000Y-78200000D03*
D19*
X132900000Y-90600000D03*
X155450000Y-105950000D03*
X146500000Y-72550000D03*
X142300000Y-65500000D03*
X166700000Y-59400000D03*
X126200000Y-67400000D03*
X126200000Y-78700000D03*
D21*
X149600000Y-60700000D03*
D19*
X156800000Y-80700000D03*
D21*
X183600000Y-96800000D03*
D20*
X174100000Y-105200000D03*
D19*
X148400000Y-99000000D03*
D21*
X137750000Y-117400000D03*
D19*
X144200000Y-81450000D03*
X148900000Y-77750000D03*
X168600000Y-99200000D03*
X167050000Y-96350000D03*
X146050000Y-81900000D03*
X155400000Y-80600000D03*
D20*
X153650000Y-116500000D03*
D19*
X143500000Y-72650000D03*
X167400000Y-78250000D03*
X140400000Y-100150000D03*
X119200000Y-62900000D03*
X153900000Y-105750000D03*
X141200000Y-83700000D03*
X170150000Y-87700000D03*
X142400000Y-71900000D03*
X119600000Y-74100000D03*
X119450000Y-96600000D03*
X168800000Y-82500000D03*
X119700000Y-84800000D03*
X137900000Y-103600000D03*
X159400000Y-104650000D03*
X163050000Y-105900000D03*
X164100000Y-65600000D03*
X169950000Y-91300000D03*
X145300000Y-84800000D03*
X150800000Y-81100000D03*
D20*
X184800000Y-103200000D03*
X184300000Y-108100000D03*
D19*
X175150000Y-99800000D03*
D20*
X182500000Y-88700000D03*
D19*
X181200000Y-86400000D03*
X170125000Y-113125000D03*
X168050000Y-95450000D03*
X161100000Y-81400000D03*
X157900000Y-80700000D03*
X158660000Y-81674386D03*
X159600000Y-82300000D03*
X173050000Y-114400000D03*
X165650000Y-94250000D03*
X169200000Y-102350000D03*
X172200000Y-102550000D03*
X168550000Y-94800000D03*
X175750000Y-118100000D03*
X138250000Y-86300000D03*
X134350000Y-96350000D03*
X184900000Y-86950000D03*
X185100000Y-84250000D03*
X159000000Y-70800000D03*
D20*
X155700000Y-63700000D03*
D19*
X159650000Y-116000000D03*
X156250000Y-111850000D03*
M02*
