%TF.GenerationSoftware,KiCad,Pcbnew,8.0.8*%
%TF.CreationDate,2025-03-13T11:37:56-04:00*%
%TF.ProjectId,ECE477-SeniorDesign,45434534-3737-42d5-9365-6e696f724465,rev?*%
%TF.SameCoordinates,Original*%
%TF.FileFunction,Drillmap*%
%TF.FilePolarity,Positive*%
%FSLAX45Y45*%
G04 Gerber Fmt 4.5, Leading zero omitted, Abs format (unit mm)*
G04 Created by KiCad (PCBNEW 8.0.8) date 2025-03-13 11:37:56*
%MOMM*%
%LPD*%
G01*
G04 APERTURE LIST*
%ADD10C,0.050000*%
%ADD11C,0.000000*%
%ADD12C,0.200000*%
%ADD13C,0.100000*%
%ADD14C,0.210000*%
G04 APERTURE END LIST*
D10*
X19822000Y-4500000D02*
G75*
G02*
X20120007Y-4800000I-2000J-300000D01*
G01*
X19820000Y-12280000D02*
X11499976Y-12280000D01*
X11200000Y-11980000D02*
X11200000Y-4800000D01*
X20120000Y-8025000D02*
X20120000Y-4800000D01*
X20120000Y-8025000D02*
X20120000Y-11980000D01*
X11200000Y-4800000D02*
G75*
G02*
X11500000Y-4500000I300000J0D01*
G01*
X20120000Y-11980000D02*
G75*
G02*
X19820000Y-12280000I-300000J0D01*
G01*
X11499976Y-12280000D02*
G75*
G02*
X11200000Y-11980000I24J300000D01*
G01*
X19822000Y-4500000D02*
X11500000Y-4500000D01*
D11*
G36*
X15475529Y-4892045D02*
G01*
X15490000Y-4898039D01*
X15502426Y-4907574D01*
X15511961Y-4920000D01*
X15517955Y-4934471D01*
X15520000Y-4950000D01*
X15517955Y-4965529D01*
X15511961Y-4980000D01*
X15502426Y-4992426D01*
X15490000Y-5001962D01*
X15475529Y-5007956D01*
X15460000Y-5010000D01*
X15444471Y-5007956D01*
X15430000Y-5001962D01*
X15417574Y-4992426D01*
X15408038Y-4980000D01*
X15402044Y-4965529D01*
X15400000Y-4950000D01*
X15402044Y-4934471D01*
X15408038Y-4920000D01*
X15417574Y-4907574D01*
X15430000Y-4898039D01*
X15444471Y-4892045D01*
X15460000Y-4890000D01*
X15475529Y-4892045D01*
G37*
G36*
X16275529Y-4892045D02*
G01*
X16290000Y-4898039D01*
X16302426Y-4907574D01*
X16311961Y-4920000D01*
X16317955Y-4934471D01*
X16320000Y-4950000D01*
X16317955Y-4965529D01*
X16311961Y-4980000D01*
X16302426Y-4992426D01*
X16290000Y-5001962D01*
X16275529Y-5007956D01*
X16260000Y-5010000D01*
X16244471Y-5007956D01*
X16230000Y-5001962D01*
X16217574Y-4992426D01*
X16208038Y-4980000D01*
X16202044Y-4965529D01*
X16200000Y-4950000D01*
X16202044Y-4934471D01*
X16208038Y-4920000D01*
X16217574Y-4907574D01*
X16230000Y-4898039D01*
X16244471Y-4892045D01*
X16260000Y-4890000D01*
X16275529Y-4892045D01*
G37*
D12*
D13*
X13854000Y-6580000D02*
X13944000Y-6670000D01*
X13944000Y-6580000D02*
X13854000Y-6670000D01*
X13854000Y-6880000D02*
X13944000Y-6970000D01*
X13944000Y-6880000D02*
X13854000Y-6970000D01*
D14*
X11605000Y-4800000D02*
G75*
G02*
X11395000Y-4800000I-105000J0D01*
G01*
X11395000Y-4800000D02*
G75*
G02*
X11605000Y-4800000I105000J0D01*
G01*
X11605000Y-11980000D02*
G75*
G02*
X11395000Y-11980000I-105000J0D01*
G01*
X11395000Y-11980000D02*
G75*
G02*
X11605000Y-11980000I105000J0D01*
G01*
X19890000Y-11980000D02*
G75*
G02*
X19680000Y-11980000I-105000J0D01*
G01*
X19680000Y-11980000D02*
G75*
G02*
X19890000Y-11980000I105000J0D01*
G01*
X19920000Y-4795000D02*
G75*
G02*
X19710000Y-4795000I-105000J0D01*
G01*
X19710000Y-4795000D02*
G75*
G02*
X19920000Y-4795000I105000J0D01*
G01*
D12*
X11458277Y-12593984D02*
X11458277Y-12393984D01*
X11458277Y-12393984D02*
X11505896Y-12393984D01*
X11505896Y-12393984D02*
X11534467Y-12403508D01*
X11534467Y-12403508D02*
X11553515Y-12422555D01*
X11553515Y-12422555D02*
X11563039Y-12441603D01*
X11563039Y-12441603D02*
X11572562Y-12479698D01*
X11572562Y-12479698D02*
X11572562Y-12508269D01*
X11572562Y-12508269D02*
X11563039Y-12546365D01*
X11563039Y-12546365D02*
X11553515Y-12565412D01*
X11553515Y-12565412D02*
X11534467Y-12584460D01*
X11534467Y-12584460D02*
X11505896Y-12593984D01*
X11505896Y-12593984D02*
X11458277Y-12593984D01*
X11658277Y-12593984D02*
X11658277Y-12460650D01*
X11658277Y-12498746D02*
X11667801Y-12479698D01*
X11667801Y-12479698D02*
X11677324Y-12470174D01*
X11677324Y-12470174D02*
X11696372Y-12460650D01*
X11696372Y-12460650D02*
X11715420Y-12460650D01*
X11782086Y-12593984D02*
X11782086Y-12460650D01*
X11782086Y-12393984D02*
X11772562Y-12403508D01*
X11772562Y-12403508D02*
X11782086Y-12413031D01*
X11782086Y-12413031D02*
X11791610Y-12403508D01*
X11791610Y-12403508D02*
X11782086Y-12393984D01*
X11782086Y-12393984D02*
X11782086Y-12413031D01*
X11905896Y-12593984D02*
X11886848Y-12584460D01*
X11886848Y-12584460D02*
X11877324Y-12565412D01*
X11877324Y-12565412D02*
X11877324Y-12393984D01*
X12010658Y-12593984D02*
X11991610Y-12584460D01*
X11991610Y-12584460D02*
X11982086Y-12565412D01*
X11982086Y-12565412D02*
X11982086Y-12393984D01*
X12239229Y-12593984D02*
X12239229Y-12393984D01*
X12239229Y-12393984D02*
X12305896Y-12536841D01*
X12305896Y-12536841D02*
X12372562Y-12393984D01*
X12372562Y-12393984D02*
X12372562Y-12593984D01*
X12553515Y-12593984D02*
X12553515Y-12489222D01*
X12553515Y-12489222D02*
X12543991Y-12470174D01*
X12543991Y-12470174D02*
X12524943Y-12460650D01*
X12524943Y-12460650D02*
X12486848Y-12460650D01*
X12486848Y-12460650D02*
X12467801Y-12470174D01*
X12553515Y-12584460D02*
X12534467Y-12593984D01*
X12534467Y-12593984D02*
X12486848Y-12593984D01*
X12486848Y-12593984D02*
X12467801Y-12584460D01*
X12467801Y-12584460D02*
X12458277Y-12565412D01*
X12458277Y-12565412D02*
X12458277Y-12546365D01*
X12458277Y-12546365D02*
X12467801Y-12527317D01*
X12467801Y-12527317D02*
X12486848Y-12517793D01*
X12486848Y-12517793D02*
X12534467Y-12517793D01*
X12534467Y-12517793D02*
X12553515Y-12508269D01*
X12648753Y-12460650D02*
X12648753Y-12660650D01*
X12648753Y-12470174D02*
X12667801Y-12460650D01*
X12667801Y-12460650D02*
X12705896Y-12460650D01*
X12705896Y-12460650D02*
X12724943Y-12470174D01*
X12724943Y-12470174D02*
X12734467Y-12479698D01*
X12734467Y-12479698D02*
X12743991Y-12498746D01*
X12743991Y-12498746D02*
X12743991Y-12555888D01*
X12743991Y-12555888D02*
X12734467Y-12574936D01*
X12734467Y-12574936D02*
X12724943Y-12584460D01*
X12724943Y-12584460D02*
X12705896Y-12593984D01*
X12705896Y-12593984D02*
X12667801Y-12593984D01*
X12667801Y-12593984D02*
X12648753Y-12584460D01*
X12829705Y-12574936D02*
X12839229Y-12584460D01*
X12839229Y-12584460D02*
X12829705Y-12593984D01*
X12829705Y-12593984D02*
X12820182Y-12584460D01*
X12820182Y-12584460D02*
X12829705Y-12574936D01*
X12829705Y-12574936D02*
X12829705Y-12593984D01*
X12829705Y-12470174D02*
X12839229Y-12479698D01*
X12839229Y-12479698D02*
X12829705Y-12489222D01*
X12829705Y-12489222D02*
X12820182Y-12479698D01*
X12820182Y-12479698D02*
X12829705Y-12470174D01*
X12829705Y-12470174D02*
X12829705Y-12489222D01*
D13*
X11107500Y-12877500D02*
X11197500Y-12967500D01*
X11197500Y-12877500D02*
X11107500Y-12967500D01*
D12*
X11496372Y-12813984D02*
X11515420Y-12813984D01*
X11515420Y-12813984D02*
X11534467Y-12823508D01*
X11534467Y-12823508D02*
X11543991Y-12833031D01*
X11543991Y-12833031D02*
X11553515Y-12852079D01*
X11553515Y-12852079D02*
X11563039Y-12890174D01*
X11563039Y-12890174D02*
X11563039Y-12937793D01*
X11563039Y-12937793D02*
X11553515Y-12975888D01*
X11553515Y-12975888D02*
X11543991Y-12994936D01*
X11543991Y-12994936D02*
X11534467Y-13004460D01*
X11534467Y-13004460D02*
X11515420Y-13013984D01*
X11515420Y-13013984D02*
X11496372Y-13013984D01*
X11496372Y-13013984D02*
X11477324Y-13004460D01*
X11477324Y-13004460D02*
X11467801Y-12994936D01*
X11467801Y-12994936D02*
X11458277Y-12975888D01*
X11458277Y-12975888D02*
X11448753Y-12937793D01*
X11448753Y-12937793D02*
X11448753Y-12890174D01*
X11448753Y-12890174D02*
X11458277Y-12852079D01*
X11458277Y-12852079D02*
X11467801Y-12833031D01*
X11467801Y-12833031D02*
X11477324Y-12823508D01*
X11477324Y-12823508D02*
X11496372Y-12813984D01*
X11648753Y-12994936D02*
X11658277Y-13004460D01*
X11658277Y-13004460D02*
X11648753Y-13013984D01*
X11648753Y-13013984D02*
X11639229Y-13004460D01*
X11639229Y-13004460D02*
X11648753Y-12994936D01*
X11648753Y-12994936D02*
X11648753Y-13013984D01*
X11753515Y-13013984D02*
X11791610Y-13013984D01*
X11791610Y-13013984D02*
X11810658Y-13004460D01*
X11810658Y-13004460D02*
X11820182Y-12994936D01*
X11820182Y-12994936D02*
X11839229Y-12966365D01*
X11839229Y-12966365D02*
X11848753Y-12928269D01*
X11848753Y-12928269D02*
X11848753Y-12852079D01*
X11848753Y-12852079D02*
X11839229Y-12833031D01*
X11839229Y-12833031D02*
X11829705Y-12823508D01*
X11829705Y-12823508D02*
X11810658Y-12813984D01*
X11810658Y-12813984D02*
X11772562Y-12813984D01*
X11772562Y-12813984D02*
X11753515Y-12823508D01*
X11753515Y-12823508D02*
X11743991Y-12833031D01*
X11743991Y-12833031D02*
X11734467Y-12852079D01*
X11734467Y-12852079D02*
X11734467Y-12899698D01*
X11734467Y-12899698D02*
X11743991Y-12918746D01*
X11743991Y-12918746D02*
X11753515Y-12928269D01*
X11753515Y-12928269D02*
X11772562Y-12937793D01*
X11772562Y-12937793D02*
X11810658Y-12937793D01*
X11810658Y-12937793D02*
X11829705Y-12928269D01*
X11829705Y-12928269D02*
X11839229Y-12918746D01*
X11839229Y-12918746D02*
X11848753Y-12899698D01*
X11972562Y-12813984D02*
X11991610Y-12813984D01*
X11991610Y-12813984D02*
X12010658Y-12823508D01*
X12010658Y-12823508D02*
X12020182Y-12833031D01*
X12020182Y-12833031D02*
X12029705Y-12852079D01*
X12029705Y-12852079D02*
X12039229Y-12890174D01*
X12039229Y-12890174D02*
X12039229Y-12937793D01*
X12039229Y-12937793D02*
X12029705Y-12975888D01*
X12029705Y-12975888D02*
X12020182Y-12994936D01*
X12020182Y-12994936D02*
X12010658Y-13004460D01*
X12010658Y-13004460D02*
X11991610Y-13013984D01*
X11991610Y-13013984D02*
X11972562Y-13013984D01*
X11972562Y-13013984D02*
X11953515Y-13004460D01*
X11953515Y-13004460D02*
X11943991Y-12994936D01*
X11943991Y-12994936D02*
X11934467Y-12975888D01*
X11934467Y-12975888D02*
X11924943Y-12937793D01*
X11924943Y-12937793D02*
X11924943Y-12890174D01*
X11924943Y-12890174D02*
X11934467Y-12852079D01*
X11934467Y-12852079D02*
X11943991Y-12833031D01*
X11943991Y-12833031D02*
X11953515Y-12823508D01*
X11953515Y-12823508D02*
X11972562Y-12813984D01*
X12163039Y-12813984D02*
X12182086Y-12813984D01*
X12182086Y-12813984D02*
X12201134Y-12823508D01*
X12201134Y-12823508D02*
X12210658Y-12833031D01*
X12210658Y-12833031D02*
X12220182Y-12852079D01*
X12220182Y-12852079D02*
X12229705Y-12890174D01*
X12229705Y-12890174D02*
X12229705Y-12937793D01*
X12229705Y-12937793D02*
X12220182Y-12975888D01*
X12220182Y-12975888D02*
X12210658Y-12994936D01*
X12210658Y-12994936D02*
X12201134Y-13004460D01*
X12201134Y-13004460D02*
X12182086Y-13013984D01*
X12182086Y-13013984D02*
X12163039Y-13013984D01*
X12163039Y-13013984D02*
X12143991Y-13004460D01*
X12143991Y-13004460D02*
X12134467Y-12994936D01*
X12134467Y-12994936D02*
X12124943Y-12975888D01*
X12124943Y-12975888D02*
X12115420Y-12937793D01*
X12115420Y-12937793D02*
X12115420Y-12890174D01*
X12115420Y-12890174D02*
X12124943Y-12852079D01*
X12124943Y-12852079D02*
X12134467Y-12833031D01*
X12134467Y-12833031D02*
X12143991Y-12823508D01*
X12143991Y-12823508D02*
X12163039Y-12813984D01*
X12315420Y-13013984D02*
X12315420Y-12880650D01*
X12315420Y-12899698D02*
X12324943Y-12890174D01*
X12324943Y-12890174D02*
X12343991Y-12880650D01*
X12343991Y-12880650D02*
X12372563Y-12880650D01*
X12372563Y-12880650D02*
X12391610Y-12890174D01*
X12391610Y-12890174D02*
X12401134Y-12909222D01*
X12401134Y-12909222D02*
X12401134Y-13013984D01*
X12401134Y-12909222D02*
X12410658Y-12890174D01*
X12410658Y-12890174D02*
X12429705Y-12880650D01*
X12429705Y-12880650D02*
X12458277Y-12880650D01*
X12458277Y-12880650D02*
X12477324Y-12890174D01*
X12477324Y-12890174D02*
X12486848Y-12909222D01*
X12486848Y-12909222D02*
X12486848Y-13013984D01*
X12582086Y-13013984D02*
X12582086Y-12880650D01*
X12582086Y-12899698D02*
X12591610Y-12890174D01*
X12591610Y-12890174D02*
X12610658Y-12880650D01*
X12610658Y-12880650D02*
X12639229Y-12880650D01*
X12639229Y-12880650D02*
X12658277Y-12890174D01*
X12658277Y-12890174D02*
X12667801Y-12909222D01*
X12667801Y-12909222D02*
X12667801Y-13013984D01*
X12667801Y-12909222D02*
X12677324Y-12890174D01*
X12677324Y-12890174D02*
X12696372Y-12880650D01*
X12696372Y-12880650D02*
X12724943Y-12880650D01*
X12724943Y-12880650D02*
X12743991Y-12890174D01*
X12743991Y-12890174D02*
X12753515Y-12909222D01*
X12753515Y-12909222D02*
X12753515Y-13013984D01*
X13143991Y-12804460D02*
X12972563Y-13061603D01*
X13401134Y-12813984D02*
X13420182Y-12813984D01*
X13420182Y-12813984D02*
X13439229Y-12823508D01*
X13439229Y-12823508D02*
X13448753Y-12833031D01*
X13448753Y-12833031D02*
X13458277Y-12852079D01*
X13458277Y-12852079D02*
X13467801Y-12890174D01*
X13467801Y-12890174D02*
X13467801Y-12937793D01*
X13467801Y-12937793D02*
X13458277Y-12975888D01*
X13458277Y-12975888D02*
X13448753Y-12994936D01*
X13448753Y-12994936D02*
X13439229Y-13004460D01*
X13439229Y-13004460D02*
X13420182Y-13013984D01*
X13420182Y-13013984D02*
X13401134Y-13013984D01*
X13401134Y-13013984D02*
X13382086Y-13004460D01*
X13382086Y-13004460D02*
X13372563Y-12994936D01*
X13372563Y-12994936D02*
X13363039Y-12975888D01*
X13363039Y-12975888D02*
X13353515Y-12937793D01*
X13353515Y-12937793D02*
X13353515Y-12890174D01*
X13353515Y-12890174D02*
X13363039Y-12852079D01*
X13363039Y-12852079D02*
X13372563Y-12833031D01*
X13372563Y-12833031D02*
X13382086Y-12823508D01*
X13382086Y-12823508D02*
X13401134Y-12813984D01*
X13553515Y-12994936D02*
X13563039Y-13004460D01*
X13563039Y-13004460D02*
X13553515Y-13013984D01*
X13553515Y-13013984D02*
X13543991Y-13004460D01*
X13543991Y-13004460D02*
X13553515Y-12994936D01*
X13553515Y-12994936D02*
X13553515Y-13013984D01*
X13686848Y-12813984D02*
X13705896Y-12813984D01*
X13705896Y-12813984D02*
X13724944Y-12823508D01*
X13724944Y-12823508D02*
X13734467Y-12833031D01*
X13734467Y-12833031D02*
X13743991Y-12852079D01*
X13743991Y-12852079D02*
X13753515Y-12890174D01*
X13753515Y-12890174D02*
X13753515Y-12937793D01*
X13753515Y-12937793D02*
X13743991Y-12975888D01*
X13743991Y-12975888D02*
X13734467Y-12994936D01*
X13734467Y-12994936D02*
X13724944Y-13004460D01*
X13724944Y-13004460D02*
X13705896Y-13013984D01*
X13705896Y-13013984D02*
X13686848Y-13013984D01*
X13686848Y-13013984D02*
X13667801Y-13004460D01*
X13667801Y-13004460D02*
X13658277Y-12994936D01*
X13658277Y-12994936D02*
X13648753Y-12975888D01*
X13648753Y-12975888D02*
X13639229Y-12937793D01*
X13639229Y-12937793D02*
X13639229Y-12890174D01*
X13639229Y-12890174D02*
X13648753Y-12852079D01*
X13648753Y-12852079D02*
X13658277Y-12833031D01*
X13658277Y-12833031D02*
X13667801Y-12823508D01*
X13667801Y-12823508D02*
X13686848Y-12813984D01*
X13820182Y-12813984D02*
X13943991Y-12813984D01*
X13943991Y-12813984D02*
X13877325Y-12890174D01*
X13877325Y-12890174D02*
X13905896Y-12890174D01*
X13905896Y-12890174D02*
X13924944Y-12899698D01*
X13924944Y-12899698D02*
X13934467Y-12909222D01*
X13934467Y-12909222D02*
X13943991Y-12928269D01*
X13943991Y-12928269D02*
X13943991Y-12975888D01*
X13943991Y-12975888D02*
X13934467Y-12994936D01*
X13934467Y-12994936D02*
X13924944Y-13004460D01*
X13924944Y-13004460D02*
X13905896Y-13013984D01*
X13905896Y-13013984D02*
X13848753Y-13013984D01*
X13848753Y-13013984D02*
X13829706Y-13004460D01*
X13829706Y-13004460D02*
X13820182Y-12994936D01*
X14124944Y-12813984D02*
X14029706Y-12813984D01*
X14029706Y-12813984D02*
X14020182Y-12909222D01*
X14020182Y-12909222D02*
X14029706Y-12899698D01*
X14029706Y-12899698D02*
X14048753Y-12890174D01*
X14048753Y-12890174D02*
X14096372Y-12890174D01*
X14096372Y-12890174D02*
X14115420Y-12899698D01*
X14115420Y-12899698D02*
X14124944Y-12909222D01*
X14124944Y-12909222D02*
X14134467Y-12928269D01*
X14134467Y-12928269D02*
X14134467Y-12975888D01*
X14134467Y-12975888D02*
X14124944Y-12994936D01*
X14124944Y-12994936D02*
X14115420Y-13004460D01*
X14115420Y-13004460D02*
X14096372Y-13013984D01*
X14096372Y-13013984D02*
X14048753Y-13013984D01*
X14048753Y-13013984D02*
X14029706Y-13004460D01*
X14029706Y-13004460D02*
X14020182Y-12994936D01*
X14305896Y-12880650D02*
X14305896Y-13013984D01*
X14258277Y-12804460D02*
X14210658Y-12947317D01*
X14210658Y-12947317D02*
X14334467Y-12947317D01*
X14401134Y-12813984D02*
X14401134Y-12852079D01*
X14477325Y-12813984D02*
X14477325Y-12852079D01*
X14772563Y-13090174D02*
X14763039Y-13080650D01*
X14763039Y-13080650D02*
X14743991Y-13052079D01*
X14743991Y-13052079D02*
X14734468Y-13033031D01*
X14734468Y-13033031D02*
X14724944Y-13004460D01*
X14724944Y-13004460D02*
X14715420Y-12956841D01*
X14715420Y-12956841D02*
X14715420Y-12918746D01*
X14715420Y-12918746D02*
X14724944Y-12871127D01*
X14724944Y-12871127D02*
X14734468Y-12842555D01*
X14734468Y-12842555D02*
X14743991Y-12823508D01*
X14743991Y-12823508D02*
X14763039Y-12794936D01*
X14763039Y-12794936D02*
X14772563Y-12785412D01*
X14839229Y-12833031D02*
X14848753Y-12823508D01*
X14848753Y-12823508D02*
X14867801Y-12813984D01*
X14867801Y-12813984D02*
X14915420Y-12813984D01*
X14915420Y-12813984D02*
X14934468Y-12823508D01*
X14934468Y-12823508D02*
X14943991Y-12833031D01*
X14943991Y-12833031D02*
X14953515Y-12852079D01*
X14953515Y-12852079D02*
X14953515Y-12871127D01*
X14953515Y-12871127D02*
X14943991Y-12899698D01*
X14943991Y-12899698D02*
X14829706Y-13013984D01*
X14829706Y-13013984D02*
X14953515Y-13013984D01*
X15191610Y-13013984D02*
X15191610Y-12813984D01*
X15277325Y-13013984D02*
X15277325Y-12909222D01*
X15277325Y-12909222D02*
X15267801Y-12890174D01*
X15267801Y-12890174D02*
X15248753Y-12880650D01*
X15248753Y-12880650D02*
X15220182Y-12880650D01*
X15220182Y-12880650D02*
X15201134Y-12890174D01*
X15201134Y-12890174D02*
X15191610Y-12899698D01*
X15401134Y-13013984D02*
X15382087Y-13004460D01*
X15382087Y-13004460D02*
X15372563Y-12994936D01*
X15372563Y-12994936D02*
X15363039Y-12975888D01*
X15363039Y-12975888D02*
X15363039Y-12918746D01*
X15363039Y-12918746D02*
X15372563Y-12899698D01*
X15372563Y-12899698D02*
X15382087Y-12890174D01*
X15382087Y-12890174D02*
X15401134Y-12880650D01*
X15401134Y-12880650D02*
X15429706Y-12880650D01*
X15429706Y-12880650D02*
X15448753Y-12890174D01*
X15448753Y-12890174D02*
X15458277Y-12899698D01*
X15458277Y-12899698D02*
X15467801Y-12918746D01*
X15467801Y-12918746D02*
X15467801Y-12975888D01*
X15467801Y-12975888D02*
X15458277Y-12994936D01*
X15458277Y-12994936D02*
X15448753Y-13004460D01*
X15448753Y-13004460D02*
X15429706Y-13013984D01*
X15429706Y-13013984D02*
X15401134Y-13013984D01*
X15582087Y-13013984D02*
X15563039Y-13004460D01*
X15563039Y-13004460D02*
X15553515Y-12985412D01*
X15553515Y-12985412D02*
X15553515Y-12813984D01*
X15734468Y-13004460D02*
X15715420Y-13013984D01*
X15715420Y-13013984D02*
X15677325Y-13013984D01*
X15677325Y-13013984D02*
X15658277Y-13004460D01*
X15658277Y-13004460D02*
X15648753Y-12985412D01*
X15648753Y-12985412D02*
X15648753Y-12909222D01*
X15648753Y-12909222D02*
X15658277Y-12890174D01*
X15658277Y-12890174D02*
X15677325Y-12880650D01*
X15677325Y-12880650D02*
X15715420Y-12880650D01*
X15715420Y-12880650D02*
X15734468Y-12890174D01*
X15734468Y-12890174D02*
X15743991Y-12909222D01*
X15743991Y-12909222D02*
X15743991Y-12928269D01*
X15743991Y-12928269D02*
X15648753Y-12947317D01*
X15820182Y-13004460D02*
X15839230Y-13013984D01*
X15839230Y-13013984D02*
X15877325Y-13013984D01*
X15877325Y-13013984D02*
X15896372Y-13004460D01*
X15896372Y-13004460D02*
X15905896Y-12985412D01*
X15905896Y-12985412D02*
X15905896Y-12975888D01*
X15905896Y-12975888D02*
X15896372Y-12956841D01*
X15896372Y-12956841D02*
X15877325Y-12947317D01*
X15877325Y-12947317D02*
X15848753Y-12947317D01*
X15848753Y-12947317D02*
X15829706Y-12937793D01*
X15829706Y-12937793D02*
X15820182Y-12918746D01*
X15820182Y-12918746D02*
X15820182Y-12909222D01*
X15820182Y-12909222D02*
X15829706Y-12890174D01*
X15829706Y-12890174D02*
X15848753Y-12880650D01*
X15848753Y-12880650D02*
X15877325Y-12880650D01*
X15877325Y-12880650D02*
X15896372Y-12890174D01*
X15972563Y-13090174D02*
X15982087Y-13080650D01*
X15982087Y-13080650D02*
X16001134Y-13052079D01*
X16001134Y-13052079D02*
X16010658Y-13033031D01*
X16010658Y-13033031D02*
X16020182Y-13004460D01*
X16020182Y-13004460D02*
X16029706Y-12956841D01*
X16029706Y-12956841D02*
X16029706Y-12918746D01*
X16029706Y-12918746D02*
X16020182Y-12871127D01*
X16020182Y-12871127D02*
X16010658Y-12842555D01*
X16010658Y-12842555D02*
X16001134Y-12823508D01*
X16001134Y-12823508D02*
X15982087Y-12794936D01*
X15982087Y-12794936D02*
X15972563Y-12785412D01*
X16334468Y-13090174D02*
X16324944Y-13080650D01*
X16324944Y-13080650D02*
X16305896Y-13052079D01*
X16305896Y-13052079D02*
X16296372Y-13033031D01*
X16296372Y-13033031D02*
X16286849Y-13004460D01*
X16286849Y-13004460D02*
X16277325Y-12956841D01*
X16277325Y-12956841D02*
X16277325Y-12918746D01*
X16277325Y-12918746D02*
X16286849Y-12871127D01*
X16286849Y-12871127D02*
X16296372Y-12842555D01*
X16296372Y-12842555D02*
X16305896Y-12823508D01*
X16305896Y-12823508D02*
X16324944Y-12794936D01*
X16324944Y-12794936D02*
X16334468Y-12785412D01*
X16410658Y-12880650D02*
X16410658Y-13013984D01*
X16410658Y-12899698D02*
X16420182Y-12890174D01*
X16420182Y-12890174D02*
X16439230Y-12880650D01*
X16439230Y-12880650D02*
X16467801Y-12880650D01*
X16467801Y-12880650D02*
X16486849Y-12890174D01*
X16486849Y-12890174D02*
X16496372Y-12909222D01*
X16496372Y-12909222D02*
X16496372Y-13013984D01*
X16620182Y-13013984D02*
X16601134Y-13004460D01*
X16601134Y-13004460D02*
X16591611Y-12994936D01*
X16591611Y-12994936D02*
X16582087Y-12975888D01*
X16582087Y-12975888D02*
X16582087Y-12918746D01*
X16582087Y-12918746D02*
X16591611Y-12899698D01*
X16591611Y-12899698D02*
X16601134Y-12890174D01*
X16601134Y-12890174D02*
X16620182Y-12880650D01*
X16620182Y-12880650D02*
X16648753Y-12880650D01*
X16648753Y-12880650D02*
X16667801Y-12890174D01*
X16667801Y-12890174D02*
X16677325Y-12899698D01*
X16677325Y-12899698D02*
X16686849Y-12918746D01*
X16686849Y-12918746D02*
X16686849Y-12975888D01*
X16686849Y-12975888D02*
X16677325Y-12994936D01*
X16677325Y-12994936D02*
X16667801Y-13004460D01*
X16667801Y-13004460D02*
X16648753Y-13013984D01*
X16648753Y-13013984D02*
X16620182Y-13013984D01*
X16743992Y-12880650D02*
X16820182Y-12880650D01*
X16772563Y-12813984D02*
X16772563Y-12985412D01*
X16772563Y-12985412D02*
X16782087Y-13004460D01*
X16782087Y-13004460D02*
X16801134Y-13013984D01*
X16801134Y-13013984D02*
X16820182Y-13013984D01*
X17039230Y-12880650D02*
X17039230Y-13080650D01*
X17039230Y-12890174D02*
X17058277Y-12880650D01*
X17058277Y-12880650D02*
X17096373Y-12880650D01*
X17096373Y-12880650D02*
X17115420Y-12890174D01*
X17115420Y-12890174D02*
X17124944Y-12899698D01*
X17124944Y-12899698D02*
X17134468Y-12918746D01*
X17134468Y-12918746D02*
X17134468Y-12975888D01*
X17134468Y-12975888D02*
X17124944Y-12994936D01*
X17124944Y-12994936D02*
X17115420Y-13004460D01*
X17115420Y-13004460D02*
X17096373Y-13013984D01*
X17096373Y-13013984D02*
X17058277Y-13013984D01*
X17058277Y-13013984D02*
X17039230Y-13004460D01*
X17248754Y-13013984D02*
X17229706Y-13004460D01*
X17229706Y-13004460D02*
X17220182Y-12985412D01*
X17220182Y-12985412D02*
X17220182Y-12813984D01*
X17410658Y-13013984D02*
X17410658Y-12909222D01*
X17410658Y-12909222D02*
X17401135Y-12890174D01*
X17401135Y-12890174D02*
X17382087Y-12880650D01*
X17382087Y-12880650D02*
X17343992Y-12880650D01*
X17343992Y-12880650D02*
X17324944Y-12890174D01*
X17410658Y-13004460D02*
X17391611Y-13013984D01*
X17391611Y-13013984D02*
X17343992Y-13013984D01*
X17343992Y-13013984D02*
X17324944Y-13004460D01*
X17324944Y-13004460D02*
X17315420Y-12985412D01*
X17315420Y-12985412D02*
X17315420Y-12966365D01*
X17315420Y-12966365D02*
X17324944Y-12947317D01*
X17324944Y-12947317D02*
X17343992Y-12937793D01*
X17343992Y-12937793D02*
X17391611Y-12937793D01*
X17391611Y-12937793D02*
X17410658Y-12928269D01*
X17477325Y-12880650D02*
X17553515Y-12880650D01*
X17505896Y-12813984D02*
X17505896Y-12985412D01*
X17505896Y-12985412D02*
X17515420Y-13004460D01*
X17515420Y-13004460D02*
X17534468Y-13013984D01*
X17534468Y-13013984D02*
X17553515Y-13013984D01*
X17696373Y-13004460D02*
X17677325Y-13013984D01*
X17677325Y-13013984D02*
X17639230Y-13013984D01*
X17639230Y-13013984D02*
X17620182Y-13004460D01*
X17620182Y-13004460D02*
X17610658Y-12985412D01*
X17610658Y-12985412D02*
X17610658Y-12909222D01*
X17610658Y-12909222D02*
X17620182Y-12890174D01*
X17620182Y-12890174D02*
X17639230Y-12880650D01*
X17639230Y-12880650D02*
X17677325Y-12880650D01*
X17677325Y-12880650D02*
X17696373Y-12890174D01*
X17696373Y-12890174D02*
X17705896Y-12909222D01*
X17705896Y-12909222D02*
X17705896Y-12928269D01*
X17705896Y-12928269D02*
X17610658Y-12947317D01*
X17877325Y-13013984D02*
X17877325Y-12813984D01*
X17877325Y-13004460D02*
X17858277Y-13013984D01*
X17858277Y-13013984D02*
X17820182Y-13013984D01*
X17820182Y-13013984D02*
X17801135Y-13004460D01*
X17801135Y-13004460D02*
X17791611Y-12994936D01*
X17791611Y-12994936D02*
X17782087Y-12975888D01*
X17782087Y-12975888D02*
X17782087Y-12918746D01*
X17782087Y-12918746D02*
X17791611Y-12899698D01*
X17791611Y-12899698D02*
X17801135Y-12890174D01*
X17801135Y-12890174D02*
X17820182Y-12880650D01*
X17820182Y-12880650D02*
X17858277Y-12880650D01*
X17858277Y-12880650D02*
X17877325Y-12890174D01*
X17953516Y-13090174D02*
X17963039Y-13080650D01*
X17963039Y-13080650D02*
X17982087Y-13052079D01*
X17982087Y-13052079D02*
X17991611Y-13033031D01*
X17991611Y-13033031D02*
X18001135Y-13004460D01*
X18001135Y-13004460D02*
X18010658Y-12956841D01*
X18010658Y-12956841D02*
X18010658Y-12918746D01*
X18010658Y-12918746D02*
X18001135Y-12871127D01*
X18001135Y-12871127D02*
X17991611Y-12842555D01*
X17991611Y-12842555D02*
X17982087Y-12823508D01*
X17982087Y-12823508D02*
X17963039Y-12794936D01*
X17963039Y-12794936D02*
X17953516Y-12785412D01*
X11197500Y-13186500D02*
G75*
G02*
X10997500Y-13186500I-100000J0D01*
G01*
X10997500Y-13186500D02*
G75*
G02*
X11197500Y-13186500I100000J0D01*
G01*
X11448753Y-13097031D02*
X11458277Y-13087508D01*
X11458277Y-13087508D02*
X11477324Y-13077984D01*
X11477324Y-13077984D02*
X11524943Y-13077984D01*
X11524943Y-13077984D02*
X11543991Y-13087508D01*
X11543991Y-13087508D02*
X11553515Y-13097031D01*
X11553515Y-13097031D02*
X11563039Y-13116079D01*
X11563039Y-13116079D02*
X11563039Y-13135127D01*
X11563039Y-13135127D02*
X11553515Y-13163698D01*
X11553515Y-13163698D02*
X11439229Y-13277984D01*
X11439229Y-13277984D02*
X11563039Y-13277984D01*
X11648753Y-13258936D02*
X11658277Y-13268460D01*
X11658277Y-13268460D02*
X11648753Y-13277984D01*
X11648753Y-13277984D02*
X11639229Y-13268460D01*
X11639229Y-13268460D02*
X11648753Y-13258936D01*
X11648753Y-13258936D02*
X11648753Y-13277984D01*
X11848753Y-13277984D02*
X11734467Y-13277984D01*
X11791610Y-13277984D02*
X11791610Y-13077984D01*
X11791610Y-13077984D02*
X11772562Y-13106555D01*
X11772562Y-13106555D02*
X11753515Y-13125603D01*
X11753515Y-13125603D02*
X11734467Y-13135127D01*
X11972562Y-13077984D02*
X11991610Y-13077984D01*
X11991610Y-13077984D02*
X12010658Y-13087508D01*
X12010658Y-13087508D02*
X12020182Y-13097031D01*
X12020182Y-13097031D02*
X12029705Y-13116079D01*
X12029705Y-13116079D02*
X12039229Y-13154174D01*
X12039229Y-13154174D02*
X12039229Y-13201793D01*
X12039229Y-13201793D02*
X12029705Y-13239888D01*
X12029705Y-13239888D02*
X12020182Y-13258936D01*
X12020182Y-13258936D02*
X12010658Y-13268460D01*
X12010658Y-13268460D02*
X11991610Y-13277984D01*
X11991610Y-13277984D02*
X11972562Y-13277984D01*
X11972562Y-13277984D02*
X11953515Y-13268460D01*
X11953515Y-13268460D02*
X11943991Y-13258936D01*
X11943991Y-13258936D02*
X11934467Y-13239888D01*
X11934467Y-13239888D02*
X11924943Y-13201793D01*
X11924943Y-13201793D02*
X11924943Y-13154174D01*
X11924943Y-13154174D02*
X11934467Y-13116079D01*
X11934467Y-13116079D02*
X11943991Y-13097031D01*
X11943991Y-13097031D02*
X11953515Y-13087508D01*
X11953515Y-13087508D02*
X11972562Y-13077984D01*
X12163039Y-13077984D02*
X12182086Y-13077984D01*
X12182086Y-13077984D02*
X12201134Y-13087508D01*
X12201134Y-13087508D02*
X12210658Y-13097031D01*
X12210658Y-13097031D02*
X12220182Y-13116079D01*
X12220182Y-13116079D02*
X12229705Y-13154174D01*
X12229705Y-13154174D02*
X12229705Y-13201793D01*
X12229705Y-13201793D02*
X12220182Y-13239888D01*
X12220182Y-13239888D02*
X12210658Y-13258936D01*
X12210658Y-13258936D02*
X12201134Y-13268460D01*
X12201134Y-13268460D02*
X12182086Y-13277984D01*
X12182086Y-13277984D02*
X12163039Y-13277984D01*
X12163039Y-13277984D02*
X12143991Y-13268460D01*
X12143991Y-13268460D02*
X12134467Y-13258936D01*
X12134467Y-13258936D02*
X12124943Y-13239888D01*
X12124943Y-13239888D02*
X12115420Y-13201793D01*
X12115420Y-13201793D02*
X12115420Y-13154174D01*
X12115420Y-13154174D02*
X12124943Y-13116079D01*
X12124943Y-13116079D02*
X12134467Y-13097031D01*
X12134467Y-13097031D02*
X12143991Y-13087508D01*
X12143991Y-13087508D02*
X12163039Y-13077984D01*
X12315420Y-13277984D02*
X12315420Y-13144650D01*
X12315420Y-13163698D02*
X12324943Y-13154174D01*
X12324943Y-13154174D02*
X12343991Y-13144650D01*
X12343991Y-13144650D02*
X12372563Y-13144650D01*
X12372563Y-13144650D02*
X12391610Y-13154174D01*
X12391610Y-13154174D02*
X12401134Y-13173222D01*
X12401134Y-13173222D02*
X12401134Y-13277984D01*
X12401134Y-13173222D02*
X12410658Y-13154174D01*
X12410658Y-13154174D02*
X12429705Y-13144650D01*
X12429705Y-13144650D02*
X12458277Y-13144650D01*
X12458277Y-13144650D02*
X12477324Y-13154174D01*
X12477324Y-13154174D02*
X12486848Y-13173222D01*
X12486848Y-13173222D02*
X12486848Y-13277984D01*
X12582086Y-13277984D02*
X12582086Y-13144650D01*
X12582086Y-13163698D02*
X12591610Y-13154174D01*
X12591610Y-13154174D02*
X12610658Y-13144650D01*
X12610658Y-13144650D02*
X12639229Y-13144650D01*
X12639229Y-13144650D02*
X12658277Y-13154174D01*
X12658277Y-13154174D02*
X12667801Y-13173222D01*
X12667801Y-13173222D02*
X12667801Y-13277984D01*
X12667801Y-13173222D02*
X12677324Y-13154174D01*
X12677324Y-13154174D02*
X12696372Y-13144650D01*
X12696372Y-13144650D02*
X12724943Y-13144650D01*
X12724943Y-13144650D02*
X12743991Y-13154174D01*
X12743991Y-13154174D02*
X12753515Y-13173222D01*
X12753515Y-13173222D02*
X12753515Y-13277984D01*
X13143991Y-13068460D02*
X12972563Y-13325603D01*
X13401134Y-13077984D02*
X13420182Y-13077984D01*
X13420182Y-13077984D02*
X13439229Y-13087508D01*
X13439229Y-13087508D02*
X13448753Y-13097031D01*
X13448753Y-13097031D02*
X13458277Y-13116079D01*
X13458277Y-13116079D02*
X13467801Y-13154174D01*
X13467801Y-13154174D02*
X13467801Y-13201793D01*
X13467801Y-13201793D02*
X13458277Y-13239888D01*
X13458277Y-13239888D02*
X13448753Y-13258936D01*
X13448753Y-13258936D02*
X13439229Y-13268460D01*
X13439229Y-13268460D02*
X13420182Y-13277984D01*
X13420182Y-13277984D02*
X13401134Y-13277984D01*
X13401134Y-13277984D02*
X13382086Y-13268460D01*
X13382086Y-13268460D02*
X13372563Y-13258936D01*
X13372563Y-13258936D02*
X13363039Y-13239888D01*
X13363039Y-13239888D02*
X13353515Y-13201793D01*
X13353515Y-13201793D02*
X13353515Y-13154174D01*
X13353515Y-13154174D02*
X13363039Y-13116079D01*
X13363039Y-13116079D02*
X13372563Y-13097031D01*
X13372563Y-13097031D02*
X13382086Y-13087508D01*
X13382086Y-13087508D02*
X13401134Y-13077984D01*
X13553515Y-13258936D02*
X13563039Y-13268460D01*
X13563039Y-13268460D02*
X13553515Y-13277984D01*
X13553515Y-13277984D02*
X13543991Y-13268460D01*
X13543991Y-13268460D02*
X13553515Y-13258936D01*
X13553515Y-13258936D02*
X13553515Y-13277984D01*
X13686848Y-13077984D02*
X13705896Y-13077984D01*
X13705896Y-13077984D02*
X13724944Y-13087508D01*
X13724944Y-13087508D02*
X13734467Y-13097031D01*
X13734467Y-13097031D02*
X13743991Y-13116079D01*
X13743991Y-13116079D02*
X13753515Y-13154174D01*
X13753515Y-13154174D02*
X13753515Y-13201793D01*
X13753515Y-13201793D02*
X13743991Y-13239888D01*
X13743991Y-13239888D02*
X13734467Y-13258936D01*
X13734467Y-13258936D02*
X13724944Y-13268460D01*
X13724944Y-13268460D02*
X13705896Y-13277984D01*
X13705896Y-13277984D02*
X13686848Y-13277984D01*
X13686848Y-13277984D02*
X13667801Y-13268460D01*
X13667801Y-13268460D02*
X13658277Y-13258936D01*
X13658277Y-13258936D02*
X13648753Y-13239888D01*
X13648753Y-13239888D02*
X13639229Y-13201793D01*
X13639229Y-13201793D02*
X13639229Y-13154174D01*
X13639229Y-13154174D02*
X13648753Y-13116079D01*
X13648753Y-13116079D02*
X13658277Y-13097031D01*
X13658277Y-13097031D02*
X13667801Y-13087508D01*
X13667801Y-13087508D02*
X13686848Y-13077984D01*
X13867801Y-13163698D02*
X13848753Y-13154174D01*
X13848753Y-13154174D02*
X13839229Y-13144650D01*
X13839229Y-13144650D02*
X13829706Y-13125603D01*
X13829706Y-13125603D02*
X13829706Y-13116079D01*
X13829706Y-13116079D02*
X13839229Y-13097031D01*
X13839229Y-13097031D02*
X13848753Y-13087508D01*
X13848753Y-13087508D02*
X13867801Y-13077984D01*
X13867801Y-13077984D02*
X13905896Y-13077984D01*
X13905896Y-13077984D02*
X13924944Y-13087508D01*
X13924944Y-13087508D02*
X13934467Y-13097031D01*
X13934467Y-13097031D02*
X13943991Y-13116079D01*
X13943991Y-13116079D02*
X13943991Y-13125603D01*
X13943991Y-13125603D02*
X13934467Y-13144650D01*
X13934467Y-13144650D02*
X13924944Y-13154174D01*
X13924944Y-13154174D02*
X13905896Y-13163698D01*
X13905896Y-13163698D02*
X13867801Y-13163698D01*
X13867801Y-13163698D02*
X13848753Y-13173222D01*
X13848753Y-13173222D02*
X13839229Y-13182746D01*
X13839229Y-13182746D02*
X13829706Y-13201793D01*
X13829706Y-13201793D02*
X13829706Y-13239888D01*
X13829706Y-13239888D02*
X13839229Y-13258936D01*
X13839229Y-13258936D02*
X13848753Y-13268460D01*
X13848753Y-13268460D02*
X13867801Y-13277984D01*
X13867801Y-13277984D02*
X13905896Y-13277984D01*
X13905896Y-13277984D02*
X13924944Y-13268460D01*
X13924944Y-13268460D02*
X13934467Y-13258936D01*
X13934467Y-13258936D02*
X13943991Y-13239888D01*
X13943991Y-13239888D02*
X13943991Y-13201793D01*
X13943991Y-13201793D02*
X13934467Y-13182746D01*
X13934467Y-13182746D02*
X13924944Y-13173222D01*
X13924944Y-13173222D02*
X13905896Y-13163698D01*
X14020182Y-13097031D02*
X14029706Y-13087508D01*
X14029706Y-13087508D02*
X14048753Y-13077984D01*
X14048753Y-13077984D02*
X14096372Y-13077984D01*
X14096372Y-13077984D02*
X14115420Y-13087508D01*
X14115420Y-13087508D02*
X14124944Y-13097031D01*
X14124944Y-13097031D02*
X14134467Y-13116079D01*
X14134467Y-13116079D02*
X14134467Y-13135127D01*
X14134467Y-13135127D02*
X14124944Y-13163698D01*
X14124944Y-13163698D02*
X14010658Y-13277984D01*
X14010658Y-13277984D02*
X14134467Y-13277984D01*
X14201134Y-13077984D02*
X14334467Y-13077984D01*
X14334467Y-13077984D02*
X14248753Y-13277984D01*
X14401134Y-13077984D02*
X14401134Y-13116079D01*
X14477325Y-13077984D02*
X14477325Y-13116079D01*
X14772563Y-13354174D02*
X14763039Y-13344650D01*
X14763039Y-13344650D02*
X14743991Y-13316079D01*
X14743991Y-13316079D02*
X14734468Y-13297031D01*
X14734468Y-13297031D02*
X14724944Y-13268460D01*
X14724944Y-13268460D02*
X14715420Y-13220841D01*
X14715420Y-13220841D02*
X14715420Y-13182746D01*
X14715420Y-13182746D02*
X14724944Y-13135127D01*
X14724944Y-13135127D02*
X14734468Y-13106555D01*
X14734468Y-13106555D02*
X14743991Y-13087508D01*
X14743991Y-13087508D02*
X14763039Y-13058936D01*
X14763039Y-13058936D02*
X14772563Y-13049412D01*
X14934468Y-13144650D02*
X14934468Y-13277984D01*
X14886848Y-13068460D02*
X14839229Y-13211317D01*
X14839229Y-13211317D02*
X14963039Y-13211317D01*
X15191610Y-13277984D02*
X15191610Y-13077984D01*
X15277325Y-13277984D02*
X15277325Y-13173222D01*
X15277325Y-13173222D02*
X15267801Y-13154174D01*
X15267801Y-13154174D02*
X15248753Y-13144650D01*
X15248753Y-13144650D02*
X15220182Y-13144650D01*
X15220182Y-13144650D02*
X15201134Y-13154174D01*
X15201134Y-13154174D02*
X15191610Y-13163698D01*
X15401134Y-13277984D02*
X15382087Y-13268460D01*
X15382087Y-13268460D02*
X15372563Y-13258936D01*
X15372563Y-13258936D02*
X15363039Y-13239888D01*
X15363039Y-13239888D02*
X15363039Y-13182746D01*
X15363039Y-13182746D02*
X15372563Y-13163698D01*
X15372563Y-13163698D02*
X15382087Y-13154174D01*
X15382087Y-13154174D02*
X15401134Y-13144650D01*
X15401134Y-13144650D02*
X15429706Y-13144650D01*
X15429706Y-13144650D02*
X15448753Y-13154174D01*
X15448753Y-13154174D02*
X15458277Y-13163698D01*
X15458277Y-13163698D02*
X15467801Y-13182746D01*
X15467801Y-13182746D02*
X15467801Y-13239888D01*
X15467801Y-13239888D02*
X15458277Y-13258936D01*
X15458277Y-13258936D02*
X15448753Y-13268460D01*
X15448753Y-13268460D02*
X15429706Y-13277984D01*
X15429706Y-13277984D02*
X15401134Y-13277984D01*
X15582087Y-13277984D02*
X15563039Y-13268460D01*
X15563039Y-13268460D02*
X15553515Y-13249412D01*
X15553515Y-13249412D02*
X15553515Y-13077984D01*
X15734468Y-13268460D02*
X15715420Y-13277984D01*
X15715420Y-13277984D02*
X15677325Y-13277984D01*
X15677325Y-13277984D02*
X15658277Y-13268460D01*
X15658277Y-13268460D02*
X15648753Y-13249412D01*
X15648753Y-13249412D02*
X15648753Y-13173222D01*
X15648753Y-13173222D02*
X15658277Y-13154174D01*
X15658277Y-13154174D02*
X15677325Y-13144650D01*
X15677325Y-13144650D02*
X15715420Y-13144650D01*
X15715420Y-13144650D02*
X15734468Y-13154174D01*
X15734468Y-13154174D02*
X15743991Y-13173222D01*
X15743991Y-13173222D02*
X15743991Y-13192269D01*
X15743991Y-13192269D02*
X15648753Y-13211317D01*
X15820182Y-13268460D02*
X15839230Y-13277984D01*
X15839230Y-13277984D02*
X15877325Y-13277984D01*
X15877325Y-13277984D02*
X15896372Y-13268460D01*
X15896372Y-13268460D02*
X15905896Y-13249412D01*
X15905896Y-13249412D02*
X15905896Y-13239888D01*
X15905896Y-13239888D02*
X15896372Y-13220841D01*
X15896372Y-13220841D02*
X15877325Y-13211317D01*
X15877325Y-13211317D02*
X15848753Y-13211317D01*
X15848753Y-13211317D02*
X15829706Y-13201793D01*
X15829706Y-13201793D02*
X15820182Y-13182746D01*
X15820182Y-13182746D02*
X15820182Y-13173222D01*
X15820182Y-13173222D02*
X15829706Y-13154174D01*
X15829706Y-13154174D02*
X15848753Y-13144650D01*
X15848753Y-13144650D02*
X15877325Y-13144650D01*
X15877325Y-13144650D02*
X15896372Y-13154174D01*
X15972563Y-13354174D02*
X15982087Y-13344650D01*
X15982087Y-13344650D02*
X16001134Y-13316079D01*
X16001134Y-13316079D02*
X16010658Y-13297031D01*
X16010658Y-13297031D02*
X16020182Y-13268460D01*
X16020182Y-13268460D02*
X16029706Y-13220841D01*
X16029706Y-13220841D02*
X16029706Y-13182746D01*
X16029706Y-13182746D02*
X16020182Y-13135127D01*
X16020182Y-13135127D02*
X16010658Y-13106555D01*
X16010658Y-13106555D02*
X16001134Y-13087508D01*
X16001134Y-13087508D02*
X15982087Y-13058936D01*
X15982087Y-13058936D02*
X15972563Y-13049412D01*
X16334468Y-13354174D02*
X16324944Y-13344650D01*
X16324944Y-13344650D02*
X16305896Y-13316079D01*
X16305896Y-13316079D02*
X16296372Y-13297031D01*
X16296372Y-13297031D02*
X16286849Y-13268460D01*
X16286849Y-13268460D02*
X16277325Y-13220841D01*
X16277325Y-13220841D02*
X16277325Y-13182746D01*
X16277325Y-13182746D02*
X16286849Y-13135127D01*
X16286849Y-13135127D02*
X16296372Y-13106555D01*
X16296372Y-13106555D02*
X16305896Y-13087508D01*
X16305896Y-13087508D02*
X16324944Y-13058936D01*
X16324944Y-13058936D02*
X16334468Y-13049412D01*
X16410658Y-13144650D02*
X16410658Y-13277984D01*
X16410658Y-13163698D02*
X16420182Y-13154174D01*
X16420182Y-13154174D02*
X16439230Y-13144650D01*
X16439230Y-13144650D02*
X16467801Y-13144650D01*
X16467801Y-13144650D02*
X16486849Y-13154174D01*
X16486849Y-13154174D02*
X16496372Y-13173222D01*
X16496372Y-13173222D02*
X16496372Y-13277984D01*
X16620182Y-13277984D02*
X16601134Y-13268460D01*
X16601134Y-13268460D02*
X16591611Y-13258936D01*
X16591611Y-13258936D02*
X16582087Y-13239888D01*
X16582087Y-13239888D02*
X16582087Y-13182746D01*
X16582087Y-13182746D02*
X16591611Y-13163698D01*
X16591611Y-13163698D02*
X16601134Y-13154174D01*
X16601134Y-13154174D02*
X16620182Y-13144650D01*
X16620182Y-13144650D02*
X16648753Y-13144650D01*
X16648753Y-13144650D02*
X16667801Y-13154174D01*
X16667801Y-13154174D02*
X16677325Y-13163698D01*
X16677325Y-13163698D02*
X16686849Y-13182746D01*
X16686849Y-13182746D02*
X16686849Y-13239888D01*
X16686849Y-13239888D02*
X16677325Y-13258936D01*
X16677325Y-13258936D02*
X16667801Y-13268460D01*
X16667801Y-13268460D02*
X16648753Y-13277984D01*
X16648753Y-13277984D02*
X16620182Y-13277984D01*
X16743992Y-13144650D02*
X16820182Y-13144650D01*
X16772563Y-13077984D02*
X16772563Y-13249412D01*
X16772563Y-13249412D02*
X16782087Y-13268460D01*
X16782087Y-13268460D02*
X16801134Y-13277984D01*
X16801134Y-13277984D02*
X16820182Y-13277984D01*
X17039230Y-13144650D02*
X17039230Y-13344650D01*
X17039230Y-13154174D02*
X17058277Y-13144650D01*
X17058277Y-13144650D02*
X17096373Y-13144650D01*
X17096373Y-13144650D02*
X17115420Y-13154174D01*
X17115420Y-13154174D02*
X17124944Y-13163698D01*
X17124944Y-13163698D02*
X17134468Y-13182746D01*
X17134468Y-13182746D02*
X17134468Y-13239888D01*
X17134468Y-13239888D02*
X17124944Y-13258936D01*
X17124944Y-13258936D02*
X17115420Y-13268460D01*
X17115420Y-13268460D02*
X17096373Y-13277984D01*
X17096373Y-13277984D02*
X17058277Y-13277984D01*
X17058277Y-13277984D02*
X17039230Y-13268460D01*
X17248754Y-13277984D02*
X17229706Y-13268460D01*
X17229706Y-13268460D02*
X17220182Y-13249412D01*
X17220182Y-13249412D02*
X17220182Y-13077984D01*
X17410658Y-13277984D02*
X17410658Y-13173222D01*
X17410658Y-13173222D02*
X17401135Y-13154174D01*
X17401135Y-13154174D02*
X17382087Y-13144650D01*
X17382087Y-13144650D02*
X17343992Y-13144650D01*
X17343992Y-13144650D02*
X17324944Y-13154174D01*
X17410658Y-13268460D02*
X17391611Y-13277984D01*
X17391611Y-13277984D02*
X17343992Y-13277984D01*
X17343992Y-13277984D02*
X17324944Y-13268460D01*
X17324944Y-13268460D02*
X17315420Y-13249412D01*
X17315420Y-13249412D02*
X17315420Y-13230365D01*
X17315420Y-13230365D02*
X17324944Y-13211317D01*
X17324944Y-13211317D02*
X17343992Y-13201793D01*
X17343992Y-13201793D02*
X17391611Y-13201793D01*
X17391611Y-13201793D02*
X17410658Y-13192269D01*
X17477325Y-13144650D02*
X17553515Y-13144650D01*
X17505896Y-13077984D02*
X17505896Y-13249412D01*
X17505896Y-13249412D02*
X17515420Y-13268460D01*
X17515420Y-13268460D02*
X17534468Y-13277984D01*
X17534468Y-13277984D02*
X17553515Y-13277984D01*
X17696373Y-13268460D02*
X17677325Y-13277984D01*
X17677325Y-13277984D02*
X17639230Y-13277984D01*
X17639230Y-13277984D02*
X17620182Y-13268460D01*
X17620182Y-13268460D02*
X17610658Y-13249412D01*
X17610658Y-13249412D02*
X17610658Y-13173222D01*
X17610658Y-13173222D02*
X17620182Y-13154174D01*
X17620182Y-13154174D02*
X17639230Y-13144650D01*
X17639230Y-13144650D02*
X17677325Y-13144650D01*
X17677325Y-13144650D02*
X17696373Y-13154174D01*
X17696373Y-13154174D02*
X17705896Y-13173222D01*
X17705896Y-13173222D02*
X17705896Y-13192269D01*
X17705896Y-13192269D02*
X17610658Y-13211317D01*
X17877325Y-13277984D02*
X17877325Y-13077984D01*
X17877325Y-13268460D02*
X17858277Y-13277984D01*
X17858277Y-13277984D02*
X17820182Y-13277984D01*
X17820182Y-13277984D02*
X17801135Y-13268460D01*
X17801135Y-13268460D02*
X17791611Y-13258936D01*
X17791611Y-13258936D02*
X17782087Y-13239888D01*
X17782087Y-13239888D02*
X17782087Y-13182746D01*
X17782087Y-13182746D02*
X17791611Y-13163698D01*
X17791611Y-13163698D02*
X17801135Y-13154174D01*
X17801135Y-13154174D02*
X17820182Y-13144650D01*
X17820182Y-13144650D02*
X17858277Y-13144650D01*
X17858277Y-13144650D02*
X17877325Y-13154174D01*
X17953516Y-13354174D02*
X17963039Y-13344650D01*
X17963039Y-13344650D02*
X17982087Y-13316079D01*
X17982087Y-13316079D02*
X17991611Y-13297031D01*
X17991611Y-13297031D02*
X18001135Y-13268460D01*
X18001135Y-13268460D02*
X18010658Y-13220841D01*
X18010658Y-13220841D02*
X18010658Y-13182746D01*
X18010658Y-13182746D02*
X18001135Y-13135127D01*
X18001135Y-13135127D02*
X17991611Y-13106555D01*
X17991611Y-13106555D02*
X17982087Y-13087508D01*
X17982087Y-13087508D02*
X17963039Y-13058936D01*
X17963039Y-13058936D02*
X17953516Y-13049412D01*
M02*
