%TF.GenerationSoftware,KiCad,Pcbnew,8.0.8*%
%TF.CreationDate,2025-03-13T11:35:54-04:00*%
%TF.ProjectId,ECE477-SeniorDesign,45434534-3737-42d5-9365-6e696f724465,rev?*%
%TF.SameCoordinates,Original*%
%TF.FileFunction,Soldermask,Top*%
%TF.FilePolarity,Negative*%
%FSLAX46Y46*%
G04 Gerber Fmt 4.6, Leading zero omitted, Abs format (unit mm)*
G04 Created by KiCad (PCBNEW 8.0.8) date 2025-03-13 11:35:54*
%MOMM*%
%LPD*%
G01*
G04 APERTURE LIST*
G04 Aperture macros list*
%AMRoundRect*
0 Rectangle with rounded corners*
0 $1 Rounding radius*
0 $2 $3 $4 $5 $6 $7 $8 $9 X,Y pos of 4 corners*
0 Add a 4 corners polygon primitive as box body*
4,1,4,$2,$3,$4,$5,$6,$7,$8,$9,$2,$3,0*
0 Add four circle primitives for the rounded corners*
1,1,$1+$1,$2,$3*
1,1,$1+$1,$4,$5*
1,1,$1+$1,$6,$7*
1,1,$1+$1,$8,$9*
0 Add four rect primitives between the rounded corners*
20,1,$1+$1,$2,$3,$4,$5,0*
20,1,$1+$1,$4,$5,$6,$7,0*
20,1,$1+$1,$6,$7,$8,$9,0*
20,1,$1+$1,$8,$9,$2,$3,0*%
%AMFreePoly0*
4,1,21,-0.300000,0.050000,-0.296194,0.069134,-0.285355,0.085355,-0.269134,0.096194,-0.250000,0.100000,0.250000,0.100000,0.269134,0.096194,0.285355,0.085355,0.296194,0.069134,0.300000,0.050000,0.300000,-0.050000,0.296194,-0.069134,0.285355,-0.085355,0.269134,-0.096194,0.250000,-0.100000,-0.250000,-0.100000,-0.269134,-0.096194,-0.285355,-0.085355,-0.296194,-0.069134,-0.300000,-0.050000,
-0.300000,0.050000,-0.300000,0.050000,$1*%
G04 Aperture macros list end*
%ADD10RoundRect,0.250000X0.450000X-0.350000X0.450000X0.350000X-0.450000X0.350000X-0.450000X-0.350000X0*%
%ADD11RoundRect,0.218750X0.256250X-0.218750X0.256250X0.218750X-0.256250X0.218750X-0.256250X-0.218750X0*%
%ADD12RoundRect,0.218750X-0.218750X-0.256250X0.218750X-0.256250X0.218750X0.256250X-0.218750X0.256250X0*%
%ADD13RoundRect,0.250000X-0.450000X0.350000X-0.450000X-0.350000X0.450000X-0.350000X0.450000X0.350000X0*%
%ADD14RoundRect,0.250000X-0.475000X0.337500X-0.475000X-0.337500X0.475000X-0.337500X0.475000X0.337500X0*%
%ADD15RoundRect,0.250000X0.337500X0.475000X-0.337500X0.475000X-0.337500X-0.475000X0.337500X-0.475000X0*%
%ADD16RoundRect,0.250000X-0.350000X-0.450000X0.350000X-0.450000X0.350000X0.450000X-0.350000X0.450000X0*%
%ADD17C,2.000000*%
%ADD18RoundRect,0.250000X-0.337500X-0.475000X0.337500X-0.475000X0.337500X0.475000X-0.337500X0.475000X0*%
%ADD19R,0.965200X0.254000*%
%ADD20R,0.254000X0.965200*%
%ADD21R,3.352800X3.352800*%
%ADD22RoundRect,0.250000X-0.550000X0.550000X-0.550000X-0.550000X0.550000X-0.550000X0.550000X0.550000X0*%
%ADD23C,1.600000*%
%ADD24RoundRect,0.250000X0.475000X-0.337500X0.475000X0.337500X-0.475000X0.337500X-0.475000X-0.337500X0*%
%ADD25R,1.600000X1.600000*%
%ADD26O,1.600000X1.600000*%
%ADD27RoundRect,0.250000X1.500000X-0.250000X1.500000X0.250000X-1.500000X0.250000X-1.500000X-0.250000X0*%
%ADD28RoundRect,0.250001X1.449999X-0.499999X1.449999X0.499999X-1.449999X0.499999X-1.449999X-0.499999X0*%
%ADD29RoundRect,0.250000X0.350000X0.450000X-0.350000X0.450000X-0.350000X-0.450000X0.350000X-0.450000X0*%
%ADD30R,1.700000X1.700000*%
%ADD31O,1.700000X1.700000*%
%ADD32FreePoly0,90.000000*%
%ADD33RoundRect,0.050000X-0.212500X-0.050000X0.212500X-0.050000X0.212500X0.050000X-0.212500X0.050000X0*%
%ADD34R,1.950000X2.450000*%
%ADD35RoundRect,0.237500X-0.237500X0.250000X-0.237500X-0.250000X0.237500X-0.250000X0.237500X0.250000X0*%
%ADD36C,2.100000*%
%ADD37RoundRect,0.075000X-0.662500X-0.075000X0.662500X-0.075000X0.662500X0.075000X-0.662500X0.075000X0*%
%ADD38RoundRect,0.075000X-0.075000X-0.662500X0.075000X-0.662500X0.075000X0.662500X-0.075000X0.662500X0*%
%ADD39R,0.800000X1.000000*%
%ADD40C,0.900000*%
%ADD41R,1.500000X0.700000*%
%ADD42R,0.254000X0.812800*%
%ADD43R,0.812800X0.254000*%
%ADD44R,2.594000X2.594000*%
%ADD45R,0.558800X0.952500*%
%ADD46R,0.599999X0.249999*%
%ADD47R,0.900001X0.249999*%
%ADD48R,1.300000X0.249999*%
%ADD49R,0.700000X1.600000*%
%ADD50R,1.200000X1.500000*%
%ADD51R,1.200000X2.200000*%
%ADD52R,1.600000X1.500000*%
%ADD53RoundRect,0.325000X1.175000X-0.325000X1.175000X0.325000X-1.175000X0.325000X-1.175000X-0.325000X0*%
%ADD54O,2.900000X1.200000*%
%ADD55RoundRect,0.102000X-0.600000X0.300000X-0.600000X-0.300000X0.600000X-0.300000X0.600000X0.300000X0*%
%ADD56R,1.409700X0.355600*%
%ADD57R,3.200400X0.762000*%
%ADD58RoundRect,0.150000X0.512500X0.150000X-0.512500X0.150000X-0.512500X-0.150000X0.512500X-0.150000X0*%
%ADD59C,0.700000*%
%ADD60C,0.650000*%
G04 APERTURE END LIST*
D10*
%TO.C,R13*%
X171600000Y-79325000D03*
X171600000Y-77325000D03*
%TD*%
D11*
%TO.C,D3*%
X169250000Y-109725000D03*
X169250000Y-108150000D03*
%TD*%
%TO.C,D2*%
X166750000Y-109725000D03*
X166750000Y-108150000D03*
%TD*%
D12*
%TO.C,D1*%
X162925000Y-108225000D03*
X164500000Y-108225000D03*
%TD*%
D13*
%TO.C,R12*%
X169300000Y-104300000D03*
X169300000Y-106300000D03*
%TD*%
%TO.C,R10*%
X167175000Y-106275000D03*
X167175000Y-104275000D03*
%TD*%
%TO.C,R5*%
X165025000Y-106275000D03*
X165025000Y-104275000D03*
%TD*%
D14*
%TO.C,C7*%
X168400000Y-91375000D03*
X168400000Y-93450000D03*
%TD*%
D15*
%TO.C,C9*%
X158000000Y-104350000D03*
X155925000Y-104350000D03*
%TD*%
D14*
%TO.C,C2*%
X136850000Y-89525000D03*
X136850000Y-91600000D03*
%TD*%
D16*
%TO.C,R3*%
X174200000Y-109200000D03*
X176200000Y-109200000D03*
%TD*%
D17*
%TO.C,TP4*%
X146950000Y-116900000D03*
%TD*%
D18*
%TO.C,C1*%
X139175000Y-101750000D03*
X141250000Y-101750000D03*
%TD*%
D14*
%TO.C,C36*%
X128750000Y-77000000D03*
X128750000Y-79075000D03*
%TD*%
D19*
%TO.C,U8*%
X176824100Y-86425900D03*
X176824100Y-85925901D03*
X176824100Y-85425899D03*
X176824100Y-84925900D03*
X176824100Y-84425901D03*
X176824100Y-83925899D03*
X176824100Y-83425900D03*
D20*
X176000000Y-82601800D03*
X175500001Y-82601800D03*
X174999999Y-82601800D03*
X174500000Y-82601800D03*
X174000001Y-82601800D03*
X173499999Y-82601800D03*
X173000000Y-82601800D03*
D19*
X172175900Y-83425900D03*
X172175900Y-83925899D03*
X172175900Y-84425901D03*
X172175900Y-84925900D03*
X172175900Y-85425899D03*
X172175900Y-85925901D03*
X172175900Y-86425900D03*
D20*
X173000000Y-87250000D03*
X173499999Y-87250000D03*
X174000001Y-87250000D03*
X174500000Y-87250000D03*
X174999999Y-87250000D03*
X175500001Y-87250000D03*
X176000000Y-87250000D03*
D21*
X174500000Y-84925900D03*
%TD*%
D10*
%TO.C,R7*%
X157900000Y-120000000D03*
X157900000Y-118000000D03*
%TD*%
D22*
%TO.C,J5*%
X117150000Y-63350000D03*
D23*
X117150000Y-66950000D03*
%TD*%
D10*
%TO.C,R18*%
X177600000Y-105100000D03*
X177600000Y-103100000D03*
%TD*%
D24*
%TO.C,C41*%
X162700000Y-67700000D03*
X162700000Y-65625000D03*
%TD*%
D14*
%TO.C,C37*%
X128750000Y-88175000D03*
X128750000Y-90250000D03*
%TD*%
D25*
%TO.C,D4*%
X132000000Y-60000000D03*
D26*
X124380000Y-60000000D03*
%TD*%
D16*
%TO.C,R16*%
X175700000Y-95600000D03*
X177700000Y-95600000D03*
%TD*%
D27*
%TO.C,J6*%
X192600000Y-105650000D03*
X192600000Y-103650000D03*
D28*
X198350000Y-108000000D03*
X198350000Y-101300000D03*
%TD*%
D15*
%TO.C,C32*%
X176750000Y-80500000D03*
X174675000Y-80500000D03*
%TD*%
D14*
%TO.C,C39*%
X131000000Y-76925000D03*
X131000000Y-79000000D03*
%TD*%
D15*
%TO.C,C20*%
X163250000Y-118050000D03*
X161175000Y-118050000D03*
%TD*%
D18*
%TO.C,C25*%
X181600000Y-115300000D03*
X183675000Y-115300000D03*
%TD*%
D29*
%TO.C,R9*%
X176300000Y-115960000D03*
X174300000Y-115960000D03*
%TD*%
D14*
%TO.C,C27*%
X180400000Y-117960000D03*
X180400000Y-120035000D03*
%TD*%
D30*
%TO.C,J2*%
X144490000Y-47150000D03*
D31*
X141950000Y-47150000D03*
X139410000Y-47150000D03*
X136870000Y-47150000D03*
X134330000Y-47150000D03*
%TD*%
D15*
%TO.C,C10*%
X151025000Y-104250000D03*
X153100000Y-104250000D03*
%TD*%
D32*
%TO.C,U5*%
X178000000Y-115850000D03*
X178400000Y-115850000D03*
X178800000Y-115850000D03*
X179200000Y-115850000D03*
X179600000Y-115850000D03*
X180000000Y-115850000D03*
X180000000Y-112050000D03*
X179600000Y-112050000D03*
X179200000Y-112050000D03*
X178800000Y-112050000D03*
X178400000Y-112050000D03*
X178000000Y-112050000D03*
D33*
X177812500Y-115075000D03*
X180187500Y-115075000D03*
D34*
X179000000Y-113950000D03*
D33*
X177812500Y-112825000D03*
X180187500Y-112825000D03*
%TD*%
D16*
%TO.C,R25*%
X128750000Y-86250000D03*
X130750000Y-86250000D03*
%TD*%
D22*
%TO.C,J9*%
X117250000Y-74650000D03*
D23*
X117250000Y-78250000D03*
%TD*%
D14*
%TO.C,C30*%
X182200000Y-102500000D03*
X182200000Y-104575000D03*
%TD*%
D10*
%TO.C,R4*%
X157900000Y-116150000D03*
X157900000Y-114150000D03*
%TD*%
D15*
%TO.C,C34*%
X176750000Y-78250000D03*
X174675000Y-78250000D03*
%TD*%
D18*
%TO.C,C29*%
X183900000Y-98900000D03*
X185975000Y-98900000D03*
%TD*%
%TO.C,C18*%
X143775000Y-74150000D03*
X145850000Y-74150000D03*
%TD*%
D35*
%TO.C,R2*%
X143000000Y-68475000D03*
X143000000Y-70300000D03*
%TD*%
D36*
%TO.C,H2*%
X115000000Y-119800000D03*
%TD*%
D15*
%TO.C,C12*%
X139750000Y-98550000D03*
X137675000Y-98550000D03*
%TD*%
D16*
%TO.C,R24*%
X128500000Y-75000000D03*
X130500000Y-75000000D03*
%TD*%
D30*
%TO.C,J3*%
X193325000Y-47050000D03*
D31*
X190785000Y-47050000D03*
X188245000Y-47050000D03*
X185705000Y-47050000D03*
X183165000Y-47050000D03*
%TD*%
D24*
%TO.C,C5*%
X167250000Y-82950000D03*
X167250000Y-80875000D03*
%TD*%
D37*
%TO.C,U2*%
X142837500Y-81250000D03*
X142837500Y-81750000D03*
X142837500Y-82250000D03*
X142837500Y-82750000D03*
X142837500Y-83250000D03*
X142837500Y-83750000D03*
X142837500Y-84250000D03*
X142837500Y-84750000D03*
X142837500Y-85250000D03*
X142837500Y-85750000D03*
X142837500Y-86250000D03*
X142837500Y-86750000D03*
X142837500Y-87250000D03*
X142837500Y-87750000D03*
X142837500Y-88250000D03*
X142837500Y-88750000D03*
X142837500Y-89250000D03*
X142837500Y-89750000D03*
X142837500Y-90250000D03*
X142837500Y-90750000D03*
X142837500Y-91250000D03*
X142837500Y-91750000D03*
X142837500Y-92250000D03*
X142837500Y-92750000D03*
X142837500Y-93250000D03*
X142837500Y-93750000D03*
X142837500Y-94250000D03*
X142837500Y-94750000D03*
X142837500Y-95250000D03*
X142837500Y-95750000D03*
X142837500Y-96250000D03*
X142837500Y-96750000D03*
X142837500Y-97250000D03*
X142837500Y-97750000D03*
X142837500Y-98250000D03*
X142837500Y-98750000D03*
D38*
X144750000Y-100662500D03*
X145250000Y-100662500D03*
X145750000Y-100662500D03*
X146250000Y-100662500D03*
X146750000Y-100662500D03*
X147250000Y-100662500D03*
X147750000Y-100662500D03*
X148250000Y-100662500D03*
X148750000Y-100662500D03*
X149250000Y-100662500D03*
X149750000Y-100662500D03*
X150250000Y-100662500D03*
X150750000Y-100662500D03*
X151250000Y-100662500D03*
X151750000Y-100662500D03*
X152250000Y-100662500D03*
X152750000Y-100662500D03*
X153250000Y-100662500D03*
X153750000Y-100662500D03*
X154250000Y-100662500D03*
X154750000Y-100662500D03*
X155250000Y-100662500D03*
X155750000Y-100662500D03*
X156250000Y-100662500D03*
X156750000Y-100662500D03*
X157250000Y-100662500D03*
X157750000Y-100662500D03*
X158250000Y-100662500D03*
X158750000Y-100662500D03*
X159250000Y-100662500D03*
X159750000Y-100662500D03*
X160250000Y-100662500D03*
X160750000Y-100662500D03*
X161250000Y-100662500D03*
X161750000Y-100662500D03*
X162250000Y-100662500D03*
D37*
X164162500Y-98750000D03*
X164162500Y-98250000D03*
X164162500Y-97750000D03*
X164162500Y-97250000D03*
X164162500Y-96750000D03*
X164162500Y-96250000D03*
X164162500Y-95750000D03*
X164162500Y-95250000D03*
X164162500Y-94750000D03*
X164162500Y-94250000D03*
X164162500Y-93750000D03*
X164162500Y-93250000D03*
X164162500Y-92750000D03*
X164162500Y-92250000D03*
X164162500Y-91750000D03*
X164162500Y-91250000D03*
X164162500Y-90750000D03*
X164162500Y-90250000D03*
X164162500Y-89750000D03*
X164162500Y-89250000D03*
X164162500Y-88750000D03*
X164162500Y-88250000D03*
X164162500Y-87750000D03*
X164162500Y-87250000D03*
X164162500Y-86750000D03*
X164162500Y-86250000D03*
X164162500Y-85750000D03*
X164162500Y-85250000D03*
X164162500Y-84750000D03*
X164162500Y-84250000D03*
X164162500Y-83750000D03*
X164162500Y-83250000D03*
X164162500Y-82750000D03*
X164162500Y-82250000D03*
X164162500Y-81750000D03*
X164162500Y-81250000D03*
D38*
X162250000Y-79337500D03*
X161750000Y-79337500D03*
X161250000Y-79337500D03*
X160750000Y-79337500D03*
X160250000Y-79337500D03*
X159750000Y-79337500D03*
X159250000Y-79337500D03*
X158750000Y-79337500D03*
X158250000Y-79337500D03*
X157750000Y-79337500D03*
X157250000Y-79337500D03*
X156750000Y-79337500D03*
X156250000Y-79337500D03*
X155750000Y-79337500D03*
X155250000Y-79337500D03*
X154750000Y-79337500D03*
X154250000Y-79337500D03*
X153750000Y-79337500D03*
X153250000Y-79337500D03*
X152750000Y-79337500D03*
X152250000Y-79337500D03*
X151750000Y-79337500D03*
X151250000Y-79337500D03*
X150750000Y-79337500D03*
X150250000Y-79337500D03*
X149750000Y-79337500D03*
X149250000Y-79337500D03*
X148750000Y-79337500D03*
X148250000Y-79337500D03*
X147750000Y-79337500D03*
X147250000Y-79337500D03*
X146750000Y-79337500D03*
X146250000Y-79337500D03*
X145750000Y-79337500D03*
X145250000Y-79337500D03*
X144750000Y-79337500D03*
%TD*%
D17*
%TO.C,TP2*%
X135750000Y-115800000D03*
%TD*%
D15*
%TO.C,C33*%
X181325000Y-83250000D03*
X179250000Y-83250000D03*
%TD*%
D17*
%TO.C,TP6*%
X140650000Y-116850000D03*
%TD*%
D24*
%TO.C,C14*%
X139700000Y-89700000D03*
X139700000Y-87625000D03*
%TD*%
%TO.C,C13*%
X139350000Y-96500000D03*
X139350000Y-94425000D03*
%TD*%
D14*
%TO.C,C6*%
X168400000Y-87125000D03*
X168400000Y-89200000D03*
%TD*%
D30*
%TO.C,J1*%
X198650000Y-52720000D03*
D31*
X198650000Y-55260000D03*
X198650000Y-57800000D03*
X198650000Y-60340000D03*
X198650000Y-62880000D03*
%TD*%
D15*
%TO.C,C19*%
X162975000Y-112350000D03*
X160900000Y-112350000D03*
%TD*%
D24*
%TO.C,C4*%
X165750000Y-79050000D03*
X165750000Y-76975000D03*
%TD*%
D14*
%TO.C,C38*%
X131250000Y-65925000D03*
X131250000Y-68000000D03*
%TD*%
D22*
%TO.C,J10*%
X117350000Y-85350000D03*
D23*
X117350000Y-88950000D03*
%TD*%
D39*
%TO.C,SWBOOT1*%
X140100000Y-64100000D03*
X137890000Y-64100000D03*
D40*
X138990000Y-66250000D03*
X138990000Y-69250000D03*
D39*
X140100000Y-71400000D03*
X137890000Y-71400000D03*
D41*
X140750000Y-65500000D03*
X140750000Y-68500000D03*
X140750000Y-70000000D03*
%TD*%
D15*
%TO.C,C8*%
X162950000Y-104300000D03*
X160875000Y-104300000D03*
%TD*%
D25*
%TO.C,D6*%
X131750000Y-83500000D03*
D26*
X124130000Y-83500000D03*
%TD*%
D29*
%TO.C,R1*%
X141250000Y-104750000D03*
X139250000Y-104750000D03*
%TD*%
D18*
%TO.C,C28*%
X182362500Y-94900000D03*
X184437500Y-94900000D03*
%TD*%
D13*
%TO.C,R22*%
X125000000Y-88250000D03*
X125000000Y-90250000D03*
%TD*%
D42*
%TO.C,U6*%
X181200001Y-97107700D03*
X180699999Y-97107700D03*
X180200000Y-97107700D03*
X179700001Y-97107700D03*
X179199999Y-97107700D03*
D43*
X178307700Y-97999999D03*
X178307700Y-98500001D03*
X178307700Y-99000000D03*
X178307700Y-99499999D03*
X178307700Y-100000001D03*
D42*
X179199999Y-100892300D03*
X179700001Y-100892300D03*
X180200000Y-100892300D03*
X180699999Y-100892300D03*
X181200001Y-100892300D03*
D43*
X182092300Y-100000001D03*
X182092300Y-99499999D03*
X182092300Y-99000000D03*
X182092300Y-98500001D03*
X182092300Y-97999999D03*
D44*
X180200000Y-99000000D03*
%TD*%
D25*
%TO.C,D5*%
X131560000Y-72250000D03*
D26*
X123940000Y-72250000D03*
%TD*%
D24*
%TO.C,C3*%
X136850000Y-95625000D03*
X136850000Y-93550000D03*
%TD*%
D17*
%TO.C,TP5*%
X149700000Y-113800000D03*
%TD*%
D16*
%TO.C,R19*%
X150500000Y-69900000D03*
X152500000Y-69900000D03*
%TD*%
D36*
%TO.C,H4*%
X197850000Y-119800000D03*
%TD*%
D45*
%TO.C,U1*%
X141308400Y-106737300D03*
X141308400Y-113100000D03*
X137600000Y-106737300D03*
X137600000Y-113100000D03*
%TD*%
D16*
%TO.C,R15*%
X174300000Y-112260000D03*
X176300000Y-112260000D03*
%TD*%
D13*
%TO.C,R20*%
X124750000Y-65750000D03*
X124750000Y-67750000D03*
%TD*%
D16*
%TO.C,R26*%
X165000000Y-68900000D03*
X167000000Y-68900000D03*
%TD*%
D36*
%TO.C,H1*%
X115000000Y-48000000D03*
%TD*%
D46*
%TO.C,U10*%
X160824999Y-114224998D03*
X160824999Y-114725000D03*
X160824999Y-115224999D03*
X160824999Y-115724998D03*
X160824999Y-116225000D03*
D47*
X162475001Y-116225000D03*
X162475001Y-115724998D03*
D48*
X162274999Y-115224999D03*
D47*
X162475001Y-114725000D03*
X162475001Y-114224998D03*
%TD*%
D16*
%TO.C,R14*%
X175700000Y-93600000D03*
X177700000Y-93600000D03*
%TD*%
D17*
%TO.C,TP3*%
X132200000Y-115450000D03*
%TD*%
D36*
%TO.C,H3*%
X198150000Y-47950000D03*
%TD*%
D16*
%TO.C,R27*%
X162700000Y-71100000D03*
X164700000Y-71100000D03*
%TD*%
D13*
%TO.C,R21*%
X124750000Y-77000000D03*
X124750000Y-79000000D03*
%TD*%
D49*
%TO.C,CARD1*%
X155400000Y-60500000D03*
X156500000Y-60500000D03*
X157600000Y-60500000D03*
X158700000Y-60500000D03*
X159800000Y-60500000D03*
X160900000Y-60500000D03*
X162000000Y-60500000D03*
X163100000Y-60500000D03*
X164200000Y-60500000D03*
D50*
X165400000Y-59500000D03*
D51*
X165400000Y-49900000D03*
D52*
X150800000Y-59500000D03*
D51*
X149900000Y-49900000D03*
%TD*%
D13*
%TO.C,R17*%
X179600000Y-103100000D03*
X179600000Y-105100000D03*
%TD*%
D16*
%TO.C,R23*%
X128750000Y-63750000D03*
X130750000Y-63750000D03*
%TD*%
D30*
%TO.C,J4*%
X178380000Y-46800000D03*
D31*
X175840000Y-46800000D03*
X173300000Y-46800000D03*
X170760000Y-46800000D03*
X168220000Y-46800000D03*
%TD*%
D22*
%TO.C,J12*%
X116900000Y-97600000D03*
D23*
X116900000Y-101200000D03*
%TD*%
D53*
%TO.C,J7*%
X188510000Y-88750000D03*
X188510000Y-86250000D03*
X188510000Y-84250000D03*
X188510000Y-81750000D03*
D54*
X192210000Y-91650000D03*
X192210000Y-78850000D03*
%TD*%
D55*
%TO.C,Y1*%
X134350000Y-91700000D03*
X134350000Y-92900000D03*
%TD*%
D16*
%TO.C,R29*%
X130550000Y-99025000D03*
X132550000Y-99025000D03*
%TD*%
%TO.C,R11*%
X180200000Y-109100000D03*
X182200000Y-109100000D03*
%TD*%
D15*
%TO.C,C31*%
X181325000Y-81000000D03*
X179250000Y-81000000D03*
%TD*%
D16*
%TO.C,Rr1*%
X150700000Y-67700000D03*
X152700000Y-67700000D03*
%TD*%
D15*
%TO.C,C11*%
X146000000Y-104200000D03*
X143925000Y-104200000D03*
%TD*%
D16*
%TO.C,R6*%
X156250000Y-110000000D03*
X158250000Y-110000000D03*
%TD*%
D18*
%TO.C,C17*%
X158225000Y-76300000D03*
X156150000Y-76300000D03*
%TD*%
D56*
%TO.C,U9*%
X154715950Y-67064899D03*
X154715950Y-67714900D03*
X154715950Y-68364901D03*
X154715950Y-69014900D03*
X154715950Y-69664899D03*
X154715950Y-70314900D03*
X154715950Y-70964899D03*
X160621450Y-70964901D03*
X160621450Y-70314900D03*
X160621450Y-69664901D03*
X160621450Y-69014900D03*
X160621450Y-68364901D03*
X160621450Y-67714900D03*
X160621450Y-67064901D03*
%TD*%
D14*
%TO.C,C35*%
X129000000Y-65925000D03*
X129000000Y-68000000D03*
%TD*%
D30*
%TO.C,EinkDispCon1*%
X134240000Y-120600000D03*
D31*
X136780000Y-120600000D03*
X139320000Y-120600000D03*
X141860000Y-120600000D03*
X144400000Y-120600000D03*
X146940000Y-120600000D03*
X149480000Y-120600000D03*
X152020000Y-120600000D03*
%TD*%
D17*
%TO.C,TP1*%
X143750000Y-116900000D03*
%TD*%
D14*
%TO.C,C40*%
X131500000Y-88175000D03*
X131500000Y-90250000D03*
%TD*%
D13*
%TO.C,R8*%
X178200000Y-118100000D03*
X178200000Y-120100000D03*
%TD*%
D25*
%TO.C,D7*%
X132030499Y-96400000D03*
D26*
X124410499Y-96400000D03*
%TD*%
D18*
%TO.C,C15*%
X143825000Y-76600000D03*
X145900000Y-76600000D03*
%TD*%
D14*
%TO.C,C43*%
X132800000Y-101025000D03*
X132800000Y-103100000D03*
%TD*%
D13*
%TO.C,R28*%
X124700000Y-100100000D03*
X124700000Y-102100000D03*
%TD*%
D18*
%TO.C,C16*%
X150325000Y-76450000D03*
X152400000Y-76450000D03*
%TD*%
D57*
%TO.C,L1*%
X167153700Y-114100000D03*
X167153700Y-116792400D03*
%TD*%
D58*
%TO.C,U7*%
X182337500Y-86950000D03*
X182337500Y-86000000D03*
X182337500Y-85050000D03*
X180062500Y-85050000D03*
X180062500Y-86000000D03*
X180062500Y-86950000D03*
%TD*%
D14*
%TO.C,C42*%
X130550000Y-100950000D03*
X130550000Y-103025000D03*
%TD*%
D59*
X171975000Y-75900000D03*
X140825000Y-91075000D03*
X161550000Y-107725000D03*
X170875000Y-109375000D03*
X161000000Y-62100000D03*
X158500000Y-62100000D03*
X154350000Y-72200000D03*
X134269501Y-103125001D03*
X126200000Y-102400000D03*
X128869501Y-103025001D03*
X161700000Y-120150000D03*
X164300000Y-120200000D03*
X166950000Y-120100000D03*
X168600000Y-119050000D03*
X165300000Y-118950000D03*
X182100000Y-120100000D03*
X176500000Y-120100000D03*
X172900000Y-109200000D03*
X145500000Y-105750000D03*
X143550000Y-105750000D03*
X140800000Y-93550000D03*
X137900000Y-97100000D03*
X149600000Y-75000000D03*
X151700000Y-74800000D03*
X160050000Y-76950000D03*
X155750000Y-74700000D03*
X147800000Y-82100000D03*
X144350000Y-86250000D03*
X153700000Y-74750000D03*
X157400000Y-70900000D03*
X162800000Y-81900000D03*
D17*
X191350000Y-55200000D03*
X169850000Y-84550000D03*
X174300000Y-89900000D03*
D59*
X162900000Y-80782806D03*
D17*
X191400000Y-52750000D03*
D59*
X155100000Y-81500000D03*
D17*
X164700000Y-73400000D03*
D59*
X145100000Y-93600000D03*
D17*
X191400000Y-57850000D03*
D59*
X142200000Y-100100000D03*
X183700000Y-86000000D03*
D60*
X178200000Y-85900000D03*
D17*
X174500000Y-84925900D03*
D59*
X148400000Y-49600000D03*
X144100000Y-95700000D03*
X177400000Y-101300000D03*
X162300000Y-69700000D03*
X170000000Y-89250000D03*
X182600000Y-83400000D03*
X132800000Y-67900000D03*
X154300000Y-66100000D03*
X182700000Y-80900000D03*
X186000000Y-80100000D03*
X179000000Y-106650000D03*
X135250000Y-95950000D03*
X139000000Y-100100000D03*
X127300000Y-68000000D03*
X167350000Y-77050000D03*
D60*
X141700000Y-114400000D03*
D59*
X166700000Y-49900000D03*
D17*
X180200000Y-99000000D03*
D60*
X161175000Y-118050000D03*
X158000000Y-112850000D03*
D59*
X137750000Y-87850000D03*
X178900000Y-116800000D03*
D60*
X161550000Y-117050000D03*
D59*
X132600000Y-78900000D03*
D17*
X188900000Y-102100000D03*
D60*
X161550000Y-115550000D03*
X161550000Y-116300000D03*
D17*
X191450000Y-60250000D03*
D59*
X127300000Y-78900000D03*
X181300000Y-106150000D03*
X137250000Y-100150000D03*
X160600000Y-105900000D03*
X126500000Y-90600000D03*
X168900000Y-81150000D03*
D17*
X179000000Y-113950000D03*
D59*
X156100000Y-69400000D03*
D60*
X179900000Y-93700000D03*
D59*
X177600000Y-106600000D03*
D60*
X161550000Y-114700000D03*
X160900000Y-112350000D03*
D59*
X127300000Y-89900000D03*
X150100000Y-105900000D03*
X173800000Y-93700000D03*
X170050000Y-93550000D03*
D60*
X173200000Y-79800000D03*
D17*
X151250000Y-116550000D03*
D59*
X164000000Y-67400000D03*
D60*
X161600000Y-113800000D03*
D59*
X164300000Y-115200000D03*
X184200000Y-93200000D03*
D60*
X173200000Y-78200000D03*
D59*
X132900000Y-90600000D03*
X155450000Y-105950000D03*
X146500000Y-72550000D03*
X142300000Y-65500000D03*
X166700000Y-59400000D03*
X126200000Y-67400000D03*
X126200000Y-78700000D03*
D60*
X149600000Y-60700000D03*
D59*
X156800000Y-80700000D03*
D60*
X183600000Y-96800000D03*
D17*
X174100000Y-105200000D03*
D59*
X148400000Y-99000000D03*
D60*
X137750000Y-117400000D03*
D59*
X144200000Y-81450000D03*
X148900000Y-77750000D03*
X168600000Y-99200000D03*
X167050000Y-96350000D03*
X146050000Y-81900000D03*
X155400000Y-80600000D03*
D17*
X153650000Y-116500000D03*
D59*
X143500000Y-72650000D03*
X167400000Y-78250000D03*
X140400000Y-100150000D03*
X119200000Y-62900000D03*
X153900000Y-105750000D03*
X141200000Y-83700000D03*
X170150000Y-87700000D03*
X142400000Y-71900000D03*
X119600000Y-74100000D03*
X119450000Y-96600000D03*
X168800000Y-82500000D03*
X119700000Y-84800000D03*
X137900000Y-103600000D03*
X159400000Y-104650000D03*
X163050000Y-105900000D03*
X164100000Y-65600000D03*
X169950000Y-91300000D03*
X145300000Y-84800000D03*
X150800000Y-81100000D03*
D17*
X184800000Y-103200000D03*
X184300000Y-108100000D03*
D59*
X175150000Y-99800000D03*
D17*
X182500000Y-88700000D03*
D59*
X181200000Y-86400000D03*
X170125000Y-113125000D03*
X168050000Y-95450000D03*
X161100000Y-81400000D03*
X157900000Y-80700000D03*
X158660000Y-81674386D03*
X159600000Y-82300000D03*
X173050000Y-114400000D03*
X165650000Y-94250000D03*
X169200000Y-102350000D03*
X172200000Y-102550000D03*
X168550000Y-94800000D03*
X175750000Y-118100000D03*
X138250000Y-86300000D03*
X134350000Y-96350000D03*
X184900000Y-86950000D03*
X185100000Y-84250000D03*
X159000000Y-70800000D03*
D17*
X155700000Y-63700000D03*
D59*
X159650000Y-116000000D03*
X156250000Y-111850000D03*
M02*
