%TF.GenerationSoftware,KiCad,Pcbnew,8.0.8*%
%TF.CreationDate,2025-03-13T11:37:56-04:00*%
%TF.ProjectId,ECE477-SeniorDesign,45434534-3737-42d5-9365-6e696f724465,rev?*%
%TF.SameCoordinates,Original*%
%TF.FileFunction,Drillmap*%
%TF.FilePolarity,Positive*%
%FSLAX45Y45*%
G04 Gerber Fmt 4.5, Leading zero omitted, Abs format (unit mm)*
G04 Created by KiCad (PCBNEW 8.0.8) date 2025-03-13 11:37:56*
%MOMM*%
%LPD*%
G01*
G04 APERTURE LIST*
%ADD10C,0.050000*%
%ADD11C,0.000000*%
%ADD12C,0.200000*%
%ADD13C,0.100000*%
G04 APERTURE END LIST*
D10*
X19822000Y-4500000D02*
G75*
G02*
X20120007Y-4800000I-2000J-300000D01*
G01*
X19820000Y-12280000D02*
X11499976Y-12280000D01*
X11200000Y-11980000D02*
X11200000Y-4800000D01*
X20120000Y-8025000D02*
X20120000Y-4800000D01*
X20120000Y-8025000D02*
X20120000Y-11980000D01*
X11200000Y-4800000D02*
G75*
G02*
X11500000Y-4500000I300000J0D01*
G01*
X20120000Y-11980000D02*
G75*
G02*
X19820000Y-12280000I-300000J0D01*
G01*
X11499976Y-12280000D02*
G75*
G02*
X11200000Y-11980000I24J300000D01*
G01*
X19822000Y-4500000D02*
X11500000Y-4500000D01*
D11*
G36*
X15475529Y-4892045D02*
G01*
X15490000Y-4898039D01*
X15502426Y-4907574D01*
X15511961Y-4920000D01*
X15517955Y-4934471D01*
X15520000Y-4950000D01*
X15517955Y-4965529D01*
X15511961Y-4980000D01*
X15502426Y-4992426D01*
X15490000Y-5001962D01*
X15475529Y-5007956D01*
X15460000Y-5010000D01*
X15444471Y-5007956D01*
X15430000Y-5001962D01*
X15417574Y-4992426D01*
X15408038Y-4980000D01*
X15402044Y-4965529D01*
X15400000Y-4950000D01*
X15402044Y-4934471D01*
X15408038Y-4920000D01*
X15417574Y-4907574D01*
X15430000Y-4898039D01*
X15444471Y-4892045D01*
X15460000Y-4890000D01*
X15475529Y-4892045D01*
G37*
G36*
X16275529Y-4892045D02*
G01*
X16290000Y-4898039D01*
X16302426Y-4907574D01*
X16311961Y-4920000D01*
X16317955Y-4934471D01*
X16320000Y-4950000D01*
X16317955Y-4965529D01*
X16311961Y-4980000D01*
X16302426Y-4992426D01*
X16290000Y-5001962D01*
X16275529Y-5007956D01*
X16260000Y-5010000D01*
X16244471Y-5007956D01*
X16230000Y-5001962D01*
X16217574Y-4992426D01*
X16208038Y-4980000D01*
X16202044Y-4965529D01*
X16200000Y-4950000D01*
X16202044Y-4934471D01*
X16208038Y-4920000D01*
X16217574Y-4907574D01*
X16230000Y-4898039D01*
X16244471Y-4892045D01*
X16260000Y-4890000D01*
X16275529Y-4892045D01*
G37*
D12*
D13*
X11905000Y-6275000D02*
X11935000Y-6305000D01*
X11935000Y-6275000D02*
X11905000Y-6305000D01*
X11930000Y-9645000D02*
X11960000Y-9675000D01*
X11960000Y-9645000D02*
X11930000Y-9675000D01*
X11945000Y-7395000D02*
X11975000Y-7425000D01*
X11975000Y-7395000D02*
X11945000Y-7425000D01*
X11955000Y-8465000D02*
X11985000Y-8495000D01*
X11985000Y-8465000D02*
X11955000Y-8495000D01*
X12605000Y-6725000D02*
X12635000Y-6755000D01*
X12635000Y-6725000D02*
X12605000Y-6755000D01*
X12605000Y-7855000D02*
X12635000Y-7885000D01*
X12635000Y-7855000D02*
X12605000Y-7885000D01*
X12635000Y-9045000D02*
X12665000Y-9075000D01*
X12665000Y-9045000D02*
X12635000Y-9075000D01*
X12715000Y-6785000D02*
X12745000Y-6815000D01*
X12745000Y-6785000D02*
X12715000Y-6815000D01*
X12715000Y-7875000D02*
X12745000Y-7905000D01*
X12745000Y-7875000D02*
X12715000Y-7905000D01*
X12715000Y-8975000D02*
X12745000Y-9005000D01*
X12745000Y-8975000D02*
X12715000Y-9005000D01*
X13245000Y-7875000D02*
X13275000Y-7905000D01*
X13275000Y-7875000D02*
X13245000Y-7905000D01*
X13265000Y-6775000D02*
X13295000Y-6805000D01*
X13295000Y-6775000D02*
X13265000Y-6805000D01*
X13275000Y-9045000D02*
X13305000Y-9075000D01*
X13305000Y-9045000D02*
X13275000Y-9075000D01*
X13760000Y-11725000D02*
X13790000Y-11755000D01*
X13790000Y-11725000D02*
X13760000Y-11755000D01*
X13775000Y-10345000D02*
X13805000Y-10375000D01*
X13805000Y-10345000D02*
X13775000Y-10375000D01*
X13885000Y-9995000D02*
X13915000Y-10025000D01*
X13915000Y-9995000D02*
X13885000Y-10025000D01*
X14105000Y-8355000D02*
X14135000Y-8385000D01*
X14135000Y-8355000D02*
X14105000Y-8385000D01*
X14155000Y-11425000D02*
X14185000Y-11455000D01*
X14185000Y-11425000D02*
X14155000Y-11455000D01*
X14205000Y-9995000D02*
X14235000Y-10025000D01*
X14235000Y-9995000D02*
X14205000Y-10025000D01*
X14215000Y-6535000D02*
X14245000Y-6565000D01*
X14245000Y-6535000D02*
X14215000Y-6565000D01*
X14395000Y-9555000D02*
X14425000Y-9585000D01*
X14425000Y-9555000D02*
X14395000Y-9585000D01*
X14405000Y-8130000D02*
X14435000Y-8160000D01*
X14435000Y-8130000D02*
X14405000Y-8160000D01*
X14420000Y-8610000D02*
X14450000Y-8640000D01*
X14450000Y-8610000D02*
X14420000Y-8640000D01*
X14495000Y-9345000D02*
X14525000Y-9375000D01*
X14525000Y-9345000D02*
X14495000Y-9375000D01*
X14515000Y-8465000D02*
X14545000Y-8495000D01*
X14545000Y-8465000D02*
X14515000Y-8495000D01*
X14590000Y-8175000D02*
X14620000Y-8205000D01*
X14620000Y-8175000D02*
X14590000Y-8205000D01*
X14765000Y-8195000D02*
X14795000Y-8225000D01*
X14795000Y-8195000D02*
X14765000Y-8225000D01*
X14825000Y-4945000D02*
X14855000Y-4975000D01*
X14855000Y-4945000D02*
X14825000Y-4975000D01*
X14825000Y-9885000D02*
X14855000Y-9915000D01*
X14855000Y-9885000D02*
X14825000Y-9915000D01*
X14945000Y-6055000D02*
X14975000Y-6085000D01*
X14975000Y-6055000D02*
X14945000Y-6085000D01*
X15415000Y-6595000D02*
X15445000Y-6625000D01*
X15445000Y-6595000D02*
X15415000Y-6625000D01*
X15495000Y-8135000D02*
X15525000Y-8165000D01*
X15525000Y-8135000D02*
X15495000Y-8165000D01*
X15525000Y-8045000D02*
X15555000Y-8075000D01*
X15555000Y-8045000D02*
X15525000Y-8075000D01*
X15595000Y-6925000D02*
X15625000Y-6955000D01*
X15625000Y-6925000D02*
X15595000Y-6955000D01*
X15665000Y-8055000D02*
X15695000Y-8085000D01*
X15695000Y-8055000D02*
X15665000Y-8085000D01*
X15725000Y-7075000D02*
X15755000Y-7105000D01*
X15755000Y-7075000D02*
X15725000Y-7105000D01*
X15775000Y-8055000D02*
X15805000Y-8085000D01*
X15805000Y-8055000D02*
X15775000Y-8085000D01*
X15785000Y-11270000D02*
X15815000Y-11300000D01*
X15815000Y-11270000D02*
X15785000Y-11300000D01*
X15851000Y-8152439D02*
X15881000Y-8182439D01*
X15881000Y-8152439D02*
X15851000Y-8182439D01*
X15885000Y-7065000D02*
X15915000Y-7095000D01*
X15915000Y-7065000D02*
X15885000Y-7095000D01*
X15945000Y-8215000D02*
X15975000Y-8245000D01*
X15975000Y-8215000D02*
X15945000Y-8245000D01*
X16075000Y-11220000D02*
X16105000Y-11250000D01*
X16105000Y-11220000D02*
X16075000Y-11250000D01*
X16095000Y-8125000D02*
X16125000Y-8155000D01*
X16125000Y-8125000D02*
X16095000Y-8155000D01*
X16102500Y-11790000D02*
X16132500Y-11820000D01*
X16132500Y-11790000D02*
X16102500Y-11820000D01*
X16140000Y-11455000D02*
X16170000Y-11485000D01*
X16170000Y-11455000D02*
X16140000Y-11485000D01*
X16140000Y-11540000D02*
X16170000Y-11570000D01*
X16170000Y-11540000D02*
X16140000Y-11570000D01*
X16140000Y-11615000D02*
X16170000Y-11645000D01*
X16170000Y-11615000D02*
X16140000Y-11645000D01*
X16140000Y-11690000D02*
X16170000Y-11720000D01*
X16170000Y-11690000D02*
X16140000Y-11720000D01*
X16145000Y-11365000D02*
X16175000Y-11395000D01*
X16175000Y-11365000D02*
X16145000Y-11395000D01*
X16215000Y-6955000D02*
X16245000Y-6985000D01*
X16245000Y-6955000D02*
X16215000Y-6985000D01*
X16265000Y-8175000D02*
X16295000Y-8205000D01*
X16295000Y-8175000D02*
X16265000Y-8205000D01*
X16275000Y-8063281D02*
X16305000Y-8093281D01*
X16305000Y-8063281D02*
X16275000Y-8093281D01*
X16385000Y-6725000D02*
X16415000Y-6755000D01*
X16415000Y-6725000D02*
X16385000Y-6755000D01*
X16395000Y-6545000D02*
X16425000Y-6575000D01*
X16425000Y-6545000D02*
X16395000Y-6575000D01*
X16415000Y-11505000D02*
X16445000Y-11535000D01*
X16445000Y-11505000D02*
X16415000Y-11535000D01*
X16655000Y-4975000D02*
X16685000Y-5005000D01*
X16685000Y-4975000D02*
X16655000Y-5005000D01*
X16655000Y-5925000D02*
X16685000Y-5955000D01*
X16685000Y-5925000D02*
X16655000Y-5955000D01*
X17305000Y-7805000D02*
X17335000Y-7835000D01*
X17335000Y-7805000D02*
X17305000Y-7835000D01*
X17305000Y-7965000D02*
X17335000Y-7995000D01*
X17335000Y-7965000D02*
X17305000Y-7995000D01*
X17365000Y-9355000D02*
X17395000Y-9385000D01*
X17395000Y-9355000D02*
X17365000Y-9385000D01*
X17500000Y-9965000D02*
X17530000Y-9995000D01*
X17530000Y-9965000D02*
X17500000Y-9995000D01*
X17725000Y-10115000D02*
X17755000Y-10145000D01*
X17755000Y-10115000D02*
X17725000Y-10145000D01*
X17805000Y-8575000D02*
X17835000Y-8605000D01*
X17835000Y-8575000D02*
X17805000Y-8605000D01*
X17875000Y-11665000D02*
X17905000Y-11695000D01*
X17905000Y-11665000D02*
X17875000Y-11695000D01*
X17885000Y-10650000D02*
X17915000Y-10680000D01*
X17915000Y-10650000D02*
X17885000Y-10680000D01*
X17975000Y-9355000D02*
X18005000Y-9385000D01*
X18005000Y-9355000D02*
X17975000Y-9385000D01*
X18105000Y-8625000D02*
X18135000Y-8655000D01*
X18135000Y-8625000D02*
X18105000Y-8655000D01*
X18245000Y-8325000D02*
X18275000Y-8355000D01*
X18275000Y-8325000D02*
X18245000Y-8355000D01*
X18255000Y-8075000D02*
X18285000Y-8105000D01*
X18285000Y-8075000D02*
X18255000Y-8105000D01*
X18345000Y-9665000D02*
X18375000Y-9695000D01*
X18375000Y-9665000D02*
X18345000Y-9695000D01*
X18355000Y-8585000D02*
X18385000Y-8615000D01*
X18385000Y-8585000D02*
X18355000Y-8615000D01*
X18405000Y-9305000D02*
X18435000Y-9335000D01*
X18435000Y-9305000D02*
X18405000Y-9335000D01*
X18585000Y-7995000D02*
X18615000Y-8025000D01*
X18615000Y-7995000D02*
X18585000Y-8025000D01*
X12640000Y-10240000D02*
G75*
G02*
X12600000Y-10240000I-20000J0D01*
G01*
X12600000Y-10240000D02*
G75*
G02*
X12640000Y-10240000I20000J0D01*
G01*
X12906950Y-10302500D02*
G75*
G02*
X12866950Y-10302500I-20000J0D01*
G01*
X12866950Y-10302500D02*
G75*
G02*
X12906950Y-10302500I20000J0D01*
G01*
X13446950Y-10312500D02*
G75*
G02*
X13406950Y-10312500I-20000J0D01*
G01*
X13406950Y-10312500D02*
G75*
G02*
X13446950Y-10312500I20000J0D01*
G01*
X13455000Y-9635000D02*
G75*
G02*
X13415000Y-9635000I-20000J0D01*
G01*
X13415000Y-9635000D02*
G75*
G02*
X13455000Y-9635000I20000J0D01*
G01*
X13545000Y-9595000D02*
G75*
G02*
X13505000Y-9595000I-20000J0D01*
G01*
X13505000Y-9595000D02*
G75*
G02*
X13545000Y-9595000I20000J0D01*
G01*
X13745000Y-10015000D02*
G75*
G02*
X13705000Y-10015000I-20000J0D01*
G01*
X13705000Y-10015000D02*
G75*
G02*
X13745000Y-10015000I20000J0D01*
G01*
X13795000Y-8785000D02*
G75*
G02*
X13755000Y-8785000I-20000J0D01*
G01*
X13755000Y-8785000D02*
G75*
G02*
X13795000Y-8785000I20000J0D01*
G01*
X13810000Y-9710000D02*
G75*
G02*
X13770000Y-9710000I-20000J0D01*
G01*
X13770000Y-9710000D02*
G75*
G02*
X13810000Y-9710000I20000J0D01*
G01*
X13845000Y-8630000D02*
G75*
G02*
X13805000Y-8630000I-20000J0D01*
G01*
X13805000Y-8630000D02*
G75*
G02*
X13845000Y-8630000I20000J0D01*
G01*
X14060000Y-10015000D02*
G75*
G02*
X14020000Y-10015000I-20000J0D01*
G01*
X14020000Y-10015000D02*
G75*
G02*
X14060000Y-10015000I20000J0D01*
G01*
X14100000Y-9355000D02*
G75*
G02*
X14060000Y-9355000I-20000J0D01*
G01*
X14060000Y-9355000D02*
G75*
G02*
X14100000Y-9355000I20000J0D01*
G01*
X14102500Y-9107500D02*
G75*
G02*
X14062500Y-9107500I-20000J0D01*
G01*
X14062500Y-9107500D02*
G75*
G02*
X14102500Y-9107500I20000J0D01*
G01*
X14260000Y-7190000D02*
G75*
G02*
X14220000Y-7190000I-20000J0D01*
G01*
X14220000Y-7190000D02*
G75*
G02*
X14260000Y-7190000I20000J0D01*
G01*
X14370000Y-7265000D02*
G75*
G02*
X14330000Y-7265000I-20000J0D01*
G01*
X14330000Y-7265000D02*
G75*
G02*
X14370000Y-7265000I20000J0D01*
G01*
X14375000Y-10575000D02*
G75*
G02*
X14335000Y-10575000I-20000J0D01*
G01*
X14335000Y-10575000D02*
G75*
G02*
X14375000Y-10575000I20000J0D01*
G01*
X14570000Y-10575000D02*
G75*
G02*
X14530000Y-10575000I-20000J0D01*
G01*
X14530000Y-10575000D02*
G75*
G02*
X14570000Y-10575000I20000J0D01*
G01*
X14670000Y-7255000D02*
G75*
G02*
X14630000Y-7255000I-20000J0D01*
G01*
X14630000Y-7255000D02*
G75*
G02*
X14670000Y-7255000I20000J0D01*
G01*
X14910000Y-7775000D02*
G75*
G02*
X14870000Y-7775000I-20000J0D01*
G01*
X14870000Y-7775000D02*
G75*
G02*
X14910000Y-7775000I20000J0D01*
G01*
X14980000Y-7500000D02*
G75*
G02*
X14940000Y-7500000I-20000J0D01*
G01*
X14940000Y-7500000D02*
G75*
G02*
X14980000Y-7500000I20000J0D01*
G01*
X15030000Y-10590000D02*
G75*
G02*
X14990000Y-10590000I-20000J0D01*
G01*
X14990000Y-10590000D02*
G75*
G02*
X15030000Y-10590000I20000J0D01*
G01*
X15100000Y-8110000D02*
G75*
G02*
X15060000Y-8110000I-20000J0D01*
G01*
X15060000Y-8110000D02*
G75*
G02*
X15100000Y-8110000I20000J0D01*
G01*
X15190000Y-7480000D02*
G75*
G02*
X15150000Y-7480000I-20000J0D01*
G01*
X15150000Y-7480000D02*
G75*
G02*
X15190000Y-7480000I20000J0D01*
G01*
X15390000Y-7475000D02*
G75*
G02*
X15350000Y-7475000I-20000J0D01*
G01*
X15350000Y-7475000D02*
G75*
G02*
X15390000Y-7475000I20000J0D01*
G01*
X15410000Y-10575000D02*
G75*
G02*
X15370000Y-10575000I-20000J0D01*
G01*
X15370000Y-10575000D02*
G75*
G02*
X15410000Y-10575000I20000J0D01*
G01*
X15455000Y-7220000D02*
G75*
G02*
X15415000Y-7220000I-20000J0D01*
G01*
X15415000Y-7220000D02*
G75*
G02*
X15455000Y-7220000I20000J0D01*
G01*
X15565000Y-10595000D02*
G75*
G02*
X15525000Y-10595000I-20000J0D01*
G01*
X15525000Y-10595000D02*
G75*
G02*
X15565000Y-10595000I20000J0D01*
G01*
X15595000Y-7470000D02*
G75*
G02*
X15555000Y-7470000I-20000J0D01*
G01*
X15555000Y-7470000D02*
G75*
G02*
X15595000Y-7470000I20000J0D01*
G01*
X15645000Y-11185000D02*
G75*
G02*
X15605000Y-11185000I-20000J0D01*
G01*
X15605000Y-11185000D02*
G75*
G02*
X15645000Y-11185000I20000J0D01*
G01*
X15870000Y-6210000D02*
G75*
G02*
X15830000Y-6210000I-20000J0D01*
G01*
X15830000Y-6210000D02*
G75*
G02*
X15870000Y-6210000I20000J0D01*
G01*
X15960000Y-10465000D02*
G75*
G02*
X15920000Y-10465000I-20000J0D01*
G01*
X15920000Y-10465000D02*
G75*
G02*
X15960000Y-10465000I20000J0D01*
G01*
X15985000Y-11600000D02*
G75*
G02*
X15945000Y-11600000I-20000J0D01*
G01*
X15945000Y-11600000D02*
G75*
G02*
X15985000Y-11600000I20000J0D01*
G01*
X16025000Y-7695000D02*
G75*
G02*
X15985000Y-7695000I-20000J0D01*
G01*
X15985000Y-7695000D02*
G75*
G02*
X16025000Y-7695000I20000J0D01*
G01*
X16080000Y-10590000D02*
G75*
G02*
X16040000Y-10590000I-20000J0D01*
G01*
X16040000Y-10590000D02*
G75*
G02*
X16080000Y-10590000I20000J0D01*
G01*
X16120000Y-6210000D02*
G75*
G02*
X16080000Y-6210000I-20000J0D01*
G01*
X16080000Y-6210000D02*
G75*
G02*
X16120000Y-6210000I20000J0D01*
G01*
X16175000Y-10772500D02*
G75*
G02*
X16135000Y-10772500I-20000J0D01*
G01*
X16135000Y-10772500D02*
G75*
G02*
X16175000Y-10772500I20000J0D01*
G01*
X16190000Y-12015000D02*
G75*
G02*
X16150000Y-12015000I-20000J0D01*
G01*
X16150000Y-12015000D02*
G75*
G02*
X16190000Y-12015000I20000J0D01*
G01*
X16325000Y-10590000D02*
G75*
G02*
X16285000Y-10590000I-20000J0D01*
G01*
X16285000Y-10590000D02*
G75*
G02*
X16325000Y-10590000I20000J0D01*
G01*
X16450000Y-12020000D02*
G75*
G02*
X16410000Y-12020000I-20000J0D01*
G01*
X16410000Y-12020000D02*
G75*
G02*
X16450000Y-12020000I20000J0D01*
G01*
X16550000Y-11895000D02*
G75*
G02*
X16510000Y-11895000I-20000J0D01*
G01*
X16510000Y-11895000D02*
G75*
G02*
X16550000Y-11895000I20000J0D01*
G01*
X16585000Y-9425000D02*
G75*
G02*
X16545000Y-9425000I-20000J0D01*
G01*
X16545000Y-9425000D02*
G75*
G02*
X16585000Y-9425000I20000J0D01*
G01*
X16715000Y-12010000D02*
G75*
G02*
X16675000Y-12010000I-20000J0D01*
G01*
X16675000Y-12010000D02*
G75*
G02*
X16715000Y-12010000I20000J0D01*
G01*
X16725000Y-9635000D02*
G75*
G02*
X16685000Y-9635000I-20000J0D01*
G01*
X16685000Y-9635000D02*
G75*
G02*
X16725000Y-9635000I20000J0D01*
G01*
X16755000Y-7705000D02*
G75*
G02*
X16715000Y-7705000I-20000J0D01*
G01*
X16715000Y-7705000D02*
G75*
G02*
X16755000Y-7705000I20000J0D01*
G01*
X16760000Y-7825000D02*
G75*
G02*
X16720000Y-7825000I-20000J0D01*
G01*
X16720000Y-7825000D02*
G75*
G02*
X16760000Y-7825000I20000J0D01*
G01*
X16825000Y-9545000D02*
G75*
G02*
X16785000Y-9545000I-20000J0D01*
G01*
X16785000Y-9545000D02*
G75*
G02*
X16825000Y-9545000I20000J0D01*
G01*
X16875000Y-9480000D02*
G75*
G02*
X16835000Y-9480000I-20000J0D01*
G01*
X16835000Y-9480000D02*
G75*
G02*
X16875000Y-9480000I20000J0D01*
G01*
X16880000Y-9920000D02*
G75*
G02*
X16840000Y-9920000I-20000J0D01*
G01*
X16840000Y-9920000D02*
G75*
G02*
X16880000Y-9920000I20000J0D01*
G01*
X16880000Y-11905000D02*
G75*
G02*
X16840000Y-11905000I-20000J0D01*
G01*
X16840000Y-11905000D02*
G75*
G02*
X16880000Y-11905000I20000J0D01*
G01*
X16900000Y-8250000D02*
G75*
G02*
X16860000Y-8250000I-20000J0D01*
G01*
X16860000Y-8250000D02*
G75*
G02*
X16900000Y-8250000I20000J0D01*
G01*
X16910000Y-8115000D02*
G75*
G02*
X16870000Y-8115000I-20000J0D01*
G01*
X16870000Y-8115000D02*
G75*
G02*
X16910000Y-8115000I20000J0D01*
G01*
X16940000Y-10235000D02*
G75*
G02*
X16900000Y-10235000I-20000J0D01*
G01*
X16900000Y-10235000D02*
G75*
G02*
X16940000Y-10235000I20000J0D01*
G01*
X17015000Y-9130000D02*
G75*
G02*
X16975000Y-9130000I-20000J0D01*
G01*
X16975000Y-9130000D02*
G75*
G02*
X17015000Y-9130000I20000J0D01*
G01*
X17020000Y-8925000D02*
G75*
G02*
X16980000Y-8925000I-20000J0D01*
G01*
X16980000Y-8925000D02*
G75*
G02*
X17020000Y-8925000I20000J0D01*
G01*
X17025000Y-9355000D02*
G75*
G02*
X16985000Y-9355000I-20000J0D01*
G01*
X16985000Y-9355000D02*
G75*
G02*
X17025000Y-9355000I20000J0D01*
G01*
X17032500Y-11312500D02*
G75*
G02*
X16992500Y-11312500I-20000J0D01*
G01*
X16992500Y-11312500D02*
G75*
G02*
X17032500Y-11312500I20000J0D01*
G01*
X17035000Y-8770000D02*
G75*
G02*
X16995000Y-8770000I-20000J0D01*
G01*
X16995000Y-8770000D02*
G75*
G02*
X17035000Y-8770000I20000J0D01*
G01*
X17107500Y-10937500D02*
G75*
G02*
X17067500Y-10937500I-20000J0D01*
G01*
X17067500Y-10937500D02*
G75*
G02*
X17107500Y-10937500I20000J0D01*
G01*
X17217500Y-7590000D02*
G75*
G02*
X17177500Y-7590000I-20000J0D01*
G01*
X17177500Y-7590000D02*
G75*
G02*
X17217500Y-7590000I20000J0D01*
G01*
X17240000Y-10255000D02*
G75*
G02*
X17200000Y-10255000I-20000J0D01*
G01*
X17200000Y-10255000D02*
G75*
G02*
X17240000Y-10255000I20000J0D01*
G01*
X17310000Y-10920000D02*
G75*
G02*
X17270000Y-10920000I-20000J0D01*
G01*
X17270000Y-10920000D02*
G75*
G02*
X17310000Y-10920000I20000J0D01*
G01*
X17325000Y-11440000D02*
G75*
G02*
X17285000Y-11440000I-20000J0D01*
G01*
X17285000Y-11440000D02*
G75*
G02*
X17325000Y-11440000I20000J0D01*
G01*
X17595000Y-11810000D02*
G75*
G02*
X17555000Y-11810000I-20000J0D01*
G01*
X17555000Y-11810000D02*
G75*
G02*
X17595000Y-11810000I20000J0D01*
G01*
X17670000Y-12010000D02*
G75*
G02*
X17630000Y-12010000I-20000J0D01*
G01*
X17630000Y-12010000D02*
G75*
G02*
X17670000Y-12010000I20000J0D01*
G01*
X17780000Y-10660000D02*
G75*
G02*
X17740000Y-10660000I-20000J0D01*
G01*
X17740000Y-10660000D02*
G75*
G02*
X17780000Y-10660000I20000J0D01*
G01*
X18150000Y-10615000D02*
G75*
G02*
X18110000Y-10615000I-20000J0D01*
G01*
X18110000Y-10615000D02*
G75*
G02*
X18150000Y-10615000I20000J0D01*
G01*
X18230000Y-12010000D02*
G75*
G02*
X18190000Y-12010000I-20000J0D01*
G01*
X18190000Y-12010000D02*
G75*
G02*
X18230000Y-12010000I20000J0D01*
G01*
X18510000Y-8695000D02*
G75*
G02*
X18470000Y-8695000I-20000J0D01*
G01*
X18470000Y-8695000D02*
G75*
G02*
X18510000Y-8695000I20000J0D01*
G01*
X18530000Y-8425000D02*
G75*
G02*
X18490000Y-8425000I-20000J0D01*
G01*
X18490000Y-8425000D02*
G75*
G02*
X18530000Y-8425000I20000J0D01*
G01*
X11690000Y-9730000D02*
X11690000Y-9790000D01*
X11660000Y-9760000D02*
X11720000Y-9760000D01*
X11690000Y-10090000D02*
X11690000Y-10150000D01*
X11660000Y-10120000D02*
X11720000Y-10120000D01*
X11715000Y-6305000D02*
X11715000Y-6365000D01*
X11685000Y-6335000D02*
X11745000Y-6335000D01*
X11715000Y-6665000D02*
X11715000Y-6725000D01*
X11685000Y-6695000D02*
X11745000Y-6695000D01*
X11725000Y-7435000D02*
X11725000Y-7495000D01*
X11695000Y-7465000D02*
X11755000Y-7465000D01*
X11725000Y-7795000D02*
X11725000Y-7855000D01*
X11695000Y-7825000D02*
X11755000Y-7825000D01*
X11735000Y-8505000D02*
X11735000Y-8565000D01*
X11705000Y-8535000D02*
X11765000Y-8535000D01*
X11735000Y-8865000D02*
X11735000Y-8925000D01*
X11705000Y-8895000D02*
X11765000Y-8895000D01*
X19221000Y-7855000D02*
X19221000Y-7915000D01*
X19191000Y-7885000D02*
X19251000Y-7885000D01*
X19136000Y-7915000D02*
X19306000Y-7915000D01*
X19306000Y-7855000D02*
G75*
G02*
X19306000Y-7915000I0J-30000D01*
G01*
X19306000Y-7855000D02*
X19136000Y-7855000D01*
X19136000Y-7855000D02*
G75*
G03*
X19136000Y-7915000I0J-30000D01*
G01*
X19221000Y-9135000D02*
X19221000Y-9195000D01*
X19191000Y-9165000D02*
X19251000Y-9165000D01*
X19136000Y-9195000D02*
X19306000Y-9195000D01*
X19306000Y-9135000D02*
G75*
G02*
X19306000Y-9195000I0J-30000D01*
G01*
X19306000Y-9135000D02*
X19136000Y-9135000D01*
X19136000Y-9135000D02*
G75*
G03*
X19136000Y-9195000I0J-30000D01*
G01*
X12422284Y-7253284D02*
X12422284Y-7196715D01*
X12365715Y-7196715D01*
X12365715Y-7253284D01*
X12422284Y-7253284D01*
X12441284Y-8378284D02*
X12441284Y-8321715D01*
X12384715Y-8321715D01*
X12384715Y-8378284D01*
X12441284Y-8378284D01*
X12466284Y-6028284D02*
X12466284Y-5971715D01*
X12409715Y-5971715D01*
X12409715Y-6028284D01*
X12466284Y-6028284D01*
X12469334Y-9668285D02*
X12469334Y-9611716D01*
X12412765Y-9611716D01*
X12412765Y-9668285D01*
X12469334Y-9668285D01*
X13184284Y-7253284D02*
X13184284Y-7196715D01*
X13127715Y-7196715D01*
X13127715Y-7253284D01*
X13184284Y-7253284D01*
X13203284Y-8378284D02*
X13203284Y-8321715D01*
X13146715Y-8321715D01*
X13146715Y-8378284D01*
X13203284Y-8378284D01*
X13228284Y-6028284D02*
X13228284Y-5971715D01*
X13171715Y-5971715D01*
X13171715Y-6028284D01*
X13228284Y-6028284D01*
X13231334Y-9668285D02*
X13231334Y-9611716D01*
X13174765Y-9611716D01*
X13174765Y-9668285D01*
X13231334Y-9668285D01*
X15125000Y-11705000D02*
X15175000Y-11655000D01*
X15125000Y-11605000D01*
X15075000Y-11655000D01*
X15125000Y-11705000D01*
X15365000Y-11700000D02*
X15415000Y-11650000D01*
X15365000Y-11600000D01*
X15315000Y-11650000D01*
X15365000Y-11700000D01*
X15570000Y-6420000D02*
X15620000Y-6370000D01*
X15570000Y-6320000D01*
X15520000Y-6370000D01*
X15570000Y-6420000D01*
X16470000Y-7390000D02*
X16520000Y-7340000D01*
X16470000Y-7290000D01*
X16420000Y-7340000D01*
X16470000Y-7390000D01*
X16985000Y-8505000D02*
X17035000Y-8455000D01*
X16985000Y-8405000D01*
X16935000Y-8455000D01*
X16985000Y-8505000D01*
X17410000Y-10570000D02*
X17460000Y-10520000D01*
X17410000Y-10470000D01*
X17360000Y-10520000D01*
X17410000Y-10570000D01*
X17430000Y-9040000D02*
X17480000Y-8990000D01*
X17430000Y-8940000D01*
X17380000Y-8990000D01*
X17430000Y-9040000D01*
X17450000Y-8542590D02*
X17500000Y-8492590D01*
X17450000Y-8442590D01*
X17400000Y-8492590D01*
X17450000Y-8542590D01*
X17900000Y-11445000D02*
X17950000Y-11395000D01*
X17900000Y-11345000D01*
X17850000Y-11395000D01*
X17900000Y-11445000D01*
X18020000Y-9950000D02*
X18070000Y-9900000D01*
X18020000Y-9850000D01*
X17970000Y-9900000D01*
X18020000Y-9950000D01*
X18250000Y-8920000D02*
X18300000Y-8870000D01*
X18250000Y-8820000D01*
X18200000Y-8870000D01*
X18250000Y-8920000D01*
X18430000Y-10860000D02*
X18480000Y-10810000D01*
X18430000Y-10760000D01*
X18380000Y-10810000D01*
X18430000Y-10860000D01*
X18480000Y-10370000D02*
X18530000Y-10320000D01*
X18480000Y-10270000D01*
X18430000Y-10320000D01*
X18480000Y-10370000D01*
X18890000Y-10260000D02*
X18940000Y-10210000D01*
X18890000Y-10160000D01*
X18840000Y-10210000D01*
X18890000Y-10260000D01*
X19135000Y-5570000D02*
X19185000Y-5520000D01*
X19135000Y-5470000D01*
X19085000Y-5520000D01*
X19135000Y-5570000D01*
X19140000Y-5325000D02*
X19190000Y-5275000D01*
X19140000Y-5225000D01*
X19090000Y-5275000D01*
X19140000Y-5325000D01*
X19140000Y-5835000D02*
X19190000Y-5785000D01*
X19140000Y-5735000D01*
X19090000Y-5785000D01*
X19140000Y-5835000D01*
X19145000Y-6075000D02*
X19195000Y-6025000D01*
X19145000Y-5975000D01*
X19095000Y-6025000D01*
X19145000Y-6075000D01*
X13374000Y-12010000D02*
X13474000Y-12110000D01*
X13474000Y-12010000D02*
X13374000Y-12110000D01*
X13474000Y-12060000D02*
G75*
G02*
X13374000Y-12060000I-50000J0D01*
G01*
X13374000Y-12060000D02*
G75*
G02*
X13474000Y-12060000I50000J0D01*
G01*
X13383000Y-4665000D02*
X13483000Y-4765000D01*
X13483000Y-4665000D02*
X13383000Y-4765000D01*
X13483000Y-4715000D02*
G75*
G02*
X13383000Y-4715000I-50000J0D01*
G01*
X13383000Y-4715000D02*
G75*
G02*
X13483000Y-4715000I50000J0D01*
G01*
X13628000Y-12010000D02*
X13728000Y-12110000D01*
X13728000Y-12010000D02*
X13628000Y-12110000D01*
X13728000Y-12060000D02*
G75*
G02*
X13628000Y-12060000I-50000J0D01*
G01*
X13628000Y-12060000D02*
G75*
G02*
X13728000Y-12060000I50000J0D01*
G01*
X13637000Y-4665000D02*
X13737000Y-4765000D01*
X13737000Y-4665000D02*
X13637000Y-4765000D01*
X13737000Y-4715000D02*
G75*
G02*
X13637000Y-4715000I-50000J0D01*
G01*
X13637000Y-4715000D02*
G75*
G02*
X13737000Y-4715000I50000J0D01*
G01*
X13882000Y-12010000D02*
X13982000Y-12110000D01*
X13982000Y-12010000D02*
X13882000Y-12110000D01*
X13982000Y-12060000D02*
G75*
G02*
X13882000Y-12060000I-50000J0D01*
G01*
X13882000Y-12060000D02*
G75*
G02*
X13982000Y-12060000I50000J0D01*
G01*
X13891000Y-4665000D02*
X13991000Y-4765000D01*
X13991000Y-4665000D02*
X13891000Y-4765000D01*
X13991000Y-4715000D02*
G75*
G02*
X13891000Y-4715000I-50000J0D01*
G01*
X13891000Y-4715000D02*
G75*
G02*
X13991000Y-4715000I50000J0D01*
G01*
X14136000Y-12010000D02*
X14236000Y-12110000D01*
X14236000Y-12010000D02*
X14136000Y-12110000D01*
X14236000Y-12060000D02*
G75*
G02*
X14136000Y-12060000I-50000J0D01*
G01*
X14136000Y-12060000D02*
G75*
G02*
X14236000Y-12060000I50000J0D01*
G01*
X14145000Y-4665000D02*
X14245000Y-4765000D01*
X14245000Y-4665000D02*
X14145000Y-4765000D01*
X14245000Y-4715000D02*
G75*
G02*
X14145000Y-4715000I-50000J0D01*
G01*
X14145000Y-4715000D02*
G75*
G02*
X14245000Y-4715000I50000J0D01*
G01*
X14390000Y-12010000D02*
X14490000Y-12110000D01*
X14490000Y-12010000D02*
X14390000Y-12110000D01*
X14490000Y-12060000D02*
G75*
G02*
X14390000Y-12060000I-50000J0D01*
G01*
X14390000Y-12060000D02*
G75*
G02*
X14490000Y-12060000I50000J0D01*
G01*
X14399000Y-4665000D02*
X14499000Y-4765000D01*
X14499000Y-4665000D02*
X14399000Y-4765000D01*
X14499000Y-4715000D02*
G75*
G02*
X14399000Y-4715000I-50000J0D01*
G01*
X14399000Y-4715000D02*
G75*
G02*
X14499000Y-4715000I50000J0D01*
G01*
X14644000Y-12010000D02*
X14744000Y-12110000D01*
X14744000Y-12010000D02*
X14644000Y-12110000D01*
X14744000Y-12060000D02*
G75*
G02*
X14644000Y-12060000I-50000J0D01*
G01*
X14644000Y-12060000D02*
G75*
G02*
X14744000Y-12060000I50000J0D01*
G01*
X14898000Y-12010000D02*
X14998000Y-12110000D01*
X14998000Y-12010000D02*
X14898000Y-12110000D01*
X14998000Y-12060000D02*
G75*
G02*
X14898000Y-12060000I-50000J0D01*
G01*
X14898000Y-12060000D02*
G75*
G02*
X14998000Y-12060000I50000J0D01*
G01*
X15152000Y-12010000D02*
X15252000Y-12110000D01*
X15252000Y-12010000D02*
X15152000Y-12110000D01*
X15252000Y-12060000D02*
G75*
G02*
X15152000Y-12060000I-50000J0D01*
G01*
X15152000Y-12060000D02*
G75*
G02*
X15252000Y-12060000I50000J0D01*
G01*
X16772000Y-4630000D02*
X16872000Y-4730000D01*
X16872000Y-4630000D02*
X16772000Y-4730000D01*
X16872000Y-4680000D02*
G75*
G02*
X16772000Y-4680000I-50000J0D01*
G01*
X16772000Y-4680000D02*
G75*
G02*
X16872000Y-4680000I50000J0D01*
G01*
X17026000Y-4630000D02*
X17126000Y-4730000D01*
X17126000Y-4630000D02*
X17026000Y-4730000D01*
X17126000Y-4680000D02*
G75*
G02*
X17026000Y-4680000I-50000J0D01*
G01*
X17026000Y-4680000D02*
G75*
G02*
X17126000Y-4680000I50000J0D01*
G01*
X17280000Y-4630000D02*
X17380000Y-4730000D01*
X17380000Y-4630000D02*
X17280000Y-4730000D01*
X17380000Y-4680000D02*
G75*
G02*
X17280000Y-4680000I-50000J0D01*
G01*
X17280000Y-4680000D02*
G75*
G02*
X17380000Y-4680000I50000J0D01*
G01*
X17534000Y-4630000D02*
X17634000Y-4730000D01*
X17634000Y-4630000D02*
X17534000Y-4730000D01*
X17634000Y-4680000D02*
G75*
G02*
X17534000Y-4680000I-50000J0D01*
G01*
X17534000Y-4680000D02*
G75*
G02*
X17634000Y-4680000I50000J0D01*
G01*
X17788000Y-4630000D02*
X17888000Y-4730000D01*
X17888000Y-4630000D02*
X17788000Y-4730000D01*
X17888000Y-4680000D02*
G75*
G02*
X17788000Y-4680000I-50000J0D01*
G01*
X17788000Y-4680000D02*
G75*
G02*
X17888000Y-4680000I50000J0D01*
G01*
X18266500Y-4655000D02*
X18366500Y-4755000D01*
X18366500Y-4655000D02*
X18266500Y-4755000D01*
X18366500Y-4705000D02*
G75*
G02*
X18266500Y-4705000I-50000J0D01*
G01*
X18266500Y-4705000D02*
G75*
G02*
X18366500Y-4705000I50000J0D01*
G01*
X18520500Y-4655000D02*
X18620500Y-4755000D01*
X18620500Y-4655000D02*
X18520500Y-4755000D01*
X18620500Y-4705000D02*
G75*
G02*
X18520500Y-4705000I-50000J0D01*
G01*
X18520500Y-4705000D02*
G75*
G02*
X18620500Y-4705000I50000J0D01*
G01*
X18774500Y-4655000D02*
X18874500Y-4755000D01*
X18874500Y-4655000D02*
X18774500Y-4755000D01*
X18874500Y-4705000D02*
G75*
G02*
X18774500Y-4705000I-50000J0D01*
G01*
X18774500Y-4705000D02*
G75*
G02*
X18874500Y-4705000I50000J0D01*
G01*
X19028500Y-4655000D02*
X19128500Y-4755000D01*
X19128500Y-4655000D02*
X19028500Y-4755000D01*
X19128500Y-4705000D02*
G75*
G02*
X19028500Y-4705000I-50000J0D01*
G01*
X19028500Y-4705000D02*
G75*
G02*
X19128500Y-4705000I50000J0D01*
G01*
X19282500Y-4655000D02*
X19382500Y-4755000D01*
X19382500Y-4655000D02*
X19282500Y-4755000D01*
X19382500Y-4705000D02*
G75*
G02*
X19282500Y-4705000I-50000J0D01*
G01*
X19282500Y-4705000D02*
G75*
G02*
X19382500Y-4705000I50000J0D01*
G01*
X19815000Y-5222000D02*
X19915000Y-5322000D01*
X19915000Y-5222000D02*
X19815000Y-5322000D01*
X19915000Y-5272000D02*
G75*
G02*
X19815000Y-5272000I-50000J0D01*
G01*
X19815000Y-5272000D02*
G75*
G02*
X19915000Y-5272000I50000J0D01*
G01*
X19815000Y-5476000D02*
X19915000Y-5576000D01*
X19915000Y-5476000D02*
X19815000Y-5576000D01*
X19915000Y-5526000D02*
G75*
G02*
X19815000Y-5526000I-50000J0D01*
G01*
X19815000Y-5526000D02*
G75*
G02*
X19915000Y-5526000I50000J0D01*
G01*
X19815000Y-5730000D02*
X19915000Y-5830000D01*
X19915000Y-5730000D02*
X19815000Y-5830000D01*
X19915000Y-5780000D02*
G75*
G02*
X19815000Y-5780000I-50000J0D01*
G01*
X19815000Y-5780000D02*
G75*
G02*
X19915000Y-5780000I50000J0D01*
G01*
X19815000Y-5984000D02*
X19915000Y-6084000D01*
X19915000Y-5984000D02*
X19815000Y-6084000D01*
X19915000Y-6034000D02*
G75*
G02*
X19815000Y-6034000I-50000J0D01*
G01*
X19815000Y-6034000D02*
G75*
G02*
X19915000Y-6034000I50000J0D01*
G01*
X19815000Y-6238000D02*
X19915000Y-6338000D01*
X19915000Y-6238000D02*
X19815000Y-6338000D01*
X19915000Y-6288000D02*
G75*
G02*
X19815000Y-6288000I-50000J0D01*
G01*
X19815000Y-6288000D02*
G75*
G02*
X19915000Y-6288000I50000J0D01*
G01*
D12*
X11458277Y-12593984D02*
X11458277Y-12393984D01*
X11458277Y-12393984D02*
X11505896Y-12393984D01*
X11505896Y-12393984D02*
X11534467Y-12403508D01*
X11534467Y-12403508D02*
X11553515Y-12422555D01*
X11553515Y-12422555D02*
X11563039Y-12441603D01*
X11563039Y-12441603D02*
X11572562Y-12479698D01*
X11572562Y-12479698D02*
X11572562Y-12508269D01*
X11572562Y-12508269D02*
X11563039Y-12546365D01*
X11563039Y-12546365D02*
X11553515Y-12565412D01*
X11553515Y-12565412D02*
X11534467Y-12584460D01*
X11534467Y-12584460D02*
X11505896Y-12593984D01*
X11505896Y-12593984D02*
X11458277Y-12593984D01*
X11658277Y-12593984D02*
X11658277Y-12460650D01*
X11658277Y-12498746D02*
X11667801Y-12479698D01*
X11667801Y-12479698D02*
X11677324Y-12470174D01*
X11677324Y-12470174D02*
X11696372Y-12460650D01*
X11696372Y-12460650D02*
X11715420Y-12460650D01*
X11782086Y-12593984D02*
X11782086Y-12460650D01*
X11782086Y-12393984D02*
X11772562Y-12403508D01*
X11772562Y-12403508D02*
X11782086Y-12413031D01*
X11782086Y-12413031D02*
X11791610Y-12403508D01*
X11791610Y-12403508D02*
X11782086Y-12393984D01*
X11782086Y-12393984D02*
X11782086Y-12413031D01*
X11905896Y-12593984D02*
X11886848Y-12584460D01*
X11886848Y-12584460D02*
X11877324Y-12565412D01*
X11877324Y-12565412D02*
X11877324Y-12393984D01*
X12010658Y-12593984D02*
X11991610Y-12584460D01*
X11991610Y-12584460D02*
X11982086Y-12565412D01*
X11982086Y-12565412D02*
X11982086Y-12393984D01*
X12239229Y-12593984D02*
X12239229Y-12393984D01*
X12239229Y-12393984D02*
X12305896Y-12536841D01*
X12305896Y-12536841D02*
X12372562Y-12393984D01*
X12372562Y-12393984D02*
X12372562Y-12593984D01*
X12553515Y-12593984D02*
X12553515Y-12489222D01*
X12553515Y-12489222D02*
X12543991Y-12470174D01*
X12543991Y-12470174D02*
X12524943Y-12460650D01*
X12524943Y-12460650D02*
X12486848Y-12460650D01*
X12486848Y-12460650D02*
X12467801Y-12470174D01*
X12553515Y-12584460D02*
X12534467Y-12593984D01*
X12534467Y-12593984D02*
X12486848Y-12593984D01*
X12486848Y-12593984D02*
X12467801Y-12584460D01*
X12467801Y-12584460D02*
X12458277Y-12565412D01*
X12458277Y-12565412D02*
X12458277Y-12546365D01*
X12458277Y-12546365D02*
X12467801Y-12527317D01*
X12467801Y-12527317D02*
X12486848Y-12517793D01*
X12486848Y-12517793D02*
X12534467Y-12517793D01*
X12534467Y-12517793D02*
X12553515Y-12508269D01*
X12648753Y-12460650D02*
X12648753Y-12660650D01*
X12648753Y-12470174D02*
X12667801Y-12460650D01*
X12667801Y-12460650D02*
X12705896Y-12460650D01*
X12705896Y-12460650D02*
X12724943Y-12470174D01*
X12724943Y-12470174D02*
X12734467Y-12479698D01*
X12734467Y-12479698D02*
X12743991Y-12498746D01*
X12743991Y-12498746D02*
X12743991Y-12555888D01*
X12743991Y-12555888D02*
X12734467Y-12574936D01*
X12734467Y-12574936D02*
X12724943Y-12584460D01*
X12724943Y-12584460D02*
X12705896Y-12593984D01*
X12705896Y-12593984D02*
X12667801Y-12593984D01*
X12667801Y-12593984D02*
X12648753Y-12584460D01*
X12829705Y-12574936D02*
X12839229Y-12584460D01*
X12839229Y-12584460D02*
X12829705Y-12593984D01*
X12829705Y-12593984D02*
X12820182Y-12584460D01*
X12820182Y-12584460D02*
X12829705Y-12574936D01*
X12829705Y-12574936D02*
X12829705Y-12593984D01*
X12829705Y-12470174D02*
X12839229Y-12479698D01*
X12839229Y-12479698D02*
X12829705Y-12489222D01*
X12829705Y-12489222D02*
X12820182Y-12479698D01*
X12820182Y-12479698D02*
X12829705Y-12470174D01*
X12829705Y-12470174D02*
X12829705Y-12489222D01*
D13*
X11167500Y-12907500D02*
X11197500Y-12937500D01*
X11197500Y-12907500D02*
X11167500Y-12937500D01*
D12*
X11496372Y-12813984D02*
X11515420Y-12813984D01*
X11515420Y-12813984D02*
X11534467Y-12823508D01*
X11534467Y-12823508D02*
X11543991Y-12833031D01*
X11543991Y-12833031D02*
X11553515Y-12852079D01*
X11553515Y-12852079D02*
X11563039Y-12890174D01*
X11563039Y-12890174D02*
X11563039Y-12937793D01*
X11563039Y-12937793D02*
X11553515Y-12975888D01*
X11553515Y-12975888D02*
X11543991Y-12994936D01*
X11543991Y-12994936D02*
X11534467Y-13004460D01*
X11534467Y-13004460D02*
X11515420Y-13013984D01*
X11515420Y-13013984D02*
X11496372Y-13013984D01*
X11496372Y-13013984D02*
X11477324Y-13004460D01*
X11477324Y-13004460D02*
X11467801Y-12994936D01*
X11467801Y-12994936D02*
X11458277Y-12975888D01*
X11458277Y-12975888D02*
X11448753Y-12937793D01*
X11448753Y-12937793D02*
X11448753Y-12890174D01*
X11448753Y-12890174D02*
X11458277Y-12852079D01*
X11458277Y-12852079D02*
X11467801Y-12833031D01*
X11467801Y-12833031D02*
X11477324Y-12823508D01*
X11477324Y-12823508D02*
X11496372Y-12813984D01*
X11648753Y-12994936D02*
X11658277Y-13004460D01*
X11658277Y-13004460D02*
X11648753Y-13013984D01*
X11648753Y-13013984D02*
X11639229Y-13004460D01*
X11639229Y-13004460D02*
X11648753Y-12994936D01*
X11648753Y-12994936D02*
X11648753Y-13013984D01*
X11724943Y-12813984D02*
X11848753Y-12813984D01*
X11848753Y-12813984D02*
X11782086Y-12890174D01*
X11782086Y-12890174D02*
X11810658Y-12890174D01*
X11810658Y-12890174D02*
X11829705Y-12899698D01*
X11829705Y-12899698D02*
X11839229Y-12909222D01*
X11839229Y-12909222D02*
X11848753Y-12928269D01*
X11848753Y-12928269D02*
X11848753Y-12975888D01*
X11848753Y-12975888D02*
X11839229Y-12994936D01*
X11839229Y-12994936D02*
X11829705Y-13004460D01*
X11829705Y-13004460D02*
X11810658Y-13013984D01*
X11810658Y-13013984D02*
X11753515Y-13013984D01*
X11753515Y-13013984D02*
X11734467Y-13004460D01*
X11734467Y-13004460D02*
X11724943Y-12994936D01*
X11972562Y-12813984D02*
X11991610Y-12813984D01*
X11991610Y-12813984D02*
X12010658Y-12823508D01*
X12010658Y-12823508D02*
X12020182Y-12833031D01*
X12020182Y-12833031D02*
X12029705Y-12852079D01*
X12029705Y-12852079D02*
X12039229Y-12890174D01*
X12039229Y-12890174D02*
X12039229Y-12937793D01*
X12039229Y-12937793D02*
X12029705Y-12975888D01*
X12029705Y-12975888D02*
X12020182Y-12994936D01*
X12020182Y-12994936D02*
X12010658Y-13004460D01*
X12010658Y-13004460D02*
X11991610Y-13013984D01*
X11991610Y-13013984D02*
X11972562Y-13013984D01*
X11972562Y-13013984D02*
X11953515Y-13004460D01*
X11953515Y-13004460D02*
X11943991Y-12994936D01*
X11943991Y-12994936D02*
X11934467Y-12975888D01*
X11934467Y-12975888D02*
X11924943Y-12937793D01*
X11924943Y-12937793D02*
X11924943Y-12890174D01*
X11924943Y-12890174D02*
X11934467Y-12852079D01*
X11934467Y-12852079D02*
X11943991Y-12833031D01*
X11943991Y-12833031D02*
X11953515Y-12823508D01*
X11953515Y-12823508D02*
X11972562Y-12813984D01*
X12163039Y-12813984D02*
X12182086Y-12813984D01*
X12182086Y-12813984D02*
X12201134Y-12823508D01*
X12201134Y-12823508D02*
X12210658Y-12833031D01*
X12210658Y-12833031D02*
X12220182Y-12852079D01*
X12220182Y-12852079D02*
X12229705Y-12890174D01*
X12229705Y-12890174D02*
X12229705Y-12937793D01*
X12229705Y-12937793D02*
X12220182Y-12975888D01*
X12220182Y-12975888D02*
X12210658Y-12994936D01*
X12210658Y-12994936D02*
X12201134Y-13004460D01*
X12201134Y-13004460D02*
X12182086Y-13013984D01*
X12182086Y-13013984D02*
X12163039Y-13013984D01*
X12163039Y-13013984D02*
X12143991Y-13004460D01*
X12143991Y-13004460D02*
X12134467Y-12994936D01*
X12134467Y-12994936D02*
X12124943Y-12975888D01*
X12124943Y-12975888D02*
X12115420Y-12937793D01*
X12115420Y-12937793D02*
X12115420Y-12890174D01*
X12115420Y-12890174D02*
X12124943Y-12852079D01*
X12124943Y-12852079D02*
X12134467Y-12833031D01*
X12134467Y-12833031D02*
X12143991Y-12823508D01*
X12143991Y-12823508D02*
X12163039Y-12813984D01*
X12315420Y-13013984D02*
X12315420Y-12880650D01*
X12315420Y-12899698D02*
X12324943Y-12890174D01*
X12324943Y-12890174D02*
X12343991Y-12880650D01*
X12343991Y-12880650D02*
X12372563Y-12880650D01*
X12372563Y-12880650D02*
X12391610Y-12890174D01*
X12391610Y-12890174D02*
X12401134Y-12909222D01*
X12401134Y-12909222D02*
X12401134Y-13013984D01*
X12401134Y-12909222D02*
X12410658Y-12890174D01*
X12410658Y-12890174D02*
X12429705Y-12880650D01*
X12429705Y-12880650D02*
X12458277Y-12880650D01*
X12458277Y-12880650D02*
X12477324Y-12890174D01*
X12477324Y-12890174D02*
X12486848Y-12909222D01*
X12486848Y-12909222D02*
X12486848Y-13013984D01*
X12582086Y-13013984D02*
X12582086Y-12880650D01*
X12582086Y-12899698D02*
X12591610Y-12890174D01*
X12591610Y-12890174D02*
X12610658Y-12880650D01*
X12610658Y-12880650D02*
X12639229Y-12880650D01*
X12639229Y-12880650D02*
X12658277Y-12890174D01*
X12658277Y-12890174D02*
X12667801Y-12909222D01*
X12667801Y-12909222D02*
X12667801Y-13013984D01*
X12667801Y-12909222D02*
X12677324Y-12890174D01*
X12677324Y-12890174D02*
X12696372Y-12880650D01*
X12696372Y-12880650D02*
X12724943Y-12880650D01*
X12724943Y-12880650D02*
X12743991Y-12890174D01*
X12743991Y-12890174D02*
X12753515Y-12909222D01*
X12753515Y-12909222D02*
X12753515Y-13013984D01*
X13143991Y-12804460D02*
X12972563Y-13061603D01*
X13401134Y-12813984D02*
X13420182Y-12813984D01*
X13420182Y-12813984D02*
X13439229Y-12823508D01*
X13439229Y-12823508D02*
X13448753Y-12833031D01*
X13448753Y-12833031D02*
X13458277Y-12852079D01*
X13458277Y-12852079D02*
X13467801Y-12890174D01*
X13467801Y-12890174D02*
X13467801Y-12937793D01*
X13467801Y-12937793D02*
X13458277Y-12975888D01*
X13458277Y-12975888D02*
X13448753Y-12994936D01*
X13448753Y-12994936D02*
X13439229Y-13004460D01*
X13439229Y-13004460D02*
X13420182Y-13013984D01*
X13420182Y-13013984D02*
X13401134Y-13013984D01*
X13401134Y-13013984D02*
X13382086Y-13004460D01*
X13382086Y-13004460D02*
X13372563Y-12994936D01*
X13372563Y-12994936D02*
X13363039Y-12975888D01*
X13363039Y-12975888D02*
X13353515Y-12937793D01*
X13353515Y-12937793D02*
X13353515Y-12890174D01*
X13353515Y-12890174D02*
X13363039Y-12852079D01*
X13363039Y-12852079D02*
X13372563Y-12833031D01*
X13372563Y-12833031D02*
X13382086Y-12823508D01*
X13382086Y-12823508D02*
X13401134Y-12813984D01*
X13553515Y-12994936D02*
X13563039Y-13004460D01*
X13563039Y-13004460D02*
X13553515Y-13013984D01*
X13553515Y-13013984D02*
X13543991Y-13004460D01*
X13543991Y-13004460D02*
X13553515Y-12994936D01*
X13553515Y-12994936D02*
X13553515Y-13013984D01*
X13686848Y-12813984D02*
X13705896Y-12813984D01*
X13705896Y-12813984D02*
X13724944Y-12823508D01*
X13724944Y-12823508D02*
X13734467Y-12833031D01*
X13734467Y-12833031D02*
X13743991Y-12852079D01*
X13743991Y-12852079D02*
X13753515Y-12890174D01*
X13753515Y-12890174D02*
X13753515Y-12937793D01*
X13753515Y-12937793D02*
X13743991Y-12975888D01*
X13743991Y-12975888D02*
X13734467Y-12994936D01*
X13734467Y-12994936D02*
X13724944Y-13004460D01*
X13724944Y-13004460D02*
X13705896Y-13013984D01*
X13705896Y-13013984D02*
X13686848Y-13013984D01*
X13686848Y-13013984D02*
X13667801Y-13004460D01*
X13667801Y-13004460D02*
X13658277Y-12994936D01*
X13658277Y-12994936D02*
X13648753Y-12975888D01*
X13648753Y-12975888D02*
X13639229Y-12937793D01*
X13639229Y-12937793D02*
X13639229Y-12890174D01*
X13639229Y-12890174D02*
X13648753Y-12852079D01*
X13648753Y-12852079D02*
X13658277Y-12833031D01*
X13658277Y-12833031D02*
X13667801Y-12823508D01*
X13667801Y-12823508D02*
X13686848Y-12813984D01*
X13943991Y-13013984D02*
X13829706Y-13013984D01*
X13886848Y-13013984D02*
X13886848Y-12813984D01*
X13886848Y-12813984D02*
X13867801Y-12842555D01*
X13867801Y-12842555D02*
X13848753Y-12861603D01*
X13848753Y-12861603D02*
X13829706Y-12871127D01*
X14134467Y-13013984D02*
X14020182Y-13013984D01*
X14077325Y-13013984D02*
X14077325Y-12813984D01*
X14077325Y-12813984D02*
X14058277Y-12842555D01*
X14058277Y-12842555D02*
X14039229Y-12861603D01*
X14039229Y-12861603D02*
X14020182Y-12871127D01*
X14248753Y-12899698D02*
X14229706Y-12890174D01*
X14229706Y-12890174D02*
X14220182Y-12880650D01*
X14220182Y-12880650D02*
X14210658Y-12861603D01*
X14210658Y-12861603D02*
X14210658Y-12852079D01*
X14210658Y-12852079D02*
X14220182Y-12833031D01*
X14220182Y-12833031D02*
X14229706Y-12823508D01*
X14229706Y-12823508D02*
X14248753Y-12813984D01*
X14248753Y-12813984D02*
X14286848Y-12813984D01*
X14286848Y-12813984D02*
X14305896Y-12823508D01*
X14305896Y-12823508D02*
X14315420Y-12833031D01*
X14315420Y-12833031D02*
X14324944Y-12852079D01*
X14324944Y-12852079D02*
X14324944Y-12861603D01*
X14324944Y-12861603D02*
X14315420Y-12880650D01*
X14315420Y-12880650D02*
X14305896Y-12890174D01*
X14305896Y-12890174D02*
X14286848Y-12899698D01*
X14286848Y-12899698D02*
X14248753Y-12899698D01*
X14248753Y-12899698D02*
X14229706Y-12909222D01*
X14229706Y-12909222D02*
X14220182Y-12918746D01*
X14220182Y-12918746D02*
X14210658Y-12937793D01*
X14210658Y-12937793D02*
X14210658Y-12975888D01*
X14210658Y-12975888D02*
X14220182Y-12994936D01*
X14220182Y-12994936D02*
X14229706Y-13004460D01*
X14229706Y-13004460D02*
X14248753Y-13013984D01*
X14248753Y-13013984D02*
X14286848Y-13013984D01*
X14286848Y-13013984D02*
X14305896Y-13004460D01*
X14305896Y-13004460D02*
X14315420Y-12994936D01*
X14315420Y-12994936D02*
X14324944Y-12975888D01*
X14324944Y-12975888D02*
X14324944Y-12937793D01*
X14324944Y-12937793D02*
X14315420Y-12918746D01*
X14315420Y-12918746D02*
X14305896Y-12909222D01*
X14305896Y-12909222D02*
X14286848Y-12899698D01*
X14401134Y-12813984D02*
X14401134Y-12852079D01*
X14477325Y-12813984D02*
X14477325Y-12852079D01*
X14772563Y-13090174D02*
X14763039Y-13080650D01*
X14763039Y-13080650D02*
X14743991Y-13052079D01*
X14743991Y-13052079D02*
X14734468Y-13033031D01*
X14734468Y-13033031D02*
X14724944Y-13004460D01*
X14724944Y-13004460D02*
X14715420Y-12956841D01*
X14715420Y-12956841D02*
X14715420Y-12918746D01*
X14715420Y-12918746D02*
X14724944Y-12871127D01*
X14724944Y-12871127D02*
X14734468Y-12842555D01*
X14734468Y-12842555D02*
X14743991Y-12823508D01*
X14743991Y-12823508D02*
X14763039Y-12794936D01*
X14763039Y-12794936D02*
X14772563Y-12785412D01*
X14829706Y-12813984D02*
X14963039Y-12813984D01*
X14963039Y-12813984D02*
X14877325Y-13013984D01*
X15020182Y-12813984D02*
X15143991Y-12813984D01*
X15143991Y-12813984D02*
X15077325Y-12890174D01*
X15077325Y-12890174D02*
X15105896Y-12890174D01*
X15105896Y-12890174D02*
X15124944Y-12899698D01*
X15124944Y-12899698D02*
X15134468Y-12909222D01*
X15134468Y-12909222D02*
X15143991Y-12928269D01*
X15143991Y-12928269D02*
X15143991Y-12975888D01*
X15143991Y-12975888D02*
X15134468Y-12994936D01*
X15134468Y-12994936D02*
X15124944Y-13004460D01*
X15124944Y-13004460D02*
X15105896Y-13013984D01*
X15105896Y-13013984D02*
X15048753Y-13013984D01*
X15048753Y-13013984D02*
X15029706Y-13004460D01*
X15029706Y-13004460D02*
X15020182Y-12994936D01*
X15382087Y-13013984D02*
X15382087Y-12813984D01*
X15467801Y-13013984D02*
X15467801Y-12909222D01*
X15467801Y-12909222D02*
X15458277Y-12890174D01*
X15458277Y-12890174D02*
X15439230Y-12880650D01*
X15439230Y-12880650D02*
X15410658Y-12880650D01*
X15410658Y-12880650D02*
X15391610Y-12890174D01*
X15391610Y-12890174D02*
X15382087Y-12899698D01*
X15591610Y-13013984D02*
X15572563Y-13004460D01*
X15572563Y-13004460D02*
X15563039Y-12994936D01*
X15563039Y-12994936D02*
X15553515Y-12975888D01*
X15553515Y-12975888D02*
X15553515Y-12918746D01*
X15553515Y-12918746D02*
X15563039Y-12899698D01*
X15563039Y-12899698D02*
X15572563Y-12890174D01*
X15572563Y-12890174D02*
X15591610Y-12880650D01*
X15591610Y-12880650D02*
X15620182Y-12880650D01*
X15620182Y-12880650D02*
X15639230Y-12890174D01*
X15639230Y-12890174D02*
X15648753Y-12899698D01*
X15648753Y-12899698D02*
X15658277Y-12918746D01*
X15658277Y-12918746D02*
X15658277Y-12975888D01*
X15658277Y-12975888D02*
X15648753Y-12994936D01*
X15648753Y-12994936D02*
X15639230Y-13004460D01*
X15639230Y-13004460D02*
X15620182Y-13013984D01*
X15620182Y-13013984D02*
X15591610Y-13013984D01*
X15772563Y-13013984D02*
X15753515Y-13004460D01*
X15753515Y-13004460D02*
X15743991Y-12985412D01*
X15743991Y-12985412D02*
X15743991Y-12813984D01*
X15924944Y-13004460D02*
X15905896Y-13013984D01*
X15905896Y-13013984D02*
X15867801Y-13013984D01*
X15867801Y-13013984D02*
X15848753Y-13004460D01*
X15848753Y-13004460D02*
X15839230Y-12985412D01*
X15839230Y-12985412D02*
X15839230Y-12909222D01*
X15839230Y-12909222D02*
X15848753Y-12890174D01*
X15848753Y-12890174D02*
X15867801Y-12880650D01*
X15867801Y-12880650D02*
X15905896Y-12880650D01*
X15905896Y-12880650D02*
X15924944Y-12890174D01*
X15924944Y-12890174D02*
X15934468Y-12909222D01*
X15934468Y-12909222D02*
X15934468Y-12928269D01*
X15934468Y-12928269D02*
X15839230Y-12947317D01*
X16010658Y-13004460D02*
X16029706Y-13013984D01*
X16029706Y-13013984D02*
X16067801Y-13013984D01*
X16067801Y-13013984D02*
X16086849Y-13004460D01*
X16086849Y-13004460D02*
X16096372Y-12985412D01*
X16096372Y-12985412D02*
X16096372Y-12975888D01*
X16096372Y-12975888D02*
X16086849Y-12956841D01*
X16086849Y-12956841D02*
X16067801Y-12947317D01*
X16067801Y-12947317D02*
X16039230Y-12947317D01*
X16039230Y-12947317D02*
X16020182Y-12937793D01*
X16020182Y-12937793D02*
X16010658Y-12918746D01*
X16010658Y-12918746D02*
X16010658Y-12909222D01*
X16010658Y-12909222D02*
X16020182Y-12890174D01*
X16020182Y-12890174D02*
X16039230Y-12880650D01*
X16039230Y-12880650D02*
X16067801Y-12880650D01*
X16067801Y-12880650D02*
X16086849Y-12890174D01*
X16163039Y-13090174D02*
X16172563Y-13080650D01*
X16172563Y-13080650D02*
X16191611Y-13052079D01*
X16191611Y-13052079D02*
X16201134Y-13033031D01*
X16201134Y-13033031D02*
X16210658Y-13004460D01*
X16210658Y-13004460D02*
X16220182Y-12956841D01*
X16220182Y-12956841D02*
X16220182Y-12918746D01*
X16220182Y-12918746D02*
X16210658Y-12871127D01*
X16210658Y-12871127D02*
X16201134Y-12842555D01*
X16201134Y-12842555D02*
X16191611Y-12823508D01*
X16191611Y-12823508D02*
X16172563Y-12794936D01*
X16172563Y-12794936D02*
X16163039Y-12785412D01*
D13*
X11197500Y-13186500D02*
G75*
G02*
X11157500Y-13186500I-20000J0D01*
G01*
X11157500Y-13186500D02*
G75*
G02*
X11197500Y-13186500I20000J0D01*
G01*
D12*
X11496372Y-13077984D02*
X11515420Y-13077984D01*
X11515420Y-13077984D02*
X11534467Y-13087508D01*
X11534467Y-13087508D02*
X11543991Y-13097031D01*
X11543991Y-13097031D02*
X11553515Y-13116079D01*
X11553515Y-13116079D02*
X11563039Y-13154174D01*
X11563039Y-13154174D02*
X11563039Y-13201793D01*
X11563039Y-13201793D02*
X11553515Y-13239888D01*
X11553515Y-13239888D02*
X11543991Y-13258936D01*
X11543991Y-13258936D02*
X11534467Y-13268460D01*
X11534467Y-13268460D02*
X11515420Y-13277984D01*
X11515420Y-13277984D02*
X11496372Y-13277984D01*
X11496372Y-13277984D02*
X11477324Y-13268460D01*
X11477324Y-13268460D02*
X11467801Y-13258936D01*
X11467801Y-13258936D02*
X11458277Y-13239888D01*
X11458277Y-13239888D02*
X11448753Y-13201793D01*
X11448753Y-13201793D02*
X11448753Y-13154174D01*
X11448753Y-13154174D02*
X11458277Y-13116079D01*
X11458277Y-13116079D02*
X11467801Y-13097031D01*
X11467801Y-13097031D02*
X11477324Y-13087508D01*
X11477324Y-13087508D02*
X11496372Y-13077984D01*
X11648753Y-13258936D02*
X11658277Y-13268460D01*
X11658277Y-13268460D02*
X11648753Y-13277984D01*
X11648753Y-13277984D02*
X11639229Y-13268460D01*
X11639229Y-13268460D02*
X11648753Y-13258936D01*
X11648753Y-13258936D02*
X11648753Y-13277984D01*
X11829705Y-13144650D02*
X11829705Y-13277984D01*
X11782086Y-13068460D02*
X11734467Y-13211317D01*
X11734467Y-13211317D02*
X11858277Y-13211317D01*
X11972562Y-13077984D02*
X11991610Y-13077984D01*
X11991610Y-13077984D02*
X12010658Y-13087508D01*
X12010658Y-13087508D02*
X12020182Y-13097031D01*
X12020182Y-13097031D02*
X12029705Y-13116079D01*
X12029705Y-13116079D02*
X12039229Y-13154174D01*
X12039229Y-13154174D02*
X12039229Y-13201793D01*
X12039229Y-13201793D02*
X12029705Y-13239888D01*
X12029705Y-13239888D02*
X12020182Y-13258936D01*
X12020182Y-13258936D02*
X12010658Y-13268460D01*
X12010658Y-13268460D02*
X11991610Y-13277984D01*
X11991610Y-13277984D02*
X11972562Y-13277984D01*
X11972562Y-13277984D02*
X11953515Y-13268460D01*
X11953515Y-13268460D02*
X11943991Y-13258936D01*
X11943991Y-13258936D02*
X11934467Y-13239888D01*
X11934467Y-13239888D02*
X11924943Y-13201793D01*
X11924943Y-13201793D02*
X11924943Y-13154174D01*
X11924943Y-13154174D02*
X11934467Y-13116079D01*
X11934467Y-13116079D02*
X11943991Y-13097031D01*
X11943991Y-13097031D02*
X11953515Y-13087508D01*
X11953515Y-13087508D02*
X11972562Y-13077984D01*
X12163039Y-13077984D02*
X12182086Y-13077984D01*
X12182086Y-13077984D02*
X12201134Y-13087508D01*
X12201134Y-13087508D02*
X12210658Y-13097031D01*
X12210658Y-13097031D02*
X12220182Y-13116079D01*
X12220182Y-13116079D02*
X12229705Y-13154174D01*
X12229705Y-13154174D02*
X12229705Y-13201793D01*
X12229705Y-13201793D02*
X12220182Y-13239888D01*
X12220182Y-13239888D02*
X12210658Y-13258936D01*
X12210658Y-13258936D02*
X12201134Y-13268460D01*
X12201134Y-13268460D02*
X12182086Y-13277984D01*
X12182086Y-13277984D02*
X12163039Y-13277984D01*
X12163039Y-13277984D02*
X12143991Y-13268460D01*
X12143991Y-13268460D02*
X12134467Y-13258936D01*
X12134467Y-13258936D02*
X12124943Y-13239888D01*
X12124943Y-13239888D02*
X12115420Y-13201793D01*
X12115420Y-13201793D02*
X12115420Y-13154174D01*
X12115420Y-13154174D02*
X12124943Y-13116079D01*
X12124943Y-13116079D02*
X12134467Y-13097031D01*
X12134467Y-13097031D02*
X12143991Y-13087508D01*
X12143991Y-13087508D02*
X12163039Y-13077984D01*
X12315420Y-13277984D02*
X12315420Y-13144650D01*
X12315420Y-13163698D02*
X12324943Y-13154174D01*
X12324943Y-13154174D02*
X12343991Y-13144650D01*
X12343991Y-13144650D02*
X12372563Y-13144650D01*
X12372563Y-13144650D02*
X12391610Y-13154174D01*
X12391610Y-13154174D02*
X12401134Y-13173222D01*
X12401134Y-13173222D02*
X12401134Y-13277984D01*
X12401134Y-13173222D02*
X12410658Y-13154174D01*
X12410658Y-13154174D02*
X12429705Y-13144650D01*
X12429705Y-13144650D02*
X12458277Y-13144650D01*
X12458277Y-13144650D02*
X12477324Y-13154174D01*
X12477324Y-13154174D02*
X12486848Y-13173222D01*
X12486848Y-13173222D02*
X12486848Y-13277984D01*
X12582086Y-13277984D02*
X12582086Y-13144650D01*
X12582086Y-13163698D02*
X12591610Y-13154174D01*
X12591610Y-13154174D02*
X12610658Y-13144650D01*
X12610658Y-13144650D02*
X12639229Y-13144650D01*
X12639229Y-13144650D02*
X12658277Y-13154174D01*
X12658277Y-13154174D02*
X12667801Y-13173222D01*
X12667801Y-13173222D02*
X12667801Y-13277984D01*
X12667801Y-13173222D02*
X12677324Y-13154174D01*
X12677324Y-13154174D02*
X12696372Y-13144650D01*
X12696372Y-13144650D02*
X12724943Y-13144650D01*
X12724943Y-13144650D02*
X12743991Y-13154174D01*
X12743991Y-13154174D02*
X12753515Y-13173222D01*
X12753515Y-13173222D02*
X12753515Y-13277984D01*
X13143991Y-13068460D02*
X12972563Y-13325603D01*
X13401134Y-13077984D02*
X13420182Y-13077984D01*
X13420182Y-13077984D02*
X13439229Y-13087508D01*
X13439229Y-13087508D02*
X13448753Y-13097031D01*
X13448753Y-13097031D02*
X13458277Y-13116079D01*
X13458277Y-13116079D02*
X13467801Y-13154174D01*
X13467801Y-13154174D02*
X13467801Y-13201793D01*
X13467801Y-13201793D02*
X13458277Y-13239888D01*
X13458277Y-13239888D02*
X13448753Y-13258936D01*
X13448753Y-13258936D02*
X13439229Y-13268460D01*
X13439229Y-13268460D02*
X13420182Y-13277984D01*
X13420182Y-13277984D02*
X13401134Y-13277984D01*
X13401134Y-13277984D02*
X13382086Y-13268460D01*
X13382086Y-13268460D02*
X13372563Y-13258936D01*
X13372563Y-13258936D02*
X13363039Y-13239888D01*
X13363039Y-13239888D02*
X13353515Y-13201793D01*
X13353515Y-13201793D02*
X13353515Y-13154174D01*
X13353515Y-13154174D02*
X13363039Y-13116079D01*
X13363039Y-13116079D02*
X13372563Y-13097031D01*
X13372563Y-13097031D02*
X13382086Y-13087508D01*
X13382086Y-13087508D02*
X13401134Y-13077984D01*
X13553515Y-13258936D02*
X13563039Y-13268460D01*
X13563039Y-13268460D02*
X13553515Y-13277984D01*
X13553515Y-13277984D02*
X13543991Y-13268460D01*
X13543991Y-13268460D02*
X13553515Y-13258936D01*
X13553515Y-13258936D02*
X13553515Y-13277984D01*
X13686848Y-13077984D02*
X13705896Y-13077984D01*
X13705896Y-13077984D02*
X13724944Y-13087508D01*
X13724944Y-13087508D02*
X13734467Y-13097031D01*
X13734467Y-13097031D02*
X13743991Y-13116079D01*
X13743991Y-13116079D02*
X13753515Y-13154174D01*
X13753515Y-13154174D02*
X13753515Y-13201793D01*
X13753515Y-13201793D02*
X13743991Y-13239888D01*
X13743991Y-13239888D02*
X13734467Y-13258936D01*
X13734467Y-13258936D02*
X13724944Y-13268460D01*
X13724944Y-13268460D02*
X13705896Y-13277984D01*
X13705896Y-13277984D02*
X13686848Y-13277984D01*
X13686848Y-13277984D02*
X13667801Y-13268460D01*
X13667801Y-13268460D02*
X13658277Y-13258936D01*
X13658277Y-13258936D02*
X13648753Y-13239888D01*
X13648753Y-13239888D02*
X13639229Y-13201793D01*
X13639229Y-13201793D02*
X13639229Y-13154174D01*
X13639229Y-13154174D02*
X13648753Y-13116079D01*
X13648753Y-13116079D02*
X13658277Y-13097031D01*
X13658277Y-13097031D02*
X13667801Y-13087508D01*
X13667801Y-13087508D02*
X13686848Y-13077984D01*
X13943991Y-13277984D02*
X13829706Y-13277984D01*
X13886848Y-13277984D02*
X13886848Y-13077984D01*
X13886848Y-13077984D02*
X13867801Y-13106555D01*
X13867801Y-13106555D02*
X13848753Y-13125603D01*
X13848753Y-13125603D02*
X13829706Y-13135127D01*
X14124944Y-13077984D02*
X14029706Y-13077984D01*
X14029706Y-13077984D02*
X14020182Y-13173222D01*
X14020182Y-13173222D02*
X14029706Y-13163698D01*
X14029706Y-13163698D02*
X14048753Y-13154174D01*
X14048753Y-13154174D02*
X14096372Y-13154174D01*
X14096372Y-13154174D02*
X14115420Y-13163698D01*
X14115420Y-13163698D02*
X14124944Y-13173222D01*
X14124944Y-13173222D02*
X14134467Y-13192269D01*
X14134467Y-13192269D02*
X14134467Y-13239888D01*
X14134467Y-13239888D02*
X14124944Y-13258936D01*
X14124944Y-13258936D02*
X14115420Y-13268460D01*
X14115420Y-13268460D02*
X14096372Y-13277984D01*
X14096372Y-13277984D02*
X14048753Y-13277984D01*
X14048753Y-13277984D02*
X14029706Y-13268460D01*
X14029706Y-13268460D02*
X14020182Y-13258936D01*
X14201134Y-13077984D02*
X14334467Y-13077984D01*
X14334467Y-13077984D02*
X14248753Y-13277984D01*
X14401134Y-13077984D02*
X14401134Y-13116079D01*
X14477325Y-13077984D02*
X14477325Y-13116079D01*
X14772563Y-13354174D02*
X14763039Y-13344650D01*
X14763039Y-13344650D02*
X14743991Y-13316079D01*
X14743991Y-13316079D02*
X14734468Y-13297031D01*
X14734468Y-13297031D02*
X14724944Y-13268460D01*
X14724944Y-13268460D02*
X14715420Y-13220841D01*
X14715420Y-13220841D02*
X14715420Y-13182746D01*
X14715420Y-13182746D02*
X14724944Y-13135127D01*
X14724944Y-13135127D02*
X14734468Y-13106555D01*
X14734468Y-13106555D02*
X14743991Y-13087508D01*
X14743991Y-13087508D02*
X14763039Y-13058936D01*
X14763039Y-13058936D02*
X14772563Y-13049412D01*
X14934468Y-13077984D02*
X14896372Y-13077984D01*
X14896372Y-13077984D02*
X14877325Y-13087508D01*
X14877325Y-13087508D02*
X14867801Y-13097031D01*
X14867801Y-13097031D02*
X14848753Y-13125603D01*
X14848753Y-13125603D02*
X14839229Y-13163698D01*
X14839229Y-13163698D02*
X14839229Y-13239888D01*
X14839229Y-13239888D02*
X14848753Y-13258936D01*
X14848753Y-13258936D02*
X14858277Y-13268460D01*
X14858277Y-13268460D02*
X14877325Y-13277984D01*
X14877325Y-13277984D02*
X14915420Y-13277984D01*
X14915420Y-13277984D02*
X14934468Y-13268460D01*
X14934468Y-13268460D02*
X14943991Y-13258936D01*
X14943991Y-13258936D02*
X14953515Y-13239888D01*
X14953515Y-13239888D02*
X14953515Y-13192269D01*
X14953515Y-13192269D02*
X14943991Y-13173222D01*
X14943991Y-13173222D02*
X14934468Y-13163698D01*
X14934468Y-13163698D02*
X14915420Y-13154174D01*
X14915420Y-13154174D02*
X14877325Y-13154174D01*
X14877325Y-13154174D02*
X14858277Y-13163698D01*
X14858277Y-13163698D02*
X14848753Y-13173222D01*
X14848753Y-13173222D02*
X14839229Y-13192269D01*
X15067801Y-13163698D02*
X15048753Y-13154174D01*
X15048753Y-13154174D02*
X15039229Y-13144650D01*
X15039229Y-13144650D02*
X15029706Y-13125603D01*
X15029706Y-13125603D02*
X15029706Y-13116079D01*
X15029706Y-13116079D02*
X15039229Y-13097031D01*
X15039229Y-13097031D02*
X15048753Y-13087508D01*
X15048753Y-13087508D02*
X15067801Y-13077984D01*
X15067801Y-13077984D02*
X15105896Y-13077984D01*
X15105896Y-13077984D02*
X15124944Y-13087508D01*
X15124944Y-13087508D02*
X15134468Y-13097031D01*
X15134468Y-13097031D02*
X15143991Y-13116079D01*
X15143991Y-13116079D02*
X15143991Y-13125603D01*
X15143991Y-13125603D02*
X15134468Y-13144650D01*
X15134468Y-13144650D02*
X15124944Y-13154174D01*
X15124944Y-13154174D02*
X15105896Y-13163698D01*
X15105896Y-13163698D02*
X15067801Y-13163698D01*
X15067801Y-13163698D02*
X15048753Y-13173222D01*
X15048753Y-13173222D02*
X15039229Y-13182746D01*
X15039229Y-13182746D02*
X15029706Y-13201793D01*
X15029706Y-13201793D02*
X15029706Y-13239888D01*
X15029706Y-13239888D02*
X15039229Y-13258936D01*
X15039229Y-13258936D02*
X15048753Y-13268460D01*
X15048753Y-13268460D02*
X15067801Y-13277984D01*
X15067801Y-13277984D02*
X15105896Y-13277984D01*
X15105896Y-13277984D02*
X15124944Y-13268460D01*
X15124944Y-13268460D02*
X15134468Y-13258936D01*
X15134468Y-13258936D02*
X15143991Y-13239888D01*
X15143991Y-13239888D02*
X15143991Y-13201793D01*
X15143991Y-13201793D02*
X15134468Y-13182746D01*
X15134468Y-13182746D02*
X15124944Y-13173222D01*
X15124944Y-13173222D02*
X15105896Y-13163698D01*
X15382087Y-13277984D02*
X15382087Y-13077984D01*
X15467801Y-13277984D02*
X15467801Y-13173222D01*
X15467801Y-13173222D02*
X15458277Y-13154174D01*
X15458277Y-13154174D02*
X15439230Y-13144650D01*
X15439230Y-13144650D02*
X15410658Y-13144650D01*
X15410658Y-13144650D02*
X15391610Y-13154174D01*
X15391610Y-13154174D02*
X15382087Y-13163698D01*
X15591610Y-13277984D02*
X15572563Y-13268460D01*
X15572563Y-13268460D02*
X15563039Y-13258936D01*
X15563039Y-13258936D02*
X15553515Y-13239888D01*
X15553515Y-13239888D02*
X15553515Y-13182746D01*
X15553515Y-13182746D02*
X15563039Y-13163698D01*
X15563039Y-13163698D02*
X15572563Y-13154174D01*
X15572563Y-13154174D02*
X15591610Y-13144650D01*
X15591610Y-13144650D02*
X15620182Y-13144650D01*
X15620182Y-13144650D02*
X15639230Y-13154174D01*
X15639230Y-13154174D02*
X15648753Y-13163698D01*
X15648753Y-13163698D02*
X15658277Y-13182746D01*
X15658277Y-13182746D02*
X15658277Y-13239888D01*
X15658277Y-13239888D02*
X15648753Y-13258936D01*
X15648753Y-13258936D02*
X15639230Y-13268460D01*
X15639230Y-13268460D02*
X15620182Y-13277984D01*
X15620182Y-13277984D02*
X15591610Y-13277984D01*
X15772563Y-13277984D02*
X15753515Y-13268460D01*
X15753515Y-13268460D02*
X15743991Y-13249412D01*
X15743991Y-13249412D02*
X15743991Y-13077984D01*
X15924944Y-13268460D02*
X15905896Y-13277984D01*
X15905896Y-13277984D02*
X15867801Y-13277984D01*
X15867801Y-13277984D02*
X15848753Y-13268460D01*
X15848753Y-13268460D02*
X15839230Y-13249412D01*
X15839230Y-13249412D02*
X15839230Y-13173222D01*
X15839230Y-13173222D02*
X15848753Y-13154174D01*
X15848753Y-13154174D02*
X15867801Y-13144650D01*
X15867801Y-13144650D02*
X15905896Y-13144650D01*
X15905896Y-13144650D02*
X15924944Y-13154174D01*
X15924944Y-13154174D02*
X15934468Y-13173222D01*
X15934468Y-13173222D02*
X15934468Y-13192269D01*
X15934468Y-13192269D02*
X15839230Y-13211317D01*
X16010658Y-13268460D02*
X16029706Y-13277984D01*
X16029706Y-13277984D02*
X16067801Y-13277984D01*
X16067801Y-13277984D02*
X16086849Y-13268460D01*
X16086849Y-13268460D02*
X16096372Y-13249412D01*
X16096372Y-13249412D02*
X16096372Y-13239888D01*
X16096372Y-13239888D02*
X16086849Y-13220841D01*
X16086849Y-13220841D02*
X16067801Y-13211317D01*
X16067801Y-13211317D02*
X16039230Y-13211317D01*
X16039230Y-13211317D02*
X16020182Y-13201793D01*
X16020182Y-13201793D02*
X16010658Y-13182746D01*
X16010658Y-13182746D02*
X16010658Y-13173222D01*
X16010658Y-13173222D02*
X16020182Y-13154174D01*
X16020182Y-13154174D02*
X16039230Y-13144650D01*
X16039230Y-13144650D02*
X16067801Y-13144650D01*
X16067801Y-13144650D02*
X16086849Y-13154174D01*
X16163039Y-13354174D02*
X16172563Y-13344650D01*
X16172563Y-13344650D02*
X16191611Y-13316079D01*
X16191611Y-13316079D02*
X16201134Y-13297031D01*
X16201134Y-13297031D02*
X16210658Y-13268460D01*
X16210658Y-13268460D02*
X16220182Y-13220841D01*
X16220182Y-13220841D02*
X16220182Y-13182746D01*
X16220182Y-13182746D02*
X16210658Y-13135127D01*
X16210658Y-13135127D02*
X16201134Y-13106555D01*
X16201134Y-13106555D02*
X16191611Y-13087508D01*
X16191611Y-13087508D02*
X16172563Y-13058936D01*
X16172563Y-13058936D02*
X16163039Y-13049412D01*
D13*
X11167500Y-13420500D02*
X11167500Y-13480500D01*
X11137500Y-13450500D02*
X11197500Y-13450500D01*
D12*
X11496372Y-13341984D02*
X11515420Y-13341984D01*
X11515420Y-13341984D02*
X11534467Y-13351508D01*
X11534467Y-13351508D02*
X11543991Y-13361031D01*
X11543991Y-13361031D02*
X11553515Y-13380079D01*
X11553515Y-13380079D02*
X11563039Y-13418174D01*
X11563039Y-13418174D02*
X11563039Y-13465793D01*
X11563039Y-13465793D02*
X11553515Y-13503888D01*
X11553515Y-13503888D02*
X11543991Y-13522936D01*
X11543991Y-13522936D02*
X11534467Y-13532460D01*
X11534467Y-13532460D02*
X11515420Y-13541984D01*
X11515420Y-13541984D02*
X11496372Y-13541984D01*
X11496372Y-13541984D02*
X11477324Y-13532460D01*
X11477324Y-13532460D02*
X11467801Y-13522936D01*
X11467801Y-13522936D02*
X11458277Y-13503888D01*
X11458277Y-13503888D02*
X11448753Y-13465793D01*
X11448753Y-13465793D02*
X11448753Y-13418174D01*
X11448753Y-13418174D02*
X11458277Y-13380079D01*
X11458277Y-13380079D02*
X11467801Y-13361031D01*
X11467801Y-13361031D02*
X11477324Y-13351508D01*
X11477324Y-13351508D02*
X11496372Y-13341984D01*
X11648753Y-13522936D02*
X11658277Y-13532460D01*
X11658277Y-13532460D02*
X11648753Y-13541984D01*
X11648753Y-13541984D02*
X11639229Y-13532460D01*
X11639229Y-13532460D02*
X11648753Y-13522936D01*
X11648753Y-13522936D02*
X11648753Y-13541984D01*
X11829705Y-13341984D02*
X11791610Y-13341984D01*
X11791610Y-13341984D02*
X11772562Y-13351508D01*
X11772562Y-13351508D02*
X11763039Y-13361031D01*
X11763039Y-13361031D02*
X11743991Y-13389603D01*
X11743991Y-13389603D02*
X11734467Y-13427698D01*
X11734467Y-13427698D02*
X11734467Y-13503888D01*
X11734467Y-13503888D02*
X11743991Y-13522936D01*
X11743991Y-13522936D02*
X11753515Y-13532460D01*
X11753515Y-13532460D02*
X11772562Y-13541984D01*
X11772562Y-13541984D02*
X11810658Y-13541984D01*
X11810658Y-13541984D02*
X11829705Y-13532460D01*
X11829705Y-13532460D02*
X11839229Y-13522936D01*
X11839229Y-13522936D02*
X11848753Y-13503888D01*
X11848753Y-13503888D02*
X11848753Y-13456269D01*
X11848753Y-13456269D02*
X11839229Y-13437222D01*
X11839229Y-13437222D02*
X11829705Y-13427698D01*
X11829705Y-13427698D02*
X11810658Y-13418174D01*
X11810658Y-13418174D02*
X11772562Y-13418174D01*
X11772562Y-13418174D02*
X11753515Y-13427698D01*
X11753515Y-13427698D02*
X11743991Y-13437222D01*
X11743991Y-13437222D02*
X11734467Y-13456269D01*
X11972562Y-13341984D02*
X11991610Y-13341984D01*
X11991610Y-13341984D02*
X12010658Y-13351508D01*
X12010658Y-13351508D02*
X12020182Y-13361031D01*
X12020182Y-13361031D02*
X12029705Y-13380079D01*
X12029705Y-13380079D02*
X12039229Y-13418174D01*
X12039229Y-13418174D02*
X12039229Y-13465793D01*
X12039229Y-13465793D02*
X12029705Y-13503888D01*
X12029705Y-13503888D02*
X12020182Y-13522936D01*
X12020182Y-13522936D02*
X12010658Y-13532460D01*
X12010658Y-13532460D02*
X11991610Y-13541984D01*
X11991610Y-13541984D02*
X11972562Y-13541984D01*
X11972562Y-13541984D02*
X11953515Y-13532460D01*
X11953515Y-13532460D02*
X11943991Y-13522936D01*
X11943991Y-13522936D02*
X11934467Y-13503888D01*
X11934467Y-13503888D02*
X11924943Y-13465793D01*
X11924943Y-13465793D02*
X11924943Y-13418174D01*
X11924943Y-13418174D02*
X11934467Y-13380079D01*
X11934467Y-13380079D02*
X11943991Y-13361031D01*
X11943991Y-13361031D02*
X11953515Y-13351508D01*
X11953515Y-13351508D02*
X11972562Y-13341984D01*
X12163039Y-13341984D02*
X12182086Y-13341984D01*
X12182086Y-13341984D02*
X12201134Y-13351508D01*
X12201134Y-13351508D02*
X12210658Y-13361031D01*
X12210658Y-13361031D02*
X12220182Y-13380079D01*
X12220182Y-13380079D02*
X12229705Y-13418174D01*
X12229705Y-13418174D02*
X12229705Y-13465793D01*
X12229705Y-13465793D02*
X12220182Y-13503888D01*
X12220182Y-13503888D02*
X12210658Y-13522936D01*
X12210658Y-13522936D02*
X12201134Y-13532460D01*
X12201134Y-13532460D02*
X12182086Y-13541984D01*
X12182086Y-13541984D02*
X12163039Y-13541984D01*
X12163039Y-13541984D02*
X12143991Y-13532460D01*
X12143991Y-13532460D02*
X12134467Y-13522936D01*
X12134467Y-13522936D02*
X12124943Y-13503888D01*
X12124943Y-13503888D02*
X12115420Y-13465793D01*
X12115420Y-13465793D02*
X12115420Y-13418174D01*
X12115420Y-13418174D02*
X12124943Y-13380079D01*
X12124943Y-13380079D02*
X12134467Y-13361031D01*
X12134467Y-13361031D02*
X12143991Y-13351508D01*
X12143991Y-13351508D02*
X12163039Y-13341984D01*
X12315420Y-13541984D02*
X12315420Y-13408650D01*
X12315420Y-13427698D02*
X12324943Y-13418174D01*
X12324943Y-13418174D02*
X12343991Y-13408650D01*
X12343991Y-13408650D02*
X12372563Y-13408650D01*
X12372563Y-13408650D02*
X12391610Y-13418174D01*
X12391610Y-13418174D02*
X12401134Y-13437222D01*
X12401134Y-13437222D02*
X12401134Y-13541984D01*
X12401134Y-13437222D02*
X12410658Y-13418174D01*
X12410658Y-13418174D02*
X12429705Y-13408650D01*
X12429705Y-13408650D02*
X12458277Y-13408650D01*
X12458277Y-13408650D02*
X12477324Y-13418174D01*
X12477324Y-13418174D02*
X12486848Y-13437222D01*
X12486848Y-13437222D02*
X12486848Y-13541984D01*
X12582086Y-13541984D02*
X12582086Y-13408650D01*
X12582086Y-13427698D02*
X12591610Y-13418174D01*
X12591610Y-13418174D02*
X12610658Y-13408650D01*
X12610658Y-13408650D02*
X12639229Y-13408650D01*
X12639229Y-13408650D02*
X12658277Y-13418174D01*
X12658277Y-13418174D02*
X12667801Y-13437222D01*
X12667801Y-13437222D02*
X12667801Y-13541984D01*
X12667801Y-13437222D02*
X12677324Y-13418174D01*
X12677324Y-13418174D02*
X12696372Y-13408650D01*
X12696372Y-13408650D02*
X12724943Y-13408650D01*
X12724943Y-13408650D02*
X12743991Y-13418174D01*
X12743991Y-13418174D02*
X12753515Y-13437222D01*
X12753515Y-13437222D02*
X12753515Y-13541984D01*
X13143991Y-13332460D02*
X12972563Y-13589603D01*
X13401134Y-13341984D02*
X13420182Y-13341984D01*
X13420182Y-13341984D02*
X13439229Y-13351508D01*
X13439229Y-13351508D02*
X13448753Y-13361031D01*
X13448753Y-13361031D02*
X13458277Y-13380079D01*
X13458277Y-13380079D02*
X13467801Y-13418174D01*
X13467801Y-13418174D02*
X13467801Y-13465793D01*
X13467801Y-13465793D02*
X13458277Y-13503888D01*
X13458277Y-13503888D02*
X13448753Y-13522936D01*
X13448753Y-13522936D02*
X13439229Y-13532460D01*
X13439229Y-13532460D02*
X13420182Y-13541984D01*
X13420182Y-13541984D02*
X13401134Y-13541984D01*
X13401134Y-13541984D02*
X13382086Y-13532460D01*
X13382086Y-13532460D02*
X13372563Y-13522936D01*
X13372563Y-13522936D02*
X13363039Y-13503888D01*
X13363039Y-13503888D02*
X13353515Y-13465793D01*
X13353515Y-13465793D02*
X13353515Y-13418174D01*
X13353515Y-13418174D02*
X13363039Y-13380079D01*
X13363039Y-13380079D02*
X13372563Y-13361031D01*
X13372563Y-13361031D02*
X13382086Y-13351508D01*
X13382086Y-13351508D02*
X13401134Y-13341984D01*
X13553515Y-13522936D02*
X13563039Y-13532460D01*
X13563039Y-13532460D02*
X13553515Y-13541984D01*
X13553515Y-13541984D02*
X13543991Y-13532460D01*
X13543991Y-13532460D02*
X13553515Y-13522936D01*
X13553515Y-13522936D02*
X13553515Y-13541984D01*
X13686848Y-13341984D02*
X13705896Y-13341984D01*
X13705896Y-13341984D02*
X13724944Y-13351508D01*
X13724944Y-13351508D02*
X13734467Y-13361031D01*
X13734467Y-13361031D02*
X13743991Y-13380079D01*
X13743991Y-13380079D02*
X13753515Y-13418174D01*
X13753515Y-13418174D02*
X13753515Y-13465793D01*
X13753515Y-13465793D02*
X13743991Y-13503888D01*
X13743991Y-13503888D02*
X13734467Y-13522936D01*
X13734467Y-13522936D02*
X13724944Y-13532460D01*
X13724944Y-13532460D02*
X13705896Y-13541984D01*
X13705896Y-13541984D02*
X13686848Y-13541984D01*
X13686848Y-13541984D02*
X13667801Y-13532460D01*
X13667801Y-13532460D02*
X13658277Y-13522936D01*
X13658277Y-13522936D02*
X13648753Y-13503888D01*
X13648753Y-13503888D02*
X13639229Y-13465793D01*
X13639229Y-13465793D02*
X13639229Y-13418174D01*
X13639229Y-13418174D02*
X13648753Y-13380079D01*
X13648753Y-13380079D02*
X13658277Y-13361031D01*
X13658277Y-13361031D02*
X13667801Y-13351508D01*
X13667801Y-13351508D02*
X13686848Y-13341984D01*
X13829706Y-13361031D02*
X13839229Y-13351508D01*
X13839229Y-13351508D02*
X13858277Y-13341984D01*
X13858277Y-13341984D02*
X13905896Y-13341984D01*
X13905896Y-13341984D02*
X13924944Y-13351508D01*
X13924944Y-13351508D02*
X13934467Y-13361031D01*
X13934467Y-13361031D02*
X13943991Y-13380079D01*
X13943991Y-13380079D02*
X13943991Y-13399127D01*
X13943991Y-13399127D02*
X13934467Y-13427698D01*
X13934467Y-13427698D02*
X13820182Y-13541984D01*
X13820182Y-13541984D02*
X13943991Y-13541984D01*
X14010658Y-13341984D02*
X14134467Y-13341984D01*
X14134467Y-13341984D02*
X14067801Y-13418174D01*
X14067801Y-13418174D02*
X14096372Y-13418174D01*
X14096372Y-13418174D02*
X14115420Y-13427698D01*
X14115420Y-13427698D02*
X14124944Y-13437222D01*
X14124944Y-13437222D02*
X14134467Y-13456269D01*
X14134467Y-13456269D02*
X14134467Y-13503888D01*
X14134467Y-13503888D02*
X14124944Y-13522936D01*
X14124944Y-13522936D02*
X14115420Y-13532460D01*
X14115420Y-13532460D02*
X14096372Y-13541984D01*
X14096372Y-13541984D02*
X14039229Y-13541984D01*
X14039229Y-13541984D02*
X14020182Y-13532460D01*
X14020182Y-13532460D02*
X14010658Y-13522936D01*
X14305896Y-13341984D02*
X14267801Y-13341984D01*
X14267801Y-13341984D02*
X14248753Y-13351508D01*
X14248753Y-13351508D02*
X14239229Y-13361031D01*
X14239229Y-13361031D02*
X14220182Y-13389603D01*
X14220182Y-13389603D02*
X14210658Y-13427698D01*
X14210658Y-13427698D02*
X14210658Y-13503888D01*
X14210658Y-13503888D02*
X14220182Y-13522936D01*
X14220182Y-13522936D02*
X14229706Y-13532460D01*
X14229706Y-13532460D02*
X14248753Y-13541984D01*
X14248753Y-13541984D02*
X14286848Y-13541984D01*
X14286848Y-13541984D02*
X14305896Y-13532460D01*
X14305896Y-13532460D02*
X14315420Y-13522936D01*
X14315420Y-13522936D02*
X14324944Y-13503888D01*
X14324944Y-13503888D02*
X14324944Y-13456269D01*
X14324944Y-13456269D02*
X14315420Y-13437222D01*
X14315420Y-13437222D02*
X14305896Y-13427698D01*
X14305896Y-13427698D02*
X14286848Y-13418174D01*
X14286848Y-13418174D02*
X14248753Y-13418174D01*
X14248753Y-13418174D02*
X14229706Y-13427698D01*
X14229706Y-13427698D02*
X14220182Y-13437222D01*
X14220182Y-13437222D02*
X14210658Y-13456269D01*
X14401134Y-13341984D02*
X14401134Y-13380079D01*
X14477325Y-13341984D02*
X14477325Y-13380079D01*
X14772563Y-13618174D02*
X14763039Y-13608650D01*
X14763039Y-13608650D02*
X14743991Y-13580079D01*
X14743991Y-13580079D02*
X14734468Y-13561031D01*
X14734468Y-13561031D02*
X14724944Y-13532460D01*
X14724944Y-13532460D02*
X14715420Y-13484841D01*
X14715420Y-13484841D02*
X14715420Y-13446746D01*
X14715420Y-13446746D02*
X14724944Y-13399127D01*
X14724944Y-13399127D02*
X14734468Y-13370555D01*
X14734468Y-13370555D02*
X14743991Y-13351508D01*
X14743991Y-13351508D02*
X14763039Y-13322936D01*
X14763039Y-13322936D02*
X14772563Y-13313412D01*
X14877325Y-13427698D02*
X14858277Y-13418174D01*
X14858277Y-13418174D02*
X14848753Y-13408650D01*
X14848753Y-13408650D02*
X14839229Y-13389603D01*
X14839229Y-13389603D02*
X14839229Y-13380079D01*
X14839229Y-13380079D02*
X14848753Y-13361031D01*
X14848753Y-13361031D02*
X14858277Y-13351508D01*
X14858277Y-13351508D02*
X14877325Y-13341984D01*
X14877325Y-13341984D02*
X14915420Y-13341984D01*
X14915420Y-13341984D02*
X14934468Y-13351508D01*
X14934468Y-13351508D02*
X14943991Y-13361031D01*
X14943991Y-13361031D02*
X14953515Y-13380079D01*
X14953515Y-13380079D02*
X14953515Y-13389603D01*
X14953515Y-13389603D02*
X14943991Y-13408650D01*
X14943991Y-13408650D02*
X14934468Y-13418174D01*
X14934468Y-13418174D02*
X14915420Y-13427698D01*
X14915420Y-13427698D02*
X14877325Y-13427698D01*
X14877325Y-13427698D02*
X14858277Y-13437222D01*
X14858277Y-13437222D02*
X14848753Y-13446746D01*
X14848753Y-13446746D02*
X14839229Y-13465793D01*
X14839229Y-13465793D02*
X14839229Y-13503888D01*
X14839229Y-13503888D02*
X14848753Y-13522936D01*
X14848753Y-13522936D02*
X14858277Y-13532460D01*
X14858277Y-13532460D02*
X14877325Y-13541984D01*
X14877325Y-13541984D02*
X14915420Y-13541984D01*
X14915420Y-13541984D02*
X14934468Y-13532460D01*
X14934468Y-13532460D02*
X14943991Y-13522936D01*
X14943991Y-13522936D02*
X14953515Y-13503888D01*
X14953515Y-13503888D02*
X14953515Y-13465793D01*
X14953515Y-13465793D02*
X14943991Y-13446746D01*
X14943991Y-13446746D02*
X14934468Y-13437222D01*
X14934468Y-13437222D02*
X14915420Y-13427698D01*
X15191610Y-13541984D02*
X15191610Y-13341984D01*
X15277325Y-13541984D02*
X15277325Y-13437222D01*
X15277325Y-13437222D02*
X15267801Y-13418174D01*
X15267801Y-13418174D02*
X15248753Y-13408650D01*
X15248753Y-13408650D02*
X15220182Y-13408650D01*
X15220182Y-13408650D02*
X15201134Y-13418174D01*
X15201134Y-13418174D02*
X15191610Y-13427698D01*
X15401134Y-13541984D02*
X15382087Y-13532460D01*
X15382087Y-13532460D02*
X15372563Y-13522936D01*
X15372563Y-13522936D02*
X15363039Y-13503888D01*
X15363039Y-13503888D02*
X15363039Y-13446746D01*
X15363039Y-13446746D02*
X15372563Y-13427698D01*
X15372563Y-13427698D02*
X15382087Y-13418174D01*
X15382087Y-13418174D02*
X15401134Y-13408650D01*
X15401134Y-13408650D02*
X15429706Y-13408650D01*
X15429706Y-13408650D02*
X15448753Y-13418174D01*
X15448753Y-13418174D02*
X15458277Y-13427698D01*
X15458277Y-13427698D02*
X15467801Y-13446746D01*
X15467801Y-13446746D02*
X15467801Y-13503888D01*
X15467801Y-13503888D02*
X15458277Y-13522936D01*
X15458277Y-13522936D02*
X15448753Y-13532460D01*
X15448753Y-13532460D02*
X15429706Y-13541984D01*
X15429706Y-13541984D02*
X15401134Y-13541984D01*
X15582087Y-13541984D02*
X15563039Y-13532460D01*
X15563039Y-13532460D02*
X15553515Y-13513412D01*
X15553515Y-13513412D02*
X15553515Y-13341984D01*
X15734468Y-13532460D02*
X15715420Y-13541984D01*
X15715420Y-13541984D02*
X15677325Y-13541984D01*
X15677325Y-13541984D02*
X15658277Y-13532460D01*
X15658277Y-13532460D02*
X15648753Y-13513412D01*
X15648753Y-13513412D02*
X15648753Y-13437222D01*
X15648753Y-13437222D02*
X15658277Y-13418174D01*
X15658277Y-13418174D02*
X15677325Y-13408650D01*
X15677325Y-13408650D02*
X15715420Y-13408650D01*
X15715420Y-13408650D02*
X15734468Y-13418174D01*
X15734468Y-13418174D02*
X15743991Y-13437222D01*
X15743991Y-13437222D02*
X15743991Y-13456269D01*
X15743991Y-13456269D02*
X15648753Y-13475317D01*
X15820182Y-13532460D02*
X15839230Y-13541984D01*
X15839230Y-13541984D02*
X15877325Y-13541984D01*
X15877325Y-13541984D02*
X15896372Y-13532460D01*
X15896372Y-13532460D02*
X15905896Y-13513412D01*
X15905896Y-13513412D02*
X15905896Y-13503888D01*
X15905896Y-13503888D02*
X15896372Y-13484841D01*
X15896372Y-13484841D02*
X15877325Y-13475317D01*
X15877325Y-13475317D02*
X15848753Y-13475317D01*
X15848753Y-13475317D02*
X15829706Y-13465793D01*
X15829706Y-13465793D02*
X15820182Y-13446746D01*
X15820182Y-13446746D02*
X15820182Y-13437222D01*
X15820182Y-13437222D02*
X15829706Y-13418174D01*
X15829706Y-13418174D02*
X15848753Y-13408650D01*
X15848753Y-13408650D02*
X15877325Y-13408650D01*
X15877325Y-13408650D02*
X15896372Y-13418174D01*
X16143992Y-13465793D02*
X16296373Y-13465793D01*
X16220182Y-13541984D02*
X16220182Y-13389603D01*
X16534468Y-13361031D02*
X16543992Y-13351508D01*
X16543992Y-13351508D02*
X16563039Y-13341984D01*
X16563039Y-13341984D02*
X16610658Y-13341984D01*
X16610658Y-13341984D02*
X16629706Y-13351508D01*
X16629706Y-13351508D02*
X16639230Y-13361031D01*
X16639230Y-13361031D02*
X16648753Y-13380079D01*
X16648753Y-13380079D02*
X16648753Y-13399127D01*
X16648753Y-13399127D02*
X16639230Y-13427698D01*
X16639230Y-13427698D02*
X16524944Y-13541984D01*
X16524944Y-13541984D02*
X16648753Y-13541984D01*
X16877325Y-13532460D02*
X16896373Y-13541984D01*
X16896373Y-13541984D02*
X16934468Y-13541984D01*
X16934468Y-13541984D02*
X16953516Y-13532460D01*
X16953516Y-13532460D02*
X16963039Y-13513412D01*
X16963039Y-13513412D02*
X16963039Y-13503888D01*
X16963039Y-13503888D02*
X16953516Y-13484841D01*
X16953516Y-13484841D02*
X16934468Y-13475317D01*
X16934468Y-13475317D02*
X16905896Y-13475317D01*
X16905896Y-13475317D02*
X16886849Y-13465793D01*
X16886849Y-13465793D02*
X16877325Y-13446746D01*
X16877325Y-13446746D02*
X16877325Y-13437222D01*
X16877325Y-13437222D02*
X16886849Y-13418174D01*
X16886849Y-13418174D02*
X16905896Y-13408650D01*
X16905896Y-13408650D02*
X16934468Y-13408650D01*
X16934468Y-13408650D02*
X16953516Y-13418174D01*
X17077325Y-13541984D02*
X17058277Y-13532460D01*
X17058277Y-13532460D02*
X17048754Y-13513412D01*
X17048754Y-13513412D02*
X17048754Y-13341984D01*
X17182087Y-13541984D02*
X17163039Y-13532460D01*
X17163039Y-13532460D02*
X17153516Y-13522936D01*
X17153516Y-13522936D02*
X17143992Y-13503888D01*
X17143992Y-13503888D02*
X17143992Y-13446746D01*
X17143992Y-13446746D02*
X17153516Y-13427698D01*
X17153516Y-13427698D02*
X17163039Y-13418174D01*
X17163039Y-13418174D02*
X17182087Y-13408650D01*
X17182087Y-13408650D02*
X17210658Y-13408650D01*
X17210658Y-13408650D02*
X17229706Y-13418174D01*
X17229706Y-13418174D02*
X17239230Y-13427698D01*
X17239230Y-13427698D02*
X17248754Y-13446746D01*
X17248754Y-13446746D02*
X17248754Y-13503888D01*
X17248754Y-13503888D02*
X17239230Y-13522936D01*
X17239230Y-13522936D02*
X17229706Y-13532460D01*
X17229706Y-13532460D02*
X17210658Y-13541984D01*
X17210658Y-13541984D02*
X17182087Y-13541984D01*
X17305897Y-13408650D02*
X17382087Y-13408650D01*
X17334468Y-13341984D02*
X17334468Y-13513412D01*
X17334468Y-13513412D02*
X17343992Y-13532460D01*
X17343992Y-13532460D02*
X17363039Y-13541984D01*
X17363039Y-13541984D02*
X17382087Y-13541984D01*
X17439230Y-13532460D02*
X17458277Y-13541984D01*
X17458277Y-13541984D02*
X17496373Y-13541984D01*
X17496373Y-13541984D02*
X17515420Y-13532460D01*
X17515420Y-13532460D02*
X17524944Y-13513412D01*
X17524944Y-13513412D02*
X17524944Y-13503888D01*
X17524944Y-13503888D02*
X17515420Y-13484841D01*
X17515420Y-13484841D02*
X17496373Y-13475317D01*
X17496373Y-13475317D02*
X17467801Y-13475317D01*
X17467801Y-13475317D02*
X17448754Y-13465793D01*
X17448754Y-13465793D02*
X17439230Y-13446746D01*
X17439230Y-13446746D02*
X17439230Y-13437222D01*
X17439230Y-13437222D02*
X17448754Y-13418174D01*
X17448754Y-13418174D02*
X17467801Y-13408650D01*
X17467801Y-13408650D02*
X17496373Y-13408650D01*
X17496373Y-13408650D02*
X17515420Y-13418174D01*
X17591611Y-13618174D02*
X17601135Y-13608650D01*
X17601135Y-13608650D02*
X17620182Y-13580079D01*
X17620182Y-13580079D02*
X17629706Y-13561031D01*
X17629706Y-13561031D02*
X17639230Y-13532460D01*
X17639230Y-13532460D02*
X17648754Y-13484841D01*
X17648754Y-13484841D02*
X17648754Y-13446746D01*
X17648754Y-13446746D02*
X17639230Y-13399127D01*
X17639230Y-13399127D02*
X17629706Y-13370555D01*
X17629706Y-13370555D02*
X17620182Y-13351508D01*
X17620182Y-13351508D02*
X17601135Y-13322936D01*
X17601135Y-13322936D02*
X17591611Y-13313412D01*
D13*
X11185784Y-13742784D02*
X11185784Y-13686215D01*
X11129216Y-13686215D01*
X11129216Y-13742784D01*
X11185784Y-13742784D01*
D12*
X11496372Y-13605984D02*
X11515420Y-13605984D01*
X11515420Y-13605984D02*
X11534467Y-13615508D01*
X11534467Y-13615508D02*
X11543991Y-13625031D01*
X11543991Y-13625031D02*
X11553515Y-13644079D01*
X11553515Y-13644079D02*
X11563039Y-13682174D01*
X11563039Y-13682174D02*
X11563039Y-13729793D01*
X11563039Y-13729793D02*
X11553515Y-13767888D01*
X11553515Y-13767888D02*
X11543991Y-13786936D01*
X11543991Y-13786936D02*
X11534467Y-13796460D01*
X11534467Y-13796460D02*
X11515420Y-13805984D01*
X11515420Y-13805984D02*
X11496372Y-13805984D01*
X11496372Y-13805984D02*
X11477324Y-13796460D01*
X11477324Y-13796460D02*
X11467801Y-13786936D01*
X11467801Y-13786936D02*
X11458277Y-13767888D01*
X11458277Y-13767888D02*
X11448753Y-13729793D01*
X11448753Y-13729793D02*
X11448753Y-13682174D01*
X11448753Y-13682174D02*
X11458277Y-13644079D01*
X11458277Y-13644079D02*
X11467801Y-13625031D01*
X11467801Y-13625031D02*
X11477324Y-13615508D01*
X11477324Y-13615508D02*
X11496372Y-13605984D01*
X11648753Y-13786936D02*
X11658277Y-13796460D01*
X11658277Y-13796460D02*
X11648753Y-13805984D01*
X11648753Y-13805984D02*
X11639229Y-13796460D01*
X11639229Y-13796460D02*
X11648753Y-13786936D01*
X11648753Y-13786936D02*
X11648753Y-13805984D01*
X11772562Y-13691698D02*
X11753515Y-13682174D01*
X11753515Y-13682174D02*
X11743991Y-13672650D01*
X11743991Y-13672650D02*
X11734467Y-13653603D01*
X11734467Y-13653603D02*
X11734467Y-13644079D01*
X11734467Y-13644079D02*
X11743991Y-13625031D01*
X11743991Y-13625031D02*
X11753515Y-13615508D01*
X11753515Y-13615508D02*
X11772562Y-13605984D01*
X11772562Y-13605984D02*
X11810658Y-13605984D01*
X11810658Y-13605984D02*
X11829705Y-13615508D01*
X11829705Y-13615508D02*
X11839229Y-13625031D01*
X11839229Y-13625031D02*
X11848753Y-13644079D01*
X11848753Y-13644079D02*
X11848753Y-13653603D01*
X11848753Y-13653603D02*
X11839229Y-13672650D01*
X11839229Y-13672650D02*
X11829705Y-13682174D01*
X11829705Y-13682174D02*
X11810658Y-13691698D01*
X11810658Y-13691698D02*
X11772562Y-13691698D01*
X11772562Y-13691698D02*
X11753515Y-13701222D01*
X11753515Y-13701222D02*
X11743991Y-13710746D01*
X11743991Y-13710746D02*
X11734467Y-13729793D01*
X11734467Y-13729793D02*
X11734467Y-13767888D01*
X11734467Y-13767888D02*
X11743991Y-13786936D01*
X11743991Y-13786936D02*
X11753515Y-13796460D01*
X11753515Y-13796460D02*
X11772562Y-13805984D01*
X11772562Y-13805984D02*
X11810658Y-13805984D01*
X11810658Y-13805984D02*
X11829705Y-13796460D01*
X11829705Y-13796460D02*
X11839229Y-13786936D01*
X11839229Y-13786936D02*
X11848753Y-13767888D01*
X11848753Y-13767888D02*
X11848753Y-13729793D01*
X11848753Y-13729793D02*
X11839229Y-13710746D01*
X11839229Y-13710746D02*
X11829705Y-13701222D01*
X11829705Y-13701222D02*
X11810658Y-13691698D01*
X11972562Y-13605984D02*
X11991610Y-13605984D01*
X11991610Y-13605984D02*
X12010658Y-13615508D01*
X12010658Y-13615508D02*
X12020182Y-13625031D01*
X12020182Y-13625031D02*
X12029705Y-13644079D01*
X12029705Y-13644079D02*
X12039229Y-13682174D01*
X12039229Y-13682174D02*
X12039229Y-13729793D01*
X12039229Y-13729793D02*
X12029705Y-13767888D01*
X12029705Y-13767888D02*
X12020182Y-13786936D01*
X12020182Y-13786936D02*
X12010658Y-13796460D01*
X12010658Y-13796460D02*
X11991610Y-13805984D01*
X11991610Y-13805984D02*
X11972562Y-13805984D01*
X11972562Y-13805984D02*
X11953515Y-13796460D01*
X11953515Y-13796460D02*
X11943991Y-13786936D01*
X11943991Y-13786936D02*
X11934467Y-13767888D01*
X11934467Y-13767888D02*
X11924943Y-13729793D01*
X11924943Y-13729793D02*
X11924943Y-13682174D01*
X11924943Y-13682174D02*
X11934467Y-13644079D01*
X11934467Y-13644079D02*
X11943991Y-13625031D01*
X11943991Y-13625031D02*
X11953515Y-13615508D01*
X11953515Y-13615508D02*
X11972562Y-13605984D01*
X12163039Y-13605984D02*
X12182086Y-13605984D01*
X12182086Y-13605984D02*
X12201134Y-13615508D01*
X12201134Y-13615508D02*
X12210658Y-13625031D01*
X12210658Y-13625031D02*
X12220182Y-13644079D01*
X12220182Y-13644079D02*
X12229705Y-13682174D01*
X12229705Y-13682174D02*
X12229705Y-13729793D01*
X12229705Y-13729793D02*
X12220182Y-13767888D01*
X12220182Y-13767888D02*
X12210658Y-13786936D01*
X12210658Y-13786936D02*
X12201134Y-13796460D01*
X12201134Y-13796460D02*
X12182086Y-13805984D01*
X12182086Y-13805984D02*
X12163039Y-13805984D01*
X12163039Y-13805984D02*
X12143991Y-13796460D01*
X12143991Y-13796460D02*
X12134467Y-13786936D01*
X12134467Y-13786936D02*
X12124943Y-13767888D01*
X12124943Y-13767888D02*
X12115420Y-13729793D01*
X12115420Y-13729793D02*
X12115420Y-13682174D01*
X12115420Y-13682174D02*
X12124943Y-13644079D01*
X12124943Y-13644079D02*
X12134467Y-13625031D01*
X12134467Y-13625031D02*
X12143991Y-13615508D01*
X12143991Y-13615508D02*
X12163039Y-13605984D01*
X12315420Y-13805984D02*
X12315420Y-13672650D01*
X12315420Y-13691698D02*
X12324943Y-13682174D01*
X12324943Y-13682174D02*
X12343991Y-13672650D01*
X12343991Y-13672650D02*
X12372563Y-13672650D01*
X12372563Y-13672650D02*
X12391610Y-13682174D01*
X12391610Y-13682174D02*
X12401134Y-13701222D01*
X12401134Y-13701222D02*
X12401134Y-13805984D01*
X12401134Y-13701222D02*
X12410658Y-13682174D01*
X12410658Y-13682174D02*
X12429705Y-13672650D01*
X12429705Y-13672650D02*
X12458277Y-13672650D01*
X12458277Y-13672650D02*
X12477324Y-13682174D01*
X12477324Y-13682174D02*
X12486848Y-13701222D01*
X12486848Y-13701222D02*
X12486848Y-13805984D01*
X12582086Y-13805984D02*
X12582086Y-13672650D01*
X12582086Y-13691698D02*
X12591610Y-13682174D01*
X12591610Y-13682174D02*
X12610658Y-13672650D01*
X12610658Y-13672650D02*
X12639229Y-13672650D01*
X12639229Y-13672650D02*
X12658277Y-13682174D01*
X12658277Y-13682174D02*
X12667801Y-13701222D01*
X12667801Y-13701222D02*
X12667801Y-13805984D01*
X12667801Y-13701222D02*
X12677324Y-13682174D01*
X12677324Y-13682174D02*
X12696372Y-13672650D01*
X12696372Y-13672650D02*
X12724943Y-13672650D01*
X12724943Y-13672650D02*
X12743991Y-13682174D01*
X12743991Y-13682174D02*
X12753515Y-13701222D01*
X12753515Y-13701222D02*
X12753515Y-13805984D01*
X13143991Y-13596460D02*
X12972563Y-13853603D01*
X13401134Y-13605984D02*
X13420182Y-13605984D01*
X13420182Y-13605984D02*
X13439229Y-13615508D01*
X13439229Y-13615508D02*
X13448753Y-13625031D01*
X13448753Y-13625031D02*
X13458277Y-13644079D01*
X13458277Y-13644079D02*
X13467801Y-13682174D01*
X13467801Y-13682174D02*
X13467801Y-13729793D01*
X13467801Y-13729793D02*
X13458277Y-13767888D01*
X13458277Y-13767888D02*
X13448753Y-13786936D01*
X13448753Y-13786936D02*
X13439229Y-13796460D01*
X13439229Y-13796460D02*
X13420182Y-13805984D01*
X13420182Y-13805984D02*
X13401134Y-13805984D01*
X13401134Y-13805984D02*
X13382086Y-13796460D01*
X13382086Y-13796460D02*
X13372563Y-13786936D01*
X13372563Y-13786936D02*
X13363039Y-13767888D01*
X13363039Y-13767888D02*
X13353515Y-13729793D01*
X13353515Y-13729793D02*
X13353515Y-13682174D01*
X13353515Y-13682174D02*
X13363039Y-13644079D01*
X13363039Y-13644079D02*
X13372563Y-13625031D01*
X13372563Y-13625031D02*
X13382086Y-13615508D01*
X13382086Y-13615508D02*
X13401134Y-13605984D01*
X13553515Y-13786936D02*
X13563039Y-13796460D01*
X13563039Y-13796460D02*
X13553515Y-13805984D01*
X13553515Y-13805984D02*
X13543991Y-13796460D01*
X13543991Y-13796460D02*
X13553515Y-13786936D01*
X13553515Y-13786936D02*
X13553515Y-13805984D01*
X13686848Y-13605984D02*
X13705896Y-13605984D01*
X13705896Y-13605984D02*
X13724944Y-13615508D01*
X13724944Y-13615508D02*
X13734467Y-13625031D01*
X13734467Y-13625031D02*
X13743991Y-13644079D01*
X13743991Y-13644079D02*
X13753515Y-13682174D01*
X13753515Y-13682174D02*
X13753515Y-13729793D01*
X13753515Y-13729793D02*
X13743991Y-13767888D01*
X13743991Y-13767888D02*
X13734467Y-13786936D01*
X13734467Y-13786936D02*
X13724944Y-13796460D01*
X13724944Y-13796460D02*
X13705896Y-13805984D01*
X13705896Y-13805984D02*
X13686848Y-13805984D01*
X13686848Y-13805984D02*
X13667801Y-13796460D01*
X13667801Y-13796460D02*
X13658277Y-13786936D01*
X13658277Y-13786936D02*
X13648753Y-13767888D01*
X13648753Y-13767888D02*
X13639229Y-13729793D01*
X13639229Y-13729793D02*
X13639229Y-13682174D01*
X13639229Y-13682174D02*
X13648753Y-13644079D01*
X13648753Y-13644079D02*
X13658277Y-13625031D01*
X13658277Y-13625031D02*
X13667801Y-13615508D01*
X13667801Y-13615508D02*
X13686848Y-13605984D01*
X13820182Y-13605984D02*
X13943991Y-13605984D01*
X13943991Y-13605984D02*
X13877325Y-13682174D01*
X13877325Y-13682174D02*
X13905896Y-13682174D01*
X13905896Y-13682174D02*
X13924944Y-13691698D01*
X13924944Y-13691698D02*
X13934467Y-13701222D01*
X13934467Y-13701222D02*
X13943991Y-13720269D01*
X13943991Y-13720269D02*
X13943991Y-13767888D01*
X13943991Y-13767888D02*
X13934467Y-13786936D01*
X13934467Y-13786936D02*
X13924944Y-13796460D01*
X13924944Y-13796460D02*
X13905896Y-13805984D01*
X13905896Y-13805984D02*
X13848753Y-13805984D01*
X13848753Y-13805984D02*
X13829706Y-13796460D01*
X13829706Y-13796460D02*
X13820182Y-13786936D01*
X14134467Y-13805984D02*
X14020182Y-13805984D01*
X14077325Y-13805984D02*
X14077325Y-13605984D01*
X14077325Y-13605984D02*
X14058277Y-13634555D01*
X14058277Y-13634555D02*
X14039229Y-13653603D01*
X14039229Y-13653603D02*
X14020182Y-13663127D01*
X14315420Y-13605984D02*
X14220182Y-13605984D01*
X14220182Y-13605984D02*
X14210658Y-13701222D01*
X14210658Y-13701222D02*
X14220182Y-13691698D01*
X14220182Y-13691698D02*
X14239229Y-13682174D01*
X14239229Y-13682174D02*
X14286848Y-13682174D01*
X14286848Y-13682174D02*
X14305896Y-13691698D01*
X14305896Y-13691698D02*
X14315420Y-13701222D01*
X14315420Y-13701222D02*
X14324944Y-13720269D01*
X14324944Y-13720269D02*
X14324944Y-13767888D01*
X14324944Y-13767888D02*
X14315420Y-13786936D01*
X14315420Y-13786936D02*
X14305896Y-13796460D01*
X14305896Y-13796460D02*
X14286848Y-13805984D01*
X14286848Y-13805984D02*
X14239229Y-13805984D01*
X14239229Y-13805984D02*
X14220182Y-13796460D01*
X14220182Y-13796460D02*
X14210658Y-13786936D01*
X14401134Y-13605984D02*
X14401134Y-13644079D01*
X14477325Y-13605984D02*
X14477325Y-13644079D01*
X14772563Y-13882174D02*
X14763039Y-13872650D01*
X14763039Y-13872650D02*
X14743991Y-13844079D01*
X14743991Y-13844079D02*
X14734468Y-13825031D01*
X14734468Y-13825031D02*
X14724944Y-13796460D01*
X14724944Y-13796460D02*
X14715420Y-13748841D01*
X14715420Y-13748841D02*
X14715420Y-13710746D01*
X14715420Y-13710746D02*
X14724944Y-13663127D01*
X14724944Y-13663127D02*
X14734468Y-13634555D01*
X14734468Y-13634555D02*
X14743991Y-13615508D01*
X14743991Y-13615508D02*
X14763039Y-13586936D01*
X14763039Y-13586936D02*
X14772563Y-13577412D01*
X14877325Y-13691698D02*
X14858277Y-13682174D01*
X14858277Y-13682174D02*
X14848753Y-13672650D01*
X14848753Y-13672650D02*
X14839229Y-13653603D01*
X14839229Y-13653603D02*
X14839229Y-13644079D01*
X14839229Y-13644079D02*
X14848753Y-13625031D01*
X14848753Y-13625031D02*
X14858277Y-13615508D01*
X14858277Y-13615508D02*
X14877325Y-13605984D01*
X14877325Y-13605984D02*
X14915420Y-13605984D01*
X14915420Y-13605984D02*
X14934468Y-13615508D01*
X14934468Y-13615508D02*
X14943991Y-13625031D01*
X14943991Y-13625031D02*
X14953515Y-13644079D01*
X14953515Y-13644079D02*
X14953515Y-13653603D01*
X14953515Y-13653603D02*
X14943991Y-13672650D01*
X14943991Y-13672650D02*
X14934468Y-13682174D01*
X14934468Y-13682174D02*
X14915420Y-13691698D01*
X14915420Y-13691698D02*
X14877325Y-13691698D01*
X14877325Y-13691698D02*
X14858277Y-13701222D01*
X14858277Y-13701222D02*
X14848753Y-13710746D01*
X14848753Y-13710746D02*
X14839229Y-13729793D01*
X14839229Y-13729793D02*
X14839229Y-13767888D01*
X14839229Y-13767888D02*
X14848753Y-13786936D01*
X14848753Y-13786936D02*
X14858277Y-13796460D01*
X14858277Y-13796460D02*
X14877325Y-13805984D01*
X14877325Y-13805984D02*
X14915420Y-13805984D01*
X14915420Y-13805984D02*
X14934468Y-13796460D01*
X14934468Y-13796460D02*
X14943991Y-13786936D01*
X14943991Y-13786936D02*
X14953515Y-13767888D01*
X14953515Y-13767888D02*
X14953515Y-13729793D01*
X14953515Y-13729793D02*
X14943991Y-13710746D01*
X14943991Y-13710746D02*
X14934468Y-13701222D01*
X14934468Y-13701222D02*
X14915420Y-13691698D01*
X15191610Y-13805984D02*
X15191610Y-13605984D01*
X15277325Y-13805984D02*
X15277325Y-13701222D01*
X15277325Y-13701222D02*
X15267801Y-13682174D01*
X15267801Y-13682174D02*
X15248753Y-13672650D01*
X15248753Y-13672650D02*
X15220182Y-13672650D01*
X15220182Y-13672650D02*
X15201134Y-13682174D01*
X15201134Y-13682174D02*
X15191610Y-13691698D01*
X15401134Y-13805984D02*
X15382087Y-13796460D01*
X15382087Y-13796460D02*
X15372563Y-13786936D01*
X15372563Y-13786936D02*
X15363039Y-13767888D01*
X15363039Y-13767888D02*
X15363039Y-13710746D01*
X15363039Y-13710746D02*
X15372563Y-13691698D01*
X15372563Y-13691698D02*
X15382087Y-13682174D01*
X15382087Y-13682174D02*
X15401134Y-13672650D01*
X15401134Y-13672650D02*
X15429706Y-13672650D01*
X15429706Y-13672650D02*
X15448753Y-13682174D01*
X15448753Y-13682174D02*
X15458277Y-13691698D01*
X15458277Y-13691698D02*
X15467801Y-13710746D01*
X15467801Y-13710746D02*
X15467801Y-13767888D01*
X15467801Y-13767888D02*
X15458277Y-13786936D01*
X15458277Y-13786936D02*
X15448753Y-13796460D01*
X15448753Y-13796460D02*
X15429706Y-13805984D01*
X15429706Y-13805984D02*
X15401134Y-13805984D01*
X15582087Y-13805984D02*
X15563039Y-13796460D01*
X15563039Y-13796460D02*
X15553515Y-13777412D01*
X15553515Y-13777412D02*
X15553515Y-13605984D01*
X15734468Y-13796460D02*
X15715420Y-13805984D01*
X15715420Y-13805984D02*
X15677325Y-13805984D01*
X15677325Y-13805984D02*
X15658277Y-13796460D01*
X15658277Y-13796460D02*
X15648753Y-13777412D01*
X15648753Y-13777412D02*
X15648753Y-13701222D01*
X15648753Y-13701222D02*
X15658277Y-13682174D01*
X15658277Y-13682174D02*
X15677325Y-13672650D01*
X15677325Y-13672650D02*
X15715420Y-13672650D01*
X15715420Y-13672650D02*
X15734468Y-13682174D01*
X15734468Y-13682174D02*
X15743991Y-13701222D01*
X15743991Y-13701222D02*
X15743991Y-13720269D01*
X15743991Y-13720269D02*
X15648753Y-13739317D01*
X15820182Y-13796460D02*
X15839230Y-13805984D01*
X15839230Y-13805984D02*
X15877325Y-13805984D01*
X15877325Y-13805984D02*
X15896372Y-13796460D01*
X15896372Y-13796460D02*
X15905896Y-13777412D01*
X15905896Y-13777412D02*
X15905896Y-13767888D01*
X15905896Y-13767888D02*
X15896372Y-13748841D01*
X15896372Y-13748841D02*
X15877325Y-13739317D01*
X15877325Y-13739317D02*
X15848753Y-13739317D01*
X15848753Y-13739317D02*
X15829706Y-13729793D01*
X15829706Y-13729793D02*
X15820182Y-13710746D01*
X15820182Y-13710746D02*
X15820182Y-13701222D01*
X15820182Y-13701222D02*
X15829706Y-13682174D01*
X15829706Y-13682174D02*
X15848753Y-13672650D01*
X15848753Y-13672650D02*
X15877325Y-13672650D01*
X15877325Y-13672650D02*
X15896372Y-13682174D01*
X15972563Y-13882174D02*
X15982087Y-13872650D01*
X15982087Y-13872650D02*
X16001134Y-13844079D01*
X16001134Y-13844079D02*
X16010658Y-13825031D01*
X16010658Y-13825031D02*
X16020182Y-13796460D01*
X16020182Y-13796460D02*
X16029706Y-13748841D01*
X16029706Y-13748841D02*
X16029706Y-13710746D01*
X16029706Y-13710746D02*
X16020182Y-13663127D01*
X16020182Y-13663127D02*
X16010658Y-13634555D01*
X16010658Y-13634555D02*
X16001134Y-13615508D01*
X16001134Y-13615508D02*
X15982087Y-13586936D01*
X15982087Y-13586936D02*
X15972563Y-13577412D01*
D13*
X11147500Y-14028500D02*
X11197500Y-13978500D01*
X11147500Y-13928500D01*
X11097500Y-13978500D01*
X11147500Y-14028500D01*
D12*
X11563039Y-14069984D02*
X11448753Y-14069984D01*
X11505896Y-14069984D02*
X11505896Y-13869984D01*
X11505896Y-13869984D02*
X11486848Y-13898555D01*
X11486848Y-13898555D02*
X11467801Y-13917603D01*
X11467801Y-13917603D02*
X11448753Y-13927127D01*
X11648753Y-14050936D02*
X11658277Y-14060460D01*
X11658277Y-14060460D02*
X11648753Y-14069984D01*
X11648753Y-14069984D02*
X11639229Y-14060460D01*
X11639229Y-14060460D02*
X11648753Y-14050936D01*
X11648753Y-14050936D02*
X11648753Y-14069984D01*
X11782086Y-13869984D02*
X11801134Y-13869984D01*
X11801134Y-13869984D02*
X11820182Y-13879508D01*
X11820182Y-13879508D02*
X11829705Y-13889031D01*
X11829705Y-13889031D02*
X11839229Y-13908079D01*
X11839229Y-13908079D02*
X11848753Y-13946174D01*
X11848753Y-13946174D02*
X11848753Y-13993793D01*
X11848753Y-13993793D02*
X11839229Y-14031888D01*
X11839229Y-14031888D02*
X11829705Y-14050936D01*
X11829705Y-14050936D02*
X11820182Y-14060460D01*
X11820182Y-14060460D02*
X11801134Y-14069984D01*
X11801134Y-14069984D02*
X11782086Y-14069984D01*
X11782086Y-14069984D02*
X11763039Y-14060460D01*
X11763039Y-14060460D02*
X11753515Y-14050936D01*
X11753515Y-14050936D02*
X11743991Y-14031888D01*
X11743991Y-14031888D02*
X11734467Y-13993793D01*
X11734467Y-13993793D02*
X11734467Y-13946174D01*
X11734467Y-13946174D02*
X11743991Y-13908079D01*
X11743991Y-13908079D02*
X11753515Y-13889031D01*
X11753515Y-13889031D02*
X11763039Y-13879508D01*
X11763039Y-13879508D02*
X11782086Y-13869984D01*
X11972562Y-13869984D02*
X11991610Y-13869984D01*
X11991610Y-13869984D02*
X12010658Y-13879508D01*
X12010658Y-13879508D02*
X12020182Y-13889031D01*
X12020182Y-13889031D02*
X12029705Y-13908079D01*
X12029705Y-13908079D02*
X12039229Y-13946174D01*
X12039229Y-13946174D02*
X12039229Y-13993793D01*
X12039229Y-13993793D02*
X12029705Y-14031888D01*
X12029705Y-14031888D02*
X12020182Y-14050936D01*
X12020182Y-14050936D02*
X12010658Y-14060460D01*
X12010658Y-14060460D02*
X11991610Y-14069984D01*
X11991610Y-14069984D02*
X11972562Y-14069984D01*
X11972562Y-14069984D02*
X11953515Y-14060460D01*
X11953515Y-14060460D02*
X11943991Y-14050936D01*
X11943991Y-14050936D02*
X11934467Y-14031888D01*
X11934467Y-14031888D02*
X11924943Y-13993793D01*
X11924943Y-13993793D02*
X11924943Y-13946174D01*
X11924943Y-13946174D02*
X11934467Y-13908079D01*
X11934467Y-13908079D02*
X11943991Y-13889031D01*
X11943991Y-13889031D02*
X11953515Y-13879508D01*
X11953515Y-13879508D02*
X11972562Y-13869984D01*
X12163039Y-13869984D02*
X12182086Y-13869984D01*
X12182086Y-13869984D02*
X12201134Y-13879508D01*
X12201134Y-13879508D02*
X12210658Y-13889031D01*
X12210658Y-13889031D02*
X12220182Y-13908079D01*
X12220182Y-13908079D02*
X12229705Y-13946174D01*
X12229705Y-13946174D02*
X12229705Y-13993793D01*
X12229705Y-13993793D02*
X12220182Y-14031888D01*
X12220182Y-14031888D02*
X12210658Y-14050936D01*
X12210658Y-14050936D02*
X12201134Y-14060460D01*
X12201134Y-14060460D02*
X12182086Y-14069984D01*
X12182086Y-14069984D02*
X12163039Y-14069984D01*
X12163039Y-14069984D02*
X12143991Y-14060460D01*
X12143991Y-14060460D02*
X12134467Y-14050936D01*
X12134467Y-14050936D02*
X12124943Y-14031888D01*
X12124943Y-14031888D02*
X12115420Y-13993793D01*
X12115420Y-13993793D02*
X12115420Y-13946174D01*
X12115420Y-13946174D02*
X12124943Y-13908079D01*
X12124943Y-13908079D02*
X12134467Y-13889031D01*
X12134467Y-13889031D02*
X12143991Y-13879508D01*
X12143991Y-13879508D02*
X12163039Y-13869984D01*
X12315420Y-14069984D02*
X12315420Y-13936650D01*
X12315420Y-13955698D02*
X12324943Y-13946174D01*
X12324943Y-13946174D02*
X12343991Y-13936650D01*
X12343991Y-13936650D02*
X12372563Y-13936650D01*
X12372563Y-13936650D02*
X12391610Y-13946174D01*
X12391610Y-13946174D02*
X12401134Y-13965222D01*
X12401134Y-13965222D02*
X12401134Y-14069984D01*
X12401134Y-13965222D02*
X12410658Y-13946174D01*
X12410658Y-13946174D02*
X12429705Y-13936650D01*
X12429705Y-13936650D02*
X12458277Y-13936650D01*
X12458277Y-13936650D02*
X12477324Y-13946174D01*
X12477324Y-13946174D02*
X12486848Y-13965222D01*
X12486848Y-13965222D02*
X12486848Y-14069984D01*
X12582086Y-14069984D02*
X12582086Y-13936650D01*
X12582086Y-13955698D02*
X12591610Y-13946174D01*
X12591610Y-13946174D02*
X12610658Y-13936650D01*
X12610658Y-13936650D02*
X12639229Y-13936650D01*
X12639229Y-13936650D02*
X12658277Y-13946174D01*
X12658277Y-13946174D02*
X12667801Y-13965222D01*
X12667801Y-13965222D02*
X12667801Y-14069984D01*
X12667801Y-13965222D02*
X12677324Y-13946174D01*
X12677324Y-13946174D02*
X12696372Y-13936650D01*
X12696372Y-13936650D02*
X12724943Y-13936650D01*
X12724943Y-13936650D02*
X12743991Y-13946174D01*
X12743991Y-13946174D02*
X12753515Y-13965222D01*
X12753515Y-13965222D02*
X12753515Y-14069984D01*
X13143991Y-13860460D02*
X12972563Y-14117603D01*
X13401134Y-13869984D02*
X13420182Y-13869984D01*
X13420182Y-13869984D02*
X13439229Y-13879508D01*
X13439229Y-13879508D02*
X13448753Y-13889031D01*
X13448753Y-13889031D02*
X13458277Y-13908079D01*
X13458277Y-13908079D02*
X13467801Y-13946174D01*
X13467801Y-13946174D02*
X13467801Y-13993793D01*
X13467801Y-13993793D02*
X13458277Y-14031888D01*
X13458277Y-14031888D02*
X13448753Y-14050936D01*
X13448753Y-14050936D02*
X13439229Y-14060460D01*
X13439229Y-14060460D02*
X13420182Y-14069984D01*
X13420182Y-14069984D02*
X13401134Y-14069984D01*
X13401134Y-14069984D02*
X13382086Y-14060460D01*
X13382086Y-14060460D02*
X13372563Y-14050936D01*
X13372563Y-14050936D02*
X13363039Y-14031888D01*
X13363039Y-14031888D02*
X13353515Y-13993793D01*
X13353515Y-13993793D02*
X13353515Y-13946174D01*
X13353515Y-13946174D02*
X13363039Y-13908079D01*
X13363039Y-13908079D02*
X13372563Y-13889031D01*
X13372563Y-13889031D02*
X13382086Y-13879508D01*
X13382086Y-13879508D02*
X13401134Y-13869984D01*
X13553515Y-14050936D02*
X13563039Y-14060460D01*
X13563039Y-14060460D02*
X13553515Y-14069984D01*
X13553515Y-14069984D02*
X13543991Y-14060460D01*
X13543991Y-14060460D02*
X13553515Y-14050936D01*
X13553515Y-14050936D02*
X13553515Y-14069984D01*
X13686848Y-13869984D02*
X13705896Y-13869984D01*
X13705896Y-13869984D02*
X13724944Y-13879508D01*
X13724944Y-13879508D02*
X13734467Y-13889031D01*
X13734467Y-13889031D02*
X13743991Y-13908079D01*
X13743991Y-13908079D02*
X13753515Y-13946174D01*
X13753515Y-13946174D02*
X13753515Y-13993793D01*
X13753515Y-13993793D02*
X13743991Y-14031888D01*
X13743991Y-14031888D02*
X13734467Y-14050936D01*
X13734467Y-14050936D02*
X13724944Y-14060460D01*
X13724944Y-14060460D02*
X13705896Y-14069984D01*
X13705896Y-14069984D02*
X13686848Y-14069984D01*
X13686848Y-14069984D02*
X13667801Y-14060460D01*
X13667801Y-14060460D02*
X13658277Y-14050936D01*
X13658277Y-14050936D02*
X13648753Y-14031888D01*
X13648753Y-14031888D02*
X13639229Y-13993793D01*
X13639229Y-13993793D02*
X13639229Y-13946174D01*
X13639229Y-13946174D02*
X13648753Y-13908079D01*
X13648753Y-13908079D02*
X13658277Y-13889031D01*
X13658277Y-13889031D02*
X13667801Y-13879508D01*
X13667801Y-13879508D02*
X13686848Y-13869984D01*
X13820182Y-13869984D02*
X13943991Y-13869984D01*
X13943991Y-13869984D02*
X13877325Y-13946174D01*
X13877325Y-13946174D02*
X13905896Y-13946174D01*
X13905896Y-13946174D02*
X13924944Y-13955698D01*
X13924944Y-13955698D02*
X13934467Y-13965222D01*
X13934467Y-13965222D02*
X13943991Y-13984269D01*
X13943991Y-13984269D02*
X13943991Y-14031888D01*
X13943991Y-14031888D02*
X13934467Y-14050936D01*
X13934467Y-14050936D02*
X13924944Y-14060460D01*
X13924944Y-14060460D02*
X13905896Y-14069984D01*
X13905896Y-14069984D02*
X13848753Y-14069984D01*
X13848753Y-14069984D02*
X13829706Y-14060460D01*
X13829706Y-14060460D02*
X13820182Y-14050936D01*
X14039229Y-14069984D02*
X14077325Y-14069984D01*
X14077325Y-14069984D02*
X14096372Y-14060460D01*
X14096372Y-14060460D02*
X14105896Y-14050936D01*
X14105896Y-14050936D02*
X14124944Y-14022365D01*
X14124944Y-14022365D02*
X14134467Y-13984269D01*
X14134467Y-13984269D02*
X14134467Y-13908079D01*
X14134467Y-13908079D02*
X14124944Y-13889031D01*
X14124944Y-13889031D02*
X14115420Y-13879508D01*
X14115420Y-13879508D02*
X14096372Y-13869984D01*
X14096372Y-13869984D02*
X14058277Y-13869984D01*
X14058277Y-13869984D02*
X14039229Y-13879508D01*
X14039229Y-13879508D02*
X14029706Y-13889031D01*
X14029706Y-13889031D02*
X14020182Y-13908079D01*
X14020182Y-13908079D02*
X14020182Y-13955698D01*
X14020182Y-13955698D02*
X14029706Y-13974746D01*
X14029706Y-13974746D02*
X14039229Y-13984269D01*
X14039229Y-13984269D02*
X14058277Y-13993793D01*
X14058277Y-13993793D02*
X14096372Y-13993793D01*
X14096372Y-13993793D02*
X14115420Y-13984269D01*
X14115420Y-13984269D02*
X14124944Y-13974746D01*
X14124944Y-13974746D02*
X14134467Y-13955698D01*
X14305896Y-13936650D02*
X14305896Y-14069984D01*
X14258277Y-13860460D02*
X14210658Y-14003317D01*
X14210658Y-14003317D02*
X14334467Y-14003317D01*
X14401134Y-13869984D02*
X14401134Y-13908079D01*
X14477325Y-13869984D02*
X14477325Y-13908079D01*
X14772563Y-14146174D02*
X14763039Y-14136650D01*
X14763039Y-14136650D02*
X14743991Y-14108079D01*
X14743991Y-14108079D02*
X14734468Y-14089031D01*
X14734468Y-14089031D02*
X14724944Y-14060460D01*
X14724944Y-14060460D02*
X14715420Y-14012841D01*
X14715420Y-14012841D02*
X14715420Y-13974746D01*
X14715420Y-13974746D02*
X14724944Y-13927127D01*
X14724944Y-13927127D02*
X14734468Y-13898555D01*
X14734468Y-13898555D02*
X14743991Y-13879508D01*
X14743991Y-13879508D02*
X14763039Y-13850936D01*
X14763039Y-13850936D02*
X14772563Y-13841412D01*
X14953515Y-14069984D02*
X14839229Y-14069984D01*
X14896372Y-14069984D02*
X14896372Y-13869984D01*
X14896372Y-13869984D02*
X14877325Y-13898555D01*
X14877325Y-13898555D02*
X14858277Y-13917603D01*
X14858277Y-13917603D02*
X14839229Y-13927127D01*
X15067801Y-13955698D02*
X15048753Y-13946174D01*
X15048753Y-13946174D02*
X15039229Y-13936650D01*
X15039229Y-13936650D02*
X15029706Y-13917603D01*
X15029706Y-13917603D02*
X15029706Y-13908079D01*
X15029706Y-13908079D02*
X15039229Y-13889031D01*
X15039229Y-13889031D02*
X15048753Y-13879508D01*
X15048753Y-13879508D02*
X15067801Y-13869984D01*
X15067801Y-13869984D02*
X15105896Y-13869984D01*
X15105896Y-13869984D02*
X15124944Y-13879508D01*
X15124944Y-13879508D02*
X15134468Y-13889031D01*
X15134468Y-13889031D02*
X15143991Y-13908079D01*
X15143991Y-13908079D02*
X15143991Y-13917603D01*
X15143991Y-13917603D02*
X15134468Y-13936650D01*
X15134468Y-13936650D02*
X15124944Y-13946174D01*
X15124944Y-13946174D02*
X15105896Y-13955698D01*
X15105896Y-13955698D02*
X15067801Y-13955698D01*
X15067801Y-13955698D02*
X15048753Y-13965222D01*
X15048753Y-13965222D02*
X15039229Y-13974746D01*
X15039229Y-13974746D02*
X15029706Y-13993793D01*
X15029706Y-13993793D02*
X15029706Y-14031888D01*
X15029706Y-14031888D02*
X15039229Y-14050936D01*
X15039229Y-14050936D02*
X15048753Y-14060460D01*
X15048753Y-14060460D02*
X15067801Y-14069984D01*
X15067801Y-14069984D02*
X15105896Y-14069984D01*
X15105896Y-14069984D02*
X15124944Y-14060460D01*
X15124944Y-14060460D02*
X15134468Y-14050936D01*
X15134468Y-14050936D02*
X15143991Y-14031888D01*
X15143991Y-14031888D02*
X15143991Y-13993793D01*
X15143991Y-13993793D02*
X15134468Y-13974746D01*
X15134468Y-13974746D02*
X15124944Y-13965222D01*
X15124944Y-13965222D02*
X15105896Y-13955698D01*
X15382087Y-14069984D02*
X15382087Y-13869984D01*
X15467801Y-14069984D02*
X15467801Y-13965222D01*
X15467801Y-13965222D02*
X15458277Y-13946174D01*
X15458277Y-13946174D02*
X15439230Y-13936650D01*
X15439230Y-13936650D02*
X15410658Y-13936650D01*
X15410658Y-13936650D02*
X15391610Y-13946174D01*
X15391610Y-13946174D02*
X15382087Y-13955698D01*
X15591610Y-14069984D02*
X15572563Y-14060460D01*
X15572563Y-14060460D02*
X15563039Y-14050936D01*
X15563039Y-14050936D02*
X15553515Y-14031888D01*
X15553515Y-14031888D02*
X15553515Y-13974746D01*
X15553515Y-13974746D02*
X15563039Y-13955698D01*
X15563039Y-13955698D02*
X15572563Y-13946174D01*
X15572563Y-13946174D02*
X15591610Y-13936650D01*
X15591610Y-13936650D02*
X15620182Y-13936650D01*
X15620182Y-13936650D02*
X15639230Y-13946174D01*
X15639230Y-13946174D02*
X15648753Y-13955698D01*
X15648753Y-13955698D02*
X15658277Y-13974746D01*
X15658277Y-13974746D02*
X15658277Y-14031888D01*
X15658277Y-14031888D02*
X15648753Y-14050936D01*
X15648753Y-14050936D02*
X15639230Y-14060460D01*
X15639230Y-14060460D02*
X15620182Y-14069984D01*
X15620182Y-14069984D02*
X15591610Y-14069984D01*
X15772563Y-14069984D02*
X15753515Y-14060460D01*
X15753515Y-14060460D02*
X15743991Y-14041412D01*
X15743991Y-14041412D02*
X15743991Y-13869984D01*
X15924944Y-14060460D02*
X15905896Y-14069984D01*
X15905896Y-14069984D02*
X15867801Y-14069984D01*
X15867801Y-14069984D02*
X15848753Y-14060460D01*
X15848753Y-14060460D02*
X15839230Y-14041412D01*
X15839230Y-14041412D02*
X15839230Y-13965222D01*
X15839230Y-13965222D02*
X15848753Y-13946174D01*
X15848753Y-13946174D02*
X15867801Y-13936650D01*
X15867801Y-13936650D02*
X15905896Y-13936650D01*
X15905896Y-13936650D02*
X15924944Y-13946174D01*
X15924944Y-13946174D02*
X15934468Y-13965222D01*
X15934468Y-13965222D02*
X15934468Y-13984269D01*
X15934468Y-13984269D02*
X15839230Y-14003317D01*
X16010658Y-14060460D02*
X16029706Y-14069984D01*
X16029706Y-14069984D02*
X16067801Y-14069984D01*
X16067801Y-14069984D02*
X16086849Y-14060460D01*
X16086849Y-14060460D02*
X16096372Y-14041412D01*
X16096372Y-14041412D02*
X16096372Y-14031888D01*
X16096372Y-14031888D02*
X16086849Y-14012841D01*
X16086849Y-14012841D02*
X16067801Y-14003317D01*
X16067801Y-14003317D02*
X16039230Y-14003317D01*
X16039230Y-14003317D02*
X16020182Y-13993793D01*
X16020182Y-13993793D02*
X16010658Y-13974746D01*
X16010658Y-13974746D02*
X16010658Y-13965222D01*
X16010658Y-13965222D02*
X16020182Y-13946174D01*
X16020182Y-13946174D02*
X16039230Y-13936650D01*
X16039230Y-13936650D02*
X16067801Y-13936650D01*
X16067801Y-13936650D02*
X16086849Y-13946174D01*
X16163039Y-14146174D02*
X16172563Y-14136650D01*
X16172563Y-14136650D02*
X16191611Y-14108079D01*
X16191611Y-14108079D02*
X16201134Y-14089031D01*
X16201134Y-14089031D02*
X16210658Y-14060460D01*
X16210658Y-14060460D02*
X16220182Y-14012841D01*
X16220182Y-14012841D02*
X16220182Y-13974746D01*
X16220182Y-13974746D02*
X16210658Y-13927127D01*
X16210658Y-13927127D02*
X16201134Y-13898555D01*
X16201134Y-13898555D02*
X16191611Y-13879508D01*
X16191611Y-13879508D02*
X16172563Y-13850936D01*
X16172563Y-13850936D02*
X16163039Y-13841412D01*
D13*
X11097500Y-14192500D02*
X11197500Y-14292500D01*
X11197500Y-14192500D02*
X11097500Y-14292500D01*
X11197500Y-14242500D02*
G75*
G02*
X11097500Y-14242500I-50000J0D01*
G01*
X11097500Y-14242500D02*
G75*
G02*
X11197500Y-14242500I50000J0D01*
G01*
D12*
X11563039Y-14333984D02*
X11448753Y-14333984D01*
X11505896Y-14333984D02*
X11505896Y-14133984D01*
X11505896Y-14133984D02*
X11486848Y-14162555D01*
X11486848Y-14162555D02*
X11467801Y-14181603D01*
X11467801Y-14181603D02*
X11448753Y-14191127D01*
X11648753Y-14314936D02*
X11658277Y-14324460D01*
X11658277Y-14324460D02*
X11648753Y-14333984D01*
X11648753Y-14333984D02*
X11639229Y-14324460D01*
X11639229Y-14324460D02*
X11648753Y-14314936D01*
X11648753Y-14314936D02*
X11648753Y-14333984D01*
X11782086Y-14133984D02*
X11801134Y-14133984D01*
X11801134Y-14133984D02*
X11820182Y-14143508D01*
X11820182Y-14143508D02*
X11829705Y-14153031D01*
X11829705Y-14153031D02*
X11839229Y-14172079D01*
X11839229Y-14172079D02*
X11848753Y-14210174D01*
X11848753Y-14210174D02*
X11848753Y-14257793D01*
X11848753Y-14257793D02*
X11839229Y-14295888D01*
X11839229Y-14295888D02*
X11829705Y-14314936D01*
X11829705Y-14314936D02*
X11820182Y-14324460D01*
X11820182Y-14324460D02*
X11801134Y-14333984D01*
X11801134Y-14333984D02*
X11782086Y-14333984D01*
X11782086Y-14333984D02*
X11763039Y-14324460D01*
X11763039Y-14324460D02*
X11753515Y-14314936D01*
X11753515Y-14314936D02*
X11743991Y-14295888D01*
X11743991Y-14295888D02*
X11734467Y-14257793D01*
X11734467Y-14257793D02*
X11734467Y-14210174D01*
X11734467Y-14210174D02*
X11743991Y-14172079D01*
X11743991Y-14172079D02*
X11753515Y-14153031D01*
X11753515Y-14153031D02*
X11763039Y-14143508D01*
X11763039Y-14143508D02*
X11782086Y-14133984D01*
X11972562Y-14133984D02*
X11991610Y-14133984D01*
X11991610Y-14133984D02*
X12010658Y-14143508D01*
X12010658Y-14143508D02*
X12020182Y-14153031D01*
X12020182Y-14153031D02*
X12029705Y-14172079D01*
X12029705Y-14172079D02*
X12039229Y-14210174D01*
X12039229Y-14210174D02*
X12039229Y-14257793D01*
X12039229Y-14257793D02*
X12029705Y-14295888D01*
X12029705Y-14295888D02*
X12020182Y-14314936D01*
X12020182Y-14314936D02*
X12010658Y-14324460D01*
X12010658Y-14324460D02*
X11991610Y-14333984D01*
X11991610Y-14333984D02*
X11972562Y-14333984D01*
X11972562Y-14333984D02*
X11953515Y-14324460D01*
X11953515Y-14324460D02*
X11943991Y-14314936D01*
X11943991Y-14314936D02*
X11934467Y-14295888D01*
X11934467Y-14295888D02*
X11924943Y-14257793D01*
X11924943Y-14257793D02*
X11924943Y-14210174D01*
X11924943Y-14210174D02*
X11934467Y-14172079D01*
X11934467Y-14172079D02*
X11943991Y-14153031D01*
X11943991Y-14153031D02*
X11953515Y-14143508D01*
X11953515Y-14143508D02*
X11972562Y-14133984D01*
X12163039Y-14133984D02*
X12182086Y-14133984D01*
X12182086Y-14133984D02*
X12201134Y-14143508D01*
X12201134Y-14143508D02*
X12210658Y-14153031D01*
X12210658Y-14153031D02*
X12220182Y-14172079D01*
X12220182Y-14172079D02*
X12229705Y-14210174D01*
X12229705Y-14210174D02*
X12229705Y-14257793D01*
X12229705Y-14257793D02*
X12220182Y-14295888D01*
X12220182Y-14295888D02*
X12210658Y-14314936D01*
X12210658Y-14314936D02*
X12201134Y-14324460D01*
X12201134Y-14324460D02*
X12182086Y-14333984D01*
X12182086Y-14333984D02*
X12163039Y-14333984D01*
X12163039Y-14333984D02*
X12143991Y-14324460D01*
X12143991Y-14324460D02*
X12134467Y-14314936D01*
X12134467Y-14314936D02*
X12124943Y-14295888D01*
X12124943Y-14295888D02*
X12115420Y-14257793D01*
X12115420Y-14257793D02*
X12115420Y-14210174D01*
X12115420Y-14210174D02*
X12124943Y-14172079D01*
X12124943Y-14172079D02*
X12134467Y-14153031D01*
X12134467Y-14153031D02*
X12143991Y-14143508D01*
X12143991Y-14143508D02*
X12163039Y-14133984D01*
X12315420Y-14333984D02*
X12315420Y-14200650D01*
X12315420Y-14219698D02*
X12324943Y-14210174D01*
X12324943Y-14210174D02*
X12343991Y-14200650D01*
X12343991Y-14200650D02*
X12372563Y-14200650D01*
X12372563Y-14200650D02*
X12391610Y-14210174D01*
X12391610Y-14210174D02*
X12401134Y-14229222D01*
X12401134Y-14229222D02*
X12401134Y-14333984D01*
X12401134Y-14229222D02*
X12410658Y-14210174D01*
X12410658Y-14210174D02*
X12429705Y-14200650D01*
X12429705Y-14200650D02*
X12458277Y-14200650D01*
X12458277Y-14200650D02*
X12477324Y-14210174D01*
X12477324Y-14210174D02*
X12486848Y-14229222D01*
X12486848Y-14229222D02*
X12486848Y-14333984D01*
X12582086Y-14333984D02*
X12582086Y-14200650D01*
X12582086Y-14219698D02*
X12591610Y-14210174D01*
X12591610Y-14210174D02*
X12610658Y-14200650D01*
X12610658Y-14200650D02*
X12639229Y-14200650D01*
X12639229Y-14200650D02*
X12658277Y-14210174D01*
X12658277Y-14210174D02*
X12667801Y-14229222D01*
X12667801Y-14229222D02*
X12667801Y-14333984D01*
X12667801Y-14229222D02*
X12677324Y-14210174D01*
X12677324Y-14210174D02*
X12696372Y-14200650D01*
X12696372Y-14200650D02*
X12724943Y-14200650D01*
X12724943Y-14200650D02*
X12743991Y-14210174D01*
X12743991Y-14210174D02*
X12753515Y-14229222D01*
X12753515Y-14229222D02*
X12753515Y-14333984D01*
X13143991Y-14124460D02*
X12972563Y-14381603D01*
X13401134Y-14133984D02*
X13420182Y-14133984D01*
X13420182Y-14133984D02*
X13439229Y-14143508D01*
X13439229Y-14143508D02*
X13448753Y-14153031D01*
X13448753Y-14153031D02*
X13458277Y-14172079D01*
X13458277Y-14172079D02*
X13467801Y-14210174D01*
X13467801Y-14210174D02*
X13467801Y-14257793D01*
X13467801Y-14257793D02*
X13458277Y-14295888D01*
X13458277Y-14295888D02*
X13448753Y-14314936D01*
X13448753Y-14314936D02*
X13439229Y-14324460D01*
X13439229Y-14324460D02*
X13420182Y-14333984D01*
X13420182Y-14333984D02*
X13401134Y-14333984D01*
X13401134Y-14333984D02*
X13382086Y-14324460D01*
X13382086Y-14324460D02*
X13372563Y-14314936D01*
X13372563Y-14314936D02*
X13363039Y-14295888D01*
X13363039Y-14295888D02*
X13353515Y-14257793D01*
X13353515Y-14257793D02*
X13353515Y-14210174D01*
X13353515Y-14210174D02*
X13363039Y-14172079D01*
X13363039Y-14172079D02*
X13372563Y-14153031D01*
X13372563Y-14153031D02*
X13382086Y-14143508D01*
X13382086Y-14143508D02*
X13401134Y-14133984D01*
X13553515Y-14314936D02*
X13563039Y-14324460D01*
X13563039Y-14324460D02*
X13553515Y-14333984D01*
X13553515Y-14333984D02*
X13543991Y-14324460D01*
X13543991Y-14324460D02*
X13553515Y-14314936D01*
X13553515Y-14314936D02*
X13553515Y-14333984D01*
X13686848Y-14133984D02*
X13705896Y-14133984D01*
X13705896Y-14133984D02*
X13724944Y-14143508D01*
X13724944Y-14143508D02*
X13734467Y-14153031D01*
X13734467Y-14153031D02*
X13743991Y-14172079D01*
X13743991Y-14172079D02*
X13753515Y-14210174D01*
X13753515Y-14210174D02*
X13753515Y-14257793D01*
X13753515Y-14257793D02*
X13743991Y-14295888D01*
X13743991Y-14295888D02*
X13734467Y-14314936D01*
X13734467Y-14314936D02*
X13724944Y-14324460D01*
X13724944Y-14324460D02*
X13705896Y-14333984D01*
X13705896Y-14333984D02*
X13686848Y-14333984D01*
X13686848Y-14333984D02*
X13667801Y-14324460D01*
X13667801Y-14324460D02*
X13658277Y-14314936D01*
X13658277Y-14314936D02*
X13648753Y-14295888D01*
X13648753Y-14295888D02*
X13639229Y-14257793D01*
X13639229Y-14257793D02*
X13639229Y-14210174D01*
X13639229Y-14210174D02*
X13648753Y-14172079D01*
X13648753Y-14172079D02*
X13658277Y-14153031D01*
X13658277Y-14153031D02*
X13667801Y-14143508D01*
X13667801Y-14143508D02*
X13686848Y-14133984D01*
X13820182Y-14133984D02*
X13943991Y-14133984D01*
X13943991Y-14133984D02*
X13877325Y-14210174D01*
X13877325Y-14210174D02*
X13905896Y-14210174D01*
X13905896Y-14210174D02*
X13924944Y-14219698D01*
X13924944Y-14219698D02*
X13934467Y-14229222D01*
X13934467Y-14229222D02*
X13943991Y-14248269D01*
X13943991Y-14248269D02*
X13943991Y-14295888D01*
X13943991Y-14295888D02*
X13934467Y-14314936D01*
X13934467Y-14314936D02*
X13924944Y-14324460D01*
X13924944Y-14324460D02*
X13905896Y-14333984D01*
X13905896Y-14333984D02*
X13848753Y-14333984D01*
X13848753Y-14333984D02*
X13829706Y-14324460D01*
X13829706Y-14324460D02*
X13820182Y-14314936D01*
X14039229Y-14333984D02*
X14077325Y-14333984D01*
X14077325Y-14333984D02*
X14096372Y-14324460D01*
X14096372Y-14324460D02*
X14105896Y-14314936D01*
X14105896Y-14314936D02*
X14124944Y-14286365D01*
X14124944Y-14286365D02*
X14134467Y-14248269D01*
X14134467Y-14248269D02*
X14134467Y-14172079D01*
X14134467Y-14172079D02*
X14124944Y-14153031D01*
X14124944Y-14153031D02*
X14115420Y-14143508D01*
X14115420Y-14143508D02*
X14096372Y-14133984D01*
X14096372Y-14133984D02*
X14058277Y-14133984D01*
X14058277Y-14133984D02*
X14039229Y-14143508D01*
X14039229Y-14143508D02*
X14029706Y-14153031D01*
X14029706Y-14153031D02*
X14020182Y-14172079D01*
X14020182Y-14172079D02*
X14020182Y-14219698D01*
X14020182Y-14219698D02*
X14029706Y-14238746D01*
X14029706Y-14238746D02*
X14039229Y-14248269D01*
X14039229Y-14248269D02*
X14058277Y-14257793D01*
X14058277Y-14257793D02*
X14096372Y-14257793D01*
X14096372Y-14257793D02*
X14115420Y-14248269D01*
X14115420Y-14248269D02*
X14124944Y-14238746D01*
X14124944Y-14238746D02*
X14134467Y-14219698D01*
X14305896Y-14200650D02*
X14305896Y-14333984D01*
X14258277Y-14124460D02*
X14210658Y-14267317D01*
X14210658Y-14267317D02*
X14334467Y-14267317D01*
X14401134Y-14133984D02*
X14401134Y-14172079D01*
X14477325Y-14133984D02*
X14477325Y-14172079D01*
X14772563Y-14410174D02*
X14763039Y-14400650D01*
X14763039Y-14400650D02*
X14743991Y-14372079D01*
X14743991Y-14372079D02*
X14734468Y-14353031D01*
X14734468Y-14353031D02*
X14724944Y-14324460D01*
X14724944Y-14324460D02*
X14715420Y-14276841D01*
X14715420Y-14276841D02*
X14715420Y-14238746D01*
X14715420Y-14238746D02*
X14724944Y-14191127D01*
X14724944Y-14191127D02*
X14734468Y-14162555D01*
X14734468Y-14162555D02*
X14743991Y-14143508D01*
X14743991Y-14143508D02*
X14763039Y-14114936D01*
X14763039Y-14114936D02*
X14772563Y-14105412D01*
X14839229Y-14153031D02*
X14848753Y-14143508D01*
X14848753Y-14143508D02*
X14867801Y-14133984D01*
X14867801Y-14133984D02*
X14915420Y-14133984D01*
X14915420Y-14133984D02*
X14934468Y-14143508D01*
X14934468Y-14143508D02*
X14943991Y-14153031D01*
X14943991Y-14153031D02*
X14953515Y-14172079D01*
X14953515Y-14172079D02*
X14953515Y-14191127D01*
X14953515Y-14191127D02*
X14943991Y-14219698D01*
X14943991Y-14219698D02*
X14829706Y-14333984D01*
X14829706Y-14333984D02*
X14953515Y-14333984D01*
X15067801Y-14219698D02*
X15048753Y-14210174D01*
X15048753Y-14210174D02*
X15039229Y-14200650D01*
X15039229Y-14200650D02*
X15029706Y-14181603D01*
X15029706Y-14181603D02*
X15029706Y-14172079D01*
X15029706Y-14172079D02*
X15039229Y-14153031D01*
X15039229Y-14153031D02*
X15048753Y-14143508D01*
X15048753Y-14143508D02*
X15067801Y-14133984D01*
X15067801Y-14133984D02*
X15105896Y-14133984D01*
X15105896Y-14133984D02*
X15124944Y-14143508D01*
X15124944Y-14143508D02*
X15134468Y-14153031D01*
X15134468Y-14153031D02*
X15143991Y-14172079D01*
X15143991Y-14172079D02*
X15143991Y-14181603D01*
X15143991Y-14181603D02*
X15134468Y-14200650D01*
X15134468Y-14200650D02*
X15124944Y-14210174D01*
X15124944Y-14210174D02*
X15105896Y-14219698D01*
X15105896Y-14219698D02*
X15067801Y-14219698D01*
X15067801Y-14219698D02*
X15048753Y-14229222D01*
X15048753Y-14229222D02*
X15039229Y-14238746D01*
X15039229Y-14238746D02*
X15029706Y-14257793D01*
X15029706Y-14257793D02*
X15029706Y-14295888D01*
X15029706Y-14295888D02*
X15039229Y-14314936D01*
X15039229Y-14314936D02*
X15048753Y-14324460D01*
X15048753Y-14324460D02*
X15067801Y-14333984D01*
X15067801Y-14333984D02*
X15105896Y-14333984D01*
X15105896Y-14333984D02*
X15124944Y-14324460D01*
X15124944Y-14324460D02*
X15134468Y-14314936D01*
X15134468Y-14314936D02*
X15143991Y-14295888D01*
X15143991Y-14295888D02*
X15143991Y-14257793D01*
X15143991Y-14257793D02*
X15134468Y-14238746D01*
X15134468Y-14238746D02*
X15124944Y-14229222D01*
X15124944Y-14229222D02*
X15105896Y-14219698D01*
X15382087Y-14333984D02*
X15382087Y-14133984D01*
X15467801Y-14333984D02*
X15467801Y-14229222D01*
X15467801Y-14229222D02*
X15458277Y-14210174D01*
X15458277Y-14210174D02*
X15439230Y-14200650D01*
X15439230Y-14200650D02*
X15410658Y-14200650D01*
X15410658Y-14200650D02*
X15391610Y-14210174D01*
X15391610Y-14210174D02*
X15382087Y-14219698D01*
X15591610Y-14333984D02*
X15572563Y-14324460D01*
X15572563Y-14324460D02*
X15563039Y-14314936D01*
X15563039Y-14314936D02*
X15553515Y-14295888D01*
X15553515Y-14295888D02*
X15553515Y-14238746D01*
X15553515Y-14238746D02*
X15563039Y-14219698D01*
X15563039Y-14219698D02*
X15572563Y-14210174D01*
X15572563Y-14210174D02*
X15591610Y-14200650D01*
X15591610Y-14200650D02*
X15620182Y-14200650D01*
X15620182Y-14200650D02*
X15639230Y-14210174D01*
X15639230Y-14210174D02*
X15648753Y-14219698D01*
X15648753Y-14219698D02*
X15658277Y-14238746D01*
X15658277Y-14238746D02*
X15658277Y-14295888D01*
X15658277Y-14295888D02*
X15648753Y-14314936D01*
X15648753Y-14314936D02*
X15639230Y-14324460D01*
X15639230Y-14324460D02*
X15620182Y-14333984D01*
X15620182Y-14333984D02*
X15591610Y-14333984D01*
X15772563Y-14333984D02*
X15753515Y-14324460D01*
X15753515Y-14324460D02*
X15743991Y-14305412D01*
X15743991Y-14305412D02*
X15743991Y-14133984D01*
X15924944Y-14324460D02*
X15905896Y-14333984D01*
X15905896Y-14333984D02*
X15867801Y-14333984D01*
X15867801Y-14333984D02*
X15848753Y-14324460D01*
X15848753Y-14324460D02*
X15839230Y-14305412D01*
X15839230Y-14305412D02*
X15839230Y-14229222D01*
X15839230Y-14229222D02*
X15848753Y-14210174D01*
X15848753Y-14210174D02*
X15867801Y-14200650D01*
X15867801Y-14200650D02*
X15905896Y-14200650D01*
X15905896Y-14200650D02*
X15924944Y-14210174D01*
X15924944Y-14210174D02*
X15934468Y-14229222D01*
X15934468Y-14229222D02*
X15934468Y-14248269D01*
X15934468Y-14248269D02*
X15839230Y-14267317D01*
X16010658Y-14324460D02*
X16029706Y-14333984D01*
X16029706Y-14333984D02*
X16067801Y-14333984D01*
X16067801Y-14333984D02*
X16086849Y-14324460D01*
X16086849Y-14324460D02*
X16096372Y-14305412D01*
X16096372Y-14305412D02*
X16096372Y-14295888D01*
X16096372Y-14295888D02*
X16086849Y-14276841D01*
X16086849Y-14276841D02*
X16067801Y-14267317D01*
X16067801Y-14267317D02*
X16039230Y-14267317D01*
X16039230Y-14267317D02*
X16020182Y-14257793D01*
X16020182Y-14257793D02*
X16010658Y-14238746D01*
X16010658Y-14238746D02*
X16010658Y-14229222D01*
X16010658Y-14229222D02*
X16020182Y-14210174D01*
X16020182Y-14210174D02*
X16039230Y-14200650D01*
X16039230Y-14200650D02*
X16067801Y-14200650D01*
X16067801Y-14200650D02*
X16086849Y-14210174D01*
X16163039Y-14410174D02*
X16172563Y-14400650D01*
X16172563Y-14400650D02*
X16191611Y-14372079D01*
X16191611Y-14372079D02*
X16201134Y-14353031D01*
X16201134Y-14353031D02*
X16210658Y-14324460D01*
X16210658Y-14324460D02*
X16220182Y-14276841D01*
X16220182Y-14276841D02*
X16220182Y-14238746D01*
X16220182Y-14238746D02*
X16210658Y-14191127D01*
X16210658Y-14191127D02*
X16201134Y-14162555D01*
X16201134Y-14162555D02*
X16191611Y-14143508D01*
X16191611Y-14143508D02*
X16172563Y-14114936D01*
X16172563Y-14114936D02*
X16163039Y-14105412D01*
M02*
