%TF.GenerationSoftware,KiCad,Pcbnew,8.0.8*%
%TF.CreationDate,2025-03-12T15:40:14-04:00*%
%TF.ProjectId,ECE477-SeniorDesign,45434534-3737-42d5-9365-6e696f724465,rev?*%
%TF.SameCoordinates,Original*%
%TF.FileFunction,Paste,Top*%
%TF.FilePolarity,Positive*%
%FSLAX46Y46*%
G04 Gerber Fmt 4.6, Leading zero omitted, Abs format (unit mm)*
G04 Created by KiCad (PCBNEW 8.0.8) date 2025-03-12 15:40:14*
%MOMM*%
%LPD*%
G01*
G04 APERTURE LIST*
G04 Aperture macros list*
%AMRoundRect*
0 Rectangle with rounded corners*
0 $1 Rounding radius*
0 $2 $3 $4 $5 $6 $7 $8 $9 X,Y pos of 4 corners*
0 Add a 4 corners polygon primitive as box body*
4,1,4,$2,$3,$4,$5,$6,$7,$8,$9,$2,$3,0*
0 Add four circle primitives for the rounded corners*
1,1,$1+$1,$2,$3*
1,1,$1+$1,$4,$5*
1,1,$1+$1,$6,$7*
1,1,$1+$1,$8,$9*
0 Add four rect primitives between the rounded corners*
20,1,$1+$1,$2,$3,$4,$5,0*
20,1,$1+$1,$4,$5,$6,$7,0*
20,1,$1+$1,$6,$7,$8,$9,0*
20,1,$1+$1,$8,$9,$2,$3,0*%
%AMFreePoly0*
4,1,21,-0.300000,0.050000,-0.296194,0.069134,-0.285355,0.085355,-0.269134,0.096194,-0.250000,0.100000,0.250000,0.100000,0.269134,0.096194,0.285355,0.085355,0.296194,0.069134,0.300000,0.050000,0.300000,-0.050000,0.296194,-0.069134,0.285355,-0.085355,0.269134,-0.096194,0.250000,-0.100000,-0.250000,-0.100000,-0.269134,-0.096194,-0.285355,-0.085355,-0.296194,-0.069134,-0.300000,-0.050000,
-0.300000,0.050000,-0.300000,0.050000,$1*%
G04 Aperture macros list end*
%ADD10C,0.000000*%
%ADD11RoundRect,0.250000X1.500000X-0.250000X1.500000X0.250000X-1.500000X0.250000X-1.500000X-0.250000X0*%
%ADD12RoundRect,0.250001X1.449999X-0.499999X1.449999X0.499999X-1.449999X0.499999X-1.449999X-0.499999X0*%
%ADD13RoundRect,0.250000X-0.475000X0.337500X-0.475000X-0.337500X0.475000X-0.337500X0.475000X0.337500X0*%
%ADD14RoundRect,0.250000X-0.350000X-0.450000X0.350000X-0.450000X0.350000X0.450000X-0.350000X0.450000X0*%
%ADD15RoundRect,0.250000X-0.337500X-0.475000X0.337500X-0.475000X0.337500X0.475000X-0.337500X0.475000X0*%
%ADD16RoundRect,0.237500X-0.300000X-0.237500X0.300000X-0.237500X0.300000X0.237500X-0.300000X0.237500X0*%
%ADD17RoundRect,0.237500X0.300000X0.237500X-0.300000X0.237500X-0.300000X-0.237500X0.300000X-0.237500X0*%
%ADD18R,0.965200X0.254000*%
%ADD19R,0.254000X0.965200*%
%ADD20R,3.352800X3.352800*%
%ADD21RoundRect,0.250000X0.450000X-0.350000X0.450000X0.350000X-0.450000X0.350000X-0.450000X-0.350000X0*%
%ADD22RoundRect,0.250000X0.475000X-0.337500X0.475000X0.337500X-0.475000X0.337500X-0.475000X-0.337500X0*%
%ADD23RoundRect,0.250000X0.337500X0.475000X-0.337500X0.475000X-0.337500X-0.475000X0.337500X-0.475000X0*%
%ADD24RoundRect,0.250000X0.350000X0.450000X-0.350000X0.450000X-0.350000X-0.450000X0.350000X-0.450000X0*%
%ADD25RoundRect,0.050000X0.137500X-0.050000X0.137500X0.050000X-0.137500X0.050000X-0.137500X-0.050000X0*%
%ADD26RoundRect,0.270000X0.605000X-0.270000X0.605000X0.270000X-0.605000X0.270000X-0.605000X-0.270000X0*%
%ADD27FreePoly0,90.000000*%
%ADD28RoundRect,0.237500X-0.237500X0.250000X-0.237500X-0.250000X0.237500X-0.250000X0.237500X0.250000X0*%
%ADD29RoundRect,0.075000X-0.662500X-0.075000X0.662500X-0.075000X0.662500X0.075000X-0.662500X0.075000X0*%
%ADD30RoundRect,0.075000X-0.075000X-0.662500X0.075000X-0.662500X0.075000X0.662500X-0.075000X0.662500X0*%
%ADD31RoundRect,0.237500X0.237500X-0.300000X0.237500X0.300000X-0.237500X0.300000X-0.237500X-0.300000X0*%
%ADD32R,0.800000X1.000000*%
%ADD33R,1.500000X0.700000*%
%ADD34RoundRect,0.250000X-0.450000X0.350000X-0.450000X-0.350000X0.450000X-0.350000X0.450000X0.350000X0*%
%ADD35R,0.254000X0.812800*%
%ADD36R,0.812800X0.254000*%
%ADD37R,2.794000X2.794000*%
%ADD38R,0.558800X0.952500*%
%ADD39RoundRect,0.237500X-0.237500X0.300000X-0.237500X-0.300000X0.237500X-0.300000X0.237500X0.300000X0*%
%ADD40R,0.599999X0.249999*%
%ADD41R,0.900001X0.249999*%
%ADD42R,0.700000X1.600000*%
%ADD43R,1.200000X1.500000*%
%ADD44R,1.200000X2.200000*%
%ADD45R,1.600000X1.500000*%
%ADD46O,2.900000X1.200000*%
%ADD47RoundRect,0.325000X1.175000X-0.325000X1.175000X0.325000X-1.175000X0.325000X-1.175000X-0.325000X0*%
%ADD48R,1.200000X0.600000*%
%ADD49R,1.409700X0.355600*%
%ADD50R,3.200400X0.762000*%
%ADD51RoundRect,0.150000X0.512500X0.150000X-0.512500X0.150000X-0.512500X-0.150000X0.512500X-0.150000X0*%
G04 APERTURE END LIST*
D10*
%TO.C,U8*%
G36*
X174400000Y-84825900D02*
G01*
X172923600Y-84825900D01*
X172923600Y-83349500D01*
X174400000Y-83349500D01*
X174400000Y-84825900D01*
G37*
G36*
X174400000Y-86502300D02*
G01*
X172923600Y-86502300D01*
X172923600Y-85025900D01*
X174400000Y-85025900D01*
X174400000Y-86502300D01*
G37*
G36*
X176076400Y-84825900D02*
G01*
X174600000Y-84825900D01*
X174600000Y-83349500D01*
X176076400Y-83349500D01*
X176076400Y-84825900D01*
G37*
G36*
X176076400Y-86502300D02*
G01*
X174600000Y-86502300D01*
X174600000Y-85025900D01*
X176076400Y-85025900D01*
X176076400Y-86502300D01*
G37*
%TO.C,U6*%
G36*
X180100000Y-98900000D02*
G01*
X178903000Y-98900000D01*
X178903000Y-97703000D01*
X180100000Y-97703000D01*
X180100000Y-98900000D01*
G37*
G36*
X180100000Y-100297000D02*
G01*
X178903000Y-100297000D01*
X178903000Y-99100000D01*
X180100000Y-99100000D01*
X180100000Y-100297000D01*
G37*
G36*
X181497000Y-98900000D02*
G01*
X180300000Y-98900000D01*
X180300000Y-97703000D01*
X181497000Y-97703000D01*
X181497000Y-98900000D01*
G37*
G36*
X181497000Y-100297000D02*
G01*
X180300000Y-100297000D01*
X180300000Y-99100000D01*
X181497000Y-99100000D01*
X181497000Y-100297000D01*
G37*
%TO.C,U10*%
G36*
X162174999Y-115149998D02*
G01*
X162174999Y-115300000D01*
X162124999Y-115350000D01*
X161675000Y-115350000D01*
X161625000Y-115300000D01*
X161625000Y-115149998D01*
X161675000Y-115099998D01*
X162124999Y-115099998D01*
X162174999Y-115149998D01*
G37*
G36*
X162925000Y-115149998D02*
G01*
X162925000Y-115300000D01*
X162875000Y-115350000D01*
X162425001Y-115350000D01*
X162375001Y-115300000D01*
X162375001Y-115149998D01*
X162425001Y-115099998D01*
X162875000Y-115099998D01*
X162925000Y-115149998D01*
G37*
%TD*%
D11*
%TO.C,J6*%
X192600000Y-105650000D03*
X192600000Y-103650000D03*
D12*
X198350000Y-108000000D03*
X198350000Y-101300000D03*
%TD*%
D13*
%TO.C,C2*%
X138400000Y-89500000D03*
X138400000Y-91575000D03*
%TD*%
D14*
%TO.C,R3*%
X174200000Y-109200000D03*
X176200000Y-109200000D03*
%TD*%
D15*
%TO.C,C1*%
X139175000Y-101750000D03*
X141250000Y-101750000D03*
%TD*%
D16*
%TO.C,C9*%
X144275000Y-77500000D03*
X146000000Y-77500000D03*
%TD*%
D17*
%TO.C,C13*%
X163000000Y-102500000D03*
X161275000Y-102500000D03*
%TD*%
D13*
%TO.C,C36*%
X128750000Y-77000000D03*
X128750000Y-79075000D03*
%TD*%
D18*
%TO.C,U8*%
X176824100Y-86425900D03*
X176824100Y-85925901D03*
X176824100Y-85425899D03*
X176824100Y-84925900D03*
X176824100Y-84425901D03*
X176824100Y-83925899D03*
X176824100Y-83425900D03*
D19*
X176000000Y-82601800D03*
X175500001Y-82601800D03*
X174999999Y-82601800D03*
X174500000Y-82601800D03*
X174000001Y-82601800D03*
X173499999Y-82601800D03*
X173000000Y-82601800D03*
D18*
X172175900Y-83425900D03*
X172175900Y-83925899D03*
X172175900Y-84425901D03*
X172175900Y-84925900D03*
X172175900Y-85425899D03*
X172175900Y-85925901D03*
X172175900Y-86425900D03*
D19*
X173000000Y-87250000D03*
X173499999Y-87250000D03*
X174000001Y-87250000D03*
X174500000Y-87250000D03*
X174999999Y-87250000D03*
X175500001Y-87250000D03*
X176000000Y-87250000D03*
D20*
X174500000Y-84925900D03*
%TD*%
D21*
%TO.C,R7*%
X157900000Y-120000000D03*
X157900000Y-118000000D03*
%TD*%
%TO.C,R18*%
X177600000Y-105100000D03*
X177600000Y-103100000D03*
%TD*%
D22*
%TO.C,C41*%
X162700000Y-67700000D03*
X162700000Y-65625000D03*
%TD*%
D13*
%TO.C,C37*%
X128750000Y-88175000D03*
X128750000Y-90250000D03*
%TD*%
D14*
%TO.C,R16*%
X175700000Y-95600000D03*
X177700000Y-95600000D03*
%TD*%
D23*
%TO.C,C32*%
X176750000Y-80500000D03*
X174675000Y-80500000D03*
%TD*%
D13*
%TO.C,C39*%
X131000000Y-76925000D03*
X131000000Y-79000000D03*
%TD*%
D23*
%TO.C,C20*%
X163250000Y-118050000D03*
X161175000Y-118050000D03*
%TD*%
D15*
%TO.C,C25*%
X181600000Y-115300000D03*
X183675000Y-115300000D03*
%TD*%
D24*
%TO.C,R9*%
X176300000Y-115960000D03*
X174300000Y-115960000D03*
%TD*%
D13*
%TO.C,C27*%
X180400000Y-117960000D03*
X180400000Y-120035000D03*
%TD*%
D25*
%TO.C,U5*%
X177737500Y-115075000D03*
X180262500Y-115075000D03*
D26*
X179000000Y-114590000D03*
X179000000Y-113310000D03*
D25*
X177737500Y-112825000D03*
X180262500Y-112825000D03*
D27*
X178000000Y-115850000D03*
X178400000Y-115850000D03*
X178800000Y-115850000D03*
X179200000Y-115850000D03*
X179600000Y-115850000D03*
X180000000Y-115850000D03*
X180000000Y-112050000D03*
X179600000Y-112050000D03*
X179200000Y-112050000D03*
X178800000Y-112050000D03*
X178400000Y-112050000D03*
X178000000Y-112050000D03*
%TD*%
D14*
%TO.C,R25*%
X128750000Y-86250000D03*
X130750000Y-86250000D03*
%TD*%
D13*
%TO.C,C30*%
X182200000Y-102500000D03*
X182200000Y-104575000D03*
%TD*%
D21*
%TO.C,R4*%
X157900000Y-116150000D03*
X157900000Y-114150000D03*
%TD*%
D23*
%TO.C,C34*%
X176750000Y-78250000D03*
X174675000Y-78250000D03*
%TD*%
D15*
%TO.C,C29*%
X183900000Y-98900000D03*
X185975000Y-98900000D03*
%TD*%
D16*
%TO.C,C8*%
X150775000Y-77500000D03*
X152500000Y-77500000D03*
%TD*%
D15*
%TO.C,C18*%
X144025000Y-75500000D03*
X146100000Y-75500000D03*
%TD*%
D28*
%TO.C,R2*%
X143000000Y-68475000D03*
X143000000Y-70300000D03*
%TD*%
D13*
%TO.C,C42*%
X130550000Y-100950000D03*
X130550000Y-103025000D03*
%TD*%
D14*
%TO.C,R24*%
X128500000Y-75000000D03*
X130500000Y-75000000D03*
%TD*%
D29*
%TO.C,U2*%
X142837500Y-81250000D03*
X142837500Y-81750000D03*
X142837500Y-82250000D03*
X142837500Y-82750000D03*
X142837500Y-83250000D03*
X142837500Y-83750000D03*
X142837500Y-84250000D03*
X142837500Y-84750000D03*
X142837500Y-85250000D03*
X142837500Y-85750000D03*
X142837500Y-86250000D03*
X142837500Y-86750000D03*
X142837500Y-87250000D03*
X142837500Y-87750000D03*
X142837500Y-88250000D03*
X142837500Y-88750000D03*
X142837500Y-89250000D03*
X142837500Y-89750000D03*
X142837500Y-90250000D03*
X142837500Y-90750000D03*
X142837500Y-91250000D03*
X142837500Y-91750000D03*
X142837500Y-92250000D03*
X142837500Y-92750000D03*
X142837500Y-93250000D03*
X142837500Y-93750000D03*
X142837500Y-94250000D03*
X142837500Y-94750000D03*
X142837500Y-95250000D03*
X142837500Y-95750000D03*
X142837500Y-96250000D03*
X142837500Y-96750000D03*
X142837500Y-97250000D03*
X142837500Y-97750000D03*
X142837500Y-98250000D03*
X142837500Y-98750000D03*
D30*
X144750000Y-100662500D03*
X145250000Y-100662500D03*
X145750000Y-100662500D03*
X146250000Y-100662500D03*
X146750000Y-100662500D03*
X147250000Y-100662500D03*
X147750000Y-100662500D03*
X148250000Y-100662500D03*
X148750000Y-100662500D03*
X149250000Y-100662500D03*
X149750000Y-100662500D03*
X150250000Y-100662500D03*
X150750000Y-100662500D03*
X151250000Y-100662500D03*
X151750000Y-100662500D03*
X152250000Y-100662500D03*
X152750000Y-100662500D03*
X153250000Y-100662500D03*
X153750000Y-100662500D03*
X154250000Y-100662500D03*
X154750000Y-100662500D03*
X155250000Y-100662500D03*
X155750000Y-100662500D03*
X156250000Y-100662500D03*
X156750000Y-100662500D03*
X157250000Y-100662500D03*
X157750000Y-100662500D03*
X158250000Y-100662500D03*
X158750000Y-100662500D03*
X159250000Y-100662500D03*
X159750000Y-100662500D03*
X160250000Y-100662500D03*
X160750000Y-100662500D03*
X161250000Y-100662500D03*
X161750000Y-100662500D03*
X162250000Y-100662500D03*
D29*
X164162500Y-98750000D03*
X164162500Y-98250000D03*
X164162500Y-97750000D03*
X164162500Y-97250000D03*
X164162500Y-96750000D03*
X164162500Y-96250000D03*
X164162500Y-95750000D03*
X164162500Y-95250000D03*
X164162500Y-94750000D03*
X164162500Y-94250000D03*
X164162500Y-93750000D03*
X164162500Y-93250000D03*
X164162500Y-92750000D03*
X164162500Y-92250000D03*
X164162500Y-91750000D03*
X164162500Y-91250000D03*
X164162500Y-90750000D03*
X164162500Y-90250000D03*
X164162500Y-89750000D03*
X164162500Y-89250000D03*
X164162500Y-88750000D03*
X164162500Y-88250000D03*
X164162500Y-87750000D03*
X164162500Y-87250000D03*
X164162500Y-86750000D03*
X164162500Y-86250000D03*
X164162500Y-85750000D03*
X164162500Y-85250000D03*
X164162500Y-84750000D03*
X164162500Y-84250000D03*
X164162500Y-83750000D03*
X164162500Y-83250000D03*
X164162500Y-82750000D03*
X164162500Y-82250000D03*
X164162500Y-81750000D03*
X164162500Y-81250000D03*
D30*
X162250000Y-79337500D03*
X161750000Y-79337500D03*
X161250000Y-79337500D03*
X160750000Y-79337500D03*
X160250000Y-79337500D03*
X159750000Y-79337500D03*
X159250000Y-79337500D03*
X158750000Y-79337500D03*
X158250000Y-79337500D03*
X157750000Y-79337500D03*
X157250000Y-79337500D03*
X156750000Y-79337500D03*
X156250000Y-79337500D03*
X155750000Y-79337500D03*
X155250000Y-79337500D03*
X154750000Y-79337500D03*
X154250000Y-79337500D03*
X153750000Y-79337500D03*
X153250000Y-79337500D03*
X152750000Y-79337500D03*
X152250000Y-79337500D03*
X151750000Y-79337500D03*
X151250000Y-79337500D03*
X150750000Y-79337500D03*
X150250000Y-79337500D03*
X149750000Y-79337500D03*
X149250000Y-79337500D03*
X148750000Y-79337500D03*
X148250000Y-79337500D03*
X147750000Y-79337500D03*
X147250000Y-79337500D03*
X146750000Y-79337500D03*
X146250000Y-79337500D03*
X145750000Y-79337500D03*
X145250000Y-79337500D03*
X144750000Y-79337500D03*
%TD*%
D23*
%TO.C,C33*%
X181325000Y-83250000D03*
X179250000Y-83250000D03*
%TD*%
%TO.C,C19*%
X162975000Y-112350000D03*
X160900000Y-112350000D03*
%TD*%
D31*
%TO.C,C16*%
X141000000Y-96725000D03*
X141000000Y-95000000D03*
%TD*%
D13*
%TO.C,C38*%
X131250000Y-65925000D03*
X131250000Y-68000000D03*
%TD*%
D16*
%TO.C,C7*%
X155775000Y-77250000D03*
X157500000Y-77250000D03*
%TD*%
D32*
%TO.C,SWBOOT1*%
X140100000Y-64100000D03*
X137890000Y-64100000D03*
X140100000Y-71400000D03*
X137890000Y-71400000D03*
D33*
X140750000Y-65500000D03*
X140750000Y-68500000D03*
X140750000Y-70000000D03*
%TD*%
D31*
%TO.C,C11*%
X141000000Y-89975000D03*
X141000000Y-88250000D03*
%TD*%
%TO.C,C6*%
X166000000Y-82725000D03*
X166000000Y-81000000D03*
%TD*%
D24*
%TO.C,R1*%
X141250000Y-104750000D03*
X139250000Y-104750000D03*
%TD*%
D15*
%TO.C,C28*%
X182362500Y-94900000D03*
X184437500Y-94900000D03*
%TD*%
D34*
%TO.C,R22*%
X125000000Y-88250000D03*
X125000000Y-90250000D03*
%TD*%
D35*
%TO.C,U6*%
X181200001Y-97107700D03*
X180699999Y-97107700D03*
X180200000Y-97107700D03*
X179700001Y-97107700D03*
X179199999Y-97107700D03*
D36*
X178307700Y-97999999D03*
X178307700Y-98500001D03*
X178307700Y-99000000D03*
X178307700Y-99499999D03*
X178307700Y-100000001D03*
D35*
X179199999Y-100892300D03*
X179700001Y-100892300D03*
X180200000Y-100892300D03*
X180699999Y-100892300D03*
X181200001Y-100892300D03*
D36*
X182092300Y-100000001D03*
X182092300Y-99499999D03*
X182092300Y-99000000D03*
X182092300Y-98500001D03*
X182092300Y-97999999D03*
D37*
X180200000Y-99000000D03*
%TD*%
D22*
%TO.C,C3*%
X138000000Y-95500000D03*
X138000000Y-93425000D03*
%TD*%
D14*
%TO.C,R19*%
X150500000Y-69900000D03*
X152500000Y-69900000D03*
%TD*%
D38*
%TO.C,U1*%
X141308400Y-106737300D03*
X141308400Y-113100000D03*
X137600000Y-106737300D03*
X137600000Y-113100000D03*
%TD*%
D14*
%TO.C,R15*%
X174300000Y-112260000D03*
X176300000Y-112260000D03*
%TD*%
D34*
%TO.C,R20*%
X124750000Y-65750000D03*
X124750000Y-67750000D03*
%TD*%
D39*
%TO.C,C10*%
X166000000Y-92500000D03*
X166000000Y-94225000D03*
%TD*%
%TO.C,C4*%
X166000000Y-87025000D03*
X166000000Y-88750000D03*
%TD*%
D14*
%TO.C,R26*%
X165000000Y-68900000D03*
X167000000Y-68900000D03*
%TD*%
D40*
%TO.C,U10*%
X160824999Y-114224998D03*
X160824999Y-114725000D03*
X160824999Y-115224999D03*
X160824999Y-115724998D03*
X160824999Y-116225000D03*
D41*
X162475001Y-116225000D03*
X162475001Y-115724998D03*
X162475001Y-114725000D03*
X162475001Y-114224998D03*
%TD*%
D14*
%TO.C,R14*%
X175700000Y-93600000D03*
X177700000Y-93600000D03*
%TD*%
%TO.C,R27*%
X162700000Y-71100000D03*
X164700000Y-71100000D03*
%TD*%
D34*
%TO.C,R21*%
X124750000Y-77000000D03*
X124750000Y-79000000D03*
%TD*%
D17*
%TO.C,C17*%
X141000000Y-98250000D03*
X139275000Y-98250000D03*
%TD*%
D42*
%TO.C,CARD1*%
X155400000Y-60500000D03*
X156500000Y-60500000D03*
X157600000Y-60500000D03*
X158700000Y-60500000D03*
X159800000Y-60500000D03*
X160900000Y-60500000D03*
X162000000Y-60500000D03*
X163100000Y-60500000D03*
X164200000Y-60500000D03*
D43*
X165400000Y-59500000D03*
D44*
X165400000Y-49900000D03*
D45*
X150800000Y-59500000D03*
D44*
X149900000Y-49900000D03*
%TD*%
D34*
%TO.C,R17*%
X179600000Y-103100000D03*
X179600000Y-105100000D03*
%TD*%
D14*
%TO.C,R23*%
X128750000Y-63750000D03*
X130750000Y-63750000D03*
%TD*%
D46*
%TO.C,J7*%
X192210000Y-91650000D03*
X192210000Y-78850000D03*
D47*
X188510000Y-88750000D03*
X188510000Y-86250000D03*
X188510000Y-84250000D03*
X188510000Y-81750000D03*
%TD*%
D48*
%TO.C,Y1*%
X135800000Y-91600000D03*
X135800000Y-92800000D03*
%TD*%
D14*
%TO.C,R29*%
X130550000Y-99025000D03*
X132550000Y-99025000D03*
%TD*%
%TO.C,R11*%
X180200000Y-109100000D03*
X182200000Y-109100000D03*
%TD*%
D23*
%TO.C,C31*%
X181325000Y-81000000D03*
X179250000Y-81000000D03*
%TD*%
D14*
%TO.C,Rr1*%
X150700000Y-67700000D03*
X152700000Y-67700000D03*
%TD*%
%TO.C,R6*%
X156250000Y-110000000D03*
X158250000Y-110000000D03*
%TD*%
D31*
%TO.C,C5*%
X164500000Y-80000000D03*
X164500000Y-78275000D03*
%TD*%
D49*
%TO.C,U9*%
X154715950Y-67064899D03*
X154715950Y-67714900D03*
X154715950Y-68364901D03*
X154715950Y-69014900D03*
X154715950Y-69664899D03*
X154715950Y-70314900D03*
X154715950Y-70964899D03*
X160621450Y-70964901D03*
X160621450Y-70314900D03*
X160621450Y-69664901D03*
X160621450Y-69014900D03*
X160621450Y-68364901D03*
X160621450Y-67714900D03*
X160621450Y-67064901D03*
%TD*%
D13*
%TO.C,C35*%
X129000000Y-65925000D03*
X129000000Y-68000000D03*
%TD*%
D17*
%TO.C,C15*%
X146250000Y-102500000D03*
X144525000Y-102500000D03*
%TD*%
D13*
%TO.C,C40*%
X131500000Y-88175000D03*
X131500000Y-90250000D03*
%TD*%
D34*
%TO.C,R8*%
X178200000Y-118100000D03*
X178200000Y-120100000D03*
%TD*%
D17*
%TO.C,C14*%
X157750000Y-102500000D03*
X156025000Y-102500000D03*
%TD*%
D13*
%TO.C,C43*%
X132800000Y-101025000D03*
X132800000Y-103100000D03*
%TD*%
D34*
%TO.C,R28*%
X124700000Y-100100000D03*
X124700000Y-102100000D03*
%TD*%
D50*
%TO.C,L1*%
X167153700Y-114100000D03*
X167153700Y-116792400D03*
%TD*%
D51*
%TO.C,U7*%
X182337500Y-86950000D03*
X182337500Y-86000000D03*
X182337500Y-85050000D03*
X180062500Y-85050000D03*
X180062500Y-86000000D03*
X180062500Y-86950000D03*
%TD*%
D17*
%TO.C,C12*%
X152750000Y-102500000D03*
X151025000Y-102500000D03*
%TD*%
M02*
