M48
; DRILL file {KiCad 8.0.8} date 2025-03-12T15:28:43-0400
; FORMAT={-:-/ absolute / inch / decimal}
; #@! TF.CreationDate,2025-03-12T15:28:43-04:00
; #@! TF.GenerationSoftware,Kicad,Pcbnew,8.0.8
; #@! TF.FileFunction,Plated,1,4,PTH
FMAT,2
INCH
; #@! TA.AperFunction,Plated,PTH,ComponentDrill
T1C0.0079
; #@! TA.AperFunction,Plated,PTH,ViaDrill
T2C0.0118
; #@! TA.AperFunction,Plated,PTH,ComponentDrill
T3C0.0236
; #@! TA.AperFunction,Plated,PTH,ComponentDrill
T4C0.0315
; #@! TA.AperFunction,Plated,PTH,ViaDrill
T5C0.0394
; #@! TA.AperFunction,Plated,PTH,ComponentDrill
T6C0.0394
%
G90
G05
T1
X7.0187Y-4.4862
X7.0472Y-4.4478
X7.0472Y-4.4862
X7.0472Y-4.5246
X7.0758Y-4.4862
T2
X4.6929Y-2.4764
X4.7028Y-3.8031
X4.7087Y-2.9173
X4.7126Y-3.3386
X4.9685Y-2.6535
X4.9685Y-3.0984
X4.9685Y-4.0315
X4.9803Y-3.5669
X5.0118Y-2.6772
X5.0118Y-3.1063
X5.0118Y-3.5394
X5.0736Y-4.0561
X5.2205Y-3.1063
X5.2283Y-2.6732
X5.2323Y-3.5669
X5.2862Y-4.06
X5.3701Y-3.7756
X5.3898Y-3.5354
X5.4291Y-4.0787
X5.4409Y-3.9134
X5.4724Y-3.9409
X5.5Y-3.4764
X5.5Y-3.7402
X5.5039Y-3.811
X5.5512Y-3.9173
X5.5591Y-3.2953
X5.5591Y-3.5906
X5.5787Y-4.5039
X5.5984Y-3.9409
X5.6024Y-2.5787
X5.6063Y-2.8307
X5.6535Y-2.9134
X5.6732Y-3.7677
X5.6831Y-3.3957
X5.685Y-4.0866
X5.7126Y-3.685
X5.7205Y-3.3386
X5.7362Y-3.1811
X5.748Y-4.0827
X5.7638Y-2.8996
X5.7677Y-3.189
X5.8228Y-3.1732
X5.8425Y-1.9528
X5.8425Y-3.8976
X5.8543Y-3.1811
X5.8858Y-3.1772
X5.8976Y-4.0354
X5.9173Y-3.0059
X5.9587Y-2.3957
X5.9843Y-3.0039
X6.0571Y-2.8346
X6.063Y-4.0394
X6.0748Y-2.6024
X6.0945Y-4.0354
X6.1063Y-3.2087
X6.1181Y-3.1732
X6.1339Y-2.9783
X6.1457Y-2.7323
X6.1516Y-4.4035
X6.1732Y-3.1772
X6.1969Y-2.7913
X6.2008Y-2.9921
X6.2165Y-3.1772
X6.2205Y-4.4429
X6.2402Y-2.4449
X6.2465Y-3.2155
X6.2598Y-2.7874
X6.2598Y-4.0354
X6.2835Y-3.2402
X6.2854Y-4.5669
X6.3031Y-4.0354
X6.3346Y-4.4232
X6.3386Y-2.4449
X6.3425Y-3.2047
X6.3455Y-4.6476
X6.3543Y-4.7165
X6.3602Y-4.5157
X6.3602Y-4.5492
X6.3602Y-4.5787
X6.3602Y-4.6083
X6.3622Y-4.4803
X6.3857Y-3.7283
X6.3858Y-3.685
X6.3898Y-2.7441
X6.3937Y-3.7756
X6.4094Y-3.2244
X6.4134Y-3.1804
X6.4252Y-4.7441
X6.4567Y-2.6535
X6.4606Y-2.5827
X6.4646Y-4.0354
X6.4685Y-4.5354
X6.4803Y-4.7047
X6.5197Y-3.0866
X6.5433Y-3.5945
X6.5531Y-4.7441
X6.561Y-1.9409
X6.563Y-2.3386
X6.563Y-3.1122
X6.5787Y-3.4882
X6.5787Y-3.7953
X6.5827Y-3.2559
X6.5827Y-3.4173
X6.5827Y-3.7047
X6.5945Y-3.1929
X6.6496Y-4.6929
X6.6969Y-4.4528
X6.8071Y-4.2992
X6.813Y-4.5039
X6.8189Y-3.0787
X6.8189Y-3.1417
X6.8425Y-3.689
X6.9094Y-3.9055
X6.9173Y-4.6496
X6.9213Y-3.9409
X6.9488Y-4.7283
X6.9843Y-3.9882
X7.0157Y-3.3819
X7.0433Y-4.5984
X7.0709Y-4.2047
X7.0827Y-3.689
X7.1339Y-3.4016
X7.1693Y-4.7283
X7.189Y-3.2835
X7.1929Y-3.185
X7.2283Y-3.811
X7.2323Y-3.3858
X7.252Y-3.6693
X7.2835Y-3.4213
X7.2874Y-3.3189
X7.3228Y-3.1535
T3
X4.6024Y-3.8425
X4.6024Y-3.9843
X4.6122Y-2.4941
X4.6122Y-2.6358
X4.6161Y-2.939
X4.6161Y-3.0807
X4.6201Y-3.3602
X4.6201Y-3.502
T4
X4.8795Y-2.8445
X4.887Y-3.2874
X4.8969Y-2.3622
X4.8981Y-3.7953
X5.1795Y-2.8445
X5.187Y-3.2874
X5.1969Y-2.3622
X5.1981Y-3.7953
T5
X5.2933Y-4.5866
X5.4449Y-4.5846
X5.5531Y-4.5886
X5.6476Y-4.5846
X5.7539Y-4.5846
X5.8563Y-4.5846
X5.9547Y-4.5886
X6.0397Y-2.9484
X6.0492Y-4.5866
X6.1299Y-2.5079
X6.4843Y-2.8898
X6.6496Y-3.3189
X6.8543Y-4.1417
X6.8622Y-3.5394
X6.8701Y-3.3435
X7.0945Y-3.8976
X7.185Y-3.4921
X7.2559Y-4.2559
X7.2756Y-4.063
X7.437Y-4.0197
X7.5335Y-2.1732
X7.5354Y-2.0768
X7.5354Y-2.2776
X7.5374Y-2.372
X7.5394Y-2.4724
T6
X5.285Y-4.748
X5.2886Y-1.8563
X5.385Y-4.748
X5.3886Y-1.8563
X5.485Y-4.748
X5.4886Y-1.8563
X5.585Y-4.748
X5.5886Y-1.8563
X5.685Y-4.748
X5.6886Y-1.8563
X5.785Y-4.748
X5.885Y-4.748
X5.985Y-4.748
X6.6228Y-1.8425
X6.7228Y-1.8425
X6.8228Y-1.8425
X6.9228Y-1.8425
X7.0228Y-1.8425
X7.2112Y-1.8524
X7.3112Y-1.8524
X7.4112Y-1.8524
X7.5112Y-1.8524
X7.6112Y-1.8524
X7.8209Y-2.0756
X7.8209Y-2.1756
X7.8209Y-2.2756
X7.8209Y-2.3756
X7.8209Y-2.4756
T3
G00X7.5339Y-3.1043
M15
G01X7.6008Y-3.1043
M16
G05
G00X7.5339Y-3.6083
M15
G01X7.6008Y-3.6083
M16
G05
M30
