%TF.GenerationSoftware,KiCad,Pcbnew,8.0.8*%
%TF.CreationDate,2025-03-12T15:40:13-04:00*%
%TF.ProjectId,ECE477-SeniorDesign,45434534-3737-42d5-9365-6e696f724465,rev?*%
%TF.SameCoordinates,Original*%
%TF.FileFunction,Copper,L1,Top*%
%TF.FilePolarity,Positive*%
%FSLAX46Y46*%
G04 Gerber Fmt 4.6, Leading zero omitted, Abs format (unit mm)*
G04 Created by KiCad (PCBNEW 8.0.8) date 2025-03-12 15:40:13*
%MOMM*%
%LPD*%
G01*
G04 APERTURE LIST*
G04 Aperture macros list*
%AMRoundRect*
0 Rectangle with rounded corners*
0 $1 Rounding radius*
0 $2 $3 $4 $5 $6 $7 $8 $9 X,Y pos of 4 corners*
0 Add a 4 corners polygon primitive as box body*
4,1,4,$2,$3,$4,$5,$6,$7,$8,$9,$2,$3,0*
0 Add four circle primitives for the rounded corners*
1,1,$1+$1,$2,$3*
1,1,$1+$1,$4,$5*
1,1,$1+$1,$6,$7*
1,1,$1+$1,$8,$9*
0 Add four rect primitives between the rounded corners*
20,1,$1+$1,$2,$3,$4,$5,0*
20,1,$1+$1,$4,$5,$6,$7,0*
20,1,$1+$1,$6,$7,$8,$9,0*
20,1,$1+$1,$8,$9,$2,$3,0*%
%AMFreePoly0*
4,1,21,-0.300000,0.050000,-0.296194,0.069134,-0.285355,0.085355,-0.269134,0.096194,-0.250000,0.100000,0.250000,0.100000,0.269134,0.096194,0.285355,0.085355,0.296194,0.069134,0.300000,0.050000,0.300000,-0.050000,0.296194,-0.069134,0.285355,-0.085355,0.269134,-0.096194,0.250000,-0.100000,-0.250000,-0.100000,-0.269134,-0.096194,-0.285355,-0.085355,-0.296194,-0.069134,-0.300000,-0.050000,
-0.300000,0.050000,-0.300000,0.050000,$1*%
G04 Aperture macros list end*
%TA.AperFunction,ComponentPad*%
%ADD10R,1.700000X1.700000*%
%TD*%
%TA.AperFunction,ComponentPad*%
%ADD11O,1.700000X1.700000*%
%TD*%
%TA.AperFunction,ComponentPad*%
%ADD12RoundRect,0.250000X-0.550000X0.550000X-0.550000X-0.550000X0.550000X-0.550000X0.550000X0.550000X0*%
%TD*%
%TA.AperFunction,ComponentPad*%
%ADD13C,1.600000*%
%TD*%
%TA.AperFunction,SMDPad,CuDef*%
%ADD14RoundRect,0.250000X1.500000X-0.250000X1.500000X0.250000X-1.500000X0.250000X-1.500000X-0.250000X0*%
%TD*%
%TA.AperFunction,SMDPad,CuDef*%
%ADD15RoundRect,0.250001X1.449999X-0.499999X1.449999X0.499999X-1.449999X0.499999X-1.449999X-0.499999X0*%
%TD*%
%TA.AperFunction,SMDPad,CuDef*%
%ADD16RoundRect,0.250000X-0.475000X0.337500X-0.475000X-0.337500X0.475000X-0.337500X0.475000X0.337500X0*%
%TD*%
%TA.AperFunction,SMDPad,CuDef*%
%ADD17RoundRect,0.250000X-0.350000X-0.450000X0.350000X-0.450000X0.350000X0.450000X-0.350000X0.450000X0*%
%TD*%
%TA.AperFunction,SMDPad,CuDef*%
%ADD18RoundRect,0.250000X-0.337500X-0.475000X0.337500X-0.475000X0.337500X0.475000X-0.337500X0.475000X0*%
%TD*%
%TA.AperFunction,SMDPad,CuDef*%
%ADD19RoundRect,0.237500X-0.300000X-0.237500X0.300000X-0.237500X0.300000X0.237500X-0.300000X0.237500X0*%
%TD*%
%TA.AperFunction,SMDPad,CuDef*%
%ADD20RoundRect,0.237500X0.300000X0.237500X-0.300000X0.237500X-0.300000X-0.237500X0.300000X-0.237500X0*%
%TD*%
%TA.AperFunction,SMDPad,CuDef*%
%ADD21R,0.965200X0.254000*%
%TD*%
%TA.AperFunction,SMDPad,CuDef*%
%ADD22R,0.254000X0.965200*%
%TD*%
%TA.AperFunction,SMDPad,CuDef*%
%ADD23R,3.352800X3.352800*%
%TD*%
%TA.AperFunction,SMDPad,CuDef*%
%ADD24RoundRect,0.250000X0.450000X-0.350000X0.450000X0.350000X-0.450000X0.350000X-0.450000X-0.350000X0*%
%TD*%
%TA.AperFunction,SMDPad,CuDef*%
%ADD25RoundRect,0.250000X0.475000X-0.337500X0.475000X0.337500X-0.475000X0.337500X-0.475000X-0.337500X0*%
%TD*%
%TA.AperFunction,ComponentPad*%
%ADD26R,1.600000X1.600000*%
%TD*%
%TA.AperFunction,ComponentPad*%
%ADD27O,1.600000X1.600000*%
%TD*%
%TA.AperFunction,SMDPad,CuDef*%
%ADD28RoundRect,0.250000X0.337500X0.475000X-0.337500X0.475000X-0.337500X-0.475000X0.337500X-0.475000X0*%
%TD*%
%TA.AperFunction,SMDPad,CuDef*%
%ADD29RoundRect,0.250000X0.350000X0.450000X-0.350000X0.450000X-0.350000X-0.450000X0.350000X-0.450000X0*%
%TD*%
%TA.AperFunction,SMDPad,CuDef*%
%ADD30FreePoly0,90.000000*%
%TD*%
%TA.AperFunction,SMDPad,CuDef*%
%ADD31RoundRect,0.050000X-0.212500X-0.050000X0.212500X-0.050000X0.212500X0.050000X-0.212500X0.050000X0*%
%TD*%
%TA.AperFunction,HeatsinkPad*%
%ADD32C,0.500000*%
%TD*%
%TA.AperFunction,SMDPad,CuDef*%
%ADD33R,1.950000X2.450000*%
%TD*%
%TA.AperFunction,SMDPad,CuDef*%
%ADD34RoundRect,0.237500X-0.237500X0.250000X-0.237500X-0.250000X0.237500X-0.250000X0.237500X0.250000X0*%
%TD*%
%TA.AperFunction,SMDPad,CuDef*%
%ADD35RoundRect,0.075000X-0.662500X-0.075000X0.662500X-0.075000X0.662500X0.075000X-0.662500X0.075000X0*%
%TD*%
%TA.AperFunction,SMDPad,CuDef*%
%ADD36RoundRect,0.075000X-0.075000X-0.662500X0.075000X-0.662500X0.075000X0.662500X-0.075000X0.662500X0*%
%TD*%
%TA.AperFunction,SMDPad,CuDef*%
%ADD37RoundRect,0.237500X0.237500X-0.300000X0.237500X0.300000X-0.237500X0.300000X-0.237500X-0.300000X0*%
%TD*%
%TA.AperFunction,SMDPad,CuDef*%
%ADD38R,0.800000X1.000000*%
%TD*%
%TA.AperFunction,SMDPad,CuDef*%
%ADD39R,1.500000X0.700000*%
%TD*%
%TA.AperFunction,SMDPad,CuDef*%
%ADD40RoundRect,0.250000X-0.450000X0.350000X-0.450000X-0.350000X0.450000X-0.350000X0.450000X0.350000X0*%
%TD*%
%TA.AperFunction,SMDPad,CuDef*%
%ADD41R,0.254000X0.812800*%
%TD*%
%TA.AperFunction,SMDPad,CuDef*%
%ADD42R,0.812800X0.254000*%
%TD*%
%TA.AperFunction,SMDPad,CuDef*%
%ADD43R,2.794000X2.794000*%
%TD*%
%TA.AperFunction,SMDPad,CuDef*%
%ADD44R,0.558800X0.952500*%
%TD*%
%TA.AperFunction,SMDPad,CuDef*%
%ADD45RoundRect,0.237500X-0.237500X0.300000X-0.237500X-0.300000X0.237500X-0.300000X0.237500X0.300000X0*%
%TD*%
%TA.AperFunction,SMDPad,CuDef*%
%ADD46R,0.599999X0.249999*%
%TD*%
%TA.AperFunction,SMDPad,CuDef*%
%ADD47R,0.900001X0.249999*%
%TD*%
%TA.AperFunction,SMDPad,CuDef*%
%ADD48R,1.300000X0.249999*%
%TD*%
%TA.AperFunction,SMDPad,CuDef*%
%ADD49R,0.700000X1.600000*%
%TD*%
%TA.AperFunction,SMDPad,CuDef*%
%ADD50R,1.200000X1.500000*%
%TD*%
%TA.AperFunction,SMDPad,CuDef*%
%ADD51R,1.200000X2.200000*%
%TD*%
%TA.AperFunction,SMDPad,CuDef*%
%ADD52R,1.600000X1.500000*%
%TD*%
%TA.AperFunction,SMDPad,CuDef*%
%ADD53RoundRect,0.325000X1.175000X-0.325000X1.175000X0.325000X-1.175000X0.325000X-1.175000X-0.325000X0*%
%TD*%
%TA.AperFunction,HeatsinkPad*%
%ADD54O,2.900000X1.200000*%
%TD*%
%TA.AperFunction,SMDPad,CuDef*%
%ADD55R,1.200000X0.600000*%
%TD*%
%TA.AperFunction,SMDPad,CuDef*%
%ADD56R,1.409700X0.355600*%
%TD*%
%TA.AperFunction,SMDPad,CuDef*%
%ADD57R,3.200400X0.762000*%
%TD*%
%TA.AperFunction,SMDPad,CuDef*%
%ADD58RoundRect,0.150000X0.512500X0.150000X-0.512500X0.150000X-0.512500X-0.150000X0.512500X-0.150000X0*%
%TD*%
%TA.AperFunction,ViaPad*%
%ADD59C,2.000000*%
%TD*%
%TA.AperFunction,ViaPad*%
%ADD60C,0.700000*%
%TD*%
%TA.AperFunction,ViaPad*%
%ADD61C,0.650000*%
%TD*%
%TA.AperFunction,Conductor*%
%ADD62C,0.600000*%
%TD*%
%TA.AperFunction,Conductor*%
%ADD63C,0.300000*%
%TD*%
%TA.AperFunction,Conductor*%
%ADD64C,0.500000*%
%TD*%
%TA.AperFunction,Conductor*%
%ADD65C,0.750000*%
%TD*%
%TA.AperFunction,Conductor*%
%ADD66C,0.400000*%
%TD*%
%TA.AperFunction,Conductor*%
%ADD67C,0.330000*%
%TD*%
%TA.AperFunction,Conductor*%
%ADD68C,0.250000*%
%TD*%
%TA.AperFunction,Conductor*%
%ADD69C,0.100000*%
%TD*%
%TA.AperFunction,Conductor*%
%ADD70C,0.850000*%
%TD*%
%TA.AperFunction,Conductor*%
%ADD71C,0.200000*%
%TD*%
G04 APERTURE END LIST*
D10*
%TO.P,EinkDispCon1,1,VCC*%
%TO.N,/MCU/SPI1_NSS*%
X134240000Y-120600000D03*
D11*
%TO.P,EinkDispCon1,2,GND*%
%TO.N,/MCU/SPI1_SCK*%
X136780000Y-120600000D03*
%TO.P,EinkDispCon1,3,DIN*%
%TO.N,/MCU/Eink_Busy*%
X139320000Y-120600000D03*
%TO.P,EinkDispCon1,4,CLK*%
%TO.N,/MCU/SPI1_MOSI*%
X141860000Y-120600000D03*
%TO.P,EinkDispCon1,5,CS*%
%TO.N,/MCU/Eink_D{slash}C*%
X144400000Y-120600000D03*
%TO.P,EinkDispCon1,6,D/C*%
%TO.N,/MCU/Eink_RST*%
X146940000Y-120600000D03*
%TO.P,EinkDispCon1,7,RST*%
%TO.N,GND*%
X149480000Y-120600000D03*
%TO.P,EinkDispCon1,8,BUSY*%
%TO.N,+3.3V*%
X152020000Y-120600000D03*
%TD*%
D10*
%TO.P,J3,1,Pin_1*%
%TO.N,unconnected-(J3-Pin_1-Pad1)*%
X193325000Y-47050000D03*
D11*
%TO.P,J3,2,Pin_2*%
%TO.N,SPI2_NSS*%
X190785000Y-47050000D03*
%TO.P,J3,3,Pin_3*%
%TO.N,SPI2_SCK*%
X188245000Y-47050000D03*
%TO.P,J3,4,Pin_4*%
%TO.N,SPI2_MISO*%
X185705000Y-47050000D03*
%TO.P,J3,5,Pin_5*%
%TO.N,SPI2_MOSI*%
X183165000Y-47050000D03*
%TD*%
D10*
%TO.P,J2,1,Pin_1*%
%TO.N,Extra_5*%
X144490000Y-47150000D03*
D11*
%TO.P,J2,2,Pin_2*%
%TO.N,Extra_4*%
X141950000Y-47150000D03*
%TO.P,J2,3,Pin_3*%
%TO.N,Extra_3*%
X139410000Y-47150000D03*
%TO.P,J2,4,Pin_4*%
%TO.N,Extra_2*%
X136870000Y-47150000D03*
%TO.P,J2,5,Pin_5*%
%TO.N,Extra_1*%
X134330000Y-47150000D03*
%TD*%
D10*
%TO.P,J1,1,Pin_1*%
%TO.N,SWCLK*%
X198650000Y-52720000D03*
D11*
%TO.P,J1,2,Pin_2*%
%TO.N,SWDIO*%
X198650000Y-55260000D03*
%TO.P,J1,3,Pin_3*%
%TO.N,NRST*%
X198650000Y-57800000D03*
%TO.P,J1,4,Pin_4*%
%TO.N,GND*%
X198650000Y-60340000D03*
%TO.P,J1,5,Pin_5*%
%TO.N,+3.3V*%
X198650000Y-62880000D03*
%TD*%
D10*
%TO.P,J4,1,Pin_1*%
%TO.N,unconnected-(J4-Pin_1-Pad1)*%
X178380000Y-46800000D03*
D11*
%TO.P,J4,2,Pin_2*%
%TO.N,USART2_TX*%
X175840000Y-46800000D03*
%TO.P,J4,3,Pin_3*%
%TO.N,USART2_RX*%
X173300000Y-46800000D03*
%TO.P,J4,4,Pin_4*%
%TO.N,I2C4_SCL*%
X170760000Y-46800000D03*
%TO.P,J4,5,Pin_5*%
%TO.N,I2C4_SDA*%
X168220000Y-46800000D03*
%TD*%
D12*
%TO.P,J12,1,Pin_1*%
%TO.N,+3.3V*%
X116900000Y-97600000D03*
D13*
%TO.P,J12,2,Pin_2*%
%TO.N,Net-(D7-A)*%
X116900000Y-101200000D03*
%TD*%
D14*
%TO.P,J6,1,Pin_1*%
%TO.N,BATTERY_IN*%
X192600000Y-105650000D03*
%TO.P,J6,2,Pin_2*%
%TO.N,GND*%
X192600000Y-103650000D03*
D15*
%TO.P,J6,MP*%
%TO.N,N/C*%
X198350000Y-108000000D03*
X198350000Y-101300000D03*
%TD*%
D12*
%TO.P,J10,1,Pin_1*%
%TO.N,+3.3V*%
X117350000Y-85350000D03*
D13*
%TO.P,J10,2,Pin_2*%
%TO.N,Net-(D6-A)*%
X117350000Y-88950000D03*
%TD*%
D12*
%TO.P,J9,1,Pin_1*%
%TO.N,+3.3V*%
X117250000Y-74650000D03*
D13*
%TO.P,J9,2,Pin_2*%
%TO.N,Net-(D5-A)*%
X117250000Y-78250000D03*
%TD*%
D12*
%TO.P,J5,1,Pin_1*%
%TO.N,+3.3V*%
X117150000Y-63350000D03*
D13*
%TO.P,J5,2,Pin_2*%
%TO.N,Net-(D4-A)*%
X117150000Y-66950000D03*
%TD*%
D16*
%TO.P,C2,1*%
%TO.N,GND*%
X138400000Y-89500000D03*
%TO.P,C2,2*%
%TO.N,Net-(U2-PH0)*%
X138400000Y-91575000D03*
%TD*%
D17*
%TO.P,R3,1*%
%TO.N,+3.3V*%
X174200000Y-109200000D03*
%TO.P,R3,2*%
%TO.N,Net-(U5-BIN)*%
X176200000Y-109200000D03*
%TD*%
D18*
%TO.P,C1,1*%
%TO.N,GND*%
X139175000Y-101750000D03*
%TO.P,C1,2*%
%TO.N,NRST*%
X141250000Y-101750000D03*
%TD*%
D19*
%TO.P,C9,1*%
%TO.N,+3.3V*%
X144275000Y-77500000D03*
%TO.P,C9,2*%
%TO.N,GND*%
X146000000Y-77500000D03*
%TD*%
D20*
%TO.P,C13,1*%
%TO.N,+3.3V*%
X163000000Y-102500000D03*
%TO.P,C13,2*%
%TO.N,GND*%
X161275000Y-102500000D03*
%TD*%
D16*
%TO.P,C36,1*%
%TO.N,Net-(D5-K)*%
X128750000Y-77000000D03*
%TO.P,C36,2*%
%TO.N,GND*%
X128750000Y-79075000D03*
%TD*%
D21*
%TO.P,U8,1,DCD*%
%TO.N,unconnected-(U8-DCD-Pad1)*%
X176824100Y-86425900D03*
%TO.P,U8,2,RI*%
%TO.N,unconnected-(U8-RI-Pad2)*%
X176824100Y-85925901D03*
%TO.P,U8,3,GND*%
%TO.N,GND*%
X176824100Y-85425899D03*
%TO.P,U8,4,D+*%
%TO.N,/USB-UART/USB_D+*%
X176824100Y-84925900D03*
%TO.P,U8,5,D-*%
%TO.N,/USB-UART/USB_D-*%
X176824100Y-84425901D03*
%TO.P,U8,6,VDD*%
%TO.N,Net-(U8-VDD)*%
X176824100Y-83925899D03*
%TO.P,U8,7,REGIN*%
%TO.N,VBUS*%
X176824100Y-83425900D03*
D22*
%TO.P,U8,8,VBUS*%
X176000000Y-82601800D03*
%TO.P,U8,9,~{RST}*%
%TO.N,unconnected-(U8-~{RST}-Pad9)*%
X175500001Y-82601800D03*
%TO.P,U8,10,NC*%
%TO.N,unconnected-(U8-NC-Pad10)*%
X174999999Y-82601800D03*
%TO.P,U8,11,~{SUSPEND}*%
%TO.N,unconnected-(U8-~{SUSPEND}-Pad11)*%
X174500000Y-82601800D03*
%TO.P,U8,12,SUSPEND*%
%TO.N,unconnected-(U8-SUSPEND-Pad12)*%
X174000001Y-82601800D03*
%TO.P,U8,13,NC@1*%
%TO.N,unconnected-(U8-NC@1-Pad13)*%
X173499999Y-82601800D03*
%TO.P,U8,14,NC@2*%
%TO.N,unconnected-(U8-NC@2-Pad14)*%
X173000000Y-82601800D03*
D21*
%TO.P,U8,15,NC@3*%
%TO.N,unconnected-(U8-NC@3-Pad15)*%
X172175900Y-83425900D03*
%TO.P,U8,16,NC@4*%
%TO.N,unconnected-(U8-NC@4-Pad16)*%
X172175900Y-83925899D03*
%TO.P,U8,17,NC@5*%
%TO.N,unconnected-(U8-NC@5-Pad17)*%
X172175900Y-84425901D03*
%TO.P,U8,18,NC/VPP*%
%TO.N,unconnected-(U8-NC{slash}VPP-Pad18)*%
X172175900Y-84925900D03*
%TO.P,U8,19,NC@6*%
%TO.N,unconnected-(U8-NC@6-Pad19)*%
X172175900Y-85425899D03*
%TO.P,U8,20,NC@7*%
%TO.N,unconnected-(U8-NC@7-Pad20)*%
X172175900Y-85925901D03*
%TO.P,U8,21,NC@8*%
%TO.N,unconnected-(U8-NC@8-Pad21)*%
X172175900Y-86425900D03*
D22*
%TO.P,U8,22,NC@9*%
%TO.N,unconnected-(U8-NC@9-Pad22)*%
X173000000Y-87250000D03*
%TO.P,U8,23,CTS*%
%TO.N,unconnected-(U8-CTS-Pad23)*%
X173499999Y-87250000D03*
%TO.P,U8,24,RTS*%
%TO.N,unconnected-(U8-RTS-Pad24)*%
X174000001Y-87250000D03*
%TO.P,U8,25,RXD*%
%TO.N,/MCU/USART1_TX*%
X174500000Y-87250000D03*
%TO.P,U8,26,TXD*%
%TO.N,/MCU/USART1_RX*%
X174999999Y-87250000D03*
%TO.P,U8,27,DSR*%
%TO.N,unconnected-(U8-DSR-Pad27)*%
X175500001Y-87250000D03*
%TO.P,U8,28,DTR*%
%TO.N,unconnected-(U8-DTR-Pad28)*%
X176000000Y-87250000D03*
D23*
%TO.P,U8,29,GND@1*%
%TO.N,GND*%
X174500000Y-84925900D03*
%TD*%
D24*
%TO.P,R7,1*%
%TO.N,+3.3V*%
X157900000Y-120000000D03*
%TO.P,R7,2*%
%TO.N,Net-(U10-FB)*%
X157900000Y-118000000D03*
%TD*%
%TO.P,R18,1*%
%TO.N,GND*%
X177600000Y-105100000D03*
%TO.P,R18,2*%
%TO.N,Net-(U6-PROG3)*%
X177600000Y-103100000D03*
%TD*%
D25*
%TO.P,C41,1*%
%TO.N,GND*%
X162700000Y-67700000D03*
%TO.P,C41,2*%
%TO.N,+3.3V*%
X162700000Y-65625000D03*
%TD*%
D16*
%TO.P,C37,1*%
%TO.N,Net-(D6-K)*%
X128750000Y-88175000D03*
%TO.P,C37,2*%
%TO.N,GND*%
X128750000Y-90250000D03*
%TD*%
D26*
%TO.P,D4,1,K*%
%TO.N,Net-(D4-K)*%
X132000000Y-60000000D03*
D27*
%TO.P,D4,2,A*%
%TO.N,Net-(D4-A)*%
X124380000Y-60000000D03*
%TD*%
D17*
%TO.P,R16,1*%
%TO.N,GND*%
X175700000Y-95600000D03*
%TO.P,R16,2*%
%TO.N,Net-(U6-THERM)*%
X177700000Y-95600000D03*
%TD*%
D28*
%TO.P,C32,1*%
%TO.N,VBUS*%
X176750000Y-80500000D03*
%TO.P,C32,2*%
%TO.N,GND*%
X174675000Y-80500000D03*
%TD*%
D16*
%TO.P,C39,1*%
%TO.N,/ExtraPeriphs/button2*%
X131000000Y-76925000D03*
%TO.P,C39,2*%
%TO.N,GND*%
X131000000Y-79000000D03*
%TD*%
D28*
%TO.P,C20,1*%
%TO.N,+3.3V*%
X163250000Y-118050000D03*
%TO.P,C20,2*%
%TO.N,GND*%
X161175000Y-118050000D03*
%TD*%
D18*
%TO.P,C25,1*%
%TO.N,BATTERY_IN*%
X181600000Y-115300000D03*
%TO.P,C25,2*%
%TO.N,GND*%
X183675000Y-115300000D03*
%TD*%
D29*
%TO.P,R9,1*%
%TO.N,/LipoPower/Monitor_SDA*%
X176300000Y-115960000D03*
%TO.P,R9,2*%
%TO.N,+3.3V*%
X174300000Y-115960000D03*
%TD*%
D16*
%TO.P,C27,1*%
%TO.N,Net-(U5-V_{DD})*%
X180400000Y-117960000D03*
%TO.P,C27,2*%
%TO.N,GND*%
X180400000Y-120035000D03*
%TD*%
D30*
%TO.P,U5,1,SDA*%
%TO.N,/LipoPower/Monitor_SDA*%
X178000000Y-115850000D03*
%TO.P,U5,2,SCL*%
%TO.N,/LipoPower/Monitor_SCL*%
X178400000Y-115850000D03*
%TO.P,U5,3,V_{SS}*%
%TO.N,GND*%
X178800000Y-115850000D03*
%TO.P,U5,4,NC*%
%TO.N,unconnected-(U5-NC-Pad4)*%
X179200000Y-115850000D03*
%TO.P,U5,5,V_{DD}*%
%TO.N,Net-(U5-V_{DD})*%
X179600000Y-115850000D03*
%TO.P,U5,6,BAT*%
%TO.N,BATTERY_IN*%
X180000000Y-115850000D03*
%TO.P,U5,7,SRN*%
%TO.N,V_Batt*%
X180000000Y-112050000D03*
%TO.P,U5,8,SRP*%
%TO.N,BATTERY_IN*%
X179600000Y-112050000D03*
%TO.P,U5,9,NC*%
%TO.N,unconnected-(U5-NC-Pad9)*%
X179200000Y-112050000D03*
%TO.P,U5,10,BIN*%
%TO.N,Net-(U5-BIN)*%
X178800000Y-112050000D03*
%TO.P,U5,11,NC*%
%TO.N,unconnected-(U5-NC-Pad11)*%
X178400000Y-112050000D03*
%TO.P,U5,12,GPOUT*%
%TO.N,/LipoPower/Monitor_GPOUT*%
X178000000Y-112050000D03*
D31*
%TO.P,U5,13,PAD*%
%TO.N,GND*%
X177812500Y-115075000D03*
X180187500Y-115075000D03*
D32*
X179000000Y-114925000D03*
X178275000Y-113950000D03*
X179000000Y-113950000D03*
D33*
X179000000Y-113950000D03*
D32*
X179725000Y-113950000D03*
X179000000Y-112975000D03*
D31*
X177812500Y-112825000D03*
X180187500Y-112825000D03*
%TD*%
D17*
%TO.P,R25,1*%
%TO.N,Net-(D6-K)*%
X128750000Y-86250000D03*
%TO.P,R25,2*%
%TO.N,/ExtraPeriphs/button3*%
X130750000Y-86250000D03*
%TD*%
D16*
%TO.P,C30,1*%
%TO.N,V_Batt*%
X182200000Y-102500000D03*
%TO.P,C30,2*%
%TO.N,GND*%
X182200000Y-104575000D03*
%TD*%
D24*
%TO.P,R4,1*%
%TO.N,Net-(U10-FB)*%
X157900000Y-116150000D03*
%TO.P,R4,2*%
%TO.N,GND*%
X157900000Y-114150000D03*
%TD*%
D28*
%TO.P,C34,1*%
%TO.N,VBUS*%
X176750000Y-78250000D03*
%TO.P,C34,2*%
%TO.N,GND*%
X174675000Y-78250000D03*
%TD*%
D18*
%TO.P,C29,1*%
%TO.N,VBUS*%
X183900000Y-98900000D03*
%TO.P,C29,2*%
%TO.N,GND*%
X185975000Y-98900000D03*
%TD*%
D19*
%TO.P,C8,1*%
%TO.N,+3.3V*%
X150775000Y-77500000D03*
%TO.P,C8,2*%
%TO.N,GND*%
X152500000Y-77500000D03*
%TD*%
D18*
%TO.P,C18,1*%
%TO.N,+3.3V*%
X144025000Y-75500000D03*
%TO.P,C18,2*%
%TO.N,GND*%
X146100000Y-75500000D03*
%TD*%
D34*
%TO.P,R2,1*%
%TO.N,Net-(SWBOOT1-B)*%
X143000000Y-68475000D03*
%TO.P,R2,2*%
%TO.N,Net-(U2-PH3)*%
X143000000Y-70300000D03*
%TD*%
D16*
%TO.P,C42,1*%
%TO.N,Net-(D7-K)*%
X130550000Y-100950000D03*
%TO.P,C42,2*%
%TO.N,GND*%
X130550000Y-103025000D03*
%TD*%
D17*
%TO.P,R24,1*%
%TO.N,Net-(D5-K)*%
X128500000Y-75000000D03*
%TO.P,R24,2*%
%TO.N,/ExtraPeriphs/button2*%
X130500000Y-75000000D03*
%TD*%
D35*
%TO.P,U2,1,PE2*%
%TO.N,/ExtraPeriphs/button1*%
X142837500Y-81250000D03*
%TO.P,U2,2,PE3*%
%TO.N,/ExtraPeriphs/button2*%
X142837500Y-81750000D03*
%TO.P,U2,3,PE4*%
%TO.N,/ExtraPeriphs/button3*%
X142837500Y-82250000D03*
%TO.P,U2,4,PE5*%
%TO.N,/ExtraPeriphs/switch*%
X142837500Y-82750000D03*
%TO.P,U2,5,PE6*%
%TO.N,unconnected-(U2-PE6-Pad5)*%
X142837500Y-83250000D03*
%TO.P,U2,6,VBAT*%
%TO.N,+3.3V*%
X142837500Y-83750000D03*
%TO.P,U2,7,PC13*%
%TO.N,unconnected-(U2-PC13-Pad7)*%
X142837500Y-84250000D03*
%TO.P,U2,8,PC14*%
%TO.N,unconnected-(U2-PC14-Pad8)*%
X142837500Y-84750000D03*
%TO.P,U2,9,PC15*%
%TO.N,unconnected-(U2-PC15-Pad9)*%
X142837500Y-85250000D03*
%TO.P,U2,10,PF0*%
%TO.N,I2C4_SDA*%
X142837500Y-85750000D03*
%TO.P,U2,11,PF1*%
%TO.N,I2C4_SCL*%
X142837500Y-86250000D03*
%TO.P,U2,12,PF2*%
%TO.N,unconnected-(U2-PF2-Pad12)*%
X142837500Y-86750000D03*
%TO.P,U2,13,PF3*%
%TO.N,unconnected-(U2-PF3-Pad13)*%
X142837500Y-87250000D03*
%TO.P,U2,14,PF4*%
%TO.N,unconnected-(U2-PF4-Pad14)*%
X142837500Y-87750000D03*
%TO.P,U2,15,PF5*%
%TO.N,unconnected-(U2-PF5-Pad15)*%
X142837500Y-88250000D03*
%TO.P,U2,16,VSS*%
%TO.N,GND*%
X142837500Y-88750000D03*
%TO.P,U2,17,VDD*%
%TO.N,+3.3V*%
X142837500Y-89250000D03*
%TO.P,U2,18,PF6*%
%TO.N,unconnected-(U2-PF6-Pad18)*%
X142837500Y-89750000D03*
%TO.P,U2,19,PF7*%
%TO.N,unconnected-(U2-PF7-Pad19)*%
X142837500Y-90250000D03*
%TO.P,U2,20,PF8*%
%TO.N,unconnected-(U2-PF8-Pad20)*%
X142837500Y-90750000D03*
%TO.P,U2,21,PF9*%
%TO.N,unconnected-(U2-PF9-Pad21)*%
X142837500Y-91250000D03*
%TO.P,U2,22,PF10*%
%TO.N,unconnected-(U2-PF10-Pad22)*%
X142837500Y-91750000D03*
%TO.P,U2,23,PH0*%
%TO.N,Net-(U2-PH0)*%
X142837500Y-92250000D03*
%TO.P,U2,24,PH1*%
%TO.N,Net-(U2-PH1)*%
X142837500Y-92750000D03*
%TO.P,U2,25,NRST*%
%TO.N,NRST*%
X142837500Y-93250000D03*
%TO.P,U2,26,PC0*%
%TO.N,unconnected-(U2-PC0-Pad26)*%
X142837500Y-93750000D03*
%TO.P,U2,27,PC1*%
%TO.N,unconnected-(U2-PC1-Pad27)*%
X142837500Y-94250000D03*
%TO.P,U2,28,PC2*%
%TO.N,unconnected-(U2-PC2-Pad28)*%
X142837500Y-94750000D03*
%TO.P,U2,29,PC3*%
%TO.N,unconnected-(U2-PC3-Pad29)*%
X142837500Y-95250000D03*
%TO.P,U2,30,VSSA*%
%TO.N,GND*%
X142837500Y-95750000D03*
%TO.P,U2,31,VREF-*%
X142837500Y-96250000D03*
%TO.P,U2,32,VREF+*%
%TO.N,+3.3V*%
X142837500Y-96750000D03*
%TO.P,U2,33,VDDA*%
X142837500Y-97250000D03*
%TO.P,U2,34,PA0*%
%TO.N,unconnected-(U2-PA0-Pad34)*%
X142837500Y-97750000D03*
%TO.P,U2,35,PA1*%
%TO.N,unconnected-(U2-PA1-Pad35)*%
X142837500Y-98250000D03*
%TO.P,U2,36,PA2*%
%TO.N,unconnected-(U2-PA2-Pad36)*%
X142837500Y-98750000D03*
D36*
%TO.P,U2,37,PA3*%
%TO.N,unconnected-(U2-PA3-Pad37)*%
X144750000Y-100662500D03*
%TO.P,U2,38,VSS*%
%TO.N,GND*%
X145250000Y-100662500D03*
%TO.P,U2,39,VDD*%
%TO.N,+3.3V*%
X145750000Y-100662500D03*
%TO.P,U2,40,PA4*%
%TO.N,/MCU/SPI1_NSS*%
X146250000Y-100662500D03*
%TO.P,U2,41,PA5*%
%TO.N,/MCU/SPI1_SCK*%
X146750000Y-100662500D03*
%TO.P,U2,42,PA6*%
%TO.N,/MCU/Eink_Busy*%
X147250000Y-100662500D03*
%TO.P,U2,43,PA7*%
%TO.N,/MCU/SPI1_MOSI*%
X147750000Y-100662500D03*
%TO.P,U2,44,PC4*%
%TO.N,/MCU/Eink_D{slash}C*%
X148250000Y-100662500D03*
%TO.P,U2,45,PC5*%
%TO.N,/MCU/Eink_RST*%
X148750000Y-100662500D03*
%TO.P,U2,46,PB0*%
%TO.N,unconnected-(U2-PB0-Pad46)*%
X149250000Y-100662500D03*
%TO.P,U2,47,PB1*%
%TO.N,unconnected-(U2-PB1-Pad47)*%
X149750000Y-100662500D03*
%TO.P,U2,48,PB2*%
%TO.N,unconnected-(U2-PB2-Pad48)*%
X150250000Y-100662500D03*
%TO.P,U2,49,PF11*%
%TO.N,unconnected-(U2-PF11-Pad49)*%
X150750000Y-100662500D03*
%TO.P,U2,50,PF12*%
%TO.N,unconnected-(U2-PF12-Pad50)*%
X151250000Y-100662500D03*
%TO.P,U2,51,VSS*%
%TO.N,GND*%
X151750000Y-100662500D03*
%TO.P,U2,52,VDD*%
%TO.N,+3.3V*%
X152250000Y-100662500D03*
%TO.P,U2,53,PF13*%
%TO.N,unconnected-(U2-PF13-Pad53)*%
X152750000Y-100662500D03*
%TO.P,U2,54,PF14*%
%TO.N,unconnected-(U2-PF14-Pad54)*%
X153250000Y-100662500D03*
%TO.P,U2,55,PF15*%
%TO.N,unconnected-(U2-PF15-Pad55)*%
X153750000Y-100662500D03*
%TO.P,U2,56,PG0*%
%TO.N,unconnected-(U2-PG0-Pad56)*%
X154250000Y-100662500D03*
%TO.P,U2,57,PG1*%
%TO.N,unconnected-(U2-PG1-Pad57)*%
X154750000Y-100662500D03*
%TO.P,U2,58,PE7*%
%TO.N,unconnected-(U2-PE7-Pad58)*%
X155250000Y-100662500D03*
%TO.P,U2,59,PE8*%
%TO.N,unconnected-(U2-PE8-Pad59)*%
X155750000Y-100662500D03*
%TO.P,U2,60,PE9*%
%TO.N,unconnected-(U2-PE9-Pad60)*%
X156250000Y-100662500D03*
%TO.P,U2,61,VSS*%
%TO.N,GND*%
X156750000Y-100662500D03*
%TO.P,U2,62,VDD*%
%TO.N,+3.3V*%
X157250000Y-100662500D03*
%TO.P,U2,63,PE10*%
%TO.N,unconnected-(U2-PE10-Pad63)*%
X157750000Y-100662500D03*
%TO.P,U2,64,PE11*%
%TO.N,unconnected-(U2-PE11-Pad64)*%
X158250000Y-100662500D03*
%TO.P,U2,65,PE12*%
%TO.N,unconnected-(U2-PE12-Pad65)*%
X158750000Y-100662500D03*
%TO.P,U2,66,PE13*%
%TO.N,unconnected-(U2-PE13-Pad66)*%
X159250000Y-100662500D03*
%TO.P,U2,67,PE14*%
%TO.N,unconnected-(U2-PE14-Pad67)*%
X159750000Y-100662500D03*
%TO.P,U2,68,PE15*%
%TO.N,unconnected-(U2-PE15-Pad68)*%
X160250000Y-100662500D03*
%TO.P,U2,69,PB10*%
%TO.N,unconnected-(U2-PB10-Pad69)*%
X160750000Y-100662500D03*
%TO.P,U2,70,VDD12*%
%TO.N,unconnected-(U2-VDD12-Pad70)*%
X161250000Y-100662500D03*
%TO.P,U2,71,VSS*%
%TO.N,GND*%
X161750000Y-100662500D03*
%TO.P,U2,72,VDD*%
%TO.N,+3.3V*%
X162250000Y-100662500D03*
D35*
%TO.P,U2,73,PB12*%
%TO.N,unconnected-(U2-PB12-Pad73)*%
X164162500Y-98750000D03*
%TO.P,U2,74,PB13*%
%TO.N,unconnected-(U2-PB13-Pad74)*%
X164162500Y-98250000D03*
%TO.P,U2,75,PB14*%
%TO.N,unconnected-(U2-PB14-Pad75)*%
X164162500Y-97750000D03*
%TO.P,U2,76,PB15*%
%TO.N,unconnected-(U2-PB15-Pad76)*%
X164162500Y-97250000D03*
%TO.P,U2,77,PD8*%
%TO.N,/LipoPower/Recharge_ST2*%
X164162500Y-96750000D03*
%TO.P,U2,78,PD9*%
%TO.N,/LipoPower/Recharge_ST1*%
X164162500Y-96250000D03*
%TO.P,U2,79,PD10*%
%TO.N,/LipoPower/Recharge_PG*%
X164162500Y-95750000D03*
%TO.P,U2,80,PD11*%
%TO.N,/LipoPower/Monitor_GPOUT*%
X164162500Y-95250000D03*
%TO.P,U2,81,PD12*%
%TO.N,/LipoPower/Monitor_SCL*%
X164162500Y-94750000D03*
%TO.P,U2,82,PD13*%
%TO.N,/LipoPower/Monitor_SDA*%
X164162500Y-94250000D03*
%TO.P,U2,83,VSS*%
%TO.N,GND*%
X164162500Y-93750000D03*
%TO.P,U2,84,VDD*%
%TO.N,+3.3V*%
X164162500Y-93250000D03*
%TO.P,U2,85,PD14*%
%TO.N,unconnected-(U2-PD14-Pad85)*%
X164162500Y-92750000D03*
%TO.P,U2,86,PD15*%
%TO.N,unconnected-(U2-PD15-Pad86)*%
X164162500Y-92250000D03*
%TO.P,U2,87,PG2*%
%TO.N,unconnected-(U2-PG2-Pad87)*%
X164162500Y-91750000D03*
%TO.P,U2,88,PG3*%
%TO.N,unconnected-(U2-PG3-Pad88)*%
X164162500Y-91250000D03*
%TO.P,U2,89,PG4*%
%TO.N,unconnected-(U2-PG4-Pad89)*%
X164162500Y-90750000D03*
%TO.P,U2,90,PG5*%
%TO.N,unconnected-(U2-PG5-Pad90)*%
X164162500Y-90250000D03*
%TO.P,U2,91,PG6*%
%TO.N,unconnected-(U2-PG6-Pad91)*%
X164162500Y-89750000D03*
%TO.P,U2,92,PG7*%
%TO.N,unconnected-(U2-PG7-Pad92)*%
X164162500Y-89250000D03*
%TO.P,U2,93,PG8*%
%TO.N,unconnected-(U2-PG8-Pad93)*%
X164162500Y-88750000D03*
%TO.P,U2,94,VSS*%
%TO.N,GND*%
X164162500Y-88250000D03*
%TO.P,U2,95,VDDIO2*%
%TO.N,+3.3V*%
X164162500Y-87750000D03*
%TO.P,U2,96,PC6*%
%TO.N,unconnected-(U2-PC6-Pad96)*%
X164162500Y-87250000D03*
%TO.P,U2,97,PC7*%
%TO.N,unconnected-(U2-PC7-Pad97)*%
X164162500Y-86750000D03*
%TO.P,U2,98,PC8*%
%TO.N,unconnected-(U2-PC8-Pad98)*%
X164162500Y-86250000D03*
%TO.P,U2,99,PC9*%
%TO.N,unconnected-(U2-PC9-Pad99)*%
X164162500Y-85750000D03*
%TO.P,U2,100,PA8*%
%TO.N,unconnected-(U2-PA8-Pad100)*%
X164162500Y-85250000D03*
%TO.P,U2,101,PA9*%
%TO.N,/MCU/USART1_TX*%
X164162500Y-84750000D03*
%TO.P,U2,102,PA10*%
%TO.N,/MCU/USART1_RX*%
X164162500Y-84250000D03*
%TO.P,U2,103,PA11*%
%TO.N,unconnected-(U2-PA11-Pad103)*%
X164162500Y-83750000D03*
%TO.P,U2,104,PA12*%
%TO.N,unconnected-(U2-PA12-Pad104)*%
X164162500Y-83250000D03*
%TO.P,U2,105,PA13*%
%TO.N,SWDIO*%
X164162500Y-82750000D03*
%TO.P,U2,106,VDDUSB*%
%TO.N,+3.3V*%
X164162500Y-82250000D03*
%TO.P,U2,107,VSS*%
%TO.N,GND*%
X164162500Y-81750000D03*
%TO.P,U2,108,VDD*%
%TO.N,+3.3V*%
X164162500Y-81250000D03*
D36*
%TO.P,U2,109,PA14*%
%TO.N,SWCLK*%
X162250000Y-79337500D03*
%TO.P,U2,110,PA15*%
%TO.N,unconnected-(U2-PA15-Pad110)*%
X161750000Y-79337500D03*
%TO.P,U2,111,PC10*%
%TO.N,unconnected-(U2-PC10-Pad111)*%
X161250000Y-79337500D03*
%TO.P,U2,112,PC11*%
%TO.N,unconnected-(U2-PC11-Pad112)*%
X160750000Y-79337500D03*
%TO.P,U2,113,PC12*%
%TO.N,unconnected-(U2-PC12-Pad113)*%
X160250000Y-79337500D03*
%TO.P,U2,114,PD0*%
%TO.N,SPI2_NSS*%
X159750000Y-79337500D03*
%TO.P,U2,115,PD1*%
%TO.N,SPI2_SCK*%
X159250000Y-79337500D03*
%TO.P,U2,116,PD2*%
%TO.N,unconnected-(U2-PD2-Pad116)*%
X158750000Y-79337500D03*
%TO.P,U2,117,PD3*%
%TO.N,SPI2_MISO*%
X158250000Y-79337500D03*
%TO.P,U2,118,PD4*%
%TO.N,SPI2_MOSI*%
X157750000Y-79337500D03*
%TO.P,U2,119,PD5*%
%TO.N,USART2_TX*%
X157250000Y-79337500D03*
%TO.P,U2,120,VSS*%
%TO.N,GND*%
X156750000Y-79337500D03*
%TO.P,U2,121,VDD*%
%TO.N,+3.3V*%
X156250000Y-79337500D03*
%TO.P,U2,122,PD6*%
%TO.N,USART2_RX*%
X155750000Y-79337500D03*
%TO.P,U2,123,PD7*%
%TO.N,unconnected-(U2-PD7-Pad123)*%
X155250000Y-79337500D03*
%TO.P,U2,124,PG9*%
%TO.N,/ExtraPeriphs/SD_SCK*%
X154750000Y-79337500D03*
%TO.P,U2,125,PG10*%
%TO.N,/ExtraPeriphs/SD_MISO*%
X154250000Y-79337500D03*
%TO.P,U2,126,PG11*%
%TO.N,/ExtraPeriphs/SD_MOSI*%
X153750000Y-79337500D03*
%TO.P,U2,127,PG12*%
%TO.N,/ExtraPeriphs/SD_CS*%
X153250000Y-79337500D03*
%TO.P,U2,128,PG13*%
%TO.N,unconnected-(U2-PG13-Pad128)*%
X152750000Y-79337500D03*
%TO.P,U2,129,PG14*%
%TO.N,unconnected-(U2-PG14-Pad129)*%
X152250000Y-79337500D03*
%TO.P,U2,130,VSS*%
%TO.N,GND*%
X151750000Y-79337500D03*
%TO.P,U2,131,VDDIO2*%
%TO.N,+3.3V*%
X151250000Y-79337500D03*
%TO.P,U2,132,PB3*%
%TO.N,unconnected-(U2-PB3-Pad132)*%
X150750000Y-79337500D03*
%TO.P,U2,133,PB4*%
%TO.N,unconnected-(U2-PB4-Pad133)*%
X150250000Y-79337500D03*
%TO.P,U2,134,PB5*%
%TO.N,unconnected-(U2-PB5-Pad134)*%
X149750000Y-79337500D03*
%TO.P,U2,135,PB6*%
%TO.N,Extra_5*%
X149250000Y-79337500D03*
%TO.P,U2,136,PB7*%
%TO.N,Extra_4*%
X148750000Y-79337500D03*
%TO.P,U2,137,PH3*%
%TO.N,Net-(U2-PH3)*%
X148250000Y-79337500D03*
%TO.P,U2,138,PB8*%
%TO.N,Extra_3*%
X147750000Y-79337500D03*
%TO.P,U2,139,PB9*%
%TO.N,unconnected-(U2-PB9-Pad139)*%
X147250000Y-79337500D03*
%TO.P,U2,140,PE0*%
%TO.N,Extra_2*%
X146750000Y-79337500D03*
%TO.P,U2,141,PE1*%
%TO.N,Extra_1*%
X146250000Y-79337500D03*
%TO.P,U2,142,VDD12*%
%TO.N,unconnected-(U2-VDD12-Pad142)*%
X145750000Y-79337500D03*
%TO.P,U2,143,VSS*%
%TO.N,GND*%
X145250000Y-79337500D03*
%TO.P,U2,144,VDD*%
%TO.N,+3.3V*%
X144750000Y-79337500D03*
%TD*%
D28*
%TO.P,C33,1*%
%TO.N,GND*%
X181325000Y-83250000D03*
%TO.P,C33,2*%
%TO.N,Net-(U8-VDD)*%
X179250000Y-83250000D03*
%TD*%
%TO.P,C19,1*%
%TO.N,V_5V*%
X162975000Y-112350000D03*
%TO.P,C19,2*%
%TO.N,GND*%
X160900000Y-112350000D03*
%TD*%
D37*
%TO.P,C16,1*%
%TO.N,+3.3V*%
X141000000Y-96725000D03*
%TO.P,C16,2*%
%TO.N,GND*%
X141000000Y-95000000D03*
%TD*%
D16*
%TO.P,C38,1*%
%TO.N,/ExtraPeriphs/button1*%
X131250000Y-65925000D03*
%TO.P,C38,2*%
%TO.N,GND*%
X131250000Y-68000000D03*
%TD*%
D19*
%TO.P,C7,1*%
%TO.N,+3.3V*%
X155775000Y-77250000D03*
%TO.P,C7,2*%
%TO.N,GND*%
X157500000Y-77250000D03*
%TD*%
D38*
%TO.P,SWBOOT1,*%
%TO.N,*%
X140100000Y-64100000D03*
X137890000Y-64100000D03*
X140100000Y-71400000D03*
X137890000Y-71400000D03*
D39*
%TO.P,SWBOOT1,1,A*%
%TO.N,GND*%
X140750000Y-65500000D03*
%TO.P,SWBOOT1,2,B*%
%TO.N,Net-(SWBOOT1-B)*%
X140750000Y-68500000D03*
%TO.P,SWBOOT1,3,C*%
%TO.N,+3.3V*%
X140750000Y-70000000D03*
%TD*%
D37*
%TO.P,C11,1*%
%TO.N,+3.3V*%
X141000000Y-89975000D03*
%TO.P,C11,2*%
%TO.N,GND*%
X141000000Y-88250000D03*
%TD*%
D26*
%TO.P,D6,1,K*%
%TO.N,Net-(D6-K)*%
X131750000Y-83500000D03*
D27*
%TO.P,D6,2,A*%
%TO.N,Net-(D6-A)*%
X124130000Y-83500000D03*
%TD*%
D37*
%TO.P,C6,1*%
%TO.N,+3.3V*%
X166000000Y-82725000D03*
%TO.P,C6,2*%
%TO.N,GND*%
X166000000Y-81000000D03*
%TD*%
D29*
%TO.P,R1,1*%
%TO.N,NRST*%
X141250000Y-104750000D03*
%TO.P,R1,2*%
%TO.N,+3.3V*%
X139250000Y-104750000D03*
%TD*%
D18*
%TO.P,C28,1*%
%TO.N,V_5V*%
X182362500Y-94900000D03*
%TO.P,C28,2*%
%TO.N,GND*%
X184437500Y-94900000D03*
%TD*%
D40*
%TO.P,R22,1*%
%TO.N,Net-(D6-A)*%
X125000000Y-88250000D03*
%TO.P,R22,2*%
%TO.N,GND*%
X125000000Y-90250000D03*
%TD*%
D41*
%TO.P,U6,1,OUT*%
%TO.N,V_5V*%
X181200001Y-97107700D03*
%TO.P,U6,2,VPCC*%
%TO.N,VBUS*%
X180699999Y-97107700D03*
%TO.P,U6,3,SEL*%
%TO.N,GND*%
X180200000Y-97107700D03*
%TO.P,U6,4,PROG2*%
%TO.N,Net-(U6-PROG2)*%
X179700001Y-97107700D03*
%TO.P,U6,5,THERM*%
%TO.N,Net-(U6-THERM)*%
X179199999Y-97107700D03*
D42*
%TO.P,U6,6,\u002APG*%
%TO.N,/LipoPower/Recharge_PG*%
X178307700Y-97999999D03*
%TO.P,U6,7,STAT2*%
%TO.N,/LipoPower/Recharge_ST2*%
X178307700Y-98500001D03*
%TO.P,U6,8,STAT1/\u002ALBO*%
%TO.N,/LipoPower/Recharge_ST1*%
X178307700Y-99000000D03*
%TO.P,U6,9,\u002ATE*%
%TO.N,VBUS*%
X178307700Y-99499999D03*
%TO.P,U6,10,VSS*%
%TO.N,GND*%
X178307700Y-100000001D03*
D41*
%TO.P,U6,11,VSS*%
X179199999Y-100892300D03*
%TO.P,U6,12,PROG3*%
%TO.N,Net-(U6-PROG3)*%
X179700001Y-100892300D03*
%TO.P,U6,13,PROG1*%
%TO.N,Net-(U6-PROG1)*%
X180200000Y-100892300D03*
%TO.P,U6,14,VBAT*%
%TO.N,V_Batt*%
X180699999Y-100892300D03*
%TO.P,U6,15,VBAT*%
X181200001Y-100892300D03*
D42*
%TO.P,U6,16,VBAT_SENSE*%
X182092300Y-100000001D03*
%TO.P,U6,17,CE*%
%TO.N,VBUS*%
X182092300Y-99499999D03*
%TO.P,U6,18,IN*%
X182092300Y-99000000D03*
%TO.P,U6,19,IN*%
X182092300Y-98500001D03*
%TO.P,U6,20,OUT*%
%TO.N,V_5V*%
X182092300Y-97999999D03*
D43*
%TO.P,U6,21,EP*%
%TO.N,GND*%
X180200000Y-99000000D03*
%TD*%
D26*
%TO.P,D5,1,K*%
%TO.N,Net-(D5-K)*%
X131560000Y-72250000D03*
D27*
%TO.P,D5,2,A*%
%TO.N,Net-(D5-A)*%
X123940000Y-72250000D03*
%TD*%
D25*
%TO.P,C3,1*%
%TO.N,GND*%
X138000000Y-95500000D03*
%TO.P,C3,2*%
%TO.N,Net-(U2-PH1)*%
X138000000Y-93425000D03*
%TD*%
D17*
%TO.P,R19,1*%
%TO.N,/ExtraPeriphs/SD_SCK*%
X150500000Y-69900000D03*
%TO.P,R19,2*%
%TO.N,Net-(U9-2A)*%
X152500000Y-69900000D03*
%TD*%
D44*
%TO.P,U1,1,1*%
%TO.N,NRST*%
X141308400Y-106737300D03*
%TO.P,U1,2,2*%
%TO.N,GND*%
X141308400Y-113100000D03*
%TO.P,U1,3,3*%
%TO.N,unconnected-(U1-Pad3)*%
X137600000Y-106737300D03*
%TO.P,U1,4,4*%
%TO.N,unconnected-(U1-Pad4)*%
X137600000Y-113100000D03*
%TD*%
D17*
%TO.P,R15,1*%
%TO.N,+3.3V*%
X174300000Y-112260000D03*
%TO.P,R15,2*%
%TO.N,/LipoPower/Monitor_GPOUT*%
X176300000Y-112260000D03*
%TD*%
D40*
%TO.P,R20,1*%
%TO.N,Net-(D4-A)*%
X124750000Y-65750000D03*
%TO.P,R20,2*%
%TO.N,GND*%
X124750000Y-67750000D03*
%TD*%
D45*
%TO.P,C10,1*%
%TO.N,+3.3V*%
X166000000Y-92500000D03*
%TO.P,C10,2*%
%TO.N,GND*%
X166000000Y-94225000D03*
%TD*%
%TO.P,C4,1*%
%TO.N,+3.3V*%
X166000000Y-87025000D03*
%TO.P,C4,2*%
%TO.N,GND*%
X166000000Y-88750000D03*
%TD*%
D17*
%TO.P,R26,1*%
%TO.N,Net-(U9-4A)*%
X165000000Y-68900000D03*
%TO.P,R26,2*%
%TO.N,DO_LLS*%
X167000000Y-68900000D03*
%TD*%
D46*
%TO.P,U10,1,EN*%
%TO.N,V_5V*%
X160824999Y-114224998D03*
%TO.P,U10,2,MODE*%
%TO.N,GND*%
X160824999Y-114725000D03*
%TO.P,U10,3,AGND*%
X160824999Y-115224999D03*
%TO.P,U10,4,PG*%
%TO.N,Net-(U10-PG)*%
X160824999Y-115724998D03*
%TO.P,U10,5,FB*%
%TO.N,Net-(U10-FB)*%
X160824999Y-116225000D03*
D47*
%TO.P,U10,6,VOUT*%
%TO.N,+3.3V*%
X162475001Y-116225000D03*
%TO.P,U10,7,L2*%
%TO.N,Net-(U10-L2)*%
X162475001Y-115724998D03*
D48*
%TO.P,U10,8,GND*%
%TO.N,GND*%
X162274999Y-115224999D03*
D47*
%TO.P,U10,9,L1*%
%TO.N,Net-(U10-L1)*%
X162475001Y-114725000D03*
%TO.P,U10,10,VIN*%
%TO.N,V_5V*%
X162475001Y-114224998D03*
%TD*%
D17*
%TO.P,R14,1*%
%TO.N,GND*%
X175700000Y-93600000D03*
%TO.P,R14,2*%
%TO.N,Net-(U6-PROG2)*%
X177700000Y-93600000D03*
%TD*%
%TO.P,R27,1*%
%TO.N,Net-(U9-3A)*%
X162700000Y-71100000D03*
%TO.P,R27,2*%
%TO.N,/ExtraPeriphs/SD_CS*%
X164700000Y-71100000D03*
%TD*%
D40*
%TO.P,R21,1*%
%TO.N,Net-(D5-A)*%
X124750000Y-77000000D03*
%TO.P,R21,2*%
%TO.N,GND*%
X124750000Y-79000000D03*
%TD*%
D20*
%TO.P,C17,1*%
%TO.N,+3.3V*%
X141000000Y-98250000D03*
%TO.P,C17,2*%
%TO.N,GND*%
X139275000Y-98250000D03*
%TD*%
D49*
%TO.P,CARD1,1,DAT2*%
%TO.N,unconnected-(CARD1-DAT2-Pad1)*%
X155400000Y-60500000D03*
%TO.P,CARD1,2,CD/DAT3*%
%TO.N,CS_LLS*%
X156500000Y-60500000D03*
%TO.P,CARD1,3,CMD*%
%TO.N,DI_LLS*%
X157600000Y-60500000D03*
%TO.P,CARD1,4,VDD*%
%TO.N,+3.3V*%
X158700000Y-60500000D03*
%TO.P,CARD1,5,CLK*%
%TO.N,SCK_LLS*%
X159800000Y-60500000D03*
%TO.P,CARD1,6,VSS*%
%TO.N,GND*%
X160900000Y-60500000D03*
%TO.P,CARD1,7,DAT0*%
%TO.N,DO_LLS*%
X162000000Y-60500000D03*
%TO.P,CARD1,8,DAT1*%
%TO.N,unconnected-(CARD1-DAT1-Pad8)*%
X163100000Y-60500000D03*
%TO.P,CARD1,9,CD*%
%TO.N,unconnected-(CARD1-CD-Pad9)*%
X164200000Y-60500000D03*
D50*
%TO.P,CARD1,10,GND*%
%TO.N,GND*%
X165400000Y-59500000D03*
D51*
%TO.P,CARD1,11,GND*%
X165400000Y-49900000D03*
D52*
%TO.P,CARD1,12,GND*%
X150800000Y-59500000D03*
D51*
%TO.P,CARD1,13,GND*%
X149900000Y-49900000D03*
%TD*%
D40*
%TO.P,R17,1*%
%TO.N,Net-(U6-PROG1)*%
X179600000Y-103100000D03*
%TO.P,R17,2*%
%TO.N,GND*%
X179600000Y-105100000D03*
%TD*%
D17*
%TO.P,R23,1*%
%TO.N,Net-(D4-K)*%
X128750000Y-63750000D03*
%TO.P,R23,2*%
%TO.N,/ExtraPeriphs/button1*%
X130750000Y-63750000D03*
%TD*%
D53*
%TO.P,J7,1,VBUS*%
%TO.N,VBUS*%
X188510000Y-88750000D03*
%TO.P,J7,2,D-*%
%TO.N,/USB-UART/USB_D-*%
X188510000Y-86250000D03*
%TO.P,J7,3,D+*%
%TO.N,/USB-UART/USB_D+*%
X188510000Y-84250000D03*
%TO.P,J7,4,GND*%
%TO.N,GND*%
X188510000Y-81750000D03*
D54*
%TO.P,J7,5,Shield*%
%TO.N,unconnected-(J7-Shield-Pad5)_1*%
X192210000Y-91650000D03*
%TO.N,unconnected-(J7-Shield-Pad5)*%
X192210000Y-78850000D03*
%TD*%
D55*
%TO.P,Y1,1*%
%TO.N,Net-(U2-PH0)*%
X135800000Y-91600000D03*
%TO.P,Y1,2*%
%TO.N,Net-(U2-PH1)*%
X135800000Y-92800000D03*
%TD*%
D17*
%TO.P,R29,1*%
%TO.N,Net-(D7-K)*%
X130550000Y-99025000D03*
%TO.P,R29,2*%
%TO.N,/ExtraPeriphs/switch*%
X132550000Y-99025000D03*
%TD*%
%TO.P,R11,1*%
%TO.N,BATTERY_IN*%
X180200000Y-109100000D03*
%TO.P,R11,2*%
%TO.N,V_Batt*%
X182200000Y-109100000D03*
%TD*%
D28*
%TO.P,C31,1*%
%TO.N,GND*%
X181325000Y-81000000D03*
%TO.P,C31,2*%
%TO.N,Net-(U8-VDD)*%
X179250000Y-81000000D03*
%TD*%
D17*
%TO.P,Rr1,1*%
%TO.N,/ExtraPeriphs/SD_MOSI*%
X150700000Y-67700000D03*
%TO.P,Rr1,2*%
%TO.N,Net-(U9-1A)*%
X152700000Y-67700000D03*
%TD*%
%TO.P,R6,1*%
%TO.N,Net-(U10-PG)*%
X156250000Y-110000000D03*
%TO.P,R6,2*%
%TO.N,V_5V*%
X158250000Y-110000000D03*
%TD*%
D37*
%TO.P,C5,1*%
%TO.N,+3.3V*%
X164500000Y-80000000D03*
%TO.P,C5,2*%
%TO.N,GND*%
X164500000Y-78275000D03*
%TD*%
D56*
%TO.P,U9,1,\u002A1OE*%
%TO.N,GND*%
X154715950Y-67064899D03*
%TO.P,U9,2,1A*%
%TO.N,Net-(U9-1A)*%
X154715950Y-67714900D03*
%TO.P,U9,3,1Y*%
%TO.N,DI_LLS*%
X154715950Y-68364901D03*
%TO.P,U9,4,\u002A2OE*%
%TO.N,GND*%
X154715950Y-69014900D03*
%TO.P,U9,5,2A*%
%TO.N,Net-(U9-2A)*%
X154715950Y-69664899D03*
%TO.P,U9,6,2Y*%
%TO.N,SCK_LLS*%
X154715950Y-70314900D03*
%TO.P,U9,7,GND*%
%TO.N,GND*%
X154715950Y-70964899D03*
%TO.P,U9,8,3Y*%
%TO.N,CS_LLS*%
X160621450Y-70964901D03*
%TO.P,U9,9,3A*%
%TO.N,Net-(U9-3A)*%
X160621450Y-70314900D03*
%TO.P,U9,10,\u002A3OE*%
%TO.N,GND*%
X160621450Y-69664901D03*
%TO.P,U9,11,4Y*%
%TO.N,/ExtraPeriphs/SD_MISO*%
X160621450Y-69014900D03*
%TO.P,U9,12,4A*%
%TO.N,Net-(U9-4A)*%
X160621450Y-68364901D03*
%TO.P,U9,13,\u002A4OE*%
%TO.N,GND*%
X160621450Y-67714900D03*
%TO.P,U9,14,VCC*%
%TO.N,+3.3V*%
X160621450Y-67064901D03*
%TD*%
D16*
%TO.P,C35,1*%
%TO.N,Net-(D4-K)*%
X129000000Y-65925000D03*
%TO.P,C35,2*%
%TO.N,GND*%
X129000000Y-68000000D03*
%TD*%
D20*
%TO.P,C15,1*%
%TO.N,+3.3V*%
X146250000Y-102500000D03*
%TO.P,C15,2*%
%TO.N,GND*%
X144525000Y-102500000D03*
%TD*%
D16*
%TO.P,C40,1*%
%TO.N,/ExtraPeriphs/button3*%
X131500000Y-88175000D03*
%TO.P,C40,2*%
%TO.N,GND*%
X131500000Y-90250000D03*
%TD*%
D40*
%TO.P,R8,1*%
%TO.N,/LipoPower/Monitor_SCL*%
X178200000Y-118100000D03*
%TO.P,R8,2*%
%TO.N,+3.3V*%
X178200000Y-120100000D03*
%TD*%
D26*
%TO.P,D7,1,K*%
%TO.N,Net-(D7-K)*%
X132030499Y-96400000D03*
D27*
%TO.P,D7,2,A*%
%TO.N,Net-(D7-A)*%
X124410499Y-96400000D03*
%TD*%
D20*
%TO.P,C14,1*%
%TO.N,+3.3V*%
X157750000Y-102500000D03*
%TO.P,C14,2*%
%TO.N,GND*%
X156025000Y-102500000D03*
%TD*%
D16*
%TO.P,C43,1*%
%TO.N,/ExtraPeriphs/switch*%
X132800000Y-101025000D03*
%TO.P,C43,2*%
%TO.N,GND*%
X132800000Y-103100000D03*
%TD*%
D40*
%TO.P,R28,1*%
%TO.N,Net-(D7-A)*%
X124700000Y-100100000D03*
%TO.P,R28,2*%
%TO.N,GND*%
X124700000Y-102100000D03*
%TD*%
D57*
%TO.P,L1,1,1*%
%TO.N,Net-(U10-L1)*%
X167153700Y-114100000D03*
%TO.P,L1,2,2*%
%TO.N,Net-(U10-L2)*%
X167153700Y-116792400D03*
%TD*%
D58*
%TO.P,U7,1,I/O1*%
%TO.N,/USB-UART/USB_D+*%
X182337500Y-86950000D03*
%TO.P,U7,2,GND*%
%TO.N,GND*%
X182337500Y-86000000D03*
%TO.P,U7,3,I/O2*%
%TO.N,/USB-UART/USB_D-*%
X182337500Y-85050000D03*
%TO.P,U7,4,I/O2*%
X180062500Y-85050000D03*
%TO.P,U7,5,VBUS*%
%TO.N,VBUS*%
X180062500Y-86000000D03*
%TO.P,U7,6,I/O1*%
%TO.N,/USB-UART/USB_D+*%
X180062500Y-86950000D03*
%TD*%
D20*
%TO.P,C12,1*%
%TO.N,+3.3V*%
X152750000Y-102500000D03*
%TO.P,C12,2*%
%TO.N,GND*%
X151025000Y-102500000D03*
%TD*%
D59*
%TO.N,+3.3V*%
X153650000Y-116500000D03*
%TO.N,GND*%
X151250000Y-116550000D03*
%TO.N,+3.3V*%
X191500000Y-62800000D03*
%TO.N,GND*%
X191450000Y-60250000D03*
%TO.N,NRST*%
X191400000Y-57850000D03*
%TO.N,SWDIO*%
X191350000Y-55200000D03*
%TO.N,SWCLK*%
X191400000Y-52750000D03*
%TO.N,/MCU/Eink_RST*%
X148750000Y-116450000D03*
D60*
%TO.N,Extra_3*%
X147900000Y-80600000D03*
D59*
%TO.N,/MCU/SPI1_MOSI*%
X143450000Y-116450000D03*
D60*
%TO.N,I2C4_SCL*%
X144350000Y-86250000D03*
D59*
%TO.N,/MCU/SPI1_NSS*%
X134450000Y-116500000D03*
%TO.N,/ExtraPeriphs/SD_MISO*%
X153409620Y-74890380D03*
D60*
X157400000Y-70900000D03*
%TO.N,SWDIO*%
X162800000Y-81900000D03*
D59*
%TO.N,/MCU/USART1_RX*%
X168900000Y-84300000D03*
X174300000Y-89900000D03*
D60*
%TO.N,SWCLK*%
X162900000Y-80782806D03*
%TO.N,/ExtraPeriphs/SD_CS*%
X155100000Y-81500000D03*
D59*
X164700000Y-73400000D03*
D60*
%TO.N,NRST*%
X145100000Y-93600000D03*
X142200000Y-100100000D03*
%TO.N,GND*%
X157500000Y-76000000D03*
X183700000Y-86000000D03*
D61*
X178200000Y-85900000D03*
D59*
X174500000Y-84925900D03*
D60*
X148400000Y-49600000D03*
X144100000Y-95700000D03*
D61*
X144400000Y-103800000D03*
D60*
X177400000Y-101300000D03*
X162300000Y-69700000D03*
X182600000Y-83400000D03*
X132800000Y-67900000D03*
X154300000Y-66100000D03*
X152000000Y-76300000D03*
X182700000Y-80900000D03*
X186000000Y-80100000D03*
D61*
X136900000Y-89800000D03*
D60*
X179600000Y-106800000D03*
X146400000Y-73650000D03*
X139000000Y-100100000D03*
X167500000Y-81100000D03*
X127300000Y-68000000D03*
D61*
X141700000Y-114400000D03*
D60*
X166650000Y-49300000D03*
D59*
X180200000Y-99000000D03*
D61*
X161175000Y-118050000D03*
X158000000Y-112850000D03*
D60*
X178900000Y-116800000D03*
D61*
X161550000Y-117050000D03*
D60*
X132600000Y-78900000D03*
D59*
X188900000Y-102100000D03*
D60*
X154800000Y-102500000D03*
D61*
X161550000Y-115550000D03*
X136400000Y-95900000D03*
X161550000Y-116300000D03*
D60*
X127300000Y-78900000D03*
X149800000Y-102500000D03*
X126500000Y-90600000D03*
X167100000Y-88600000D03*
X165600000Y-78400000D03*
X156100000Y-69400000D03*
D61*
X126200000Y-102400000D03*
D60*
X139700000Y-88300000D03*
X160100000Y-102500000D03*
D61*
X179900000Y-93700000D03*
D60*
X139700000Y-95000000D03*
D61*
X161550000Y-114700000D03*
X160900000Y-112350000D03*
D60*
X127300000Y-89900000D03*
D61*
X138200000Y-99400000D03*
D60*
X173800000Y-93700000D03*
X128869501Y-103025001D03*
D61*
X173200000Y-79800000D03*
D60*
X164000000Y-67400000D03*
X167200000Y-94100000D03*
X182100000Y-120100000D03*
D61*
X161600000Y-113800000D03*
D60*
X164300000Y-115200000D03*
X184200000Y-93200000D03*
D61*
X173200000Y-78200000D03*
D60*
X134269501Y-103125001D03*
X132900000Y-90600000D03*
X161000000Y-62100000D03*
X142300000Y-65500000D03*
X166700000Y-59400000D03*
X126200000Y-67400000D03*
X126200000Y-78700000D03*
D61*
X151350000Y-60850000D03*
D60*
X153850000Y-72000000D03*
%TO.N,USART2_TX*%
X156800000Y-80700000D03*
D59*
%TO.N,/MCU/Eink_Busy*%
X141050000Y-116550000D03*
D61*
%TO.N,V_5V*%
X183600000Y-96800000D03*
D59*
X174100000Y-105200000D03*
D60*
%TO.N,/MCU/SPI1_SCK*%
X148400000Y-99000000D03*
D59*
X138300000Y-116450000D03*
D60*
%TO.N,Extra_1*%
X145700000Y-80800000D03*
D59*
%TO.N,/MCU/Eink_D{slash}C*%
X146150000Y-116450000D03*
D60*
%TO.N,Extra_4*%
X148700000Y-80800000D03*
%TO.N,/LipoPower/Recharge_ST1*%
X167100000Y-96400000D03*
X175500000Y-99200000D03*
%TO.N,Extra_2*%
X146500000Y-81000000D03*
%TO.N,USART2_RX*%
X155400000Y-80600000D03*
%TO.N,+3.3V*%
X143600000Y-74000000D03*
X159000000Y-102500000D03*
D61*
X161400000Y-119800000D03*
D60*
X172900000Y-109200000D03*
X167200000Y-86800000D03*
X141000000Y-99500000D03*
X142400000Y-71900000D03*
X166200000Y-91300000D03*
X176500000Y-120100000D03*
D61*
X166450000Y-120500000D03*
D60*
X139800000Y-96800000D03*
X119200000Y-62900000D03*
X141200000Y-83700000D03*
D61*
X166700000Y-79050000D03*
X158500000Y-62100000D03*
D60*
X164200000Y-102500000D03*
X119600000Y-74100000D03*
X119450000Y-96600000D03*
D61*
X168900000Y-119200000D03*
X164600000Y-119500000D03*
D60*
X154000000Y-102600000D03*
X155800000Y-75650000D03*
X146000000Y-103700000D03*
X119700000Y-84800000D03*
X137900000Y-103600000D03*
X167200000Y-82700000D03*
D61*
X163200000Y-120500000D03*
D60*
X164100000Y-65600000D03*
X141200000Y-91200000D03*
X150300000Y-76350000D03*
%TO.N,I2C4_SDA*%
X145300000Y-84800000D03*
%TO.N,Extra_5*%
X149500000Y-80700000D03*
D59*
%TO.N,V_Batt*%
X184800000Y-103200000D03*
X184300000Y-108100000D03*
D60*
%TO.N,VBUS*%
X175800000Y-100100000D03*
D59*
X182500000Y-88700000D03*
D60*
X181200000Y-86400000D03*
%TO.N,/LipoPower/Monitor_GPOUT*%
X162400000Y-95900000D03*
X170100000Y-113100000D03*
%TO.N,SPI2_NSS*%
X161100000Y-81400000D03*
%TO.N,SPI2_MOSI*%
X157900000Y-80700000D03*
%TO.N,SPI2_MISO*%
X158660000Y-81674386D03*
%TO.N,SPI2_SCK*%
X159600000Y-82300000D03*
%TO.N,/LipoPower/Monitor_SDA*%
X162200000Y-93600000D03*
X173050000Y-114400000D03*
%TO.N,/LipoPower/Monitor_SCL*%
X162197557Y-94700000D03*
X175700000Y-118100000D03*
D61*
%TO.N,/USB-UART/USB_D+*%
X185000000Y-86900000D03*
X185100000Y-84300000D03*
D60*
%TO.N,CS_LLS*%
X159000000Y-70800000D03*
D59*
X155700000Y-63700000D03*
D61*
%TO.N,Net-(U10-PG)*%
X156250000Y-111850000D03*
X159650000Y-116000000D03*
%TD*%
D62*
%TO.N,V_5V*%
X162975000Y-110725000D02*
X162975000Y-112350000D01*
X158250000Y-110000000D02*
X162250000Y-110000000D01*
X162250000Y-110000000D02*
X162975000Y-110725000D01*
D63*
%TO.N,GND*%
X158200000Y-114450000D02*
X157900000Y-114150000D01*
X159500000Y-114450000D02*
X158200000Y-114450000D01*
D64*
%TO.N,+3.3V*%
X153650000Y-118700000D02*
X153650000Y-116500000D01*
X153650000Y-118970000D02*
X153650000Y-118700000D01*
X152020000Y-120600000D02*
X153650000Y-118970000D01*
%TO.N,GND*%
X150550000Y-117250000D02*
X151250000Y-116550000D01*
X150550000Y-119530000D02*
X150550000Y-118600000D01*
X150550000Y-118600000D02*
X150550000Y-117250000D01*
X149480000Y-120600000D02*
X150550000Y-119530000D01*
D63*
%TO.N,/MCU/Eink_RST*%
X148750000Y-118790000D02*
X146940000Y-120600000D01*
X148750000Y-116450000D02*
X148750000Y-118790000D01*
%TO.N,/MCU/Eink_D{slash}C*%
X146150000Y-118850000D02*
X144400000Y-120600000D01*
X146150000Y-116450000D02*
X146150000Y-118850000D01*
%TO.N,/MCU/Eink_RST*%
X147000000Y-111200000D02*
X147000000Y-107700000D01*
X147000000Y-107700000D02*
X148750000Y-105950000D01*
X148750000Y-105950000D02*
X148750000Y-100662500D01*
X148750000Y-112950000D02*
X147000000Y-111200000D01*
X148750000Y-116450000D02*
X148750000Y-112950000D01*
%TO.N,/MCU/Eink_D{slash}C*%
X148300000Y-100712500D02*
X148250000Y-100662500D01*
X146000000Y-107500000D02*
X148300000Y-105200000D01*
X146150000Y-116450000D02*
X146150000Y-111950000D01*
X148300000Y-105200000D02*
X148300000Y-100712500D01*
X146150000Y-111950000D02*
X146000000Y-111800000D01*
X146000000Y-111800000D02*
X146000000Y-107500000D01*
%TO.N,/MCU/SPI1_MOSI*%
X142650000Y-119810000D02*
X141860000Y-120600000D01*
X142650000Y-117250000D02*
X142650000Y-119810000D01*
X143450000Y-116450000D02*
X142650000Y-117250000D01*
X147750000Y-104750000D02*
X147750000Y-100662500D01*
X143450000Y-116450000D02*
X144800000Y-115100000D01*
X144800000Y-115100000D02*
X144800000Y-107700000D01*
X144800000Y-107700000D02*
X147750000Y-104750000D01*
%TO.N,/MCU/Eink_Busy*%
X141050000Y-118870000D02*
X139320000Y-120600000D01*
X141050000Y-116550000D02*
X141050000Y-118870000D01*
X143300000Y-114300000D02*
X143300000Y-108300000D01*
X141050000Y-116550000D02*
X143300000Y-114300000D01*
X143300000Y-108300000D02*
X147250000Y-104350000D01*
X147250000Y-104350000D02*
X147250000Y-100662500D01*
%TO.N,/MCU/SPI1_SCK*%
X138300000Y-119080000D02*
X136780000Y-120600000D01*
X138300000Y-116450000D02*
X138300000Y-119080000D01*
%TO.N,/MCU/SPI1_NSS*%
X134240000Y-116710000D02*
X134240000Y-120600000D01*
X134450000Y-116500000D02*
X134240000Y-116710000D01*
X146250000Y-99925001D02*
X146250000Y-100662500D01*
X144250000Y-99550000D02*
X145874999Y-99550000D01*
X142720000Y-101080000D02*
X144250000Y-99550000D01*
X134450000Y-116500000D02*
X136220000Y-116500000D01*
X142720000Y-110000000D02*
X142720000Y-101080000D01*
X136220000Y-116500000D02*
X142720000Y-110000000D01*
X145874999Y-99550000D02*
X146250000Y-99925001D01*
D65*
%TO.N,+3.3V*%
X191580000Y-62880000D02*
X191500000Y-62800000D01*
X198650000Y-62880000D02*
X191580000Y-62880000D01*
%TO.N,GND*%
X191540000Y-60340000D02*
X191450000Y-60250000D01*
X198650000Y-60340000D02*
X191540000Y-60340000D01*
D63*
%TO.N,NRST*%
X192600000Y-57850000D02*
X192650000Y-57800000D01*
X192650000Y-57800000D02*
X198650000Y-57800000D01*
X191400000Y-57850000D02*
X192600000Y-57850000D01*
%TO.N,SWDIO*%
X191350000Y-55200000D02*
X193900000Y-55200000D01*
X193960000Y-55260000D02*
X198650000Y-55260000D01*
X193900000Y-55200000D02*
X193960000Y-55260000D01*
%TO.N,SWCLK*%
X191430000Y-52720000D02*
X198650000Y-52720000D01*
X191400000Y-52750000D02*
X191430000Y-52720000D01*
D64*
%TO.N,BATTERY_IN*%
X188200000Y-105500000D02*
X190150000Y-105500000D01*
X190150000Y-105500000D02*
X190300000Y-105650000D01*
X190300000Y-105650000D02*
X192600000Y-105650000D01*
D65*
%TO.N,GND*%
X190450000Y-103650000D02*
X188900000Y-102100000D01*
X192600000Y-103650000D02*
X190450000Y-103650000D01*
D66*
%TO.N,+3.3V*%
X118750000Y-97300000D02*
X117200000Y-97300000D01*
X119450000Y-96600000D02*
X118750000Y-97300000D01*
%TO.N,Net-(D7-A)*%
X120200000Y-100900000D02*
X117200000Y-100900000D01*
X121100000Y-100000000D02*
X120200000Y-100900000D01*
%TO.N,+3.3V*%
X119700000Y-84800000D02*
X119150000Y-85350000D01*
X119150000Y-85350000D02*
X117350000Y-85350000D01*
%TO.N,Net-(D6-A)*%
X120150000Y-88950000D02*
X117350000Y-88950000D01*
X121000000Y-88100000D02*
X120150000Y-88950000D01*
%TO.N,+3.3V*%
X119050000Y-74650000D02*
X117250000Y-74650000D01*
X119600000Y-74100000D02*
X119050000Y-74650000D01*
%TO.N,Net-(D5-A)*%
X119650000Y-78250000D02*
X117250000Y-78250000D01*
X120900000Y-77000000D02*
X119650000Y-78250000D01*
%TO.N,Net-(D4-A)*%
X119750000Y-66950000D02*
X117150000Y-66950000D01*
X120900000Y-65800000D02*
X119750000Y-66950000D01*
%TO.N,+3.3V*%
X119200000Y-62900000D02*
X118750000Y-63350000D01*
X118750000Y-63350000D02*
X117150000Y-63350000D01*
%TO.N,Extra_3*%
X147750000Y-79337500D02*
X147750000Y-80450000D01*
X147750000Y-80450000D02*
X147900000Y-80600000D01*
D63*
%TO.N,I2C4_SCL*%
X142837500Y-86250000D02*
X144350000Y-86250000D01*
%TO.N,/MCU/USART1_TX*%
X174500000Y-88300000D02*
X174300000Y-88500000D01*
X167050000Y-84750000D02*
X164162500Y-84750000D01*
X174500000Y-87250000D02*
X174500000Y-88300000D01*
X174300000Y-88500000D02*
X170800000Y-88500000D01*
X170800000Y-88500000D02*
X167050000Y-84750000D01*
D66*
%TO.N,/ExtraPeriphs/SD_MISO*%
X154250000Y-76250000D02*
X153409620Y-75409620D01*
X154250000Y-76250000D02*
X154250000Y-79337500D01*
X153409620Y-75409620D02*
X153409620Y-74890380D01*
X157400000Y-70900000D02*
X159285100Y-69014900D01*
X159285100Y-69014900D02*
X160621450Y-69014900D01*
D63*
%TO.N,SWDIO*%
X162700000Y-82500000D02*
X162700000Y-82000000D01*
X162800000Y-82600000D02*
X162700000Y-82500000D01*
X164162500Y-82750000D02*
X162950000Y-82750000D01*
X162950000Y-82750000D02*
X162800000Y-82600000D01*
%TO.N,/MCU/USART1_RX*%
X174999999Y-87250000D02*
X174999999Y-89200001D01*
X168900000Y-84300000D02*
X167600000Y-84300000D01*
X174999999Y-89200001D02*
X174300000Y-89900000D01*
X167600000Y-84300000D02*
X167550000Y-84250000D01*
X167550000Y-84250000D02*
X164162500Y-84250000D01*
%TO.N,SWCLK*%
X162250000Y-80600000D02*
X162250000Y-79337500D01*
X162432806Y-80782806D02*
X162250000Y-80600000D01*
X162900000Y-80782806D02*
X162432806Y-80782806D01*
%TO.N,/ExtraPeriphs/SD_CS*%
X153800000Y-81500000D02*
X153900000Y-81500000D01*
X153250000Y-80950000D02*
X153500000Y-81200000D01*
X153500000Y-81200000D02*
X153800000Y-81500000D01*
X153900000Y-81500000D02*
X155100000Y-81500000D01*
X164700000Y-73400000D02*
X164700000Y-71100000D01*
X153250000Y-79337500D02*
X153250000Y-80950000D01*
%TO.N,NRST*%
X141308400Y-106737300D02*
X141308400Y-104808400D01*
D66*
X142837500Y-93250000D02*
X144750000Y-93250000D01*
X142200000Y-100100000D02*
X141700000Y-100100000D01*
D63*
X141250000Y-101750000D02*
X141250000Y-104750000D01*
X141308400Y-104808400D02*
X141250000Y-104750000D01*
D66*
X144750000Y-93250000D02*
X145100000Y-93600000D01*
X141250000Y-100550000D02*
X141250000Y-101750000D01*
X141700000Y-100100000D02*
X141250000Y-100550000D01*
D63*
%TO.N,GND*%
X183675000Y-118525000D02*
X182100000Y-120100000D01*
D66*
X160900000Y-62000000D02*
X161000000Y-62100000D01*
D63*
X173800000Y-94800000D02*
X173800000Y-93700000D01*
D62*
X146000000Y-75600000D02*
X146100000Y-75500000D01*
D66*
X127650000Y-90250000D02*
X127300000Y-89900000D01*
D63*
X125900000Y-102100000D02*
X126200000Y-102400000D01*
D64*
X162700000Y-67700000D02*
X163700000Y-67700000D01*
D63*
X177200000Y-101100000D02*
X177200000Y-100700000D01*
D66*
X154715950Y-67064899D02*
X154715950Y-66515950D01*
D63*
X151750000Y-79337500D02*
X151750000Y-78400000D01*
D67*
X166100000Y-81100000D02*
X166000000Y-81000000D01*
D66*
X125900000Y-79000000D02*
X126200000Y-78700000D01*
D67*
X165250000Y-81750000D02*
X166000000Y-81000000D01*
D63*
X160824999Y-114725000D02*
X159775000Y-114725000D01*
D66*
X180200000Y-94000000D02*
X179900000Y-93700000D01*
D63*
X141308400Y-113100000D02*
X141308400Y-114008400D01*
D66*
X157900000Y-112950000D02*
X158000000Y-112850000D01*
D63*
X151750000Y-100662500D02*
X151750000Y-101450000D01*
D67*
X167075000Y-94225000D02*
X167200000Y-94100000D01*
D66*
X129000000Y-68000000D02*
X127300000Y-68000000D01*
D63*
X176824100Y-85425899D02*
X177725899Y-85425899D01*
D66*
X154715950Y-66515950D02*
X154300000Y-66100000D01*
D64*
X163700000Y-67700000D02*
X164000000Y-67400000D01*
D66*
X160824999Y-115224999D02*
X158974999Y-115224999D01*
D63*
X142837500Y-95750000D02*
X144050000Y-95750000D01*
D66*
X137200000Y-89500000D02*
X136900000Y-89800000D01*
D63*
X181700000Y-106300000D02*
X180100000Y-106300000D01*
D67*
X164162500Y-81750000D02*
X165250000Y-81750000D01*
D63*
X157500000Y-77250000D02*
X157500000Y-76000000D01*
X144050000Y-95750000D02*
X144100000Y-95700000D01*
D66*
X125000000Y-90250000D02*
X126150000Y-90250000D01*
D63*
X177400000Y-101300000D02*
X177200000Y-101100000D01*
D67*
X164162500Y-88250000D02*
X165500000Y-88250000D01*
D66*
X132550000Y-90250000D02*
X132900000Y-90600000D01*
D63*
X145250000Y-101450000D02*
X145250000Y-100662500D01*
X156750000Y-79337500D02*
X156750000Y-78650000D01*
D66*
X160900000Y-60500000D02*
X160900000Y-62000000D01*
D67*
X184200000Y-93200000D02*
X184200000Y-94662500D01*
D63*
X173250000Y-78250000D02*
X173200000Y-78200000D01*
D67*
X165500000Y-88250000D02*
X166000000Y-88750000D01*
D66*
X138400000Y-89500000D02*
X137200000Y-89500000D01*
D63*
X144525000Y-102500000D02*
X144525000Y-102175000D01*
X140750000Y-65500000D02*
X142300000Y-65500000D01*
D66*
X154715950Y-69014900D02*
X155714900Y-69014900D01*
D68*
X178800000Y-116700000D02*
X178900000Y-116800000D01*
D63*
X182200000Y-105800000D02*
X181700000Y-106300000D01*
D66*
X131500000Y-90250000D02*
X132550000Y-90250000D01*
D67*
X164162500Y-93750000D02*
X165525000Y-93750000D01*
D64*
X160621450Y-67714900D02*
X162685100Y-67714900D01*
D63*
X152500000Y-77650000D02*
X152500000Y-77500000D01*
D65*
X166000000Y-88750000D02*
X166950000Y-88750000D01*
X188510000Y-81750000D02*
X187650000Y-81750000D01*
D63*
X164300000Y-115200000D02*
X164275001Y-115224999D01*
X139700000Y-88300000D02*
X139750000Y-88250000D01*
D66*
X132700000Y-68000000D02*
X132800000Y-67900000D01*
D63*
X144525000Y-102175000D02*
X145250000Y-101450000D01*
X179000000Y-101700000D02*
X179199999Y-101500001D01*
X161750000Y-100662500D02*
X161750000Y-102025000D01*
D64*
X141000000Y-95000000D02*
X139700000Y-95000000D01*
D63*
X179600000Y-106800000D02*
X177800000Y-106800000D01*
D67*
X182337500Y-86000000D02*
X183700000Y-86000000D01*
D65*
X166950000Y-88750000D02*
X167100000Y-88600000D01*
D67*
X165475000Y-78275000D02*
X165600000Y-78400000D01*
D63*
X174675000Y-78250000D02*
X173250000Y-78250000D01*
D64*
X144525000Y-103675000D02*
X144400000Y-103800000D01*
D63*
X174600000Y-95600000D02*
X173800000Y-94800000D01*
D62*
X182600000Y-81000000D02*
X182700000Y-80900000D01*
D66*
X153850000Y-72000000D02*
X154715950Y-71134050D01*
D62*
X146400000Y-73650000D02*
X146100000Y-73950000D01*
D66*
X166600000Y-59500000D02*
X166700000Y-59400000D01*
D63*
X177800000Y-101700000D02*
X179000000Y-101700000D01*
X175700000Y-95600000D02*
X174600000Y-95600000D01*
D66*
X124750000Y-67750000D02*
X125850000Y-67750000D01*
X165400000Y-59500000D02*
X166600000Y-59500000D01*
D62*
X188900000Y-99600000D02*
X188200000Y-98900000D01*
D68*
X178800000Y-115760000D02*
X178800000Y-116700000D01*
D66*
X128750000Y-79075000D02*
X127475000Y-79075000D01*
D63*
X177800000Y-106800000D02*
X177600000Y-106600000D01*
X142837500Y-96250000D02*
X142250000Y-96250000D01*
D66*
X139275000Y-98325000D02*
X138200000Y-99400000D01*
X139275000Y-98250000D02*
X139275000Y-98325000D01*
D63*
X156750000Y-100662500D02*
X156750000Y-101450000D01*
X141308400Y-114008400D02*
X141700000Y-114400000D01*
X145250000Y-79337500D02*
X145250000Y-78250000D01*
X142837500Y-88750000D02*
X142050000Y-88750000D01*
D62*
X182450000Y-83250000D02*
X182600000Y-83400000D01*
X146000000Y-77500000D02*
X146000000Y-75600000D01*
D63*
X179199999Y-101500001D02*
X179199999Y-100892300D01*
D67*
X182035000Y-120035000D02*
X182100000Y-120100000D01*
D62*
X188200000Y-98900000D02*
X185975000Y-98900000D01*
D69*
X178900000Y-116700000D02*
X178800000Y-116600000D01*
D66*
X154715950Y-71134050D02*
X154715950Y-70964899D01*
D64*
X150800000Y-59500000D02*
X150800000Y-60300000D01*
D63*
X142250000Y-96250000D02*
X141000000Y-95000000D01*
X151025000Y-102500000D02*
X149800000Y-102500000D01*
X156750000Y-101450000D02*
X156025000Y-102175000D01*
D66*
X128750000Y-90250000D02*
X127650000Y-90250000D01*
D67*
X184200000Y-94662500D02*
X184437500Y-94900000D01*
D66*
X127475000Y-79075000D02*
X127300000Y-78900000D01*
X136800000Y-95500000D02*
X136400000Y-95900000D01*
D63*
X183675000Y-115300000D02*
X183675000Y-118525000D01*
X142050000Y-88750000D02*
X141550000Y-88250000D01*
X164275001Y-115224999D02*
X162274999Y-115224999D01*
D67*
X164500000Y-78275000D02*
X165475000Y-78275000D01*
D63*
X173900000Y-80500000D02*
X173200000Y-79800000D01*
D66*
X131250000Y-68000000D02*
X132700000Y-68000000D01*
X149900000Y-49900000D02*
X148700000Y-49900000D01*
D63*
X182200000Y-104575000D02*
X182200000Y-105800000D01*
X156750000Y-78650000D02*
X157500000Y-77900000D01*
D62*
X181325000Y-81000000D02*
X182600000Y-81000000D01*
D63*
X180100000Y-106300000D02*
X179600000Y-106800000D01*
X152500000Y-77500000D02*
X152500000Y-76800000D01*
X130550000Y-103025000D02*
X128869502Y-103025000D01*
X151025000Y-102175000D02*
X151025000Y-102500000D01*
D65*
X187650000Y-81750000D02*
X186000000Y-80100000D01*
D63*
X139175000Y-100275000D02*
X139000000Y-100100000D01*
D67*
X166000000Y-94225000D02*
X167075000Y-94225000D01*
D62*
X181325000Y-83250000D02*
X182450000Y-83250000D01*
D64*
X161275000Y-102500000D02*
X160100000Y-102500000D01*
D63*
X141550000Y-88250000D02*
X141000000Y-88250000D01*
X161750000Y-102025000D02*
X161275000Y-102500000D01*
D66*
X166050000Y-49900000D02*
X165400000Y-49900000D01*
D63*
X177600000Y-106600000D02*
X177600000Y-105100000D01*
D69*
X178900000Y-116800000D02*
X178900000Y-116700000D01*
D63*
X177725899Y-85425899D02*
X178200000Y-85900000D01*
D66*
X148700000Y-49900000D02*
X148400000Y-49600000D01*
D63*
X177899999Y-100000001D02*
X178307700Y-100000001D01*
X139175000Y-101750000D02*
X139175000Y-100275000D01*
D66*
X132500000Y-79000000D02*
X132600000Y-78900000D01*
D62*
X188900000Y-102100000D02*
X188900000Y-99600000D01*
D66*
X166650000Y-49300000D02*
X166050000Y-49900000D01*
D64*
X144525000Y-102500000D02*
X144525000Y-103675000D01*
D67*
X180400000Y-120035000D02*
X182035000Y-120035000D01*
D66*
X162264901Y-69664901D02*
X162300000Y-69700000D01*
D63*
X179600000Y-106800000D02*
X179600000Y-105100000D01*
X134244500Y-103100000D02*
X134269501Y-103125001D01*
X132800000Y-103100000D02*
X134244500Y-103100000D01*
D64*
X156025000Y-102500000D02*
X154800000Y-102500000D01*
D63*
X159775000Y-114725000D02*
X159500000Y-114450000D01*
D66*
X125850000Y-67750000D02*
X126200000Y-67400000D01*
X131000000Y-79000000D02*
X132500000Y-79000000D01*
X124750000Y-79000000D02*
X125900000Y-79000000D01*
X157900000Y-114150000D02*
X157900000Y-112950000D01*
D63*
X151750000Y-78400000D02*
X152500000Y-77650000D01*
D62*
X146100000Y-73950000D02*
X146100000Y-75500000D01*
D63*
X151750000Y-101450000D02*
X151025000Y-102175000D01*
D66*
X158974999Y-115224999D02*
X157900000Y-114150000D01*
D63*
X157500000Y-77900000D02*
X157500000Y-77250000D01*
X174675000Y-80500000D02*
X173900000Y-80500000D01*
X124700000Y-102100000D02*
X125900000Y-102100000D01*
D67*
X167500000Y-81100000D02*
X166100000Y-81100000D01*
D66*
X155714900Y-69014900D02*
X156100000Y-69400000D01*
D63*
X177200000Y-100700000D02*
X177899999Y-100000001D01*
X152500000Y-76800000D02*
X152000000Y-76300000D01*
D67*
X165525000Y-93750000D02*
X166000000Y-94225000D01*
D66*
X180200000Y-97107700D02*
X180200000Y-94000000D01*
X126150000Y-90250000D02*
X126500000Y-90600000D01*
X138000000Y-95500000D02*
X136800000Y-95500000D01*
D63*
X177400000Y-101300000D02*
X177800000Y-101700000D01*
X128869502Y-103025000D02*
X128869501Y-103025001D01*
D66*
X160621450Y-69664901D02*
X162264901Y-69664901D01*
D63*
X173800000Y-93700000D02*
X175600000Y-93700000D01*
X175600000Y-93700000D02*
X175700000Y-93600000D01*
X145250000Y-78250000D02*
X146000000Y-77500000D01*
X139750000Y-88250000D02*
X141000000Y-88250000D01*
X156025000Y-102175000D02*
X156025000Y-102500000D01*
D64*
X150800000Y-60300000D02*
X151350000Y-60850000D01*
X162685100Y-67714900D02*
X162700000Y-67700000D01*
D66*
%TO.N,/ExtraPeriphs/button1*%
X131975000Y-65925000D02*
X131250000Y-65925000D01*
X130750000Y-65425000D02*
X131250000Y-65925000D01*
X135700000Y-75000000D02*
X135700000Y-69650000D01*
X141950000Y-81250000D02*
X135700000Y-75000000D01*
X142837500Y-81250000D02*
X141950000Y-81250000D01*
X130750000Y-63750000D02*
X130750000Y-65425000D01*
X135700000Y-69650000D02*
X131975000Y-65925000D01*
%TO.N,USART2_TX*%
X157250000Y-79337500D02*
X157250000Y-80250000D01*
X157250000Y-80250000D02*
X156800000Y-80700000D01*
D62*
%TO.N,V_5V*%
X159550000Y-113200000D02*
X159550000Y-111750000D01*
D66*
X162975000Y-112350000D02*
X164550000Y-112350000D01*
D62*
X169300000Y-105600000D02*
X168750000Y-106150000D01*
X168300000Y-111700000D02*
X165200000Y-111700000D01*
D67*
X182362500Y-94900000D02*
X182362500Y-94962500D01*
D62*
X168750000Y-106150000D02*
X168750000Y-111250000D01*
D63*
X182092300Y-97999999D02*
X182092300Y-95170200D01*
D62*
X168750000Y-111250000D02*
X168300000Y-111700000D01*
X174100000Y-105200000D02*
X173700000Y-105600000D01*
X158250000Y-110450000D02*
X158250000Y-110000000D01*
D66*
X164550000Y-112350000D02*
X165200000Y-111700000D01*
D67*
X181200001Y-95299999D02*
X181600000Y-94900000D01*
X159550000Y-113500000D02*
X159550000Y-113200000D01*
X160824999Y-114224998D02*
X160274998Y-114224998D01*
D63*
X182092300Y-95170200D02*
X182362500Y-94900000D01*
D62*
X183600000Y-96137500D02*
X182362500Y-94900000D01*
D67*
X181600000Y-94900000D02*
X182362500Y-94900000D01*
D62*
X183600000Y-96800000D02*
X183600000Y-96137500D01*
X173700000Y-105600000D02*
X169300000Y-105600000D01*
X159550000Y-111750000D02*
X158250000Y-110450000D01*
D67*
X181200001Y-97107700D02*
X181200001Y-95299999D01*
X159950000Y-113900000D02*
X159550000Y-113500000D01*
X160274998Y-114224998D02*
X159950000Y-113900000D01*
D63*
%TO.N,/MCU/SPI1_SCK*%
X146800000Y-99300000D02*
X147100000Y-99000000D01*
X147800000Y-99000000D02*
X148400000Y-99000000D01*
X146750000Y-100662500D02*
X146750000Y-99350000D01*
X146750000Y-99350000D02*
X146800000Y-99300000D01*
X147100000Y-99000000D02*
X147800000Y-99000000D01*
D66*
%TO.N,Extra_1*%
X146250000Y-80250000D02*
X146250000Y-79337500D01*
X145700000Y-80800000D02*
X146250000Y-80250000D01*
%TO.N,Extra_4*%
X148750000Y-79337500D02*
X148750000Y-80750000D01*
X148750000Y-80750000D02*
X148700000Y-80800000D01*
D63*
%TO.N,/LipoPower/Recharge_ST1*%
X166950000Y-96250000D02*
X167100000Y-96400000D01*
X164162500Y-96250000D02*
X166950000Y-96250000D01*
X175500000Y-99200000D02*
X176700000Y-99200000D01*
X176700000Y-99200000D02*
X176877000Y-99023000D01*
X176877000Y-99023000D02*
X178284700Y-99023000D01*
D66*
%TO.N,/ExtraPeriphs/button2*%
X142837500Y-81750000D02*
X140750000Y-81750000D01*
X140750000Y-81750000D02*
X135925000Y-76925000D01*
X135925000Y-76925000D02*
X131000000Y-76925000D01*
X131000000Y-75500000D02*
X130500000Y-75000000D01*
X131000000Y-76925000D02*
X131000000Y-75500000D01*
%TO.N,Extra_2*%
X146750000Y-80750000D02*
X146750000Y-79337500D01*
X146500000Y-81000000D02*
X146750000Y-80750000D01*
%TO.N,USART2_RX*%
X155750000Y-79337500D02*
X155750000Y-80250000D01*
X155750000Y-80250000D02*
X155400000Y-80600000D01*
%TO.N,/ExtraPeriphs/button3*%
X137500000Y-83000000D02*
X137500000Y-84900000D01*
X134225000Y-88175000D02*
X131500000Y-88175000D01*
X137500000Y-84900000D02*
X134225000Y-88175000D01*
X130750000Y-87425000D02*
X131500000Y-88175000D01*
X138250000Y-82250000D02*
X137500000Y-83000000D01*
X142837500Y-82250000D02*
X138250000Y-82250000D01*
X130750000Y-86250000D02*
X130750000Y-87425000D01*
D64*
%TO.N,+3.3V*%
X161375000Y-65625000D02*
X162700000Y-65625000D01*
D63*
X152750000Y-102500000D02*
X153900000Y-102500000D01*
D66*
X141000000Y-91000000D02*
X141200000Y-91200000D01*
D63*
X155800000Y-77900000D02*
X155775000Y-77875000D01*
D65*
X144275000Y-75750000D02*
X144025000Y-75500000D01*
D66*
X141250000Y-83750000D02*
X141200000Y-83700000D01*
D67*
X166000000Y-82725000D02*
X167175000Y-82725000D01*
D64*
X166000000Y-92500000D02*
X166000000Y-91500000D01*
X157750000Y-102500000D02*
X159000000Y-102500000D01*
D63*
X156250000Y-78650000D02*
X155800000Y-78200000D01*
D64*
X160621450Y-67064901D02*
X160621450Y-66378550D01*
D67*
X172900000Y-109200000D02*
X172900000Y-111500000D01*
X166700000Y-79050000D02*
X165750000Y-80000000D01*
D66*
X142837500Y-83750000D02*
X141250000Y-83750000D01*
D67*
X165525000Y-82250000D02*
X166000000Y-82725000D01*
D63*
X145750000Y-101450000D02*
X145750000Y-100662500D01*
X140750000Y-70000000D02*
X140750000Y-70250000D01*
X155775000Y-77875000D02*
X155775000Y-77250000D01*
D64*
X162700000Y-65625000D02*
X164075000Y-65625000D01*
D67*
X164162500Y-87750000D02*
X165275000Y-87750000D01*
D64*
X166000000Y-91500000D02*
X166200000Y-91300000D01*
D62*
X146250000Y-103450000D02*
X146000000Y-103700000D01*
D63*
X150300000Y-76350000D02*
X150775000Y-76825000D01*
X141000000Y-98250000D02*
X142000000Y-97250000D01*
D67*
X165250000Y-93250000D02*
X166000000Y-92500000D01*
D64*
X163000000Y-102500000D02*
X164200000Y-102500000D01*
D63*
X162887500Y-101300000D02*
X162900000Y-101300000D01*
X162900000Y-101300000D02*
X163000000Y-101400000D01*
X142000000Y-97250000D02*
X142837500Y-97250000D01*
X150775000Y-78175000D02*
X150775000Y-77500000D01*
D67*
X176500000Y-120100000D02*
X178200000Y-120100000D01*
D62*
X158700000Y-60500000D02*
X158700000Y-61900000D01*
D63*
X155775000Y-75675000D02*
X155775000Y-77250000D01*
D62*
X158700000Y-61900000D02*
X158500000Y-62100000D01*
D66*
X141000000Y-89975000D02*
X141000000Y-91000000D01*
D63*
X144750000Y-77975000D02*
X144275000Y-77500000D01*
X141000000Y-96725000D02*
X142812500Y-96725000D01*
X157750000Y-101950000D02*
X157750000Y-102500000D01*
X163000000Y-101400000D02*
X163000000Y-102500000D01*
D65*
X144025000Y-74425000D02*
X143600000Y-74000000D01*
D63*
X144750000Y-79337500D02*
X144750000Y-77975000D01*
D67*
X167175000Y-82725000D02*
X167200000Y-82700000D01*
D63*
X162250000Y-100662500D02*
X162887500Y-101300000D01*
X155800000Y-75650000D02*
X155775000Y-75675000D01*
D67*
X164162500Y-93250000D02*
X165250000Y-93250000D01*
D63*
X141000000Y-89975000D02*
X141725000Y-89250000D01*
X151250000Y-78650000D02*
X150775000Y-78175000D01*
X146250000Y-101950000D02*
X145750000Y-101450000D01*
D67*
X174300000Y-115960000D02*
X174300000Y-117900000D01*
X172900000Y-111500000D02*
X173660000Y-112260000D01*
D63*
X140750000Y-70250000D02*
X142400000Y-71900000D01*
D65*
X144025000Y-75500000D02*
X144025000Y-74425000D01*
D67*
X173660000Y-112260000D02*
X174300000Y-112260000D01*
D63*
X152250000Y-100662500D02*
X152250000Y-101450000D01*
X141725000Y-89250000D02*
X142837500Y-89250000D01*
D67*
X165750000Y-80000000D02*
X164500000Y-80000000D01*
X172900000Y-109200000D02*
X174200000Y-109200000D01*
D63*
X139250000Y-104750000D02*
X139050000Y-104750000D01*
D62*
X166000000Y-87025000D02*
X166975000Y-87025000D01*
D67*
X174300000Y-117900000D02*
X176500000Y-120100000D01*
D63*
X151250000Y-79337500D02*
X151250000Y-78650000D01*
D67*
X164162500Y-81250000D02*
X164162500Y-80337500D01*
D63*
X139050000Y-104750000D02*
X137900000Y-103600000D01*
D62*
X139875000Y-96725000D02*
X139800000Y-96800000D01*
D63*
X157250000Y-100662500D02*
X157250000Y-101450000D01*
D67*
X165275000Y-87750000D02*
X166000000Y-87025000D01*
D62*
X146250000Y-102500000D02*
X146250000Y-103450000D01*
X166975000Y-87025000D02*
X167200000Y-86800000D01*
D64*
X164075000Y-65625000D02*
X164100000Y-65600000D01*
D63*
X142812500Y-96725000D02*
X142837500Y-96750000D01*
X157250000Y-101450000D02*
X157750000Y-101950000D01*
X152250000Y-101450000D02*
X152750000Y-101950000D01*
D67*
X164162500Y-80337500D02*
X164500000Y-80000000D01*
D63*
X153900000Y-102500000D02*
X154000000Y-102600000D01*
D64*
X160621450Y-66378550D02*
X161375000Y-65625000D01*
D65*
X144275000Y-77500000D02*
X144275000Y-75750000D01*
D63*
X146250000Y-102500000D02*
X146250000Y-101950000D01*
X152750000Y-101950000D02*
X152750000Y-102500000D01*
X150775000Y-76825000D02*
X150775000Y-77500000D01*
D67*
X164162500Y-82250000D02*
X165525000Y-82250000D01*
D62*
X141000000Y-96725000D02*
X139875000Y-96725000D01*
D63*
X155800000Y-78200000D02*
X155800000Y-77900000D01*
X156250000Y-79337500D02*
X156250000Y-78650000D01*
D64*
X141000000Y-98250000D02*
X141000000Y-99500000D01*
D66*
%TO.N,/ExtraPeriphs/SD_MOSI*%
X149100000Y-69100000D02*
X150500000Y-67700000D01*
X153750000Y-77100000D02*
X149100000Y-72450000D01*
X153750000Y-79337500D02*
X153750000Y-77100000D01*
X150500000Y-67700000D02*
X150700000Y-67700000D01*
X149100000Y-72450000D02*
X149100000Y-69100000D01*
D63*
%TO.N,/LipoPower/Recharge_PG*%
X178307700Y-97999999D02*
X171699999Y-97999999D01*
X169450000Y-95750000D02*
X164162500Y-95750000D01*
X171699999Y-97999999D02*
X169450000Y-95750000D01*
%TO.N,I2C4_SDA*%
X144700000Y-84800000D02*
X143750000Y-85750000D01*
X143750000Y-85750000D02*
X142837500Y-85750000D01*
X145300000Y-84800000D02*
X144700000Y-84800000D01*
D66*
%TO.N,Extra_5*%
X149250000Y-79337500D02*
X149250000Y-80450000D01*
X149250000Y-80450000D02*
X149500000Y-80700000D01*
D63*
%TO.N,V_Batt*%
X180700000Y-110700000D02*
X181800000Y-110700000D01*
D67*
X183700001Y-100000001D02*
X184600000Y-100900000D01*
X181300000Y-102500000D02*
X182200000Y-102500000D01*
D62*
X184100000Y-102500000D02*
X182200000Y-102500000D01*
X184800000Y-103200000D02*
X184100000Y-102500000D01*
D63*
X181800000Y-110700000D02*
X182200000Y-110300000D01*
D62*
X184300000Y-108100000D02*
X183300000Y-109100000D01*
D67*
X181200001Y-100892300D02*
X181200001Y-102399999D01*
D62*
X184800000Y-103200000D02*
X184200000Y-103200000D01*
D67*
X182092300Y-100000001D02*
X183700001Y-100000001D01*
X181200001Y-102399999D02*
X181200000Y-102400000D01*
D62*
X183300000Y-109100000D02*
X182200000Y-109100000D01*
D67*
X181200000Y-102400000D02*
X181300000Y-102500000D01*
X180699999Y-102399999D02*
X180800000Y-102500000D01*
X180699999Y-100892300D02*
X180699999Y-102399999D01*
X184600000Y-103000000D02*
X184800000Y-103200000D01*
D63*
X180000000Y-111400000D02*
X180700000Y-110700000D01*
X180000000Y-111960000D02*
X180000000Y-111400000D01*
X182200000Y-110300000D02*
X182200000Y-109100000D01*
D67*
X180800000Y-102500000D02*
X182200000Y-102500000D01*
X184600000Y-100900000D02*
X184600000Y-103000000D01*
D70*
%TO.N,VBUS*%
X191900000Y-84500000D02*
X191900000Y-86859999D01*
D67*
X182092300Y-98500001D02*
X183500001Y-98500001D01*
D63*
X175800000Y-100100000D02*
X176050000Y-100350000D01*
D62*
X187100000Y-93700000D02*
X182500000Y-89100000D01*
D65*
X188460000Y-88700000D02*
X188510000Y-88750000D01*
D70*
X190009999Y-88750000D02*
X188510000Y-88750000D01*
D67*
X183800000Y-99000000D02*
X183900000Y-98900000D01*
X182500000Y-88700000D02*
X180699999Y-90500001D01*
D70*
X191900000Y-86859999D02*
X190009999Y-88750000D01*
D62*
X186070000Y-95630000D02*
X186102376Y-95630000D01*
D70*
X190400000Y-83000000D02*
X191900000Y-84500000D01*
D67*
X182092300Y-99499999D02*
X183300001Y-99499999D01*
D62*
X183900000Y-98900000D02*
X183900000Y-97800000D01*
D67*
X183300001Y-99499999D02*
X183900000Y-98900000D01*
D63*
X176000000Y-82601800D02*
X176000000Y-82200000D01*
X176000000Y-82200000D02*
X176750000Y-81450000D01*
D70*
X186950000Y-88750000D02*
X188510000Y-88750000D01*
D63*
X176824100Y-83425900D02*
X176824100Y-81524100D01*
D67*
X180800000Y-86000000D02*
X181200000Y-86400000D01*
D63*
X177250001Y-99499999D02*
X178307700Y-99499999D01*
D70*
X176750000Y-78250000D02*
X183250000Y-78250000D01*
D67*
X180699999Y-90500001D02*
X180699999Y-97107700D01*
D65*
X176750000Y-80500000D02*
X176750000Y-78250000D01*
D70*
X184600000Y-80600000D02*
X186100000Y-82100000D01*
D62*
X186102376Y-95630000D02*
X187100000Y-94632376D01*
D70*
X186100000Y-82700000D02*
X186400000Y-83000000D01*
D63*
X176824100Y-81524100D02*
X176750000Y-81450000D01*
D62*
X187100000Y-94632376D02*
X187100000Y-93700000D01*
X182500000Y-89100000D02*
X182500000Y-88700000D01*
D63*
X176400000Y-100350000D02*
X177250001Y-99499999D01*
X176050000Y-100350000D02*
X176400000Y-100350000D01*
D67*
X180062500Y-86000000D02*
X180800000Y-86000000D01*
D70*
X186400000Y-83000000D02*
X190400000Y-83000000D01*
D65*
X182500000Y-88700000D02*
X188460000Y-88700000D01*
D70*
X183250000Y-78250000D02*
X184600000Y-79600000D01*
D63*
X176750000Y-81450000D02*
X176750000Y-80500000D01*
D70*
X184600000Y-79600000D02*
X184600000Y-80600000D01*
D67*
X182092300Y-99000000D02*
X183800000Y-99000000D01*
D62*
X183900000Y-97800000D02*
X186070000Y-95630000D01*
D67*
X183500001Y-98500001D02*
X183900000Y-98900000D01*
D70*
X186100000Y-82100000D02*
X186100000Y-82700000D01*
D63*
%TO.N,/LipoPower/Recharge_ST2*%
X165550000Y-96750000D02*
X164162500Y-96750000D01*
X167300001Y-98500001D02*
X165550000Y-96750000D01*
X178307700Y-98500001D02*
X167300001Y-98500001D01*
D68*
%TO.N,/LipoPower/Monitor_GPOUT*%
X163050000Y-95250000D02*
X164162500Y-95250000D01*
D63*
X177600000Y-110800000D02*
X176500000Y-110800000D01*
D68*
X170100000Y-113100000D02*
X170700000Y-113700000D01*
X176200000Y-113700000D02*
X176300000Y-113600000D01*
D63*
X176300000Y-111000000D02*
X176300000Y-112260000D01*
X178000000Y-111960000D02*
X178000000Y-111200000D01*
D68*
X176300000Y-113600000D02*
X176300000Y-112260000D01*
D63*
X176500000Y-110800000D02*
X176300000Y-111000000D01*
D68*
X170700000Y-113700000D02*
X176200000Y-113700000D01*
D63*
X178000000Y-111200000D02*
X177600000Y-110800000D01*
D68*
X162400000Y-95900000D02*
X163050000Y-95250000D01*
D67*
%TO.N,Net-(U5-V_{DD})*%
X179600000Y-115760000D02*
X179600000Y-117160000D01*
X179600000Y-117160000D02*
X180400000Y-117960000D01*
D63*
%TO.N,BATTERY_IN*%
X181140000Y-115760000D02*
X180005000Y-115760000D01*
D64*
X180900000Y-107500000D02*
X180200000Y-108200000D01*
X180200000Y-108200000D02*
X180200000Y-109100000D01*
X183800000Y-105500000D02*
X181800000Y-107500000D01*
X188200000Y-105500000D02*
X183800000Y-105500000D01*
D63*
X179600000Y-111000000D02*
X180200000Y-110400000D01*
D64*
X188200000Y-105500000D02*
X188200000Y-107580905D01*
X181800000Y-107500000D02*
X180900000Y-107500000D01*
X188200000Y-107580905D02*
X181600000Y-114180905D01*
D63*
X179600000Y-111960000D02*
X179600000Y-111000000D01*
X181600000Y-115300000D02*
X181140000Y-115760000D01*
X180200000Y-110400000D02*
X180200000Y-109100000D01*
D64*
X181600000Y-114180905D02*
X181600000Y-115300000D01*
D66*
%TO.N,/ExtraPeriphs/SD_SCK*%
X154750000Y-79337500D02*
X154750000Y-74150000D01*
X154750000Y-74150000D02*
X150500000Y-69900000D01*
%TO.N,SCK_LLS*%
X158900000Y-63400000D02*
X159800000Y-62500000D01*
X156785100Y-70314900D02*
X158900000Y-68200000D01*
X154715950Y-70314900D02*
X156785100Y-70314900D01*
X159800000Y-62500000D02*
X159800000Y-60500000D01*
X158900000Y-68200000D02*
X158900000Y-63400000D01*
%TO.N,DI_LLS*%
X157800000Y-60700000D02*
X157600000Y-60500000D01*
X154715950Y-68364901D02*
X156835099Y-68364901D01*
X157800000Y-67400000D02*
X157800000Y-60700000D01*
X156835099Y-68364901D02*
X157800000Y-67400000D01*
D63*
%TO.N,SPI2_NSS*%
X160700000Y-81100000D02*
X160700000Y-81098037D01*
X160700000Y-81098037D02*
X159750000Y-80148037D01*
X161000000Y-81400000D02*
X160700000Y-81100000D01*
X161100000Y-81400000D02*
X161000000Y-81400000D01*
X159750000Y-80148037D02*
X159750000Y-79337500D01*
%TO.N,SPI2_MOSI*%
X157750000Y-79337500D02*
X157750000Y-80550000D01*
X157750000Y-80550000D02*
X157900000Y-80700000D01*
%TO.N,SPI2_MISO*%
X158250000Y-80150000D02*
X158250000Y-79337500D01*
X158660000Y-81674386D02*
X158660000Y-80560000D01*
X158660000Y-80560000D02*
X158250000Y-80150000D01*
%TO.N,SPI2_SCK*%
X159600000Y-82300000D02*
X159250000Y-81950000D01*
X159250000Y-81950000D02*
X159250000Y-79337500D01*
%TO.N,/LipoPower/Monitor_SDA*%
X176400000Y-117100000D02*
X177000000Y-117100000D01*
X176300000Y-115960000D02*
X176300000Y-117000000D01*
X177000000Y-117100000D02*
X178000000Y-116100000D01*
X178000000Y-116100000D02*
X178000000Y-115760000D01*
D68*
X163425001Y-94250000D02*
X164162500Y-94250000D01*
X162775001Y-93600000D02*
X163425001Y-94250000D01*
X173050000Y-114400000D02*
X175800000Y-114400000D01*
X176300000Y-114900000D02*
X176300000Y-115960000D01*
X162200000Y-93600000D02*
X162775001Y-93600000D01*
X175800000Y-114400000D02*
X176300000Y-114900000D01*
D63*
X176300000Y-117000000D02*
X176400000Y-117100000D01*
D68*
%TO.N,/LipoPower/Monitor_SCL*%
X164112500Y-94800000D02*
X164162500Y-94750000D01*
X162197557Y-94700000D02*
X162247557Y-94750000D01*
X175700000Y-118100000D02*
X178200000Y-118100000D01*
D63*
X178400000Y-115760000D02*
X178400000Y-116479756D01*
X178200000Y-116679756D02*
X178200000Y-118100000D01*
D68*
X162247557Y-94750000D02*
X164162500Y-94750000D01*
D63*
X178400000Y-116479756D02*
X178200000Y-116679756D01*
D69*
X178400000Y-117900000D02*
X178200000Y-118100000D01*
D66*
%TO.N,/ExtraPeriphs/switch*%
X138300000Y-85700000D02*
X138300000Y-83600000D01*
X132800000Y-101025000D02*
X132800000Y-99275000D01*
X132550000Y-99025000D02*
X132975000Y-99025000D01*
X132800000Y-99275000D02*
X132550000Y-99025000D01*
X139150000Y-82750000D02*
X142837500Y-82750000D01*
X138300000Y-83600000D02*
X139150000Y-82750000D01*
X134300000Y-89700000D02*
X138300000Y-85700000D01*
X132975000Y-99025000D02*
X134300000Y-97700000D01*
X134300000Y-97700000D02*
X134300000Y-89700000D01*
D63*
%TO.N,Net-(U2-PH0)*%
X135800000Y-91600000D02*
X138375000Y-91600000D01*
X138375000Y-91600000D02*
X138400000Y-91575000D01*
X138400000Y-91575000D02*
X140075000Y-91575000D01*
X140750000Y-92250000D02*
X142837500Y-92250000D01*
X140075000Y-91575000D02*
X140750000Y-92250000D01*
%TO.N,Net-(U2-PH1)*%
X137375000Y-92800000D02*
X138000000Y-93425000D01*
X138000000Y-93425000D02*
X140375000Y-93425000D01*
X140375000Y-93425000D02*
X141050000Y-92750000D01*
X135800000Y-92800000D02*
X137375000Y-92800000D01*
X141050000Y-92750000D02*
X142837500Y-92750000D01*
D66*
%TO.N,Net-(D4-K)*%
X128750000Y-63750000D02*
X128750000Y-65675000D01*
X128750000Y-63750000D02*
X128750000Y-62650000D01*
X129300000Y-62100000D02*
X131100000Y-62100000D01*
X128750000Y-62650000D02*
X129300000Y-62100000D01*
X131100000Y-62100000D02*
X132000000Y-61200000D01*
X128750000Y-65675000D02*
X129000000Y-65925000D01*
X132000000Y-61200000D02*
X132000000Y-60000000D01*
%TO.N,Net-(D4-A)*%
X124750000Y-60370000D02*
X124380000Y-60000000D01*
X124700000Y-65800000D02*
X124750000Y-65750000D01*
X120900000Y-65800000D02*
X124700000Y-65800000D01*
X124750000Y-65750000D02*
X124750000Y-60370000D01*
D63*
%TO.N,Net-(SWBOOT1-B)*%
X142975000Y-68500000D02*
X143000000Y-68475000D01*
X140750000Y-68500000D02*
X142975000Y-68500000D01*
%TO.N,Net-(U2-PH3)*%
X148250000Y-79337500D02*
X148250000Y-72850000D01*
X145700000Y-70300000D02*
X143000000Y-70300000D01*
X148250000Y-72850000D02*
X145700000Y-70300000D01*
D71*
%TO.N,/USB-UART/USB_D+*%
X188510000Y-84250000D02*
X185150000Y-84250000D01*
X179100000Y-85800000D02*
X178200900Y-84900900D01*
X184950000Y-86950000D02*
X182337500Y-86950000D01*
X177573001Y-84900900D02*
X177548001Y-84925900D01*
X178200900Y-84900900D02*
X177573001Y-84900900D01*
X179200000Y-86950000D02*
X179100000Y-86850000D01*
X177548001Y-84925900D02*
X176824100Y-84925900D01*
X185150000Y-84250000D02*
X185100000Y-84200000D01*
X179100000Y-86850000D02*
X179100000Y-85800000D01*
X182337500Y-86950000D02*
X180062500Y-86950000D01*
X180062500Y-86950000D02*
X179200000Y-86950000D01*
X185000000Y-86900000D02*
X184950000Y-86950000D01*
%TO.N,/USB-UART/USB_D-*%
X177573001Y-84450901D02*
X178199798Y-84450901D01*
X182337500Y-85050000D02*
X180062500Y-85050000D01*
X178199798Y-84450901D02*
X178798897Y-85050000D01*
X188510000Y-86250000D02*
X185250000Y-86250000D01*
X178798897Y-85050000D02*
X180062500Y-85050000D01*
X176824100Y-84425901D02*
X177548001Y-84425901D01*
X184050000Y-85050000D02*
X182337500Y-85050000D01*
X177548001Y-84425901D02*
X177573001Y-84450901D01*
X185250000Y-86250000D02*
X184050000Y-85050000D01*
D66*
%TO.N,Net-(U8-VDD)*%
X176824100Y-83925899D02*
X178574101Y-83925899D01*
X178574101Y-83925899D02*
X179250000Y-83250000D01*
D62*
X179250000Y-83250000D02*
X179250000Y-81000000D01*
D66*
%TO.N,Net-(D5-K)*%
X129910000Y-73900000D02*
X128900000Y-73900000D01*
X128750000Y-77000000D02*
X128750000Y-75250000D01*
X128900000Y-73900000D02*
X128500000Y-74300000D01*
X131560000Y-72250000D02*
X129910000Y-73900000D01*
X128500000Y-74300000D02*
X128500000Y-75000000D01*
X128750000Y-75250000D02*
X128500000Y-75000000D01*
%TO.N,Net-(D6-K)*%
X128750000Y-88175000D02*
X128750000Y-86250000D01*
X128750000Y-85450000D02*
X129200000Y-85000000D01*
X131600000Y-85000000D02*
X131750000Y-84850000D01*
X131750000Y-84850000D02*
X131750000Y-83500000D01*
X128750000Y-86250000D02*
X128750000Y-85450000D01*
X129200000Y-85000000D02*
X131600000Y-85000000D01*
%TO.N,Net-(D7-K)*%
X130550000Y-98550000D02*
X132030499Y-97069501D01*
X130550000Y-100950000D02*
X130550000Y-99025000D01*
X132030499Y-97069501D02*
X132030499Y-96400000D01*
X130550000Y-99025000D02*
X130550000Y-98550000D01*
%TO.N,Net-(D5-A)*%
X123940000Y-72250000D02*
X123940000Y-76190000D01*
X120900000Y-77000000D02*
X124750000Y-77000000D01*
X123940000Y-76190000D02*
X124750000Y-77000000D01*
%TO.N,Net-(D6-A)*%
X125000000Y-84370000D02*
X124130000Y-83500000D01*
X121000000Y-88100000D02*
X124850000Y-88100000D01*
X125000000Y-88250000D02*
X125000000Y-84370000D01*
X124850000Y-88100000D02*
X125000000Y-88250000D01*
%TO.N,Net-(D7-A)*%
X124700000Y-96689501D02*
X124410499Y-96400000D01*
X121100000Y-100000000D02*
X124600000Y-100000000D01*
X124700000Y-100100000D02*
X124700000Y-96689501D01*
X124600000Y-100000000D02*
X124700000Y-100100000D01*
%TO.N,CS_LLS*%
X160621450Y-70964901D02*
X159164901Y-70964901D01*
X155700000Y-63700000D02*
X156500000Y-62900000D01*
X159164901Y-70964901D02*
X159000000Y-70800000D01*
X156600000Y-60600000D02*
X156500000Y-60500000D01*
X156500000Y-62900000D02*
X156500000Y-60500000D01*
D67*
%TO.N,Net-(U6-PROG2)*%
X179700001Y-94500001D02*
X178800000Y-93600000D01*
X179700001Y-94500001D02*
X179700001Y-97107700D01*
X178800000Y-93600000D02*
X177700000Y-93600000D01*
%TO.N,Net-(U6-THERM)*%
X179199999Y-95799999D02*
X179000000Y-95600000D01*
X179000000Y-95600000D02*
X177700000Y-95600000D01*
X179199999Y-97107700D02*
X179199999Y-95799999D01*
D63*
%TO.N,Net-(U6-PROG1)*%
X179600000Y-102400000D02*
X179600000Y-103100000D01*
X180200000Y-101800000D02*
X179600000Y-102400000D01*
X180200000Y-100892300D02*
X180200000Y-101800000D01*
%TO.N,Net-(U6-PROG3)*%
X179300000Y-102100000D02*
X177800000Y-102100000D01*
X177800000Y-102100000D02*
X177600000Y-102300000D01*
X177600000Y-102300000D02*
X177600000Y-103100000D01*
X179700001Y-101699999D02*
X179300000Y-102100000D01*
X179700001Y-100892300D02*
X179700001Y-101699999D01*
D66*
%TO.N,Net-(U9-2A)*%
X154715950Y-69664899D02*
X152735101Y-69664899D01*
X152735101Y-69664899D02*
X152500000Y-69900000D01*
%TO.N,Net-(U9-4A)*%
X162000000Y-68900000D02*
X165000000Y-68900000D01*
X160621450Y-68364901D02*
X161464901Y-68364901D01*
X161464901Y-68364901D02*
X162000000Y-68900000D01*
%TO.N,Net-(U9-3A)*%
X161914900Y-70314900D02*
X162700000Y-71100000D01*
X160621450Y-70314900D02*
X161914900Y-70314900D01*
%TO.N,Net-(U9-1A)*%
X154701050Y-67700000D02*
X154715950Y-67714900D01*
X152700000Y-67700000D02*
X154701050Y-67700000D01*
D63*
%TO.N,Net-(U5-BIN)*%
X178800000Y-111960000D02*
X178800000Y-110900000D01*
X178800000Y-110900000D02*
X177100000Y-109200000D01*
X177100000Y-109200000D02*
X176200000Y-109200000D01*
D66*
%TO.N,DO_LLS*%
X162000000Y-62700000D02*
X163600000Y-64300000D01*
X163600000Y-64300000D02*
X165300000Y-64300000D01*
X167000000Y-66000000D02*
X167000000Y-68900000D01*
X162000000Y-60500000D02*
X162000000Y-62700000D01*
X165300000Y-64300000D02*
X167000000Y-66000000D01*
D64*
%TO.N,Net-(U10-L2)*%
X163624998Y-115724998D02*
X162475001Y-115724998D01*
X167153700Y-116792400D02*
X164692400Y-116792400D01*
X164692400Y-116792400D02*
X163624998Y-115724998D01*
%TO.N,Net-(U10-L1)*%
X167153700Y-114100000D02*
X164200000Y-114100000D01*
X163575000Y-114725000D02*
X162475001Y-114725000D01*
X164200000Y-114100000D02*
X163575000Y-114725000D01*
D66*
%TO.N,Net-(U10-FB)*%
X159850000Y-116750000D02*
X158500000Y-116750000D01*
X160375000Y-116225000D02*
X159850000Y-116750000D01*
X160824999Y-116225000D02*
X160375000Y-116225000D01*
X157900000Y-116150000D02*
X157900000Y-118000000D01*
X158500000Y-116750000D02*
X157900000Y-116150000D01*
D67*
%TO.N,Net-(U10-PG)*%
X160824999Y-115724998D02*
X159925002Y-115724998D01*
X156250000Y-111850000D02*
X156250000Y-110000000D01*
X159925002Y-115724998D02*
X159650000Y-116000000D01*
%TD*%
%TA.AperFunction,Conductor*%
%TO.N,GND*%
G36*
X161794161Y-111319685D02*
G01*
X161839916Y-111372489D01*
X161851117Y-111422873D01*
X161872500Y-113775032D01*
X161853426Y-113842247D01*
X161836187Y-113863840D01*
X161772793Y-113927233D01*
X161727415Y-114030004D01*
X161727415Y-114030006D01*
X161724500Y-114055129D01*
X161724500Y-114394854D01*
X161724502Y-114394880D01*
X161727413Y-114419983D01*
X161727415Y-114419990D01*
X161729591Y-114424918D01*
X161738659Y-114494197D01*
X161729591Y-114525078D01*
X161727416Y-114530002D01*
X161727415Y-114530008D01*
X161724500Y-114555131D01*
X161724500Y-114894856D01*
X161724502Y-114894882D01*
X161727413Y-114919987D01*
X161727415Y-114919991D01*
X161772793Y-115022764D01*
X161849008Y-115098979D01*
X161882493Y-115160302D01*
X161885322Y-115185534D01*
X161886012Y-115261521D01*
X161866937Y-115328737D01*
X161849699Y-115350328D01*
X161772793Y-115427234D01*
X161727415Y-115530004D01*
X161727415Y-115530006D01*
X161724500Y-115555129D01*
X161724500Y-115894854D01*
X161724502Y-115894880D01*
X161727413Y-115919983D01*
X161727415Y-115919990D01*
X161729591Y-115924918D01*
X161738659Y-115994197D01*
X161729591Y-116025078D01*
X161727416Y-116030002D01*
X161727415Y-116030008D01*
X161724500Y-116055131D01*
X161724500Y-116394856D01*
X161724502Y-116394882D01*
X161727413Y-116419987D01*
X161727415Y-116419991D01*
X161772793Y-116522764D01*
X161860360Y-116610331D01*
X161857820Y-116612870D01*
X161889341Y-116651481D01*
X161899077Y-116698530D01*
X161899999Y-116799999D01*
X161900000Y-116800000D01*
X161978666Y-116800000D01*
X162045705Y-116819685D01*
X162091460Y-116872489D01*
X162102637Y-116921305D01*
X162147246Y-118973305D01*
X162129023Y-119040756D01*
X162077226Y-119087648D01*
X162023275Y-119100000D01*
X160421012Y-119100000D01*
X160353973Y-119080315D01*
X160308218Y-119027511D01*
X160297049Y-118979023D01*
X160253098Y-117177023D01*
X160271142Y-117109524D01*
X160322815Y-117062495D01*
X160377061Y-117050000D01*
X161300000Y-117050000D01*
X161300000Y-116651332D01*
X161319685Y-116584293D01*
X161336319Y-116563651D01*
X161377205Y-116522765D01*
X161422584Y-116419991D01*
X161425499Y-116394865D01*
X161425498Y-116055136D01*
X161422584Y-116030009D01*
X161420410Y-116025085D01*
X161411338Y-115955807D01*
X161420409Y-115924914D01*
X161422584Y-115919989D01*
X161425499Y-115894863D01*
X161425498Y-115555134D01*
X161425496Y-115555115D01*
X161422585Y-115530010D01*
X161422584Y-115530008D01*
X161422584Y-115530007D01*
X161377205Y-115427233D01*
X161336319Y-115386347D01*
X161302834Y-115325024D01*
X161300000Y-115298666D01*
X161300000Y-114651330D01*
X161319685Y-114584291D01*
X161336319Y-114563649D01*
X161344837Y-114555131D01*
X161377205Y-114522763D01*
X161422584Y-114419989D01*
X161425499Y-114394863D01*
X161425498Y-114055134D01*
X161425496Y-114055115D01*
X161422585Y-114030010D01*
X161422584Y-114030008D01*
X161422584Y-114030007D01*
X161377205Y-113927233D01*
X161336319Y-113886347D01*
X161302834Y-113825024D01*
X161300000Y-113798666D01*
X161300000Y-113400000D01*
X160274500Y-113400000D01*
X160207461Y-113380315D01*
X160161706Y-113327511D01*
X160150500Y-113276000D01*
X160150500Y-111839060D01*
X160150501Y-111839047D01*
X160150501Y-111670944D01*
X160150501Y-111670943D01*
X160109577Y-111518216D01*
X160090976Y-111485999D01*
X160074504Y-111418100D01*
X160097356Y-111352073D01*
X160152278Y-111308882D01*
X160198364Y-111300000D01*
X161727122Y-111300000D01*
X161794161Y-111319685D01*
G37*
%TD.AperFunction*%
%TD*%
%TA.AperFunction,Conductor*%
%TO.N,+3.3V*%
G36*
X162402526Y-116275498D02*
G01*
X163345611Y-116275498D01*
X163412650Y-116295183D01*
X163433292Y-116311817D01*
X164354385Y-117232910D01*
X164354387Y-117232911D01*
X164354391Y-117232914D01*
X164463871Y-117296122D01*
X164497355Y-117324395D01*
X164849999Y-117749999D01*
X164850000Y-117750000D01*
X169779194Y-117798803D01*
X169846033Y-117819150D01*
X169891263Y-117872405D01*
X169901948Y-117920797D01*
X169947968Y-120774000D01*
X169929367Y-120841348D01*
X169877308Y-120887949D01*
X169823984Y-120900000D01*
X157024000Y-120900000D01*
X156956961Y-120880315D01*
X156911206Y-120827511D01*
X156900000Y-120776000D01*
X156900000Y-119420571D01*
X156919685Y-119353532D01*
X156972489Y-119307777D01*
X157020521Y-119296620D01*
X160004531Y-119212957D01*
X160072092Y-119230754D01*
X160101715Y-119255705D01*
X160123085Y-119280367D01*
X160123103Y-119280387D01*
X160167819Y-119322548D01*
X160167821Y-119322549D01*
X160167825Y-119322553D01*
X160267901Y-119373439D01*
X160334940Y-119393124D01*
X160421012Y-119405500D01*
X160421015Y-119405500D01*
X162023276Y-119405500D01*
X162031797Y-119404536D01*
X162091455Y-119397795D01*
X162145406Y-119385443D01*
X162186599Y-119372898D01*
X162282257Y-119314126D01*
X162334054Y-119267234D01*
X162375250Y-119221594D01*
X162423949Y-119120435D01*
X162442172Y-119052984D01*
X162452674Y-118966665D01*
X162408065Y-116914665D01*
X162400431Y-116853122D01*
X162389254Y-116804306D01*
X162379020Y-116769342D01*
X162322341Y-116672429D01*
X162276586Y-116619625D01*
X162276584Y-116619623D01*
X162276574Y-116619612D01*
X162231858Y-116577451D01*
X162231855Y-116577448D01*
X162231853Y-116577447D01*
X162231850Y-116577445D01*
X162224599Y-116572343D01*
X162225488Y-116571078D01*
X162181862Y-116529948D01*
X162164961Y-116471281D01*
X162164087Y-116443757D01*
X162164928Y-116424901D01*
X162172767Y-116360341D01*
X162200388Y-116296167D01*
X162258322Y-116257110D01*
X162327953Y-116255516D01*
X162402526Y-116275498D01*
G37*
%TD.AperFunction*%
%TD*%
%TA.AperFunction,Conductor*%
%TO.N,V_5V*%
G36*
X169243039Y-110919685D02*
G01*
X169288794Y-110972489D01*
X169300000Y-111024000D01*
X169300000Y-112876000D01*
X169280315Y-112943039D01*
X169227511Y-112988794D01*
X169176000Y-113000000D01*
X164749999Y-113000000D01*
X164106491Y-113542959D01*
X164058623Y-113567961D01*
X163987517Y-113587015D01*
X163987514Y-113587016D01*
X163861986Y-113659489D01*
X163861983Y-113659491D01*
X163383294Y-114138181D01*
X163321971Y-114171666D01*
X163295613Y-114174500D01*
X162402524Y-114174500D01*
X162329674Y-114194020D01*
X162259825Y-114192357D01*
X162201962Y-114153194D01*
X162174459Y-114088965D01*
X162181640Y-114030275D01*
X162211785Y-113950791D01*
X162230094Y-113800000D01*
X162211785Y-113649209D01*
X162183860Y-113575579D01*
X162175808Y-113532740D01*
X162156604Y-111420096D01*
X162149336Y-111356575D01*
X162138135Y-111306191D01*
X162127476Y-111269342D01*
X162070797Y-111172429D01*
X162070795Y-111172427D01*
X162070322Y-111171766D01*
X162070191Y-111171391D01*
X162067903Y-111167479D01*
X162068667Y-111167031D01*
X162047278Y-111105806D01*
X162047133Y-111097780D01*
X162048229Y-111022201D01*
X162068884Y-110955454D01*
X162122346Y-110910470D01*
X162172216Y-110900000D01*
X169176000Y-110900000D01*
X169243039Y-110919685D01*
G37*
%TD.AperFunction*%
%TD*%
M02*
