%TF.GenerationSoftware,KiCad,Pcbnew,8.0.8*%
%TF.CreationDate,2025-03-12T15:40:14-04:00*%
%TF.ProjectId,ECE477-SeniorDesign,45434534-3737-42d5-9365-6e696f724465,rev?*%
%TF.SameCoordinates,Original*%
%TF.FileFunction,Soldermask,Bot*%
%TF.FilePolarity,Negative*%
%FSLAX46Y46*%
G04 Gerber Fmt 4.6, Leading zero omitted, Abs format (unit mm)*
G04 Created by KiCad (PCBNEW 8.0.8) date 2025-03-12 15:40:14*
%MOMM*%
%LPD*%
G01*
G04 APERTURE LIST*
G04 Aperture macros list*
%AMRoundRect*
0 Rectangle with rounded corners*
0 $1 Rounding radius*
0 $2 $3 $4 $5 $6 $7 $8 $9 X,Y pos of 4 corners*
0 Add a 4 corners polygon primitive as box body*
4,1,4,$2,$3,$4,$5,$6,$7,$8,$9,$2,$3,0*
0 Add four circle primitives for the rounded corners*
1,1,$1+$1,$2,$3*
1,1,$1+$1,$4,$5*
1,1,$1+$1,$6,$7*
1,1,$1+$1,$8,$9*
0 Add four rect primitives between the rounded corners*
20,1,$1+$1,$2,$3,$4,$5,0*
20,1,$1+$1,$4,$5,$6,$7,0*
20,1,$1+$1,$6,$7,$8,$9,0*
20,1,$1+$1,$8,$9,$2,$3,0*%
G04 Aperture macros list end*
%ADD10R,1.700000X1.700000*%
%ADD11O,1.700000X1.700000*%
%ADD12RoundRect,0.250000X-0.550000X0.550000X-0.550000X-0.550000X0.550000X-0.550000X0.550000X0.550000X0*%
%ADD13C,1.600000*%
%ADD14R,1.600000X1.600000*%
%ADD15O,1.600000X1.600000*%
%ADD16C,2.100000*%
%ADD17C,0.900000*%
%ADD18O,2.900000X1.200000*%
G04 APERTURE END LIST*
D10*
%TO.C,EinkDispCon1*%
X134240000Y-120600000D03*
D11*
X136780000Y-120600000D03*
X139320000Y-120600000D03*
X141860000Y-120600000D03*
X144400000Y-120600000D03*
X146940000Y-120600000D03*
X149480000Y-120600000D03*
X152020000Y-120600000D03*
%TD*%
D10*
%TO.C,J3*%
X193325000Y-47050000D03*
D11*
X190785000Y-47050000D03*
X188245000Y-47050000D03*
X185705000Y-47050000D03*
X183165000Y-47050000D03*
%TD*%
D10*
%TO.C,J2*%
X144490000Y-47150000D03*
D11*
X141950000Y-47150000D03*
X139410000Y-47150000D03*
X136870000Y-47150000D03*
X134330000Y-47150000D03*
%TD*%
D10*
%TO.C,J1*%
X198650000Y-52720000D03*
D11*
X198650000Y-55260000D03*
X198650000Y-57800000D03*
X198650000Y-60340000D03*
X198650000Y-62880000D03*
%TD*%
D10*
%TO.C,J4*%
X178380000Y-46800000D03*
D11*
X175840000Y-46800000D03*
X173300000Y-46800000D03*
X170760000Y-46800000D03*
X168220000Y-46800000D03*
%TD*%
D12*
%TO.C,J12*%
X116900000Y-97600000D03*
D13*
X116900000Y-101200000D03*
%TD*%
D12*
%TO.C,J10*%
X117350000Y-85350000D03*
D13*
X117350000Y-88950000D03*
%TD*%
D12*
%TO.C,J9*%
X117250000Y-74650000D03*
D13*
X117250000Y-78250000D03*
%TD*%
D12*
%TO.C,J5*%
X117150000Y-63350000D03*
D13*
X117150000Y-66950000D03*
%TD*%
D14*
%TO.C,D4*%
X132000000Y-60000000D03*
D15*
X124380000Y-60000000D03*
%TD*%
D16*
%TO.C,H2*%
X115000000Y-119800000D03*
%TD*%
%TO.C,H4*%
X198200000Y-119700000D03*
%TD*%
D17*
%TO.C,SWBOOT1*%
X138990000Y-66250000D03*
X138990000Y-69250000D03*
%TD*%
D14*
%TO.C,D6*%
X131750000Y-83500000D03*
D15*
X124130000Y-83500000D03*
%TD*%
D14*
%TO.C,D5*%
X131560000Y-72250000D03*
D15*
X123940000Y-72250000D03*
%TD*%
D16*
%TO.C,H1*%
X115000000Y-48000000D03*
%TD*%
D18*
%TO.C,J7*%
X192210000Y-91650000D03*
X192210000Y-78850000D03*
%TD*%
D16*
%TO.C,H3*%
X198200000Y-48000000D03*
%TD*%
D14*
%TO.C,D7*%
X132030499Y-96400000D03*
D15*
X124410499Y-96400000D03*
%TD*%
M02*
